<?xml version="1.0" encoding="UTF-8"?>
<svg xmlns="http://www.w3.org/2000/svg" xmlns:xlink="http://www.w3.org/1999/xlink" width="260.672" height="92.334" viewBox="0 0 260.672 92.334">
  <defs>
    <clipPath id="clip-path">
      <rect id="Rectangle_34" data-name="Rectangle 34" width="260.672" height="92.334" fill="#3c3d3b"></rect>
    </clipPath>
  </defs>
  <g id="icons-plateforme" clip-path="url(#clip-path)">
    <path id="Tracé_515" data-name="Tracé 515" d="M166.515,0H52.9a5.846,5.846,0,0,0-5.846,5.846V83.125H172.361V5.845A5.847,5.847,0,0,0,166.515,0m3.31,81.068H48.9V6.557a4.682,4.682,0,0,1,4.682-4.682h111.56a4.682,4.682,0,0,1,4.682,4.682Z" transform="translate(-37.35 0.001)" fill="#e4e4e4"></path>
    <path id="Tracé_516" data-name="Tracé 516" d="M83.743,410.355v.066a2.128,2.128,0,0,1-2.128,2.128H63.1a2.128,2.128,0,0,1-2.128-2.128v-.066H0v3a4.682,4.682,0,0,0,4.682,4.682H140.034a4.682,4.682,0,0,0,4.682-4.682v-3Z" transform="translate(0 -325.721)" fill="#e4e4e4"></path>
    <path id="Tracé_517" data-name="Tracé 517" d="M794.187,47.969h-54.6a4.385,4.385,0,0,0-4.385,4.385v73.671a4.385,4.385,0,0,0,4.385,4.385h54.6a4.385,4.385,0,0,0,4.384-4.385V52.354a4.385,4.385,0,0,0-4.384-4.385m-27.4,2.452a1.646,1.646,0,1,1-1.646,1.646,1.646,1.646,0,0,1,1.646-1.646M792.4,122.813H741.371V57.176H792.4Z" transform="translate(-583.565 -38.076)" fill="#3c3d3b"></path>
    <path id="Tracé_518" data-name="Tracé 518" d="M1127.926,151.639h-28.721a2.923,2.923,0,0,0-2.923,2.923v55.213a2.923,2.923,0,0,0,2.923,2.923h28.721a2.923,2.923,0,0,0,2.923-2.923V154.562a2.923,2.923,0,0,0-2.923-2.923m-17.2,3.063h5.67a.549.549,0,0,1,0,1.1h-5.67a.549.549,0,0,1,0-1.1m16.827,51.668h-27.983V158.017h27.983Z" transform="translate(-870.177 -120.364)" fill="#3c3d3b"></path>
  </g>
</svg>
