<svg id="Calque_1" data-name="Calque 1" xmlns="http://www.w3.org/2000/svg" xmlns:xlink="http://www.w3.org/1999/xlink" width="84.01" height="84.01" viewBox="0 0 84.01 84.01"><defs><style>.cls-1{fill:none;}.cls-2{fill:#7e807a;}.cls-3{clip-path:url(#clip-path);}.cls-4{fill:#fff;}</style><clipPath id="clip-path" transform="translate(0.01 0.01)"><rect class="cls-1" width="84" height="84"/></clipPath></defs><g id="Groupe_361" data-name="Groupe 361"><path id="Tracé_742" data-name="Tracé 742" class="cls-2" d="M42.28.25A41.71,41.71,0,1,1,.57,42,41.7,41.7,0,0,1,42.28.25Z" transform="translate(0.01 0.01)"/><g id="Groupe_335" data-name="Groupe 335"><g class="cls-3"><g id="Groupe_334" data-name="Groupe 334"><path id="Tracé_667" data-name="Tracé 667" class="cls-4" d="M11.25,23.63l4.12,1.69,1.33-3.27-4.12-1.69a1.65,1.65,0,0,0-2.14.9l-.09.22a1.65,1.65,0,0,0,.9,2.14" transform="translate(0.01 0.01)"/><path id="Tracé_668" data-name="Tracé 668" class="cls-4" d="M29.15,66.68a2.58,2.58,0,1,1,2.57,2.6,2.58,2.58,0,0,1-2.57-2.6v0h0" transform="translate(0.01 0.01)"/><path id="Tracé_669" data-name="Tracé 669" class="cls-4" d="M57,66.68a2.58,2.58,0,1,1,2.57,2.6A2.57,2.57,0,0,1,57,66.68v0h0" transform="translate(0.01 0.01)"/><path id="Tracé_670" data-name="Tracé 670" class="cls-4" d="M63.43,64.9H26.81a.18.18,0,0,1-.19-.18.15.15,0,0,1,0-.13L33.45,57h0l8.27-1.13a.73.73,0,0,0,.63-.82h0a.73.73,0,0,0-.83-.63h0l-8.27,1.13-.26,0a.69.69,0,0,0-.43.22L25.3,63.93A1.54,1.54,0,0,0,24.84,65c0,1.09,1,1.36,1.84,1.36h36.8a.73.73,0,0,0,.74-.72h0v-.06a.76.76,0,0,0-.79-.67" transform="translate(0.01 0.01)"/><path id="Tracé_671" data-name="Tracé 671" class="cls-4" d="M25.91,30.83,36.5,54.65l.51-.28L26.57,30.86Z" transform="translate(0.01 0.01)"/><path id="Tracé_672" data-name="Tracé 672" class="cls-4" d="M30,30.83,39.35,54.1l.52-.29-9.17-23Z" transform="translate(0.01 0.01)"/><path id="Tracé_673" data-name="Tracé 673" class="cls-4" d="M34.35,31.12l7.9,22.56.51-.28L35,31.14Z" transform="translate(0.01 0.01)"/><path id="Tracé_674" data-name="Tracé 674" class="cls-4" d="M38.56,31.48,44.93,53.4l.51-.28L39.21,31.49Z" transform="translate(0.01 0.01)"/><path id="Tracé_675" data-name="Tracé 675" class="cls-4" d="M42.37,31.48l5.5,21.57.51-.29L43,31.5Z" transform="translate(0.01 0.01)"/><path id="Tracé_676" data-name="Tracé 676" class="cls-4" d="M46.51,31.93,51.2,52.68l.51-.28L47.16,32Z" transform="translate(0.01 0.01)"/><path id="Tracé_677" data-name="Tracé 677" class="cls-4" d="M50.41,32.09l3.84,20.08.51-.28L51.08,32.11Z" transform="translate(0.01 0.01)"/><path id="Tracé_678" data-name="Tracé 678" class="cls-4" d="M54.52,32.66,57,51.93l.52-.29L55.19,32.7Z" transform="translate(0.01 0.01)"/><path id="Tracé_679" data-name="Tracé 679" class="cls-4" d="M58.55,32.79,60,51.46l.51-.28L59.2,32.81Z" transform="translate(0.01 0.01)"/><path id="Tracé_680" data-name="Tracé 680" class="cls-4" d="M62.52,33.11,63,51l.52-.28-.33-17.51Z" transform="translate(0.01 0.01)"/><path id="Tracé_681" data-name="Tracé 681" class="cls-4" d="M20.11,25.21a1.52,1.52,0,0,0-.67-.7l-4.33-2.27a.3.3,0,0,0-.39.12h0a.28.28,0,0,0,.13.39l4.49,2.36a.3.3,0,0,1,.12.13L33.4,54.8a.28.28,0,0,0,.38.14h0a.28.28,0,0,0,.12-.37Z" transform="translate(0.01 0.01)"/><path id="Tracé_682" data-name="Tracé 682" class="cls-4" d="M24.14,40.18H23.5l3.78,8.55.58,0Z" transform="translate(0.01 0.01)"/><path id="Tracé_683" data-name="Tracé 683" class="cls-2" d="M65.93,50.4h0" transform="translate(0.01 0.01)"/><path id="Tracé_684" data-name="Tracé 684" class="cls-4" d="M65.92,50.38a.33.33,0,0,0-.11-.21h0l-.07,0a.28.28,0,0,0-.13,0H65.5l0,.61a.64.64,0,0,0,.51-.36" transform="translate(0.01 0.01)"/><path id="Tracé_685" data-name="Tracé 685" class="cls-4" d="M66.45,40.18l.06-.59H23.88l.26.59Z" transform="translate(0.01 0.01)"/><path id="Tracé_686" data-name="Tracé 686" class="cls-4" d="M23.88,39.59h-.65l.27.59h.64Z" transform="translate(0.01 0.01)"/><path id="Tracé_687" data-name="Tracé 687" class="cls-4" d="M28.1,49.27l37.75-2.94.06-.61-38.06,3Z" transform="translate(0.01 0.01)"/><path id="Tracé_688" data-name="Tracé 688" class="cls-2" d="M65.42,50.73l.25,0a.29.29,0,0,0,.26-.29h0a.65.65,0,0,1-.52.35" transform="translate(0.01 0.01)"/><path id="Tracé_689" data-name="Tracé 689" class="cls-2" d="M65.81,50.17a.33.33,0,0,1,.11.21.27.27,0,0,0-.11-.21" transform="translate(0.01 0.01)"/><path id="Tracé_690" data-name="Tracé 690" class="cls-2" d="M65.71,50.11l.08,0-.08,0" transform="translate(0.01 0.01)"/><path id="Tracé_691" data-name="Tracé 691" class="cls-4" d="M30.85,55a.28.28,0,0,1-.31-.18l-2.43-5.55-.58,0,2.58,5.79.16.36a.29.29,0,0,0,.31.17l.31,0,34.54-4.87.06-.61Z" transform="translate(0.01 0.01)"/><path id="Tracé_692" data-name="Tracé 692" class="cls-4" d="M27.86,48.69l-.58,0,.26.58.57,0Z" transform="translate(0.01 0.01)"/><path id="Tracé_693" data-name="Tracé 693" class="cls-4" d="M67.52,32.9h-.35L19.7,30l-2-4.49a1,1,0,0,0-.45-.47l-4.12-2-.25.52,3.89,1.92a.68.68,0,0,1,.32.33L19,30l.28.62,4,9h.65L20,30.66l46.83,2.81a.29.29,0,0,1,.28.31h0l-.55,5.8-.06.6L66,45.72l-.06.61-.38,3.79h.11a.31.31,0,0,1,.21.05h0a.31.31,0,0,1,.11.21.9.9,0,0,0,.06-.22l.42-3.87.06-.61.59-5.5.07-.59.65-6.08,0-.28a.3.3,0,0,0-.26-.33h0Z" transform="translate(0.01 0.01)"/><path id="Tracé_694" data-name="Tracé 694" class="cls-2" d="M42,84A42,42,0,1,1,84,42h0A42.05,42.05,0,0,1,42,84M42,2.39A39.61,39.61,0,1,0,81.61,42,39.61,39.61,0,0,0,42,2.39h0" transform="translate(0.01 0.01)"/></g></g></g></g></svg>