<svg id="Calque_6" data-name="Calque 6" xmlns="http://www.w3.org/2000/svg" xmlns:xlink="http://www.w3.org/1999/xlink" width="84.01" height="84.01" viewBox="0 0 84.01 84.01"><defs><style>.cls-1{fill:none;}.cls-2{fill:#7e807a;}.cls-3{clip-path:url(#clip-path);}.cls-4{fill:#fff;fill-rule:evenodd;}</style><clipPath id="clip-path" transform="translate(0 0.01)"><rect class="cls-1" width="84" height="84"/></clipPath></defs><g id="Groupe_363" data-name="Groupe 363"><path id="Tracé_743" data-name="Tracé 743" class="cls-2" d="M41.82.25A41.71,41.71,0,1,1,.11,42,41.71,41.71,0,0,1,41.82.25Z" transform="translate(0 0.01)"/><g id="Groupe_340" data-name="Groupe 340"><g class="cls-3"><g id="Groupe_339" data-name="Groupe 339"><path id="Tracé_698" data-name="Tracé 698" class="cls-4" d="M33.14,49.42c0,.9-.15,2.49-.26,3.87s-.46,6.05-.51,7.08-.58,7.56-.61,7.89a.71.71,0,0,1-.3.61,2.31,2.31,0,0,1-1,.16c-.6,0-2.17.06-3.33.08H23.62c-1.15,0-2.72-.07-3.32-.11a2.12,2.12,0,0,1-1-.19.66.66,0,0,1-.3-.6c0-.34-.47-6.86-.52-7.9s-.35-5.72-.45-7.09-.19-3-.21-3.87A18.85,18.85,0,0,1,18.13,46c.13-.82.31-1.63.52-2.43.13-.51.23-.77.27-.9a3.12,3.12,0,0,1,.09-.44,4.38,4.38,0,0,0,.18-.52,4.91,4.91,0,0,1,.15-.51,4.22,4.22,0,0,0,.18-.45c.06-.18.06-.32.13-.48a4.07,4.07,0,0,0,.19-.45,3,3,0,0,1,.18-.58,1.36,1.36,0,0,0,.19-.52,1.2,1.2,0,0,1,.16-.47,1.63,1.63,0,0,0,.18-.45,1.31,1.31,0,0,1,.15-.51,1.21,1.21,0,0,0,.19-.52,1,1,0,0,1,.18-.51,1,1,0,0,0,.18-.52.84.84,0,0,1,.19-.51,1.19,1.19,0,0,0,.13-.49.89.89,0,0,1,.15-.42.83.83,0,0,0,.19-.45.88.88,0,0,1,.18-.51.77.77,0,0,0,.14-.44.63.63,0,0,1,.07-.3,1.71,1.71,0,0,0,.09-.3c0-.09,0-.13.06-.15s0,0,0,0-.14,0-.16-.08c0-.25,0-.51,0-.76V29c0-.14,0-.19.08-.22-.07,0-.07,0-.08-.06v-.44a.16.16,0,0,1,.11-.15,4.6,4.6,0,0,1,1-.16c.65-.05,1.64-.06,2.13-.06h.09c.51,0,1.47,0,2.12.09a4,4,0,0,1,1,.17.14.14,0,0,1,.11.16v.43s0,.05-.07.05.07.1.07.23v2.31a5,5,0,0,1,0,.77s-.15.08-.15.08l0,0s0,.07.06.16a.86.86,0,0,0,.09.3A.77.77,0,0,1,29,33a.71.71,0,0,0,.15.44,1.13,1.13,0,0,1,.16.51.94.94,0,0,0,.16.46.63.63,0,0,1,.15.41,1.2,1.2,0,0,0,.14.49.87.87,0,0,1,.17.52,1,1,0,0,0,.17.51,1.07,1.07,0,0,1,.17.52,1,1,0,0,0,.18.51,1.56,1.56,0,0,1,.15.52,1.08,1.08,0,0,0,.17.45,1.16,1.16,0,0,1,.14.47,1.53,1.53,0,0,0,.18.52,4,4,0,0,1,.17.59,4.22,4.22,0,0,0,.18.45c.06.15.07.3.13.47a2.54,2.54,0,0,0,.17.46c.05.18.1.36.14.55a4.65,4.65,0,0,0,.17.49,1.65,1.65,0,0,1,.09.43c0,.14.14.41.26.91a22.52,22.52,0,0,1,.52,2.44,18.7,18.7,0,0,1,.23,3.34" transform="translate(0 0.01)"/><path id="Tracé_699" data-name="Tracé 699" class="cls-4" d="M48.05,14.93a7,7,0,0,0-.36,1.26,33.47,33.47,0,0,0-.33,3.46c-.08,1.26-.41,7-.47,8.31s-.3,6.95-.33,8.19-.14,4.32-.18,5.75-.09,3.52-.1,4.45-.15,5.25-.2,7.25-.12,5.47-.15,6.64a11.46,11.46,0,0,1-.08,1.49.38.38,0,0,1-.08.23l-.11.1.07,3.39,0,0v2.06a1,1,0,0,1-.27.77,3.41,3.41,0,0,1-1.34.47,19.45,19.45,0,0,1-3.49.32H40.4a18.51,18.51,0,0,1-3.49-.24,3.08,3.08,0,0,1-1.35-.44,1,1,0,0,1-.29-.75V65.62l-.05-.05V62.19l-.11-.11a.31.31,0,0,1-.09-.22,14.74,14.74,0,0,1-.11-1.49c-.06-1.17-.21-4.63-.31-6.64s-.34-6.31-.37-7.24-.14-3-.21-4.45-.24-4.5-.3-5.74-.46-6.81-.52-8.17-.55-7-.66-8.31a33.27,33.27,0,0,0-.41-3.44,7.53,7.53,0,0,0-.38-1.25V14c0-.15.07-.19.15-.19l8-.1H40l8-.09c.09,0,.15,0,.15.19v1.1" transform="translate(0 0.01)"/><path id="Tracé_700" data-name="Tracé 700" class="cls-4" d="M56.24,69.11c-1.74,0-3.88-.14-5.15-.24a4.64,4.64,0,0,1-2.3-.59A11.26,11.26,0,0,1,47.4,66a3.51,3.51,0,0,1-.18-1.58c0-.72.08-16.39.08-18.44a27.82,27.82,0,0,1,.35-5.15,20.48,20.48,0,0,1,1.54-4.63,39.77,39.77,0,0,0,2.22-5.15,18.76,18.76,0,0,0,.87-4.45c0-.32,0-.64,0-1a.43.43,0,0,1,.15-.38c0-.52,0-1.47.05-2.58s0-1.61,0-1.82a.83.83,0,0,1,.48-.67,3.92,3.92,0,0,1,1.35-.28V16.85a5.79,5.79,0,0,1-1.3-.34c-.59-.25-.61-.48-.62-.72a.64.64,0,0,1,.52-.67,7.16,7.16,0,0,1,1.39,0c.87,0,1.75,0,2.63,0a18.38,18.38,0,0,1,2-.1c.71,0,1.79,0,2.54.06s2.06.24,2.58.34a7.91,7.91,0,0,1,.81.19s0,.1-.1.43-.26.73-.33.72-.26-.09-.87-.24a10.31,10.31,0,0,0-2.48-.2,13.3,13.3,0,0,0-2.35.33,5.41,5.41,0,0,0-.81.24V19.9l.91.14c.38.07.86.34.9.68S59.9,23,59.92,24a5,5,0,0,1,0,1.34c.14,0,.14.23.14.67a15.63,15.63,0,0,0,.57,4.08,26.74,26.74,0,0,0,1.57,4.07,28.36,28.36,0,0,1,2.48,6.47,28.64,28.64,0,0,1,.42,6.27c0,1.5.06,14.21.06,15.81a22.25,22.25,0,0,1-.1,3.16,9.34,9.34,0,0,1-.92,1.67,2.41,2.41,0,0,1-2.34,1.34c-1.61.13-3.81.33-5.61.32" transform="translate(0 0.01)"/><path id="Tracé_701" data-name="Tracé 701" class="cls-2" d="M42,84A42,42,0,1,1,84,42h0A42.06,42.06,0,0,1,42,84M42,2.39A39.61,39.61,0,1,0,81.6,42h0A39.62,39.62,0,0,0,42,2.39h0" transform="translate(0 0.01)"/></g></g></g></g></svg>