<svg id="admin" xmlns="http://www.w3.org/2000/svg" xmlns:xlink="http://www.w3.org/1999/xlink" width="84.01" height="84.01" viewBox="0 0 84.01 84.01"><defs><style>.cls-1{fill:none;}.cls-2{fill:#7e807a;}.cls-3{fill:#fff;}.cls-4{clip-path:url(#clip-path);}</style><clipPath id="clip-path" transform="translate(0.01 0.01)"><rect class="cls-1" width="84" height="84"/></clipPath></defs><g id="Groupe_362" data-name="Groupe 362"><ellipse id="Ellipse_15" data-name="Ellipse 15" class="cls-2" cx="41.4" cy="42.86" rx="41.32" ry="40.82"/><g id="Groupe_338" data-name="Groupe 338"><path id="Tracé_695" data-name="Tracé 695" class="cls-3" d="M29.65,21.76V69.5H58.84l7.07-6.43V21.76ZM63.88,62.17,58.26,67.3V62.15h5.62Zm0-38.39V60.13H56.24v7.35H31.67V23.78" transform="translate(0.01 0.01)"/><path id="Tracé_696" data-name="Tracé 696" class="cls-3" d="M31.67,64.94,26.91,66.2,15.74,24l31.14-8.24L49,23.8H51.1L48.31,13.23,13.25,22.5,25.46,68.67,31.64,67Z" transform="translate(0.01 0.01)"/><rect id="Rectangle_102" data-name="Rectangle 102" class="cls-3" x="37.64" y="33.32" width="20.63" height="1.22"/><rect id="Rectangle_103" data-name="Rectangle 103" class="cls-3" x="37.64" y="36.42" width="20.63" height="1.22"/><rect id="Rectangle_104" data-name="Rectangle 104" class="cls-3" x="37.64" y="39.51" width="20.63" height="1.22"/><rect id="Rectangle_105" data-name="Rectangle 105" class="cls-3" x="37.64" y="42.61" width="20.63" height="1.22"/><rect id="Rectangle_106" data-name="Rectangle 106" class="cls-3" x="37.64" y="45.7" width="20.63" height="1.22"/><rect id="Rectangle_107" data-name="Rectangle 107" class="cls-3" x="37.64" y="48.8" width="20.63" height="1.22"/><rect id="Rectangle_108" data-name="Rectangle 108" class="cls-3" x="37.64" y="51.89" width="20.63" height="1.22"/><rect id="Rectangle_109" data-name="Rectangle 109" class="cls-3" x="37.64" y="54.99" width="13.47" height="1.22"/><g id="Groupe_337" data-name="Groupe 337"><g class="cls-4"><g id="Groupe_336" data-name="Groupe 336"><path id="Tracé_697" data-name="Tracé 697" class="cls-2" d="M42,84A42,42,0,1,1,84,42h0A42.05,42.05,0,0,1,42,84M42,2.39A39.61,39.61,0,1,0,81.6,42h0A39.62,39.62,0,0,0,42,2.39" transform="translate(0.01 0.01)"/></g></g></g></g></g></svg>