<svg id="Calque_7" data-name="Calque 7" xmlns="http://www.w3.org/2000/svg" xmlns:xlink="http://www.w3.org/1999/xlink" width="84.01" height="84.01" viewBox="0 0 84.01 84.01"><defs><style>.cls-1{fill:none;}.cls-2{fill:#7e807a;}.cls-3{clip-path:url(#clip-path);}.cls-4{fill:#fff;}</style><clipPath id="clip-path" transform="translate(0.02 0.01)"><rect class="cls-1" width="84" height="84"/></clipPath></defs><g id="Groupe_364" data-name="Groupe 364"><path id="Tracé_744" data-name="Tracé 744" class="cls-2" d="M41.85.25A41.71,41.71,0,1,1,.14,42,41.71,41.71,0,0,1,41.85.25Z" transform="translate(0.02 0.01)"/><g id="Groupe_342" data-name="Groupe 342"><g class="cls-3"><g id="Groupe_341" data-name="Groupe 341"><path id="Tracé_702" data-name="Tracé 702" class="cls-4" d="M35.88,19.2c-3.18-.57-6.42.48-9.57,4s-5,10.26-4.55,15.92a49.12,49.12,0,0,0,2,10.33,48.42,48.42,0,0,1,2.16-6.42c1.24-2.87,4.12-8.24,9.27-10,4.94-1.71,6.25-4.34,6.22-7.72a6.17,6.17,0,0,0-5.5-6.1m-.25,5.32a2.24,2.24,0,0,1-2.88,0,5.15,5.15,0,0,0-3.91-.28,17.88,17.88,0,0,0-1.91.65,15.23,15.23,0,0,1,2.22-2.25,7.63,7.63,0,0,1,4.63-1.78,2.55,2.55,0,0,1,2.5,1.4,1.81,1.81,0,0,1-.62,2.28" transform="translate(0.02 0.01)"/><path id="Tracé_703" data-name="Tracé 703" class="cls-4" d="M64.17,29.89C59,26,50.16,27.77,44.38,31.12a35.26,35.26,0,0,0-13,12.8,57,57,0,0,0-4.63,10.3c3.51-4.91,11.57-6.26,16.35-5.94s5.51,2,11.62,2.68,11-1.68,13.56-5.79,1.08-11.4-4.12-15.27M36.71,40.75a29.22,29.22,0,0,1,11.17-8.9c7.21-3.19,14.74-2.89,15.55,1.07-.51,5.07-14.88-5.23-26.72,7.82" transform="translate(0.02 0.01)"/><path id="Tracé_704" data-name="Tracé 704" class="cls-4" d="M49.48,54.22c-4.86-2.24-11.25-.6-16,1.87a22.65,22.65,0,0,0-7.42,6.3,16.21,16.21,0,0,1,9.33-2c5,0,5.85,2.21,10,3.83,4.86,1.91,8.69-.6,9.21-2.88s0-4.82-5.11-7.17m1.91,3.6a1.8,1.8,0,0,1-2.49.57h0l-.14-.09c-1.3-.9-1.15-2.3-5.24-2.94a15.36,15.36,0,0,0-9.27,1.31,18.73,18.73,0,0,1,6.32-2.2,14.53,14.53,0,0,1,9.17.91c1.58.91,1.95,1.75,1.63,2.44" transform="translate(0.02 0.01)"/><path id="Tracé_705" data-name="Tracé 705" class="cls-2" d="M42,84A42,42,0,1,1,84,42h0A42,42,0,0,1,42,84M42,2.39A39.61,39.61,0,1,0,81.59,42h0A39.61,39.61,0,0,0,42,2.39" transform="translate(0.02 0.01)"/></g></g></g></g></svg>