<svg id="Calque_1" data-name="Calque 1" xmlns="http://www.w3.org/2000/svg" width="83.57" height="83.57" viewBox="0 0 83.57 83.57"><defs><style>.cls-1{fill:#7e807a;}.cls-2{fill:#fff;}</style></defs><path class="cls-1" d="M41.79,83.57A41.79,41.79,0,1,1,83.57,41.78h0A41.84,41.84,0,0,1,41.79,83.57Zm0-81.18a39.4,39.4,0,1,0,39.39,39.4h0A39.42,39.42,0,0,0,41.79,2.39Z"/><circle class="cls-2" cx="41.79" cy="41.79" r="39.4"/><path class="cls-1" d="M13.83,34V58.05H71V34Zm14.4,17H16.53V48.17h11.7Zm0-5H16.53V43.16h11.7Zm13.3,5H29.82V48.17H41.54Zm0-5H29.82V43.16H41.54Zm13.3,5H43.12V48.17H54.84Zm0-5H43.12V43.16H54.84Zm13.42,5H56.54V48.17H68.26Zm0-5H56.54V43.16H68.26Z"/><polygon class="cls-1" points="30.26 34.33 28.99 18.71 25.87 18.71 24.1 34.33 30.26 34.33"/><polygon class="cls-1" points="22.69 34.33 21.42 18.71 18.3 18.71 16.53 34.33 22.69 34.33"/></svg>