<svg id="Calque_1" data-name="Calque 1" xmlns="http://www.w3.org/2000/svg" width="83.57" height="83.57" viewBox="0 0 83.57 83.57"><defs><style>.cls-1{fill:#fff;}.cls-2{fill:#7e807a;}</style></defs><circle class="cls-1" cx="41.79" cy="41.79" r="39.4"/><path class="cls-2" d="M41.79,83.57A41.79,41.79,0,1,1,83.57,41.78h0A41.84,41.84,0,0,1,41.79,83.57Zm0-81.18a39.4,39.4,0,1,0,39.39,39.4h0A39.42,39.42,0,0,0,41.79,2.39Z"/><path class="cls-2" d="M26.65,54.93a1,1,0,0,0,1-1h0V48.53a1,1,0,0,0-2,0v5.39A1,1,0,0,0,26.65,54.93Z"/><path class="cls-2" d="M69.47,36.91a6.11,6.11,0,0,0-.06-.86h0L63.8,22.92a.89.89,0,0,0,.3-.67V19.2a.92.92,0,0,0-.92-.92H20.39a.92.92,0,0,0-.92.92h0v3.05a.93.93,0,0,0,.3.68l-5.6,13.12h0a8.09,8.09,0,0,0-.07.86,6.22,6.22,0,0,0,5.38,6.16h0V66.36H64.11V43.07h0A6.21,6.21,0,0,0,69.47,36.91Zm-38.42,4.6a4.63,4.63,0,0,1-4.53-3.82h9.07A4.6,4.6,0,0,1,31.05,41.51Zm0,1.62a6.21,6.21,0,0,0,4.3-1.72V64.47H24.73V41.28h0A6.38,6.38,0,0,0,25.68,40,6.22,6.22,0,0,0,31.05,43.13Zm6-2.25,0-.05Zm-.19-.24-.09-.11Zm-.2-.27a3.21,3.21,0,0,1-.19-.31,1.67,1.67,0,0,0,.18.28Zm-.42.05,0,.06Zm-.55-4.35H26.9l2.93-12.89h7L36,36.07ZM36,40.78v0Zm-.29.34ZM53.94,23.19l2.94,12.89H48l-.84-12.89Zm3.15,14.5a4.6,4.6,0,0,1-9.07,0ZM45.66,23.17l.84,12.89h-9l.84-12.89Zm.67,14.5a4.6,4.6,0,0,1-9.07,0ZM40.56,43a6.18,6.18,0,0,0,6.61-3,6.22,6.22,0,0,0,10.73,0,6.24,6.24,0,0,0,1.28,1.53V54.39H40.56Zm17.93-7L55.56,23.16h6.59l5.5,12.89ZM21.07,19.9H62.46v1.65H21.07Zm.34,3.27h6.78L25.26,36.06H15.93Zm-5.63,14.5h9.07a4.6,4.6,0,0,1-9.07,0Zm8.87,3.69-.17.16Zm-.29.27-.15.12Zm-.36.28-.15.11Zm-.34.24-.08.05Zm-.29.17Zm-3.46.79Zm.4,0h0Zm.78,0a6.21,6.21,0,0,0,1.75-.47V64.73H21.07ZM37.22,64.72V41.12a6.17,6.17,0,0,0,1.72,1.32V55.1a.92.92,0,0,0,.91.92h20a.92.92,0,0,0,.92-.92V42.62a6.2,6.2,0,0,0,1.68.48V64.75ZM59.53,41.87l.08.06-.08,0Zm.37.26.09.06Zm.41.24.08,0Zm2.55.73h0Zm.8,0Zm-.4-1.61a4.6,4.6,0,0,1-4.54-3.81h9.07a4.6,4.6,0,0,1-4.53,3.83Z"/></svg>