<svg xmlns="http://www.w3.org/2000/svg" xmlns:xlink="http://www.w3.org/1999/xlink" width="83.572" height="83.572" viewBox="0 0 83.572 83.572">
  <defs>
    <clipPath id="clip-path">
      <rect id="Rectangle_112" data-name="Rectangle 112" width="83.572" height="83.572" fill="none"/>
    </clipPath>
  </defs>
  <g id="icon-thermes" transform="translate(-1111.867 -975.754)">
    <circle id="Ellipse_17" data-name="Ellipse 17" cx="41.5" cy="41.5" r="41.5" transform="translate(1112 976)" fill="#fff"/>
    <g id="Groupe_342" data-name="Groupe 342" transform="translate(1111.867 975.754)">
      <g id="Groupe_341" data-name="Groupe 341" clip-path="url(#clip-path)">
        <path id="Tracé_702" data-name="Tracé 702" d="M59.332,39.854c-3.166-.564-6.389.476-9.524,4.008s-4.961,10.2-4.524,15.834a48.048,48.048,0,0,0,1.984,10.278,48.418,48.418,0,0,1,2.143-6.389c1.23-2.857,4.1-8.191,9.206-9.961,4.921-1.706,6.213-4.326,6.191-7.7a6.159,6.159,0,0,0-5.477-6.072m-.25,5.3a2.222,2.222,0,0,1-2.861-.014,5.149,5.149,0,0,0-3.89-.282,15.748,15.748,0,0,0-1.9.648,15.884,15.884,0,0,1,2.2-2.239,7.559,7.559,0,0,1,4.589-1.78A2.586,2.586,0,0,1,59.7,42.878a1.8,1.8,0,0,1-.621,2.271" transform="translate(-23.635 -20.755)" fill="#7e807a"/>
        <path id="Tracé_703" data-name="Tracé 703" d="M92.969,59.894c-5.159-3.849-13.929-2.1-19.683,1.23A34.978,34.978,0,0,0,60.349,73.863a56.506,56.506,0,0,0-4.6,10.238c3.492-4.881,11.508-6.231,16.271-5.913s5.476,1.984,11.548,2.659,10.953-1.667,13.492-5.754,1.072-11.35-4.087-15.2m-27.3,10.794a29.185,29.185,0,0,1,11.111-8.849c7.15-3.175,14.671-2.873,15.477,1.072-.516,5.04-14.8-5.206-26.588,7.778" transform="translate(-29.136 -30.16)" fill="#7e807a"/>
        <path id="Tracé_704" data-name="Tracé 704" d="M77.627,111.854c-4.841-2.222-11.191-.6-15.913,1.865a22.475,22.475,0,0,0-7.382,6.27c3.175-1.548,4.5-1.982,9.286-1.944,4.961.04,5.819,2.2,9.921,3.81,4.842,1.9,8.651-.6,9.167-2.857s.024-4.8-5.079-7.143m1.9,3.611a1.8,1.8,0,0,1-2.614.474c-1.3-.885-1.151-2.287-5.214-2.922a15.318,15.318,0,0,0-9.2,1.3,18.618,18.618,0,0,1,6.285-2.184c3.208-.634,6.984-.338,9.12.9,1.574.913,1.945,1.746,1.624,2.434" transform="translate(-28.398 -57.913)" fill="#7e807a"/>
        <path id="Tracé_705" data-name="Tracé 705" d="M41.786,83.572A41.786,41.786,0,1,1,83.572,41.786,41.833,41.833,0,0,1,41.786,83.572m0-81.185a39.4,39.4,0,1,0,39.4,39.4,39.444,39.444,0,0,0-39.4-39.4" fill="#7e807a"/>
      </g>
    </g>
  </g>
</svg>
