<svg xmlns="http://www.w3.org/2000/svg" xmlns:xlink="http://www.w3.org/1999/xlink" width="83.572" height="83.572" viewBox="0 0 83.572 83.572">
  <defs>
    <clipPath id="clip-path">
      <rect id="Rectangle_111" data-name="Rectangle 111" width="83.572" height="83.572" fill="none"/>
    </clipPath>
  </defs>
  <g id="icon-instituts" transform="translate(-1005.898 -975.754)">
    <circle id="Ellipse_16" data-name="Ellipse 16" cx="41.5" cy="41.5" r="41.5" transform="translate(1006 976)" fill="#fff"/>
    <g id="Groupe_340" data-name="Groupe 340" transform="translate(1005.898 975.754)">
      <g id="Groupe_339" data-name="Groupe 339" clip-path="url(#clip-path)">
        <path id="Tracé_698" data-name="Tracé 698" d="M52.39,79.53c-.024.9-.146,2.5-.246,3.852s-.457,6.014-.527,7.046-.573,7.52-.607,7.854a.682.682,0,0,1-.3.6,2.2,2.2,0,0,1-.959.164c-.594.033-2.163.064-3.308.076-.858.009-1.454.01-1.7.009h-.125c-.245,0-.841-.01-1.7-.028-1.145-.024-2.714-.072-3.307-.112a2.2,2.2,0,0,1-.958-.175.681.681,0,0,1-.3-.6c-.03-.334-.463-6.828-.522-7.86s-.364-5.7-.45-7.051-.191-2.953-.2-3.855a18.281,18.281,0,0,1,.263-3.326,24.661,24.661,0,0,1,.52-2.422c.13-.494.236-.766.268-.9a2.752,2.752,0,0,1,.1-.432c.06-.15.113-.3.172-.488a5.506,5.506,0,0,1,.153-.544,3.977,3.977,0,0,0,.171-.451c.059-.174.067-.315.134-.469s.117-.241.19-.45a3.159,3.159,0,0,1,.172-.582,1.384,1.384,0,0,0,.191-.506,1.272,1.272,0,0,1,.153-.469,1.281,1.281,0,0,0,.172-.45,1.539,1.539,0,0,1,.153-.526,1.074,1.074,0,0,0,.19-.506,1.013,1.013,0,0,1,.172-.506,1.034,1.034,0,0,0,.172-.506.907.907,0,0,1,.19-.488,1.086,1.086,0,0,0,.134-.488A.765.765,0,0,1,41,64.524a.854.854,0,0,0,.171-.45.983.983,0,0,1,.172-.526.733.733,0,0,0,.153-.432.672.672,0,0,1,.058-.3,1.222,1.222,0,0,0,.1-.3c.019-.087.026-.128.057-.15s.038-.038.038-.038-.139-.032-.15-.076a6.561,6.561,0,0,1-.014-.771c0-.552.011-2.158.012-2.293s.016-.192.076-.225c-.064,0-.071-.024-.075-.057s0-.374,0-.432a.144.144,0,0,1,.114-.15,4.134,4.134,0,0,1,1.034-.163c.645-.049,1.624-.064,2.113-.063h.086c.489,0,1.468.03,2.112.086a4.124,4.124,0,0,1,1.033.175.144.144,0,0,1,.112.151c0,.059,0,.4,0,.432s-.011.054-.075.056c.06.033.075.091.074.226s-.01,1.741-.012,2.293a6.585,6.585,0,0,1-.023.771c-.011.043-.151.074-.151.074a.1.1,0,0,0,.037.038c.032.022.038.063.056.15a1.218,1.218,0,0,0,.092.3.677.677,0,0,1,.055.3.73.73,0,0,0,.148.433.983.983,0,0,1,.166.527.852.852,0,0,0,.167.452.765.765,0,0,1,.148.414,1.089,1.089,0,0,0,.129.489.9.9,0,0,1,.185.49,1.034,1.034,0,0,0,.167.508,1.02,1.02,0,0,1,.167.508,1.072,1.072,0,0,0,.185.509,1.552,1.552,0,0,1,.147.527,1.28,1.28,0,0,0,.167.452,1.277,1.277,0,0,1,.148.471,1.378,1.378,0,0,0,.185.508,3.188,3.188,0,0,1,.166.584c.071.211.12.3.186.452s.072.3.129.471a4,4,0,0,0,.167.452,5.432,5.432,0,0,1,.147.546c.057.189.108.339.167.489a2.741,2.741,0,0,1,.092.433c.031.135.134.408.258.9a24.584,24.584,0,0,1,.495,2.428,18.3,18.3,0,0,1,.226,3.328" transform="translate(-19.43 -30.366)" fill="#7e807a" fill-rule="evenodd"/>
        <path id="Tracé_699" data-name="Tracé 699" d="M82.349,29.711A7.527,7.527,0,0,0,82,30.967a34.354,34.354,0,0,0-.326,3.436c-.08,1.258-.415,6.916-.463,8.273s-.3,6.911-.336,8.142-.137,4.3-.169,5.723-.085,3.5-.1,4.426-.145,5.222-.2,7.213-.125,5.445-.159,6.608-.047,1.253-.069,1.49a.345.345,0,0,1-.084.217,1.107,1.107,0,0,1-.106.109l.062,3.367-.043.044s.028,1.679.024,2.051a1,1,0,0,1-.272.758,3.26,3.26,0,0,1-1.333.469,19.257,19.257,0,0,1-3.47.318v0H74.87l-.087,0v0a19.281,19.281,0,0,1-3.477-.237,3.255,3.255,0,0,1-1.344-.437,1.006,1.006,0,0,1-.289-.752c-.013-.371-.024-2.05-.024-2.05l-.044-.043-.018-3.367a1.232,1.232,0,0,1-.109-.107.345.345,0,0,1-.089-.215c-.028-.236-.042-.327-.1-1.488s-.218-4.613-.316-6.6-.33-6.283-.366-7.205-.138-3.006-.2-4.423-.243-4.487-.305-5.717-.448-6.776-.528-8.132-.549-7-.659-8.26a34.388,34.388,0,0,0-.408-3.427,7.461,7.461,0,0,0-.382-1.248c0-.232-.011-.95-.013-1.1s.065-.2.149-.2l7.92-.094h.088l7.92-.094c.084,0,.152.042.154.192s.006.868.013,1.1" transform="translate(-34.551 -14.853)" fill="#7e807a" fill-rule="evenodd"/>
        <path id="Tracé_700" data-name="Tracé 700" d="M107.41,85.012c-1.726,0-3.859-.138-5.1-.249a4.583,4.583,0,0,1-2.285-.576,11.18,11.18,0,0,1-1.377-2.242,3.444,3.444,0,0,1-.188-1.572c.011-.724.081-16.313.085-18.343a27.194,27.194,0,0,1,.344-5.145,20.575,20.575,0,0,1,1.534-4.618,40.207,40.207,0,0,0,2.2-5.141,17.674,17.674,0,0,0,.866-4.429,9.079,9.079,0,0,0,.05-.953.422.422,0,0,1,.144-.381c0-.528.044-1.458.053-2.572.009-1.1.051-1.607.051-1.811a.792.792,0,0,1,.478-.666,3.918,3.918,0,0,1,1.335-.283c0-.812.006-3.049.006-3.049a5.694,5.694,0,0,1-1.285-.336c-.594-.249-.613-.477-.618-.716a.637.637,0,0,1,.526-.666,6.469,6.469,0,0,1,1.381-.045c.974.018,2.065.015,2.621-.042a18.391,18.391,0,0,1,1.954-.091c.7.005,1.772.009,2.525.053s2.051.239,2.572.338a7.458,7.458,0,0,1,.81.192s.03.1-.1.429-.263.727-.335.714-.257-.087-.857-.24a10.365,10.365,0,0,0-2.477-.2,13.791,13.791,0,0,0-2.335.329,5.793,5.793,0,0,0-.811.236l-.006,3.049s.518.076.905.145.857.335.9.669.112,2.244.137,3.24a5.14,5.14,0,0,1,0,1.334c.133.015.138.221.142.667a15.576,15.576,0,0,0,.563,4.051,26.051,26.051,0,0,0,1.564,4.053,27.9,27.9,0,0,1,2.465,6.436,28.891,28.891,0,0,1,.416,6.242c0,1.493.067,14.13.063,15.723a21.59,21.59,0,0,1-.1,3.144,9.765,9.765,0,0,1-.909,1.665,2.407,2.407,0,0,1-2.337,1.329c-1.594.133-3.786.326-5.575.322" transform="translate(-51.46 -16.247)" fill="#7e807a" fill-rule="evenodd"/>
        <path id="Tracé_701" data-name="Tracé 701" d="M41.786,83.572A41.786,41.786,0,1,1,83.572,41.786,41.833,41.833,0,0,1,41.786,83.572m0-81.185a39.4,39.4,0,1,0,39.4,39.4,39.444,39.444,0,0,0-39.4-39.4" fill="#7e807a"/>
      </g>
    </g>
  </g>
</svg>
