<svg id="Calque_1" data-name="Calque 1" xmlns="http://www.w3.org/2000/svg" xmlns:xlink="http://www.w3.org/1999/xlink" width="84" height="84" viewBox="0 0 84 84"><defs><style>.cls-1{fill:none;}.cls-2{fill:#7e807a;}.cls-3{clip-path:url(#clip-path);}.cls-4{fill:#fff;}</style><clipPath id="clip-path" transform="translate(0 0)"><rect class="cls-1" width="84" height="84"/></clipPath></defs><path id="Tracé_740" data-name="Tracé 740" class="cls-2" d="M42.2.77a41.29,41.29,0,1,1-.28,0Z" transform="translate(0 0)"/><g id="Groupe_392" data-name="Groupe 392"><g class="cls-3"><g id="Groupe_391" data-name="Groupe 391"><path id="Tracé_706" data-name="Tracé 706" class="cls-2" d="M42,84A42,42,0,1,1,84,42h0A42,42,0,0,1,42,84M42,2.4A39.6,39.6,0,1,0,81.6,42h0A39.64,39.64,0,0,0,42,2.4" transform="translate(0 0)"/><path id="Tracé_707" data-name="Tracé 707" class="cls-4" d="M13.9,58.34H71.32V34.13H13.9ZM28.39,51.2H16.61V48.42H28.39Zm0-5H16.61V43.39H28.39Zm13.36,5H30V48.42H41.75Zm0-5H30V43.39H41.75Zm13.36,5H43.34V48.42H55.11Zm0-5H43.34V43.39H55.11Zm13.5,5H56.84V48.42H68.61Zm0-5H56.84V43.39H68.61Z" transform="translate(0 0)"/><path id="Tracé_708" data-name="Tracé 708" class="cls-4" d="M30.41,34.51,29.13,18.8H26L24.22,34.51Z" transform="translate(0 0)"/><path id="Tracé_709" data-name="Tracé 709" class="cls-4" d="M22.8,34.51,21.53,18.8H18.39L16.62,34.51Z" transform="translate(0 0)"/></g></g></g></svg>