<svg id="Calque_1" data-name="Calque 1" xmlns="http://www.w3.org/2000/svg" width="84" height="84" viewBox="0 0 84 84"><defs><style>.cls-1{fill:#7f817a;}.cls-2{fill:#fff;}</style></defs><path class="cls-1" d="M42,0A42,42,0,1,0,84,42,42,42,0,0,0,42,0Z"/><circle class="cls-2" cx="55.62" cy="47.05" r="4.02" transform="matrix(0.18, -0.98, 0.98, 0.18, -0.64, 93.33)"/><path class="cls-2" d="M65.17,62.76a1.67,1.67,0,0,0,1-2.12L63.38,53.9a2.2,2.2,0,0,0-2.31-1.43h-11a2.18,2.18,0,0,0-2,1.44l-2.78,6.74a1.65,1.65,0,0,0,3.09,1.13l1.74-2.91v8.57h11v-9l2,3.3A1.65,1.65,0,0,0,65.17,62.76Z"/><rect class="cls-2" x="16.93" y="64.56" width="6.08" height="1.54"/><rect class="cls-2" x="62.56" y="64.56" width="6.08" height="1.54"/><rect class="cls-2" x="36.29" y="64.56" width="12.6" height="1.54"/><circle class="cls-2" cx="22.17" cy="28.95" r="4.04"/><path class="cls-2" d="M29.62,43a4,4,0,1,0,4,4,4,4,0,0,0-4-4Z"/><path class="cls-2" d="M39.22,62.76a1.66,1.66,0,0,0,1-2.11h0L37.43,53.9a2.25,2.25,0,0,0-2.15-1.45H24.16a2.2,2.2,0,0,0-2.06,1.44l-2.77,6.75a1.65,1.65,0,0,0,3.09,1.13l1.74-2.91v8.57h11v-9l2,3.3a1.64,1.64,0,0,0,2.1,1Z"/><path class="cls-2" d="M21,53.47a3.4,3.4,0,0,1,3.18-2.21h2.42a5.21,5.21,0,0,1,.52-8.76V38.29h7.69l1.28-.74,5.75-3.34a2,2,0,0,0,.75-2.76h0a2,2,0,0,0-2.76-.74h0l-6.14,3.54H21a4.08,4.08,0,0,0-4.08,4.08V59.09h1.73Z"/><path class="cls-2" d="M46.86,40.41H65.58a2.73,2.73,0,0,0,2.73-2.72V19a2.75,2.75,0,0,0-2.73-2.73H46.86A2.74,2.74,0,0,0,44.14,19V29.46l10.34-5.71a.58.58,0,0,1,.79.2.57.57,0,0,1-.2.8h0L44.14,31.67v6A2.72,2.72,0,0,0,46.86,40.41Z"/></svg>