<svg id="stores" xmlns="http://www.w3.org/2000/svg" xmlns:xlink="http://www.w3.org/1999/xlink" width="84" height="84" viewBox="0 0 84 84"><defs><style>.cls-1{fill:none;}.cls-2{fill:#7e807a;}.cls-3{clip-path:url(#clip-path);}.cls-4{fill:#fff;}</style><clipPath id="clip-path" transform="translate(0.02 0)"><rect class="cls-1" width="84" height="84"/></clipPath></defs><ellipse id="Ellipse_13" data-name="Ellipse 13" class="cls-2" cx="42" cy="42" rx="41.43" ry="41.16"/><g id="Groupe_394" data-name="Groupe 394"><g class="cls-3"><g id="Groupe_393" data-name="Groupe 393"><path id="Tracé_710" data-name="Tracé 710" class="cls-2" d="M42,84A42,42,0,1,1,84,42v0h0A42,42,0,0,1,42,84M42,2.4A39.6,39.6,0,1,0,81.6,42h0A39.64,39.64,0,0,0,42,2.4" transform="translate(0.02 0)"/><path id="Tracé_711" data-name="Tracé 711" class="cls-4" d="M26.79,55.21a1,1,0,0,0,1-1V48.78a1,1,0,0,0-2,0v5.41a1,1,0,0,0,1,1" transform="translate(0.02 0)"/><path id="Tracé_712" data-name="Tracé 712" class="cls-4" d="M69.82,37.1a6.11,6.11,0,0,0-.06-.86h0L64.13,23a.93.93,0,0,0,.3-.67V19.31a.93.93,0,0,0-.93-.93h-43a.92.92,0,0,0-.92.92h0v3.05a.93.93,0,0,0,.3.68L14.22,36.25h0a6.25,6.25,0,0,0,5.31,7h0V66.7H64.42V43.29a6.25,6.25,0,0,0,5.39-6.19M31.2,41.72a4.65,4.65,0,0,1-4.58-3.86h9.12a4.62,4.62,0,0,1-4.57,3.86m0,1.63a6.22,6.22,0,0,0,4.3-1.73V64.81H24.8V41.49a6.24,6.24,0,0,0,1-1.25,6.26,6.26,0,0,0,5.39,3.11m6-2.27,0,0,0,0m-.2-.25-.09-.12.09.12m-.2-.28c-.07-.1-.13-.21-.19-.31C36.62,40.34,36.68,40.45,36.75,40.55Zm-.43.05,0,.06,0-.06m-.55-4.37H27l2.94-12.94h7l-.84,12.94ZM36.12,41v0m-.29.34h0m18.38-18,2.95,12.94h-8.9l-.86-13Zm3.17,14.57a4.62,4.62,0,0,1-9.12,0ZM45.88,23.29l.85,13h-9l.84-13Zm.68,14.57a4.62,4.62,0,0,1-9.11,0Zm-5.81,5.36a6.25,6.25,0,0,0,6.65-3,6.24,6.24,0,0,0,10.78,0,6.27,6.27,0,0,0,1.29,1.52V54.65H40.77Zm18-7-3-13h6.61l5.52,13ZM21.18,20H62.79v1.67H21.2Zm.34,3.28h6.82l-2.95,13H16ZM15.86,37.86H25a4.62,4.62,0,0,1-9.11,0m8.92,3.71-.18.16.18-.16m-.29.26-.15.13.15-.13m-.37.29-.15.11.15-.11m-.34.24-.08,0,.08,0m-.3.17h0m-3.47.8h0m.41,0h0m.78,0A6.71,6.71,0,0,0,23,42.77v22.3H21.2ZM37.42,65V41.32a6.56,6.56,0,0,0,1.72,1.33v12.7a.93.93,0,0,0,.93.92H60.19a.92.92,0,0,0,.92-.92V42.84a6.23,6.23,0,0,0,1.69.46V65.07Zm22.41-23,.09,0-.09,0m.38.26.1.06-.1-.06m.42.24.07,0-.07,0m2.54.73h.39l-.37,0Zm.8,0h0m-.41-1.61A4.64,4.64,0,0,1,59,37.85H68.1a4.63,4.63,0,0,1-4.57,3.86" transform="translate(0.02 0)"/></g></g></g></svg>