<svg id="Calque_1" data-name="Calque 1" xmlns="http://www.w3.org/2000/svg" width="83.57" height="83.57" viewBox="0 0 83.57 83.57"><defs><style>.cls-1{fill:#fff;}.cls-2{fill:#7e807a;}</style></defs><circle class="cls-1" cx="41.79" cy="41.79" r="41.79"/><path class="cls-2" d="M41.79,0A41.79,41.79,0,1,0,83.57,41.79h0A41.8,41.8,0,0,0,41.79,0Zm0,81.23A39.42,39.42,0,1,1,81.18,41.79h0A39.44,39.44,0,0,1,41.79,81.23Z" transform="translate(0 0)"/><circle class="cls-2" cx="55.29" cy="46.82" r="4.01"/><path class="cls-2" d="M64.85,62.46a1.61,1.61,0,0,0,1-2.1l-2.73-6.73a2.17,2.17,0,0,0-2.29-1.43H49.86a2.18,2.18,0,0,0-2.06,1.43L45,60.36a1.63,1.63,0,0,0,3.06,1.1l1.72-2.91V67.1H60.7V58.17l2,3.29A1.75,1.75,0,0,0,64.85,62.46Z" transform="translate(0 0)"/><rect class="cls-2" x="16.86" y="64.28" width="6.06" height="1.53"/><rect class="cls-2" x="62.27" y="64.28" width="6.06" height="1.53"/><rect class="cls-2" x="36.1" y="64.28" width="12.56" height="1.53"/><circle class="cls-2" cx="22.06" cy="28.8" r="4.01"/><path class="cls-2" d="M29.47,42.84a4,4,0,1,0,4,4,4,4,0,0,0-4-4Z" transform="translate(0 0)"/><path class="cls-2" d="M39,62.46a1.64,1.64,0,0,0,1-2.1h0l-2.77-6.73A2.22,2.22,0,0,0,35.1,52.2h-11A2.15,2.15,0,0,0,22,53.63l-2.77,6.73a1.63,1.63,0,1,0,3.05,1.15h0l1.77-2.91v8.54H35V58.21l1.95,3.3a1.63,1.63,0,0,0,2.11,1Z" transform="translate(0 0)"/><path class="cls-2" d="M20.87,53.2a3.37,3.37,0,0,1,3.2-2.2h2.39a5.15,5.15,0,0,1-1.2-7.21A5.39,5.39,0,0,1,27,42.26V38.11h7.64l1.29-.72,5.73-3.34a2,2,0,0,0,.72-2.77h0a2,2,0,0,0-2.77-.72L33.48,34.1H20.92a4.05,4.05,0,0,0-4.06,4.06V58.83h1.72Z" transform="translate(0 0)"/><path class="cls-2" d="M46.66,40.21H65.28A2.72,2.72,0,0,0,68,37.49V18.86a2.72,2.72,0,0,0-2.72-2.72H46.66a2.73,2.73,0,0,0-2.73,2.72V29.27l10.32-5.68a.66.66,0,0,1,.81.19.65.65,0,0,1-.19.81L43.93,31.52v6A2.68,2.68,0,0,0,46.66,40.21Z" transform="translate(0 0)"/></svg>