<svg id="RI" xmlns="http://www.w3.org/2000/svg" xmlns:xlink="http://www.w3.org/1999/xlink" width="84.01" height="84.01" viewBox="0 0 84.01 84.01"><defs><style>.cls-1{fill:none;}.cls-2{fill:#7e807a;}.cls-3{fill:#fff;}.cls-4{clip-path:url(#clip-path);}</style><clipPath id="clip-path" transform="translate(0 0.01)"><rect class="cls-1" width="84" height="84"/></clipPath></defs><g id="Groupe_359" data-name="Groupe 359"><ellipse id="Ellipse_12" data-name="Ellipse 12" class="cls-2" cx="41.97" cy="41.97" rx="41.97" ry="41.71"/><g id="Groupe_330" data-name="Groupe 330"><rect id="Rectangle_90" data-name="Rectangle 90" class="cls-3" x="22.43" y="52.03" width="29.83" height="3.44"/><g id="Groupe_329" data-name="Groupe 329"><g class="cls-4"><g id="Groupe_328" data-name="Groupe 328"><path id="Tracé_654" data-name="Tracé 654" class="cls-3" d="M53.46,66.67H24.57a2.87,2.87,0,0,0-2.86,2.86h34.6a2.87,2.87,0,0,0-2.86-2.86h0" transform="translate(0 0.01)"/><rect id="Rectangle_91" data-name="Rectangle 91" class="cls-3" x="44.1" y="56.82" width="6.37" height="11.89"/><path id="Tracé_655" data-name="Tracé 655" class="cls-3" d="M49.07,19.56l-2,6.84a14.67,14.67,0,0,1-6.5,27.81h-.09l-1.8,7c.62,0,1.25.09,1.89.09a21.73,21.73,0,0,0,8.5-41.71" transform="translate(0 0.01)"/><rect id="Rectangle_92" data-name="Rectangle 92" class="cls-3" x="32.5" y="59.88" width="6.52" height="0.87"/><rect id="Rectangle_93" data-name="Rectangle 93" class="cls-3" x="28.23" y="59.78" width="8.53" height="1.06" transform="translate(-32.28 38.02) rotate(-42.69)"/><path id="Tracé_656" data-name="Tracé 656" class="cls-3" d="M47.74,50.84v-.56h-5.8l-4.26.92H26.14v.56H37.71L42,50.82Z" transform="translate(0 0.01)"/><path id="Tracé_657" data-name="Tracé 657" class="cls-3" d="M47.17,49.35H44.68v.77h.51v2.22h1.43V50.12h.52Z" transform="translate(0 0.01)"/><path id="Tracé_658" data-name="Tracé 658" class="cls-3" d="M51.1,25.41A3.93,3.93,0,1,0,55,29.34h0a3.93,3.93,0,0,0-3.93-3.93h0m0,6.05a2.13,2.13,0,1,1,2.12-2.12,2.13,2.13,0,0,1-2.12,2.12h0" transform="translate(0 0.01)"/><path id="Tracé_741" data-name="Tracé 741" class="cls-3" d="M36.25,37.3,41.1,19.71l7.33,2L43.57,39.36Z" transform="translate(0 0.01)"/><rect id="Rectangle_95" data-name="Rectangle 95" class="cls-3" x="38.35" y="36.93" width="2.66" height="4.37" transform="translate(-8.58 66.97) rotate(-74.57)"/><rect id="Rectangle_96" data-name="Rectangle 96" class="cls-3" x="37.55" y="40.21" width="2.66" height="2.66" transform="matrix(0.27, -0.96, 0.96, 0.27, -11.51, 67.97)"/><rect id="Rectangle_97" data-name="Rectangle 97" class="cls-3" x="41.77" y="16.31" width="10.57" height="4.06" transform="translate(16.66 58.68) rotate(-74.29)"/><rect id="Rectangle_98" data-name="Rectangle 98" class="cls-3" x="44.43" y="12.41" width="3.75" height="5.62" transform="translate(19.32 55.81) rotate(-74.57)"/><path id="Tracé_659" data-name="Tracé 659" class="cls-2" d="M42,84A42,42,0,1,1,84,42h0A42.06,42.06,0,0,1,42,84M42,2.39A39.61,39.61,0,1,0,81.61,42,39.61,39.61,0,0,0,42,2.39h0" transform="translate(0 0.01)"/></g></g></g></g></g></svg>