<svg id="entrepot_off" data-name="entrepot off" xmlns="http://www.w3.org/2000/svg" xmlns:xlink="http://www.w3.org/1999/xlink" width="84.01" height="84.01" viewBox="0 0 84.01 84.01"><defs><style>.cls-1{fill:none;}.cls-2{fill:#fff;}.cls-3{fill:#7e807a;}.cls-4{clip-path:url(#clip-path);}</style><clipPath id="clip-path" transform="translate(0.01 0.01)"><rect id="SVGID" class="cls-1" width="84" height="83.77"/></clipPath></defs><ellipse id="Ellipse_11-2" data-name="Ellipse 11-2" class="cls-2" cx="41.9" cy="42.46" rx="41.66" ry="41.55"/><g id="Groupe_327-2" data-name="Groupe 327-2"><path id="Tracé_647-2" data-name="Tracé 647-2" class="cls-3" d="M57,63.09,15.36,59V31L57,34.27Z" transform="translate(0.01 0.01)"/><path id="Tracé_648-2" data-name="Tracé 648-2" class="cls-3" d="M69.88,54.48,57.52,62.92l-.07-28.68,12.43-7Z" transform="translate(0.01 0.01)"/><path id="Tracé_649-2" data-name="Tracé 649-2" class="cls-3" d="M27.7,24.06l-5.4,2.7,42.17,3.12L69.71,27Z" transform="translate(0.01 0.01)"/><path id="Tracé_650-2" data-name="Tracé 650-2" class="cls-2" d="M23.28,37.85l-3-4.77-3,4.34,2,.14V42l1.95.14V37.69Z" transform="translate(0.01 0.01)"/><g id="Groupe_326-2" data-name="Groupe 326-2"><g class="cls-4"><g id="Groupe_325-2" data-name="Groupe 325-2"><path id="Tracé_651-2" data-name="Tracé 651-2" class="cls-2" d="M54.77,36l-7.67-.51a4.17,4.17,0,0,0,3.56,4.06V44.2l-1.61-.12a.26.26,0,0,0-.28.23v0a.31.31,0,0,0,.28.29l3.77.27a.26.26,0,0,0,.28-.23v-.06a.3.3,0,0,0-.28-.3l-1.61-.11V39.58a3.52,3.52,0,0,0,3.56-3.48h0V36" transform="translate(0.01 0.01)"/><path id="Tracé_652-2" data-name="Tracé 652-2" class="cls-3" d="M21.81,27.06,16,30.54,57.18,33.9l6.57-3.67Z" transform="translate(0.01 0.01)"/><path id="Tracé_653-2" data-name="Tracé 653-2" class="cls-3" d="M42,83.77A41.89,41.89,0,1,1,84,41.88h0A42,42,0,0,1,42,83.77M42,2.39a39.5,39.5,0,1,0,39.6,39.5h0A39.55,39.55,0,0,0,42,2.39h0" transform="translate(0.01 0.01)"/></g></g></g></g></svg>