<svg id="entrepot_on" data-name="entrepot on" xmlns="http://www.w3.org/2000/svg" xmlns:xlink="http://www.w3.org/1999/xlink" width="84.01" height="84.01" viewBox="0 0 84.01 84.01"><defs><style>.cls-1{fill:none;}.cls-2{fill:#7e807a;}.cls-3{fill:#fff;}.cls-4{clip-path:url(#clip-path);}</style><clipPath id="clip-path" transform="translate(0.01 0.01)"><rect class="cls-1" width="84" height="83.77"/></clipPath></defs><ellipse id="Ellipse_11" data-name="Ellipse 11" class="cls-2" cx="41.9" cy="42.46" rx="41.66" ry="41.55"/><g id="Groupe_327" data-name="Groupe 327"><path id="Tracé_647" data-name="Tracé 647" class="cls-3" d="M57,63.08,15.36,59V30.92L57,34.24Z" transform="translate(0.01 0.01)"/><path id="Tracé_648" data-name="Tracé 648" class="cls-3" d="M69.88,54.48,57.52,62.92l-.07-28.68,12.43-7Z" transform="translate(0.01 0.01)"/><path id="Tracé_649" data-name="Tracé 649" class="cls-3" d="M27.7,24.06l-5.4,2.69,42.17,3.12L69.71,27Z" transform="translate(0.01 0.01)"/><path id="Tracé_650" data-name="Tracé 650" class="cls-2" d="M23.28,37.85l-3-4.76-3,4.34,2,.15V42l1.95.13V37.71Z" transform="translate(0.01 0.01)"/><g id="Groupe_326" data-name="Groupe 326"><g class="cls-4"><g id="Groupe_325" data-name="Groupe 325"><path id="Tracé_651" data-name="Tracé 651" class="cls-2" d="M54.77,36l-7.67-.51a4.17,4.17,0,0,0,3.56,4.06V44.2l-1.61-.12a.26.26,0,0,0-.28.23h0a.32.32,0,0,0,.28.3l3.77.26a.26.26,0,0,0,.28-.23h0v0a.29.29,0,0,0-.28-.29l-1.61-.11V39.58a3.51,3.51,0,0,0,3.56-3.47h0V36" transform="translate(0.01 0.01)"/><path id="Tracé_652" data-name="Tracé 652" class="cls-3" d="M21.81,27.06,16,30.52l41.19,3.35,6.55-3.68Z" transform="translate(0.01 0.01)"/><path id="Tracé_653" data-name="Tracé 653" class="cls-2" d="M42,83.77A41.89,41.89,0,1,1,84,41.88h0A42,42,0,0,1,42,83.77M42,2.39a39.5,39.5,0,1,0,39.6,39.5h0A39.55,39.55,0,0,0,42,2.39h0" transform="translate(0.01 0.01)"/></g></g></g></g></svg>