<svg id="Calque_1" data-name="Calque 1" xmlns="http://www.w3.org/2000/svg" xmlns:xlink="http://www.w3.org/1999/xlink" width="84.01" height="84.01" viewBox="0 0 84.01 84.01"><defs><style>.cls-1{fill:none;}.cls-2{clip-path:url(#clip-path);}.cls-3{fill:#fff;}.cls-4{fill:#7e807a;}</style><clipPath id="clip-path" transform="translate(0.01 0.01)"><rect class="cls-1" width="84" height="84"/></clipPath></defs><g id="Groupe_361-2" data-name="Groupe 361-2"><g id="Groupe_335-2" data-name="Groupe 335-2"><g class="cls-2"><g id="Groupe_334-2" data-name="Groupe 334-2"><circle class="cls-3" cx="42.01" cy="42.01" r="42"/><path id="Tracé_667-2" data-name="Tracé 667-2" class="cls-4" d="M11.25,23.61l4.12,1.7L16.7,22l-4.12-1.7a1.65,1.65,0,0,0-2.14.9l-.09.22a1.64,1.64,0,0,0,.9,2.14" transform="translate(0.01 0.01)"/><path id="Tracé_668-2" data-name="Tracé 668-2" class="cls-4" d="M29.15,66.68a2.58,2.58,0,1,1,2.57,2.6,2.58,2.58,0,0,1-2.57-2.6v0h0" transform="translate(0.01 0.01)"/><path id="Tracé_669-2" data-name="Tracé 669-2" class="cls-4" d="M57,66.68a2.58,2.58,0,1,1,2.57,2.6A2.57,2.57,0,0,1,57,66.68v0h0" transform="translate(0.01 0.01)"/><path id="Tracé_670-2" data-name="Tracé 670-2" class="cls-4" d="M63.43,64.9H26.81a.18.18,0,0,1-.19-.18.18.18,0,0,1,0-.13L33.45,57h0l8.27-1.13a.73.73,0,1,0-.19-1.45h0l-8.27,1.13-.26,0a.69.69,0,0,0-.43.22L25.3,63.93A1.54,1.54,0,0,0,24.84,65c0,1.09,1,1.36,1.84,1.36h36.8a.73.73,0,0,0,.74-.72h0v-.06a.76.76,0,0,0-.79-.67" transform="translate(0.01 0.01)"/><path id="Tracé_671-2" data-name="Tracé 671-2" class="cls-4" d="M25.91,30.82,36.5,54.64l.51-.28L26.55,30.85Z" transform="translate(0.01 0.01)"/><path id="Tracé_672-2" data-name="Tracé 672-2" class="cls-4" d="M30,30.82l9.31,23.27.52-.29L30.68,30.85Z" transform="translate(0.01 0.01)"/><path id="Tracé_673-2" data-name="Tracé 673-2" class="cls-4" d="M34.35,31.13l7.9,22.57.51-.29L35,31.16Z" transform="translate(0.01 0.01)"/><path id="Tracé_674-2" data-name="Tracé 674-2" class="cls-4" d="M38.56,31.48,44.93,53.4l.51-.28L39.21,31.49Z" transform="translate(0.01 0.01)"/><path id="Tracé_675-2" data-name="Tracé 675-2" class="cls-4" d="M42.37,31.48l5.5,21.57.51-.29L43,31.5Z" transform="translate(0.01 0.01)"/><path id="Tracé_676-2" data-name="Tracé 676-2" class="cls-4" d="M46.51,31.93,51.2,52.68l.51-.28L47.16,32Z" transform="translate(0.01 0.01)"/><path id="Tracé_677-2" data-name="Tracé 677-2" class="cls-4" d="M50.41,32.09l3.84,20.08.51-.28L51.05,32.14Z" transform="translate(0.01 0.01)"/><path id="Tracé_678-2" data-name="Tracé 678-2" class="cls-4" d="M54.52,32.68,57,51.94l.52-.28L55.16,32.71Z" transform="translate(0.01 0.01)"/><path id="Tracé_679-2" data-name="Tracé 679-2" class="cls-4" d="M58.55,32.79,60,51.46l.51-.28L59.2,32.81Z" transform="translate(0.01 0.01)"/><path id="Tracé_680-2" data-name="Tracé 680-2" class="cls-4" d="M62.52,33.11,63,51l.52-.28-.33-17.51Z" transform="translate(0.01 0.01)"/><path id="Tracé_681-2" data-name="Tracé 681-2" class="cls-4" d="M20.11,25.22a1.45,1.45,0,0,0-.67-.71l-4.33-2.27a.3.3,0,0,0-.39.13.29.29,0,0,0,.13.39l4.49,2.35a.37.37,0,0,1,.12.13L33.4,54.82a.3.3,0,0,0,.38.14h0a.29.29,0,0,0,.12-.38Z" transform="translate(0.01 0.01)"/><path id="Tracé_682-2" data-name="Tracé 682-2" class="cls-4" d="M24.14,40.18H23.5l3.78,8.55.58,0Z" transform="translate(0.01 0.01)"/><path id="Tracé_683-2" data-name="Tracé 683-2" class="cls-4" d="M65.93,50.39h0" transform="translate(0.01 0.01)"/><path id="Tracé_684-2" data-name="Tracé 684-2" class="cls-4" d="M65.92,50.39a.31.31,0,0,0-.11-.21h0l-.07,0H65.5l0,.61a.63.63,0,0,0,.51-.36" transform="translate(0.01 0.01)"/><path id="Tracé_685-2" data-name="Tracé 685-2" class="cls-4" d="M66.45,40.18l.07-.6H23.89l.27.59Z" transform="translate(0.01 0.01)"/><path id="Tracé_686-2" data-name="Tracé 686-2" class="cls-4" d="M23.88,39.58h-.65l.27.6h.64Z" transform="translate(0.01 0.01)"/><path id="Tracé_687-2" data-name="Tracé 687-2" class="cls-4" d="M28.1,49.27l37.75-2.94.06-.61-38.06,3Z" transform="translate(0.01 0.01)"/><path id="Tracé_688-2" data-name="Tracé 688-2" class="cls-4" d="M65.42,50.73l.25,0a.28.28,0,0,0,.26-.29h0a.68.68,0,0,1-.52.36" transform="translate(0.01 0.01)"/><path id="Tracé_689-2" data-name="Tracé 689-2" class="cls-4" d="M65.81,50.17a.27.27,0,0,1,.11.21.27.27,0,0,0-.11-.21" transform="translate(0.01 0.01)"/><path id="Tracé_690-2" data-name="Tracé 690-2" class="cls-4" d="M65.71,50.11l.08,0-.08,0" transform="translate(0.01 0.01)"/><path id="Tracé_691-2" data-name="Tracé 691-2" class="cls-4" d="M30.85,55a.3.3,0,0,1-.31-.18l-2.43-5.56-.58.05,2.58,5.79.16.35a.28.28,0,0,0,.31.18l.31,0,34.54-4.87.06-.61Z" transform="translate(0.01 0.01)"/><path id="Tracé_692-2" data-name="Tracé 692-2" class="cls-4" d="M27.86,48.69l-.58,0,.26.58.57,0Z" transform="translate(0.01 0.01)"/><path id="Tracé_693-2" data-name="Tracé 693-2" class="cls-4" d="M67.52,32.88h-.35L19.7,30l-2-4.49a.94.94,0,0,0-.45-.47l-4.12-2-.25.52,3.89,1.92a.73.73,0,0,1,.32.33L19,30l.28.62,4,9h.65L20,30.65l46.83,2.81a.3.3,0,0,1,.28.31h0l-.55,5.81-.06.6L66,45.72l-.06.6-.37,3.8h.1a.31.31,0,0,1,.21.05h0a.33.33,0,0,1,.11.21.9.9,0,0,0,.06-.22l.42-3.87.06-.61.59-5.49.07-.6.65-6.08,0-.28a.3.3,0,0,0-.27-.33h0Z" transform="translate(0.01 0.01)"/><path id="Tracé_694-2" data-name="Tracé 694-2" class="cls-4" d="M42,84A42,42,0,1,1,84,42h0A42.05,42.05,0,0,1,42,84M42,2.39A39.61,39.61,0,1,0,81.61,42,39.61,39.61,0,0,0,42,2.39h0" transform="translate(0.01 0.01)"/></g></g></g></g></svg>