<svg id="logo-ergocapt" xmlns="http://www.w3.org/2000/svg" xmlns:xlink="http://www.w3.org/1999/xlink" width="60.246" height="58.208" viewBox="0 0 60.246 58.208">
  <defs>
    <clipPath id="clip-path">
      <rect id="Rectangle_22" data-name="Rectangle 22" width="60.246" height="58.208" fill="#ee7203"/>
    </clipPath>
  </defs>
  <g id="Groupe_37" data-name="Groupe 37" clip-path="url(#clip-path)">
    <path id="Tracé_422" data-name="Tracé 422" d="M.464,122.551a43.223,43.223,0,0,0,3.293,3.372,49.972,49.972,0,0,0,5.864,4.582,30.176,30.176,0,0,0,9.544,4.456,16.7,16.7,0,0,0,8.178-.161c-.175.83-.571,2.828-.571,2.828a10.973,10.973,0,0,1-5.276.3,24.211,24.211,0,0,1-11.775-4.557,58.467,58.467,0,0,1-7.445-6.415c-1.591-1.582-1.444-1.324-1.9-1.824a1.406,1.406,0,0,1-.3-1.385c.2-.63.395-1.2.395-1.2" transform="translate(0 -96.931)" fill="#ee7203"/>
    <path id="Tracé_423" data-name="Tracé 423" d="M160.235,119.7l.206,2.931a35.9,35.9,0,0,0,6.527-1.651c2.963-1.145,6.455-2.917,11.951-7.192,5.026-3.908,5.565-4.285,7.705-6.663a1.4,1.4,0,0,0,.18-1.617c-.152-.269-.266-.457-.266-.457s-.714,1.248-4.311,4.112a54.335,54.335,0,0,1-11.726,7.565,38.2,38.2,0,0,1-10.266,2.972" transform="translate(-126.737 -83.092)" fill="#ee7203"/>
    <path id="Tracé_424" data-name="Tracé 424" d="M134.129,144.546l1.421.266,1.8,27.725s-3.979.035-5.5-4.884a24.652,24.652,0,0,1-1-9.837,45.685,45.685,0,0,1,3.279-13.268m-1.487,15.409c.087-.617.164-1.086.275-1.766.152-.934.293-1.859.336-2.135a4.566,4.566,0,0,0-.175-1.365c-.044-.213-.179.05-.278.328a11.234,11.234,0,0,0-.745,3.093,34.53,34.53,0,0,0,.277,4.117s.119-.9.311-2.272" transform="translate(-103.409 -114.328)" fill="#ee7203"/>
    <path id="Tracé_425" data-name="Tracé 425" d="M106.145,87.958s-12.964,1.5-13.677,1.561a1.669,1.669,0,0,1-1.628-.913,2.493,2.493,0,0,0,2.279,1.946,3.4,3.4,0,0,0,.685-.02c1.317-.155,8.8-.885,12.842-1.359a3.936,3.936,0,0,0,3.185-4.411l-.105-1.132c-.066-.544-.1-.82-.159-1.2a2.779,2.779,0,0,0-1.5-2.066,10.741,10.741,0,0,0-1.491-.65c.713.23.827.918.9,1.675l.374,3.96c.145,1.13-.217,2.422-1.709,2.606" transform="translate(-71.85 -63.051)" fill="#ee7203"/>
    <path id="Tracé_426" data-name="Tracé 426" d="M134.052,72.773c-2.932-1.491-6.813-.041-8.944,1.221,0,0,4.733-.573,5.182-.621a5.076,5.076,0,0,1,2.035.055,4.87,4.87,0,0,1,.75.255c2.2.847,2.649,1.692,2.863,3.983l.108,1.154a4.459,4.459,0,0,1-3.615,5l-9.434.96c2.69,1.242,7.388,1.823,10.269.487a7.485,7.485,0,0,0,4.574-6.779,6.565,6.565,0,0,0-3.787-5.719" transform="translate(-97.283 -57.06)" fill="#ee7203"/>
    <path id="Tracé_427" data-name="Tracé 427" d="M103.535,86.983,90.163,88.546A1.547,1.547,0,0,1,88.5,87.082L88.1,82.8a1.639,1.639,0,0,1,1.357-1.817l13.372-1.564a1.547,1.547,0,0,1,1.661,1.464l.4,4.284a1.639,1.639,0,0,1-1.357,1.817" transform="translate(-69.68 -62.807)" fill="#ee7203"/>
    <path id="Tracé_428" data-name="Tracé 428" d="M16.078,106.981l.012.011a25.739,25.739,0,0,1,.6-3.674,24.834,24.834,0,0,1,1.024-3.236,1.01,1.01,0,0,1-.608.014,1.729,1.729,0,0,1-.463-.091l-.034-.011a1,1,0,0,1-.724-.676,26.266,26.266,0,0,0-1.5,6.021c.477.49,1.047,1.053,1.686,1.641" transform="translate(-11.383 -78.556)" fill="#ee7203"/>
    <path id="Tracé_429" data-name="Tracé 429" d="M39.221,176.374l-.14,0q-1.021-.035-2.038-.151-.983-.112-1.957-.3l-.157-.031-.176-.037q-.257-.055-.512-.116-.474-.113-.945-.243-.95-.263-1.878-.6c-.135-.049-.27-.1-.405-.151l-.071-.028-.255-.1q-.444-.181-.881-.379-.886-.4-1.739-.869l-.208-.115-.016-.009-.015-.009q-.206-.119-.41-.241-.422-.253-.834-.523c-.529-.346-1.043-.713-1.548-1.1l-.007-.005-.02-.016-.186-.147q-.2-.158-.393-.32-.364-.3-.717-.618c-.463-.414-.931-.84-1.352-1.3l-.049-.053-.162-.173q-.172-.186-.341-.375-.315-.353-.616-.717-.615-.743-1.173-1.529-.108-.153-.214-.308l-.083-.123q-.075-.113-.149-.226-.269-.412-.522-.834a25.71,25.71,0,0,1-1.723-3.438l-.046-.115q-.038-.1-.075-.192-.093-.241-.181-.483-.165-.454-.313-.914-.3-.942-.533-1.906t-.387-1.963c-.051-.322-.1-.66-.135-.99-.677-.606-1.3-1.19-1.874-1.749a26.159,26.159,0,0,0,3.73,11.7,27.589,27.589,0,0,0,12.081,10.766,27.2,27.2,0,0,0,8.013,2.272c.858.1,1.723.163,2.589.184a7.917,7.917,0,0,1-.975-1.427M17.327,161.186c-.025-.061-.01-.024,0,0h0" transform="translate(-10.902 -120.92)" fill="#ee7203"/>
    <path id="Tracé_430" data-name="Tracé 430" d="M192.934,33.255c.037.021.194.081.208.116l-.007,0,.008,0q.221.127.439.259.407.246.8.506t.811.554q.179.128.356.258a2.782,2.782,0,0,1,.405.305s-.169-.133-.08-.061l.106.083.185.147q.185.148.366.3.377.313.741.641t.692.645q.158.152.313.308l.166.168.094.1c.016.017.1.1.059.061l.073.078.161.173q.172.186.34.376.314.354.615.719.6.731,1.15,1.5l.136.194.083.123c.082.123.165.246.245.37q.258.4.5.807.5.833.931,1.7.423.848.783,1.726l.051.128.087.224q.093.241.18.484.164.455.311.915a25.659,25.659,0,0,1,.891,3.762c.252-.2.5-.395.746-.59s.468-.376.683-.553c-.17-.751-.371-1.5-.609-2.228A27.034,27.034,0,0,0,202.3,40.3a27.557,27.557,0,0,0-5.7-5.884,27.087,27.087,0,0,0-4.876-2.979l-.024.022a1.017,1.017,0,0,1-.073.1c-.1.112-.2.24-.3.368l-.066.082a1.174,1.174,0,0,1-.136.158c-.028.046-.061.1-.1.15.056.025.114.048.17.074q.884.4,1.737.874" transform="translate(-151.092 -24.861)" fill="#ee7203"/>
    <path id="Tracé_431" data-name="Tracé 431" d="M186.018,140.448a25.887,25.887,0,0,1-1.225,7.451,25.659,25.659,0,0,1-8.642,12.271,25.77,25.77,0,0,1-6.7,3.732,23.8,23.8,0,0,1-2.981.9l.106,1.641c.05-.01.1-.017.151-.027a26.038,26.038,0,0,0,13.815-7.548,25.88,25.88,0,0,0,4.5-6.365,25.96,25.96,0,0,0,2.761-11.661c0-.583-.024-1.167-.062-1.749-.494.391-1.062.834-1.731,1.355" transform="translate(-131.67 -110.015)" fill="#ee7203"/>
    <path id="Tracé_432" data-name="Tracé 432" d="M16.492,64.506a2.165,2.165,0,0,0,.247-.642,8.193,8.193,0,0,1,.5-1.086,5.03,5.03,0,0,1,.938-1.235c.113-.135.264-.273.336-.246.094.053.075.265.072.338-.063.113-.12.193-.168.278-.07.147-.156.346-.257.526-.111.223-.15.424-.261.623a1.644,1.644,0,0,0-.131.435,5.441,5.441,0,0,0-.145.526,1.239,1.239,0,0,1-.022.173c-.051.269-.007.566-.07.9-.039.226-.086.287.074.4a.683.683,0,0,0,.277.192c.014.02.029-.008.072,0,.019.011.045.075.055.08.028.016.017-.052.036-.042a4.88,4.88,0,0,1,.419.358,3.993,3.993,0,0,0,.776.408,11.528,11.528,0,0,1,1.133-2.96c.333-.508.789-1.058,1.234-1.144.027.04.041.06-.015.115.07.052.07-.06.16,0-.045.037-.013.067.008.03a.247.247,0,0,0-.051.269,1.574,1.574,0,0,0-.235.376c-.026.047-.07.06-.091.1s-.039.115-.076.181a.493.493,0,0,0-.088.223.107.107,0,0,0,.015.107.654.654,0,0,0-.034.216,8.986,8.986,0,0,1-.3,1.477,7.3,7.3,0,0,1-.33.968c-.064.113-.1.243-.147.352s-.126.2-.2.335a1.234,1.234,0,0,1-.1.179.819.819,0,0,0-.033.081c-.021.038-.119.057-.17.1-.025.023-.038.09-.063.113s-.13-.011-.17.016a1.016,1.016,0,0,1-.3.132c-.1.005-.194.016-.287.026a4.581,4.581,0,0,1-.5-.265c.089-.049.024-.11.023-.2.115-.072.117-.12.17-.215-.287-.173-.691-.361-1.006-.549-.174-.11-.344-.2-.49-.3-.019-.011,0-.039-.035-.069l-.05.022c-.089-.062-.086-.135-.192-.033-.025.023-.032.057-.067.1-.151.114-.387.094-.567.216,0-.073-.066-.037-.068-.1-.137.134-.311.025-.465-.011a.862.862,0,0,0,.34-.343,1.366,1.366,0,0,0,.155-.521,22.865,22.865,0,0,1-1.68-1.607c-.09.073-.049.221-.121.329a.336.336,0,0,1-.137.134,1.409,1.409,0,0,0-.135.2,3.19,3.19,0,0,0-.307.151c-.162.046-.254.144-.321.13-.039,0-.053-.1-.072,0-.036-.069.028-.1.06-.152a2.16,2.16,0,0,0-.011-.712,4.757,4.757,0,0,1,.113-.891c-.094-.053-.071-.139-.17-.1.024-.11.188-.2.222-.309.033-.081-.007-.165.01-.217a1.33,1.33,0,0,1,.1-.179,3.092,3.092,0,0,1,.14-.517c.139-.381.245-.706.418-1.1a2.107,2.107,0,0,0,.2-.422.824.824,0,0,0-.035-.181.638.638,0,0,0,.1-.131,2.588,2.588,0,0,1,.2-.373c.19-.253.4-.567.618-.819a4.555,4.555,0,0,1,.4-.311,1.248,1.248,0,0,1,.182-.171l.049,0a1.39,1.39,0,0,1,.156-.123c.055-.031.075-.045.115-.072.094.053.1.116.151.2a4.766,4.766,0,0,1-.332.6c-.026.047-.09.073-.079.142a.924.924,0,0,1-.139.294c-.059.128-.136.221-.221.372-.126.227-.191.476-.308.708-.027.071-.117.12-.082.19-.021.038-.087,0-.085-.047-.091.073-.014.2-.013.29a.8.8,0,0,1-.079.142c-.033.081-.032.168-.054.23a2.19,2.19,0,0,0-.1.465c-.042.163-.077.292-.112.445,0,.048-.043-.012-.043-.012a.112.112,0,0,0,.041.171c-.117-.078-.095.059-.087.2-.012.154.008.252.01.426-.013.067-.076.18-.04.226.008.029.112.087.2.15.316.3.823.744,1.045.968.038.021.058.008.068-.011.056.143.245.249.337.374.07-.06-.046-.051-.039-.108.031-.033.009.005.023.025m-2.148-3.652.019.011c-.045.037-.073.108-.05.133-.1.053.01-.106-.037-.132.005-.01.037.021.068-.012m.076-.18c-.075.045-.046-.05,0-.073.056.032-.055.032,0,.073m.522-.935c-.074-.066-.12.082-.112.111.031-.033.1-.068.112-.111m-.016,2.89a.112.112,0,0,1,0-.15c.053-.094.045.075,0,.15m.079-3.115a.388.388,0,0,0-.066.186c.031-.057.146-.129.066-.186" transform="translate(-10.726 -45.937)" fill="#ee7203"/>
    <path id="Tracé_433" data-name="Tracé 433" d="M42.862,56.925a1.123,1.123,0,0,1,.219-.053.138.138,0,0,1,.1-.053c.014-.017.054,0,.054,0,.09-.037.122-.008.238.007A.638.638,0,0,0,43.6,56.8c.093.124.181.072.256.052a1.92,1.92,0,0,1,.092.339,4.689,4.689,0,0,1,.3.493.367.367,0,0,1,.006.092,2.461,2.461,0,0,0,.286.379,2.8,2.8,0,0,0,.7.766.97.97,0,0,0,.363.159l.032.014c.068-.013.1-.068.14-.079.077-.005.034.044.118.046a2.961,2.961,0,0,0,.251-.37.733.733,0,0,1-.094.42.984.984,0,0,1-.894.5,2.372,2.372,0,0,1-.3-.1,1.348,1.348,0,0,1-.19-.079,2.114,2.114,0,0,1-.5-.349,5.212,5.212,0,0,1-1.2-1.582c-.111-.054-.189.036-.295.059-.063.088-.176,0-.185.1.056.264.05.173.09.423.011.053-.027.278-.018.3.087.148.023.221.033.373a2.023,2.023,0,0,1-.036.485c-.17.211-.309.3-.366.255a4.137,4.137,0,0,0,.005-.6c-.032-.243-.032-.243-.051-.418a2.49,2.49,0,0,0-.041-.38,2.233,2.233,0,0,0-.1-.315.833.833,0,0,0-.19.021c-.131-.014,0,.015-.165-.058-.008-.007-.1,0-.108-.008a1.9,1.9,0,0,1-.467-.566,1.588,1.588,0,0,1-.15-.289c0-.015.034-.056.026-.063-.009-.022-.041-.035-.049-.043-.009-.022.043-.049.043-.049-.017-.029-.048-.028-.041-.036s.011-.062,0-.069a.792.792,0,0,1-.06-.325,3.263,3.263,0,0,1-.029-.542c.005-.039.049-.073.036-.14.008-.008.005-.039.052-.027.183-.013.346-.1.514-.1.025.022.056.034.063.026a2.57,2.57,0,0,1,.745.923,4.635,4.635,0,0,1,.268.679c.156.035.244-.131.363-.185m-.9.23c-.133-.259-.2-.516-.3-.723a.2.2,0,0,0-.1-.147c.026.037-.018.07-.016.1.184.233.1.591.42.769" transform="translate(-32.283 -43.883)" fill="#ee7203"/>
    <path id="Tracé_434" data-name="Tracé 434" d="M60.913,40.932a1.464,1.464,0,0,1,.163.284c.083.127.042.144.15.267.109.107.19.373.338.477.063-.007.062.17.07.11.045-.048.3-.678.332-.758a3.21,3.21,0,0,1,.208-.4c.011-.2.159-.326.239-.524.091-.22.089-.2.152-.389a3.744,3.744,0,0,1,.3-.5c.265.1.1.33.087.451-.031.119-.05.2-.09.328-.068.161-.081.144-.1.265-.038.165-.112.317-.132.468a2.243,2.243,0,0,0-.118.362c-.05.148-.067.215-.107.341-.006.045-.043.264-.042.319,0,0-.033.188-.066.323a.425.425,0,0,0,.019.2c.092.761.022.242.052.478.033.22.449,1.032.509,1.217a4.506,4.506,0,0,1,.224.578c.019.149.134.265.158.438.033.1.08.211.111.323a6.293,6.293,0,0,0,.231.818c.058.2.093.406.134.619a.447.447,0,0,1,.027.088c0,.03-.017.067,0,.093a.6.6,0,0,0,.014.125c.007.009-.006.046.007.063.027.088.058.146.028.2a.6.6,0,0,1,.013.195.551.551,0,0,1,.043.2.984.984,0,0,1-.09.274c0,.015-.039,0-.051.039a1.528,1.528,0,0,1-.093.289c-.021.043-.123.053-.135.09-.045.048.057.093-.04.126a1.922,1.922,0,0,0-.7.292.841.841,0,0,0-.244-.372c-.041-.036-.059-.023-.1-.075a3.4,3.4,0,0,1-.16-.368c-.128-.256-.251-.489-.357-.734-.129-.364-.22-.731-.331-1.055a.552.552,0,0,1-.052-.192c0-.024.019-.082,0-.093a1.583,1.583,0,0,1-.066-.263c-.007-.063-.038-.121-.04-.16-.014-.125-.024-.281-.048-.454a5.072,5.072,0,0,1-.241-2.254c-.287-.571-.332-.7-.583-1.189-.13-.064-.3.029-.433,0-.189.376-.407.911-.618,1.4-.1.249-.22.5-.3.723-.035.026-.036.1-.049.132s-.056.016-.049.024c-.045.048-.035.149-.04.18-.021.043-.054.055-.068.107a.162.162,0,0,0-.05.148c-.038.057-.045.048-.055.07s-.14.244-.153.281a.612.612,0,0,1-.549.243c-.037-.013-.1-.045-.161-.068-.1-.02-.184-.063-.31-.1a1.052,1.052,0,0,1-.258-.265,2.062,2.062,0,0,1,.135-1.193.893.893,0,0,0,.027-.143,2.318,2.318,0,0,1,.023-.29.118.118,0,0,1,.05-.024c-.007-.009-.044-.021-.013-.017a.357.357,0,0,1,.029-.1c.034-.08.056-.247.083-.336.04-.126.084-.282.143-.436a3.667,3.667,0,0,1,.194-.476c.019-.028.062-.061.081-.089.038-.111,0-.177.05-.256.006-.045.064-.077.073-.083s-.007-.063.038-.111a3.845,3.845,0,0,1,.864-.348c.091.012.15.035.21-.011a1.022,1.022,0,0,1,.575.146,2.5,2.5,0,0,1,.793-.157c.016.056.091.066.118.1m-2.309.827a.448.448,0,0,1-.051.094c-.006.046-.038.056-.055.124,0,.024-.015.052-.012.091a.472.472,0,0,0-.082.213c-.053.055-.065.146-.1.187a.663.663,0,0,1,.018.095.459.459,0,0,1-.081.144.359.359,0,0,1-.042.195c-.035.15-.01.308-.039.466a1.918,1.918,0,0,0-.034.489,1.521,1.521,0,0,0,.049.508c.215-.164.272-.427.407-.625.383-.62.721-1.247,1.113-1.874a.406.406,0,0,0-.187-.156c-.014-.017.008-.061-.044-.075-.065-.032-.141-.042-.185-.063-.031,0-.05-.03-.072-.04-.1-.036-.2,0-.235-.093a.407.407,0,0,1-.234.139.856.856,0,0,0-.132.183m3.938,4.682c-.01.076-.038.165-.042.2q.1.268.167.485a.972.972,0,0,0,.179.394c.1-.118.03-.282-.008-.4A2.435,2.435,0,0,0,62.4,45.8a2.551,2.551,0,0,1,.077.527.527.527,0,0,0,.07.11" transform="translate(-45.397 -31.237)" fill="#ee7203"/>
    <path id="Tracé_435" data-name="Tracé 435" d="M86.363,30.917c-.051.12,0,.048-.066.139-.055.061-.076.143-.146.224a3.35,3.35,0,0,0-.377.368c-.1.094-.25.153-.365.267a.975.975,0,0,1-.48.225c-.01,0-.042.139-.068.187a.642.642,0,0,0-.023.154c-.021.082-.035.052-.031.087,0,.106-.107.23-.163.34-.01.029-.007.063-.032.086,0,.024-.035.052-.046.081a.5.5,0,0,1-.151.238,1.633,1.633,0,0,1-.659.429,1.207,1.207,0,0,1-.323-.027,1.369,1.369,0,0,1-1.017-.765c-.027-.107-.082-.225-.1-.3a.336.336,0,0,0,.032-.135c0-.024-.023-.073-.027-.107s.021-.082.013-.125-.027-.083-.031-.117a.992.992,0,0,1,.043-.188c0-.073-.026-.131-.024-.18a.527.527,0,0,1,.041-.318c.041-.091.032-.135.144-.152.073-.022.065-.09.042-.139A.291.291,0,0,1,82.568,31c-.086-.055-.165.03-.242.018a.525.525,0,0,1-.106-.2,7.541,7.541,0,0,1,1-.469,2.178,2.178,0,0,1,.481-.095.85.85,0,0,1,.6.15c.1.051.193,0,.277.133a1.4,1.4,0,0,1,.264.485,3.4,3.4,0,0,1,.064.723,1.762,1.762,0,0,0,.721-.423,1.728,1.728,0,0,0,.518-.6c.1-.152.014-.174.1-.322a1.021,1.021,0,0,1,.123.516m-2.833-.1c-.071-.05-.265-.031-.381-.048a1.854,1.854,0,0,0-.307.109c.154.047.178.251.276.384.142-.055.246.016.311.153.013.054-.113.065-.134.122a3.052,3.052,0,0,0,.163.27c.019.015.073,0,.105.046s.081.045.1.07a.78.78,0,0,0,.5.157.971.971,0,0,0-.144-.816c.061-.1-.12-.23-.2-.315a.748.748,0,0,0-.3-.133m.572,1.548a1.84,1.84,0,0,1-1.026-.378c-.005.014-.015.019-.02.033a1.556,1.556,0,0,0,.169,1.2c.108.128.308.07.392.019a1.358,1.358,0,0,0,.3-.38.905.905,0,0,0,.187-.494" transform="translate(-65.031 -23.925)" fill="#ee7203"/>
    <path id="Tracé_436" data-name="Tracé 436" d="M106.072,5.192a.982.982,0,0,1-.111.391c-.144.2.012.053-.177.25a.749.749,0,0,0-.089.2c-.077.25-.177.2-.323.439a1.025,1.025,0,0,0-.194.321c0,.044-.064.059-.1.089a1.661,1.661,0,0,1-.093.176c-.146.188-.178.2-.324.383a1.622,1.622,0,0,1-.4.455c-.206.168-.351.312-.522.439-.04.02-.114.037-.112.092-.051.022-.02-.04-.052-.033.009.042-.032.152-.066.148-.01-.042.02-.06,0-.089a1.707,1.707,0,0,0-.179.14c.02.04.04-.02.072-.027,0,.055-.038.075-.068.093a.247.247,0,0,0,0-.055c-.129.118-.285.164-.416.271-.04.02-.1.045-.114.036-.07-.017-.035.041-.075.061a1.572,1.572,0,0,0-.312.092,2.1,2.1,0,0,1-.363.06,2.777,2.777,0,0,1-.724-.014c-.139-.024-.227-.071-.352-.087a.411.411,0,0,0-.169-.062.467.467,0,0,1-.2-.033c-.024-.006-.033-.048-.061-.075s-.094-.023-.146-.056c-.028-.027-.053-.088-.1-.133s-.1-.088-.143-.145a1.531,1.531,0,0,1-.434-.5c-.064-.086-.111-.2-.187-.291-.018-.029-.056-.054-.05-.122a.2.2,0,0,0-.06-.119c-.08-.06-.077-.194-.115-.263a2.232,2.232,0,0,1-.094-.367,2.08,2.08,0,0,0-.057-.253c0-.011-.033-.048-.051-.077s-.064-.085-.06-.119.061-.025.054-.057c.053-.012.046.056.074.083a1.832,1.832,0,0,0,0-.244c-.02-.04-.027.028-.053.012a.935.935,0,0,0-.09-.3.375.375,0,0,1,.11-.1c.008-.013,0,0,.021-.005a.246.246,0,0,0,.01-.2c-.014-.063-.112-.152-.1-.2s.037-.13.082-.129c.073.028.112.053.126.116.051-.067.006-.168.068-.237.014.064-.023.094-.019.16.042-.009-.012-.053.048-.033a1.83,1.83,0,0,0-.028.272c-.033-.048,0-.133-.018-.228a.162.162,0,0,0-.024.138c-.017.026,0,.034-.059.035.014.064-.033.152-.04.22s.047.111.053.187-.026.228.038.269c.058.009-.008.113.033.148a.191.191,0,0,0,.021-.2c-.005-.021-.06-.119-.015-.163.054.043.041.135.046.156.106-.024.074-.116.068-.193-.012-.053.021-.1.03-.162a.291.291,0,0,0,0-.2c.059-.036.041-.164.06-.225a.751.751,0,0,0,.018-.214,1.27,1.27,0,0,0,.133-.54c-.076.006-.062.169-.073.216-.048-.067-.012-.152-.026-.216a.074.074,0,0,0-.081.085c-.036-.014.04-.12-.039-.124.033-.052.029-.117.082-.13.009.042-.012.047,0,.089.031-.062.027-.128.1-.155.061.075-.049.078-.03.162.055,0,.009-.057.054-.056,0,0,0,.045.009.042.082-.03-.024-.105.035-.141a.644.644,0,0,0,.112-.291c.075-.261.128-.516.213-.78a1.2,1.2,0,0,0-.146.387.082.082,0,0,1,0-.1c-.028-.027-.037.031-.061.024a.969.969,0,0,0,.047-.232.18.18,0,0,0,.108-.113c.008-.013.018-.115.029-.117A.1.1,0,0,0,100.081,3c.026-.084.061-.025.087-.008.046-.044-.024-.106-.014-.163.019-.015.039.024.049.022a.785.785,0,0,0,.061-.124.533.533,0,0,1,.118-.215.8.8,0,0,0,.13-.262c.035-.041.017-.17.1-.2-.064.014-.1.09-.137.131a1.035,1.035,0,0,0-.137.23c-.014-.064.045-.143.08-.184,0-.034.007-.068.01-.1a.384.384,0,0,0,.1-.111,2.882,2.882,0,0,1,.254-.445c.051-.067.054-.156.118-.215A2.124,2.124,0,0,1,101.337.9c.01,0,.109-.058.072-.072-.013-.008-.04.02-.023-.006A.486.486,0,0,1,101.6.655c.075-.061.114-.137.214-.181a5.219,5.219,0,0,1,.527-.318,1.958,1.958,0,0,1,1.115-.118,1.923,1.923,0,0,1,.788.5,1.794,1.794,0,0,1,.472,1.013,3.645,3.645,0,0,1-.011,1.133c-.014.136-.061.269-.2.223-.1-.021-.416-.073-.373-.227a.862.862,0,0,0,.01-.545,3.253,3.253,0,0,0-.193-.611c-.029-.082-.106-.176-.131-.237a.453.453,0,0,0-.08-.159,1.172,1.172,0,0,1-.164-.14c-.02-.04-.1-.144-.146-.156a.2.2,0,0,1-.154-.143c-.012-.053-.082-.07-.127-.071-.135-.058-.409.1-.521.195a4.147,4.147,0,0,0-.722.784,6.992,6.992,0,0,0-.616,1.1,3.449,3.449,0,0,0-.165.747c0,.1-.083.174-.1.265-.028.217-.092.376-.137.574a1.619,1.619,0,0,0,0,.265c.024.106-.033.2-.01.3-.011.146-.066.347-.085.507-.023.094.02.139.044.245a.821.821,0,0,1-.032.351.486.486,0,0,0,.015.263.459.459,0,0,1,.068.206A2.966,2.966,0,0,0,101,7.1c.078.348.228.669.591.754a2.144,2.144,0,0,0,1.173-.009,2.431,2.431,0,0,0,.647-.278c.029-.018.062-.069.094-.077.059-.035.108-.013.158-.036a.719.719,0,0,0,.143-.054c.177-.151.207-.113.382-.274a1.881,1.881,0,0,1,.306-.268c.037-.031.08-.041.091-.087.033-.051.034-.1.058-.135.073-.071.16-.124.241-.209s.116-.126.181-.229c.125-.183.209-.158.353-.4a2.208,2.208,0,0,0,.217-.315,2.133,2.133,0,0,0,.228-.317c.065-.1.112-.091.14-.164.042-.009.1.034.066.2m-6.922.472c-.045,0,0-.055,0-.066.045,0,0,.055,0,.066m.018.373c.007.032-.012.047.008.087.055,0,.036-.086-.008-.087m.123.549c.009.042.013.108.066.1-.03-.037-.019-.085-.066-.1m.108.53c-.007-.031.009-.057-.013-.108a.2.2,0,0,0-.077.006s-.018.07.027.071c0-.079.031.037.063.03m.023-.293c0,.021-.032.007-.025.039.017.074.041.179.113.207-.033-.147.012-.291-.078-.448l-.011,0c0,.034-.054.057-.055.1a.321.321,0,0,0,.055.1m-.015-1.149c.021-.005-.005.123.006.176a.488.488,0,0,1-.006-.176m.155-.346c-.015-.019-.038-.069.026-.083a.072.072,0,0,1-.026.083m.035-.585a.111.111,0,0,1-.044.1c0-.045,0-.066-.005-.121.032-.007.018.029.049.022m.108-.556a.6.6,0,0,1,.114-.281c-.047.088-.031.207-.114.281m.153-.4c-.044,0,.017-.026,0-.055.042-.009,0,.055,0,.055m.17-.626c0-.034.049-.077.061-.124.021-.1.035-.141.1-.189a1.259,1.259,0,0,1-.078.2c-.018.07-.011.146-.091.186.029-.018-.007-.032.007-.068" transform="translate(-78.341 0)" fill="#ee7203"/>
    <path id="Tracé_437" data-name="Tracé 437" d="M133.8,19.1c.009.13-.2.4-.264.5a2.29,2.29,0,0,1-.546.59c-.044.043-.088.129-.131.15-.065.032-.12.1-.174.128a1.131,1.131,0,0,0-.131.107c-.022.011-.076,0-.108.021-.011.022-.011.054-.022.065a1.935,1.935,0,0,1-1.107.368c-1.027-.009-1.447-.273-1.481-1.258-.075-.076-.119.042-.174.085-.11.161-.427.58-.687.621a1.623,1.623,0,0,1-.648-.157c-.194-.1-.246-.23-.353-.425.055-.065,0-.26.1-.269.022-.086-.043-.087-.031-.174a4.792,4.792,0,0,1,.658-.989s.556-.471.642-.438c.13-.01.207-.128.326-.192a2.4,2.4,0,0,0,.337-.159c.216.013.312.165.506.221.109-.086.122-.28.242-.377a.826.826,0,0,1,.873.343,2.67,2.67,0,0,1-.434,1.262c-.033.075-.067.183-.1.269a2.469,2.469,0,0,0-.158.756.836.836,0,0,0,.125.467c.377.155.585-.027.9-.186a2.648,2.648,0,0,0,.425-.31c.033-.021.044-.075.066-.107.032-.011.054-.032.087-.042.229-.193.785-.674,1.014-.878.1-.086.2-.117.249-.041Zm-3.671-.738a3.858,3.858,0,0,0-1.071,1.213,2.057,2.057,0,0,0,.763-.653,1.411,1.411,0,0,0,.351-.516c.022,0,.022-.043-.043-.044" transform="translate(-101.216 -13.839)" fill="#ee7203"/>
    <path id="Tracé_438" data-name="Tracé 438" d="M149.751,19.22c-.16.02-.448.122-.539.08a2.287,2.287,0,0,1-.581.071c-.206.032-.107.032-.277.05l-.194.024a2.085,2.085,0,0,0-.217.03.656.656,0,0,0-.2.011c-.271.073-.136-.086-.384-.018a1.156,1.156,0,0,1-.423.061,2.249,2.249,0,0,1-.7-.023.936.936,0,0,1-.356-.145c-.068-.092-.079-.194-.23-.261-.049.023-.072.073-.1.111a.352.352,0,0,1-.184.081c-.042.19-.182.17-.179.359a1.292,1.292,0,0,0-.371.527c-.116.174-.25.377-.372.582.056-.353.386-.646.456-.962.043-.046.1-.144.146-.211-.03-.062-.095.079-.12.1a.624.624,0,0,0-.1.166,2.444,2.444,0,0,0-.35.531c-.022.051-.047.112-.047.112a1.371,1.371,0,0,0-.177.249.6.6,0,0,1-.1.189c-.029.082-.06.22-.091.312a1.463,1.463,0,0,1-.116.174c-.171.472-.258.918-.366,1.3.021,0,.01.057.007.068.019.015.023-.006.026-.017.033-.048.049-.022.029.018-.015.019-.019.084-.059.065a4.5,4.5,0,0,1,0,.454,1.689,1.689,0,0,1,.006.323c-.284.081-.389-.1-.433-.395a1.1,1.1,0,0,1-.015-.435,4,4,0,0,1,.133-1,11.68,11.68,0,0,1,1.056-2.669,16.821,16.821,0,0,1,1.227-2.243,5.664,5.664,0,0,0,.606-1.14.08.08,0,0,1,0-.034,1.918,1.918,0,0,0,.036-.612.612.612,0,0,1,.544.242c-.024-.039.331.206.241.263.043-.046.055,0,.114.036-.037.069.024.094,0,.244.012.047.1-.034.088.053-.024.061.081.084.075.161a2.028,2.028,0,0,1-.12.494,3.734,3.734,0,0,1,1.571.059,1.153,1.153,0,0,1,.4.278c.059.035.057.09.089.1l.2.189c.008.013,0,.044.005.079.04.02.064.158.075.26a1.2,1.2,0,0,1-.47.926c.108.013-.291.313-.162.33a7.316,7.316,0,0,0,2.24-.513s.161-.075.194-.023-.225.415-.225.415c-.28.215-.157.109-.248.167s-.332.148-.417.185-.638.18-.638.18m-.988-1.791a3.278,3.278,0,0,0-1.153.055.884.884,0,0,1-.268.062l-.028.027-.1.011a2.5,2.5,0,0,1-.349.178.484.484,0,0,0-.27.117c-.015.019-.047.012-.049.022s-.012.053-.017.074a.849.849,0,0,1-.1.045c-.094.123-.164.341-.288.4a3.749,3.749,0,0,0,.494-.079c.068-.007.174.016.2-.011.07-.018.09-.058.155-.1.01,0,.048.033.064.014.044,0,.126-.072.19-.058a3.122,3.122,0,0,1,.585-.192.854.854,0,0,0,.476-.149,1,1,0,0,0,.309-.2c.028-.027.155-.1.149-.222" transform="translate(-113.199 -11.942)" fill="#ee7203"/>
    <path id="Tracé_439" data-name="Tracé 439" d="M180.311,14.278a5.584,5.584,0,0,0-.518.57c.005.072.059.083.1.089a2.777,2.777,0,0,0,.475.209,4.374,4.374,0,0,0,.493.252,7.316,7.316,0,0,1,1.565.942c-.072.005-.057.024-.068.078-.024,0-.076.015-.088-.013-.031.046.03.012,0,.048-.2-.073-.405-.18-.614-.243a1.52,1.52,0,0,0-.294-.11,2.88,2.88,0,0,1-.489-.2c-.238-.075-.451-.128-.669-.2a.182.182,0,0,1-.1-.041c-.038.008-.06-.025-.09-.037-.01,0-.028.011-.038.008a.64.64,0,0,1-.187-.031c-.077-.067-.232-.061-.3-.076-.1-.065-.146-.072-.2-.049a2,2,0,0,0-.3.249c-.045.052-.077.074-.126.135-.081.083-.119.173-.223.282-.053.072-.106.085-.112.129-.02-.008-.029.07-.032.1a.615.615,0,0,0-.193.212c-.135.155-.282.34-.425.515-.017.04-.11.1-.122.125a2.094,2.094,0,0,1-.17.269c-.081.083-.093.2-.174.221-.039.066-.064.126-.121.207-.059.057-.089.186-.184.275a.614.614,0,0,0-.069.053s.016.018-.007.044c0,0-.034,0-.038.008-.006-.014-.025.06-.033.08s-.012-.029-.02-.008a2.63,2.63,0,0,0-.193.295l-.028.011a.642.642,0,0,0-.055.188,1.616,1.616,0,0,0-.193.974c-.011.054-.006-.014-.027.036.042.123.033.259.191.3a.307.307,0,0,0,.315,0c.038-.007.053-.072.13-.087.021.091-.084.117-.1.157-.038.008-.055.048-.065.043a.315.315,0,0,1-.133.038.733.733,0,0,1-.269.111.444.444,0,0,1-.251.013,1.013,1.013,0,0,1-.645-.619c-.019-.066,0-.082-.019-.207a.328.328,0,0,0-.037-.249.558.558,0,0,1,.041-.182c0-.082.026-.176.025-.259.05-.12.07-.31.122-.464a3.68,3.68,0,0,1,.167-.458c.012-.03-.005-.072.017-.1s.041-.042.039-.066c.047-.027.082-.083.076-.1a1.542,1.542,0,0,1,.23-.385c.025-.06.085-.093.1-.157.073-.063.138-.306.2-.349a1.478,1.478,0,0,0,.112-.129,3.12,3.12,0,0,1,.277-.33,2.8,2.8,0,0,1-.263.183l-.06-.025a.115.115,0,0,1-.011.054,2.377,2.377,0,0,0-.326.251.559.559,0,0,1,.157-.181.634.634,0,0,1,.062-.092c.033-.022.07-.029.073-.063.032-.022.039-.066.057-.082s.048,0,.057-.023c.024,0,.006-.045.02-.05s.059,0,.065-.043a1.152,1.152,0,0,0,.066-.1c0-.024.036-.032.053-.072a.115.115,0,0,0,.049-.062c.018-.016.056-.023.069-.053a.3.3,0,0,0,.037-.09c0-.01.042-.018.077-.074.051-.037.031-.1.074-.121s.085-.035.1-.075c.035-.056.023-.084.078-.132s.091-.021.113-.047c.014-.006.007-.044.029-.07.014-.006.034,0,.038-.008.047-.028.043-.076.056-.106a.128.128,0,0,1,.071-.029c-.012-.028.025-.06.035-.056.061-.091.128-.111.167-.176-.01,0,.078.009-.142-.024a4.184,4.184,0,0,0-.62-.2,2.835,2.835,0,0,1-.7-.348.94.94,0,0,1-.163-.115.858.858,0,0,1-.227-.328.672.672,0,0,1-.139-.257c-.022-.032,0-.082.012-.112a.776.776,0,0,0,.415.1,5.364,5.364,0,0,1,.882.132,9.19,9.19,0,0,1,1.51.51c.144.048.036.026.088.013.044.007.055-.047.106-.085.035-.056.083-.059.135-.073.018-.016.035-.056.053-.071s.067-.019.085-.035a.182.182,0,0,1,0-.058l.043-.018a.294.294,0,0,0,.167-.094c.142-.116.327-.251.521-.381.079-.049.146-.127.209-.136.061-.033.085-.035.111-.071a.138.138,0,0,0,.069-.054c.012-.03.061-.033.108.021.02.009.047-.027.044.007.05.02.068,0,.118.026.01,0,.047.055.087.071a.753.753,0,0,0,.078.149l.02.008-.008.02c.028.047.057.059.063.131a3.494,3.494,0,0,1-.538.479" transform="translate(-138.866 -10.553)" fill="#ee7203"/>
  </g>
</svg>
