<svg xmlns="http://www.w3.org/2000/svg" xmlns:xlink="http://www.w3.org/1999/xlink" width="62.587" height="42.499" viewBox="0 0 62.587 42.499">
  <defs>
    <clipPath id="clip-path">
      <rect id="Rectangle_67" data-name="Rectangle 67" width="62.587" height="42.499" fill="none"/>
    </clipPath>
  </defs>
  <g id="logo-womensafety" transform="translate(-617.24 -2916.256)">
    <g id="Groupe_181" data-name="Groupe 181" transform="translate(617.24 2916.256)">
      <g id="Groupe_180" data-name="Groupe 180" clip-path="url(#clip-path)">
        <path id="Tracé_606" data-name="Tracé 606" d="M173.337,272.331a.179.179,0,0,1,.044.263l-.731.906a.211.211,0,0,1-.307.014,3.932,3.932,0,0,0-2.514-.819c-.994,0-1.535.292-1.535.731,0,.468.439.7,1.769.833,2.046.2,3.523.863,3.523,2.543,0,1.593-1.491,2.514-3.494,2.514a5.354,5.354,0,0,1-3.654-1.228.206.206,0,0,1-.015-.292l.687-.921a.188.188,0,0,1,.292-.044,4,4,0,0,0,2.719.906c1.228,0,1.783-.365,1.783-.906,0-.57-.541-.819-2.032-.95-1.959-.175-3.26-.731-3.26-2.4,0-1.433,1.389-2.368,3.3-2.368a5.339,5.339,0,0,1,3.42,1.213" transform="translate(-153.269 -249.769)" fill="#161615"/>
        <path id="Tracé_607" data-name="Tracé 607" d="M274.764,278.992h-3.976l-.556,1.4a.285.285,0,0,1-.248.175h-1.447c-.146,0-.19-.088-.146-.2l3.45-7.645a.2.2,0,0,1,.19-.117H273.7a.2.2,0,0,1,.19.117l3.289,7.616a.167.167,0,0,1-.161.234h-1.389a.316.316,0,0,1-.307-.2Zm-3.362-1.535h2.777l-1.286-3.274h-.161Z" transform="translate(-247.242 -251.138)" fill="#161615"/>
        <path id="Tracé_608" data-name="Tracé 608" d="M403.978,272.6a.192.192,0,0,1,.2.2v1.2a.2.2,0,0,1-.2.2h-4.327v1.52h3.918a.192.192,0,0,1,.2.2v1.2a.192.192,0,0,1-.2.2h-3.918v3.026a.179.179,0,0,1-.2.2h-1.286a.192.192,0,0,1-.2-.2v-7.557a.2.2,0,0,1,.2-.2Z" transform="translate(-366.619 -251.138)" fill="#161615"/>
        <path id="Tracé_609" data-name="Tracé 609" d="M500.79,272.6a.2.2,0,0,1,.2.2v1.169a.2.2,0,0,1-.2.2h-4.429v1.491h3.888a.192.192,0,0,1,.2.2v1.169a.192.192,0,0,1-.2.2h-3.888v1.725h4.546a.192.192,0,0,1,.2.2v1.184a.2.2,0,0,1-.2.2H494.87a.185.185,0,0,1-.2-.2v-7.557a.209.209,0,0,1,.2-.2Z" transform="translate(-455.713 -251.138)" fill="#161615"/>
        <path id="Tracé_610" data-name="Tracé 610" d="M596.5,272.6a.185.185,0,0,1,.2.2v1.2c0,.146-.058.2-.2.2H593.96v6.154a.192.192,0,0,1-.2.2h-1.286a.185.185,0,0,1-.2-.2v-6.154h-2.544a.192.192,0,0,1-.2-.2v-1.2a.192.192,0,0,1,.2-.2Z" transform="translate(-543.095 -251.138)" fill="#161615"/>
        <path id="Tracé_611" data-name="Tracé 611" d="M694.369,280.366a.185.185,0,0,1-.2.2h-1.286a.192.192,0,0,1-.2-.2v-1.827l-3.3-5.774a.1.1,0,0,1,.1-.161h1.608a.211.211,0,0,1,.19.117l2.236,4.137h.1l2.134-4.122a.207.207,0,0,1,.2-.132h1.593a.116.116,0,0,1,.1.175l-3.274,5.759Z" transform="translate(-635.07 -251.138)" fill="#161615"/>
        <path id="Tracé_612" data-name="Tracé 612" d="M161.516,146.325a.312.312,0,0,1,.308.243l2.318,7.521h.1l2.237-7.586a.258.258,0,0,1,.276-.178h.713a.244.244,0,0,1,.243.178l2.286,7.586h.13l2.318-7.57a.312.312,0,0,1,.292-.195h.713a.151.151,0,0,1,.146.211l-2.723,8.348a.343.343,0,0,1-.324.276h-1.037c-.146,0-.243-.1-.292-.259l-2.091-6.889h-.1l-2.01,6.889a.311.311,0,0,1-.308.259h-1.021a.322.322,0,0,1-.308-.243l-2.739-8.4a.147.147,0,0,1,.146-.195Z" transform="translate(-147.987 -134.803)" fill="#161615"/>
        <path id="Tracé_613" data-name="Tracé 613" d="M329.856,144.68a4.547,4.547,0,1,1-4.555,4.555,4.462,4.462,0,0,1,4.555-4.555m-3.469,4.555a3.478,3.478,0,1,0,3.469-3.582,3.4,3.4,0,0,0-3.469,3.582" transform="translate(-299.686 -133.287)" fill="#161615"/>
        <path id="Tracé_614" data-name="Tracé 614" d="M459.778,146.325a.215.215,0,0,1,.211.211v8.4a.219.219,0,0,1-.211.227h-.632a.222.222,0,0,1-.227-.227v-4.2l.065-3.258-.081-.016-1.361,3.226-1.978,4.263a.333.333,0,0,1-.276.211h-.454a.336.336,0,0,1-.292-.211l-2.01-4.377-1.345-3.112-.065.016.065,3.08v4.377a.218.218,0,0,1-.211.227h-.648a.209.209,0,0,1-.211-.227v-8.4a.2.2,0,0,1,.211-.211h1.2a.311.311,0,0,1,.308.227l1.88,4.036,1.329,3.145h.1l1.524-3.582,1.621-3.6a.311.311,0,0,1,.308-.227Z" transform="translate(-414.673 -134.803)" fill="#161615"/>
        <path id="Tracé_615" data-name="Tracé 615" d="M598.394,146.325a.215.215,0,0,1,.211.211v.551a.214.214,0,0,1-.211.211h-5.43v2.723h5.122a.215.215,0,0,1,.211.211v.551a.214.214,0,0,1-.211.211h-5.122v3.193h5.593a.2.2,0,0,1,.211.195v.567a.2.2,0,0,1-.211.211H592.1a.215.215,0,0,1-.211-.211v-8.413a.215.215,0,0,1,.211-.211Z" transform="translate(-545.286 -134.803)" fill="#161615"/>
        <path id="Tracé_616" data-name="Tracé 616" d="M699.342,155.16a.327.327,0,0,1-.292-.146l-3-3.777-2.642-3.5-.113.033.081,3.274v3.907a.218.218,0,0,1-.227.211h-.632a.218.218,0,0,1-.211-.227v-8.4a.215.215,0,0,1,.211-.211h.713a.411.411,0,0,1,.357.178l3.209,4,2.4,3.21.113-.016-.081-3.274v-3.89a.215.215,0,0,1,.211-.211h.648a.2.2,0,0,1,.211.211v8.413a.2.2,0,0,1-.211.211Z" transform="translate(-637.792 -134.804)" fill="#161615"/>
        <rect id="Rectangle_66" data-name="Rectangle 66" width="0.917" height="4.31" rx="0.459" transform="translate(6.403 21.341)" fill="#b9975a"/>
        <path id="Tracé_617" data-name="Tracé 617" d="M108.177,275.327a.142.142,0,0,1-.118-.055l-1.084-1.368-1.091-1.542-.039.008.055,1.329v1.518a.1.1,0,0,1-.111.111h-.672a.1.1,0,0,1-.111-.111v-4.089a.1.1,0,0,1,.111-.111h.609a.232.232,0,0,1,.15.055l1.186,1.5,1,1.408.039-.008-.055-1.337v-1.51a.1.1,0,0,1,.111-.111h.672a.1.1,0,0,1,.111.111v4.089a.1.1,0,0,1-.111.111Z" transform="translate(-96.737 -249.676)" fill="#b9975a"/>
        <path id="Tracé_618" data-name="Tracé 618" d="M5.407,32.456A20.052,20.052,0,0,1,39.176,10.832c-.111-.192-.218-.385-.336-.575A21.147,21.147,0,0,0,9.814,3.068,21.148,21.148,0,0,0,3.25,32.242a21.148,21.148,0,0,0,29.027,7.19c.122-.075.237-.156.357-.233A20.051,20.051,0,0,1,5.407,32.456" transform="translate(0.001 0)" fill="#b9975a"/>
        <path id="Tracé_619" data-name="Tracé 619" d="M289.263,93.251h.647q-.476.169-.95.34c.1-.114.2-.227.3-.34" transform="translate(-266.206 -85.908)" fill="#100e0c"/>
        <path id="Tracé_620" data-name="Tracé 620" d="M192.126,96.144a1.831,1.831,0,0,1-1.064-.342,1.5,1.5,0,0,1-.49-.608,1.547,1.547,0,0,1-.092-.922,1.527,1.527,0,0,1,.436-.794,1.646,1.646,0,0,1,.695-.4,2.006,2.006,0,0,1,.477-.074h.113a1.8,1.8,0,0,1,1.005.323,1.543,1.543,0,0,1,.528.657,1.561,1.561,0,0,1,.012,1.175,1.5,1.5,0,0,1-.574.691,1.867,1.867,0,0,1-1.045.291m-.024-2.822a1.3,1.3,0,0,0-.834.343,1.267,1.267,0,0,0-.4.763,1.208,1.208,0,0,0,.086.632,1.276,1.276,0,0,0,.47.56,1.3,1.3,0,0,0,.595.209,1.334,1.334,0,0,0,.973-.309,1.228,1.228,0,0,0,.448-.851,1.271,1.271,0,0,0-.715-1.224,1.3,1.3,0,0,0-.624-.123" transform="translate(-175.451 -85.684)" fill="#100e0c"/>
        <path id="Tracé_621" data-name="Tracé 621" d="M158.439,98.39h.349q0,1.115,0,2.229H160.7c0,.091,0,.182,0,.273h-2.259Z" transform="translate(-145.963 -90.642)" fill="#100e0c"/>
        <path id="Tracé_622" data-name="Tracé 622" d="M179.312,98.389h.378l-.47.885h-.259l.351-.885" transform="translate(-164.869 -90.641)" fill="#100e0c"/>
        <path id="Tracé_623" data-name="Tracé 623" d="M278.057,98.39h2.234v.272H278.44q0,.4,0,.805h1.39c0,.092,0,.184,0,.277h-1.39q0,.437,0,.875h1.851v.273h-2.234q0-1.251,0-2.5" transform="translate(-256.161 -90.642)" fill="#100e0c"/>
        <path id="Tracé_624" data-name="Tracé 624" d="M349.624,98.39h.349q0,1.115,0,2.229h1.909v.273h-2.259q0-1.251,0-2.5" transform="translate(-322.093 -90.642)" fill="#100e0c"/>
        <path id="Tracé_625" data-name="Tracé 625" d="M239.485,98.383H240.9a1.671,1.671,0,0,1,.492.043.725.725,0,0,1,.389.254.793.793,0,0,1,.151.431.706.706,0,0,1-.154.445.89.89,0,0,1-.47.283c.242.358.5.7.766,1.046h-.452l-.754-1.049h-1.025q0,.524,0,1.049h-.359Zm.359.3v.861h1.042c.075,0,.15,0,.225,0a.559.559,0,0,0,.288-.094.412.412,0,0,0,.153-.262.4.4,0,0,0-.039-.273.436.436,0,0,0-.289-.209,1.16,1.16,0,0,0-.286-.02Z" transform="translate(-220.627 -90.635)" fill="#100e0c"/>
        <path id="Tracé_626" data-name="Tracé 626" d="M309.951,98.389h.489l1.271,2.5h-.425q-.163-.324-.328-.647h-1.523l-.325.648h-.429q.635-1.251,1.27-2.5M309.6,99.93h1.2l-.606-1.2-.6,1.2" transform="translate(-284.374 -90.641)" fill="#100e0c"/>
        <path id="Tracé_627" data-name="Tracé 627" d="M303.167,407.919a2.961,2.961,0,0,0-1,.4,1.882,1.882,0,0,0-.8-.438,3,3,0,0,0-1.086.3c-.733.247-.96.212-1.624.385a10.563,10.563,0,0,1-2.173.194c-.37.026-.738.075-1.109.091a7.914,7.914,0,0,1-1.084-.074c-.142-.013-.289.019-.432.01a4.551,4.551,0,0,0-1.466.215,7.255,7.255,0,0,0-1.721.685,5.324,5.324,0,0,1-1.647.776l.193-.054a1.485,1.485,0,0,0-.456.137,15.168,15.168,0,0,0,2.369,1.254,5.865,5.865,0,0,0,4.3-.256c.515.126,1.027.255,1.531.4.367.1.506-.02.856-.189a13.838,13.838,0,0,1,2.03-.837,6.79,6.79,0,0,0,2.05-.809c.916-.639,1.823-1.119,2.767-1.717a1.959,1.959,0,0,0-1.5-.472" transform="translate(-266.024 -375.76)" fill="#97784d"/>
        <path id="Tracé_628" data-name="Tracé 628" d="M220.6,391.383c-1.073.383-1.978.7-3.078,1.112a22.127,22.127,0,0,1-3.254.409,29.291,29.291,0,0,1-5.528-.306l.035-.019c1.4-.437,1.47-.559,3.085-1.076.33-.105,2.985-.671,3.323-1.079.027-.579-.375-1.026-1.293-.883-.749.116-2.875.251-4.061.367s-2.319.034-3.076.077c-1.772.186-2.234.131-3.039.748-.663.508-2.447,1.848-2.912,3.031-1.151,2.46-2.553,5.293-3.1,6.326.636,0,1.662.534,2.782.665a10.471,10.471,0,0,0,2.38.217c.294-.064.39-.462.39-.462,1.688-5.038,3.754-3.888,5.442-4.341,1.585-.425,3.276-.528,4.952-.842a27.641,27.641,0,0,0,4.7-1.237,41.312,41.312,0,0,0,3.943-2,1.749,1.749,0,0,0-1.694-.709" transform="translate(-182.139 -358.843)" fill="#b9975a"/>
      </g>
    </g>
  </g>
</svg>
