<svg id="logo-vitality" xmlns="http://www.w3.org/2000/svg" xmlns:xlink="http://www.w3.org/1999/xlink" width="58.318" height="52.952" viewBox="0 0 58.318 52.952">
  <defs>
    <clipPath id="clip-path">
      <rect id="Rectangle_48" data-name="Rectangle 48" width="58.318" height="52.952" fill="none"/>
    </clipPath>
    <linearGradient id="linear-gradient" x1="-0.095" y1="2.619" x2="-0.088" y2="2.619" gradientUnits="objectBoundingBox">
      <stop offset="0" stop-color="#4089bb"/>
      <stop offset="0.021" stop-color="#4089bb"/>
      <stop offset="1" stop-color="#14bb9d"/>
    </linearGradient>
    <linearGradient id="linear-gradient-2" x1="-0.074" y1="1.012" x2="-0.066" y2="1.012" xlink:href="#linear-gradient"/>
  </defs>
  <path id="Tracé_520" data-name="Tracé 520" d="M5.481,59.007,3.831,63.9,2.195,59.007H0l2.876,7.362H4.758l2.876-7.362Z" transform="translate(0 -38.57)" fill="#3c3c3b"/>
  <path id="Tracé_521" data-name="Tracé 521" d="M25.623,51.37H27.8v1.841H25.623Zm.054,2.645H27.75v7.307H25.677Z" transform="translate(-16.748 -33.578)" fill="#3c3c3b"/>
  <g id="Groupe_150" data-name="Groupe 150" transform="translate(0)">
    <g id="Groupe_149" data-name="Groupe 149" clip-path="url(#clip-path)">
      <path id="Tracé_522" data-name="Tracé 522" d="M36.726,60.717V57.254h-.872V55.482h.872V53.614H38.8v1.868h1.718v1.772H38.8v3.122c0,.477.2.709.668.709a2.1,2.1,0,0,0,1.022-.259v1.663a3.054,3.054,0,0,1-1.636.423c-1.268,0-2.127-.5-2.127-2.2" transform="translate(-23.436 -35.045)" fill="#3c3c3b"/>
      <path id="Tracé_523" data-name="Tracé 523" d="M52.464,64.061v-.027c0-1.595,1.213-2.331,2.945-2.331a5.19,5.19,0,0,1,1.786.3v-.123c0-.859-.531-1.336-1.568-1.336a5.375,5.375,0,0,0-2.017.4l-.518-1.581a6.449,6.449,0,0,1,2.836-.586,3.374,3.374,0,0,1,2.468.818,3.188,3.188,0,0,1,.791,2.332v4.24h-2v-.791a2.81,2.81,0,0,1-2.209.927,2.26,2.26,0,0,1-2.508-2.236m4.758-.477v-.368a3.215,3.215,0,0,0-1.322-.273c-.886,0-1.431.354-1.431,1.009v.027c0,.559.463.886,1.132.886.968,0,1.622-.532,1.622-1.282" transform="translate(-34.293 -38.415)" fill="#3c3c3b"/>
      <rect id="Rectangle_47" data-name="Rectangle 47" width="2.072" height="9.952" transform="translate(26.773 17.792)" fill="#3c3c3b"/>
      <path id="Tracé_524" data-name="Tracé 524" d="M89.027,51.37h2.181v1.841H89.027Zm.055,2.645h2.072v7.307H89.082Z" transform="translate(-58.192 -33.578)" fill="#3c3c3b"/>
      <path id="Tracé_525" data-name="Tracé 525" d="M100.132,60.717V57.254h-.873V55.482h.873V53.614H102.2v1.868h1.718v1.772H102.2v3.122c0,.477.205.709.668.709a2.107,2.107,0,0,0,1.023-.259v1.663a3.057,3.057,0,0,1-1.636.423c-1.268,0-2.127-.5-2.127-2.2" transform="translate(-64.88 -35.045)" fill="#3c3c3b"/>
      <path id="Tracé_526" data-name="Tracé 526" d="M120.692,59.007h2.154l-2.809,7.485c-.559,1.486-1.159,2.045-2.4,2.045a3.429,3.429,0,0,1-1.841-.5l.7-1.5a1.882,1.882,0,0,0,.886.286.692.692,0,0,0,.722-.477l-2.863-7.335h2.195l1.663,4.976Z" transform="translate(-75.326 -38.57)" fill="#3c3c3b"/>
      <path id="Tracé_527" data-name="Tracé 527" d="M13.677,17.216a26.233,26.233,0,0,1,49.815,3.419.173.173,0,0,1-.336.083A25.89,25.89,0,0,0,14,17.345a.173.173,0,0,1-.322-.129Z" transform="translate(-8.932 -0.476)" fill="url(#linear-gradient)"/>
      <path id="Tracé_528" data-name="Tracé 528" d="M53.83,103.28A26.227,26.227,0,0,1,9.466,89.337a.173.173,0,0,1,.341-.061,25.884,25.884,0,0,0,25.481,21.338h0a25.8,25.8,0,0,0,18.3-7.579.173.173,0,1,1,.245.245Z" transform="translate(-6.186 -58.262)" fill="url(#linear-gradient-2)"/>
      <path id="Tracé_529" data-name="Tracé 529" d="M75.256,101.4a6.056,6.056,0,0,0,1.735-.021q.833-.135,1.713-.32c.116-.015.171,0,.167.058a.135.135,0,0,1-.04.1,4.938,4.938,0,0,1-1.522.765,4.547,4.547,0,0,1-1.674.147q.148.459.289,1.062a11.255,11.255,0,0,1,.216,1.257q.077.655.09,1.3a6.293,6.293,0,0,1-.083,1.2,3.317,3.317,0,0,1-.317.972,1.281,1.281,0,0,1-.588.59,2.287,2.287,0,0,1-.571.039.619.619,0,0,1-.472-.293,3.394,3.394,0,0,1-.6-1.535q-.1-.8-.128-1.6a29.664,29.664,0,0,1,.2-3.04q.18-1.548.5-3.034a26.393,26.393,0,0,1,.774-2.839,17.346,17.346,0,0,1,1.034-2.474,2.131,2.131,0,0,1,.3-.385.59.59,0,0,1,.438-.172.436.436,0,0,1,.4.135.415.415,0,0,1,.1.4l.036.279q.059.454.1.944a4.166,4.166,0,0,1-.041.98,10.957,10.957,0,0,1-.781,2.858,26.714,26.714,0,0,1-1.267,2.531.286.286,0,0,1-.006.089m-.409,5.176q.164.032.264-.221a2.379,2.379,0,0,0,.135-.665,7.4,7.4,0,0,0,.014-.915q-.022-.5-.072-.965a5.982,5.982,0,0,0-.142-.815,1.166,1.166,0,0,0-.193-.462q-.063,1.018-.12,2.01a9.2,9.2,0,0,0,.114,2.033m.442-6.28a8.5,8.5,0,0,0,.677-1.338A14.552,14.552,0,0,0,76.5,97.4a14.862,14.862,0,0,0,.353-1.579A10.981,10.981,0,0,0,77,94.384a6.721,6.721,0,0,0-.535,1.275q-.273.833-.511,1.733t-.417,1.7q-.179.8-.251,1.2" transform="translate(-48.024 -60.903)" fill="#14bb9d"/>
      <path id="Tracé_530" data-name="Tracé 530" d="M89.957,108.825a1.809,1.809,0,0,0,.44-.163q.233-.119.435-.2.235-.1.493-.233a4.166,4.166,0,0,1,.495-.215c.116-.015.168.011.153.078a.714.714,0,0,1-.136.248,2.7,2.7,0,0,1-.263.291c-.1.1-.177.165-.23.207a4.951,4.951,0,0,1-.79.4,3.612,3.612,0,0,0-.738.4q-.12.3-.339.8a9.252,9.252,0,0,1-.5.978,4.944,4.944,0,0,1-.618.842,1.155,1.155,0,0,1-.683.408,1.307,1.307,0,0,1-.873-.17,1.049,1.049,0,0,1-.462-.489,2.89,2.89,0,0,1-.26-.773,4.458,4.458,0,0,1-.082-.84,5.433,5.433,0,0,1,.034-.687.371.371,0,0,1,.031-.172.221.221,0,0,1,.062-.07c.022-.014.046-.029.074-.045a.177.177,0,0,0,.069-.08c.018-.132.036-.271.052-.415a1.4,1.4,0,0,1,.107-.4,4.275,4.275,0,0,1,.632-1.066,1.823,1.823,0,0,1,1.005-.654,1.442,1.442,0,0,1,.711-.057,1.233,1.233,0,0,1,.619.327,1.357,1.357,0,0,1,.361.459,2.191,2.191,0,0,1,.172.509,1.991,1.991,0,0,1,.042.464c-.005.142-.008.249-.011.32m-2.173,3.19a.843.843,0,0,0,.36-.3,4.071,4.071,0,0,0,.353-.551,4.589,4.589,0,0,0,.275-.612,2.638,2.638,0,0,0,.138-.505c-.23.054-.477.1-.745.132a3.83,3.83,0,0,1-.758.028,1.727,1.727,0,0,0-.017.419,3.986,3.986,0,0,0,.068.523,3.587,3.587,0,0,0,.138.505,1.191,1.191,0,0,0,.189.365m1.2-2.886a.125.125,0,0,0,.091-.118,1.784,1.784,0,0,0,.036-.749.912.912,0,0,0-.337-.612.463.463,0,0,0-.334-.116.682.682,0,0,0-.357.117,1.925,1.925,0,0,0-.494.561q-.173.306-.326.627a.167.167,0,0,0,.051.117.413.413,0,0,1,.2.328c.008.059.079.085.215.079a3.71,3.71,0,0,0,.454-.05,4.377,4.377,0,0,0,.482-.107,2.68,2.68,0,0,1,.318-.077" transform="translate(-56.21 -69.759)" fill="#14bb9d"/>
      <path id="Tracé_531" data-name="Tracé 531" d="M105.49,104.407a3.919,3.919,0,0,0-1.106,1.039,10.926,10.926,0,0,0-.886,1.436q-.4.779-.774,1.607t-.755,1.552a.286.286,0,0,1-.321.131.375.375,0,0,1-.279-.239.7.7,0,0,1-.021-.432c.045-.29.083-.614.113-.972s.056-.734.076-1.126.043-.786.068-1.179.056-.77.093-1.129a.348.348,0,0,1,.137-.24.626.626,0,0,1,.276-.124.5.5,0,0,1,.287.025.325.325,0,0,1,.184.188,2.034,2.034,0,0,1,.065.843q-.05.5-.128.991.263-.423.571-.987a8.189,8.189,0,0,1,.695-1.065,4.629,4.629,0,0,1,.847-.855,1.715,1.715,0,0,1,1.006-.37.929.929,0,0,1,.482.23,1.468,1.468,0,0,1,.311.42s.211.466-.942.255" transform="translate(-66.23 -67.653)" fill="#14bb9d"/>
      <path id="Tracé_532" data-name="Tracé 532" d="M123.978,110.028l-.293.4a2.8,2.8,0,0,1-.37.411,2.513,2.513,0,0,1-.464.336,1.4,1.4,0,0,1-.57.174,1.117,1.117,0,0,1-.46-.041,2.305,2.305,0,0,1-.441-.189.835.835,0,0,1-.346-.43,2.59,2.59,0,0,1-.165-.5,10.181,10.181,0,0,1-.033-1.11,9.186,9.186,0,0,1,.107-1.19,6.232,6.232,0,0,1,.612-1.843,3,3,0,0,1,1.294-1.306,1.7,1.7,0,0,1,.622-.208,1.368,1.368,0,0,1,.635.052,1.2,1.2,0,0,1,.5.315.8.8,0,0,1,.216.539q-.005.124-.021.25a.691.691,0,0,1-.059.22.239.239,0,0,1-.1.12c-.036.017-.083-.007-.142-.071q-.035-.051-.094-.146a.962.962,0,0,0-.143-.183.66.66,0,0,0-.214-.142.43.43,0,0,0-.3-.007,1.3,1.3,0,0,0-.682.673,7.536,7.536,0,0,0-.568,1.281,10.189,10.189,0,0,0-.375,1.389,4.96,4.96,0,0,0-.121,1c.018.348.073.518.167.511s.211-.114.354-.325a5.8,5.8,0,0,0,.454-.832q.238-.515.443-1.011t.35-.874c.1-.251.151-.385.16-.4a.709.709,0,0,1,.915-.252.845.845,0,0,1,.357.325.7.7,0,0,1,.09.493q-.045.338-.143.814a2.717,2.717,0,0,0-.062.811q.083.5.3.607c.142.068.347,0,.615-.2a2.607,2.607,0,0,0,.6-.751q.285-.5.546-1.041t.487-1.035a5.306,5.306,0,0,1,.4-.745,1.671,1.671,0,0,1,.105-.162c.044-.06.088-.083.133-.069a.148.148,0,0,1,.133.074.99.99,0,0,1,.051.138,9.8,9.8,0,0,1-.244,1.351,7.666,7.666,0,0,1-.452,1.3,5.925,5.925,0,0,1-.688,1.153,4.693,4.693,0,0,1-.943.931,1.461,1.461,0,0,1-.653.278,1.354,1.354,0,0,1-1.125-.38,1.848,1.848,0,0,1-.369-.5" transform="translate(-78.983 -68.314)" fill="#14bb9d"/>
      <path id="Tracé_533" data-name="Tracé 533" d="M145.372,83.938c.112.093.182.1.209.036a1.355,1.355,0,0,1,.144-.256,12.587,12.587,0,0,0,.572-1.58q.28-.936.518-1.919t.417-1.907q.179-.924.276-1.523a.756.756,0,0,1,.041-.2c.023-.074.043-.144.057-.207q.079-.206.208-.135a.305.305,0,0,1,.146.256q-.071.566-.118,1.593t-.163,2.19q-.116,1.163-.326,2.3a8.76,8.76,0,0,1-.563,1.939,1.77,1.77,0,0,1-.731.859,1.817,1.817,0,0,1-1.007.093,1.16,1.16,0,0,1-.812-.528,10.623,10.623,0,0,1-.939-2.215,22.177,22.177,0,0,1-.7-3.281q-.272-1.868-.4-3.845-.014,1.226-.029,2.708t-.045,2.843q-.03,1.361-.112,2.4a5.263,5.263,0,0,1-.231,1.386,1.771,1.771,0,0,1-.732.859,1.816,1.816,0,0,1-1.007.094,1.163,1.163,0,0,1-.812-.528,10.634,10.634,0,0,1-.939-2.215,22.739,22.739,0,0,1-.675-3.092q-.264-1.732-.381-3.564t-.087-3.6a30.737,30.737,0,0,1,.2-3.169q.09-.617.2-1.19a8.749,8.749,0,0,1,.283-1.1.774.774,0,0,1,.21-.371.53.53,0,0,1,.392-.152.637.637,0,0,1,.633.512,13.252,13.252,0,0,1,.49,2.456,22.155,22.155,0,0,1,.127,2.724A24.774,24.774,0,0,1,139.5,75.3a16.742,16.742,0,0,1-.447,2.348.391.391,0,0,0-.025.161c0,.056,0,.113,0,.171q.049.834.17,1.807t.293,1.87a15.288,15.288,0,0,0,.4,1.63,4.17,4.17,0,0,0,.467,1.076.319.319,0,0,0,.325.081.541.541,0,0,0,.26-.211,5.326,5.326,0,0,0,.32-1.329q.135-.926.222-2.13t.159-2.562q.072-1.358.14-2.629t.143-2.309a16,16,0,0,1,.18-1.62q.028-.761.072-1.454t.117-1.3c.06-.411.127-.808.2-1.19a8.807,8.807,0,0,1,.283-1.1.774.774,0,0,1,.21-.371.528.528,0,0,1,.393-.153.636.636,0,0,1,.633.511,12.512,12.512,0,0,1,.473,2.251,15.622,15.622,0,0,1,.1,2.268,17.915,17.915,0,0,1-.209,2.231,20,20,0,0,1-.459,2.15.381.381,0,0,0-.025.161c0,.056,0,.112,0,.17q.034.563.109,1.31t.185,1.576q.111.829.252,1.653t.291,1.55q.149.725.313,1.262a2.731,2.731,0,0,0,.327.764m-6.309-15.493q-.089.81-.129,1.833t-.032,2.078q.008,1.056.022,2.076t.011,1.834a3.615,3.615,0,0,0,.151-.815q.062-.583.1-1.348t.05-1.626q.014-.861,0-1.646t-.052-1.421a5.649,5.649,0,0,0-.118-.964m4.952-.846a27.546,27.546,0,0,0-.2,3.256q-.006,1.628-.012,3.256a3.6,3.6,0,0,0,.161-.724q.071-.491.121-1.1t.065-1.3q.015-.69.01-1.33t-.036-1.192a5.277,5.277,0,0,0-.1-.863" transform="translate(-89.643 -43.194)" fill="#14bb9d"/>
    </g>
  </g>
</svg>
