<svg id="logo-cherie" xmlns="http://www.w3.org/2000/svg" xmlns:xlink="http://www.w3.org/1999/xlink" width="60.768" height="60.768" viewBox="0 0 60.768 60.768">
  <defs>
    <clipPath id="clip-path">
      <rect id="Rectangle_59" data-name="Rectangle 59" width="60.768" height="60.768" fill="none"/>
    </clipPath>
  </defs>
  <g id="Groupe_171" data-name="Groupe 171" clip-path="url(#clip-path)">
    <path id="Tracé_560" data-name="Tracé 560" d="M152.412,52.336a4.642,4.642,0,1,1-4.851-4.423,4.642,4.642,0,0,1,4.851,4.423" transform="translate(-119.067 -39.853)" fill="#161615"/>
    <path id="Tracé_561" data-name="Tracé 561" d="M156.608,61.129a1.592,1.592,0,1,1-1.664-1.517,1.592,1.592,0,0,1,1.664,1.517" transform="translate(-127.629 -49.588)" fill="#fff"/>
    <path id="Tracé_562" data-name="Tracé 562" d="M70.056,211.526A4.642,4.642,0,1,1,65.2,207.1a4.642,4.642,0,0,1,4.851,4.423" transform="translate(-50.558 -172.277)" fill="#161615"/>
    <path id="Tracé_563" data-name="Tracé 563" d="M74.252,220.318a1.592,1.592,0,1,1-1.664-1.517,1.592,1.592,0,0,1,1.664,1.517" transform="translate(-59.12 -182.011)" fill="#fff"/>
    <path id="Tracé_564" data-name="Tracé 564" d="M249.084,203.262a4.642,4.642,0,1,1-4.851-4.423,4.642,4.642,0,0,1,4.851,4.423" transform="translate(-199.485 -165.403)" fill="#161615"/>
    <path id="Tracé_565" data-name="Tracé 565" d="M253.28,212.056a1.592,1.592,0,1,1-1.664-1.517,1.592,1.592,0,0,1,1.664,1.517" transform="translate(-208.047 -175.138)" fill="#fff"/>
    <path id="Tracé_566" data-name="Tracé 566" d="M153.355,150.95a5.714,5.714,0,1,1-5.971-5.444,5.714,5.714,0,0,1,5.971,5.444" transform="translate(-118.07 -121.036)" fill="#161615"/>
    <path id="Tracé_567" data-name="Tracé 567" d="M158.519,161.774a1.959,1.959,0,1,1-2.048-1.867,1.959,1.959,0,0,1,2.048,1.867" transform="translate(-128.608 -133.019)" fill="#fff"/>
    <rect id="Rectangle_50" data-name="Rectangle 50" width="1.729" height="8.7" transform="translate(28.029 16.744) rotate(-2.641)" fill="#161615"/>
    <rect id="Rectangle_51" data-name="Rectangle 51" width="8.7" height="1.73" transform="matrix(0.842, -0.539, 0.539, 0.842, 17.68, 36.833)" fill="#161615"/>
    <rect id="Rectangle_52" data-name="Rectangle 52" width="1.73" height="8.7" transform="translate(33.469 33.25) rotate(-62.643)" fill="#161615"/>
    <path id="Tracé_568" data-name="Tracé 568" d="M192.968,257.371a1.5,1.5,0,1,1-.727-1.991,1.5,1.5,0,0,1,.727,1.991" transform="translate(-158.146 -212.325)" fill="#161615"/>
    <path id="Tracé_569" data-name="Tracé 569" d="M195.664,258.814a.514.514,0,1,1-.249-.683.514.514,0,0,1,.249.683" transform="translate(-161.95 -214.69)" fill="#fff"/>
    <path id="Tracé_570" data-name="Tracé 570" d="M145.607,290.619a1.5,1.5,0,1,1-.727-1.991,1.5,1.5,0,0,1,.727,1.991" transform="translate(-118.747 -239.982)" fill="#161615"/>
    <path id="Tracé_571" data-name="Tracé 571" d="M148.3,292.062a.514.514,0,1,1-.249-.683.514.514,0,0,1,.249.683" transform="translate(-122.553 -242.347)" fill="#fff"/>
    <path id="Tracé_572" data-name="Tracé 572" d="M198.076,315.012a1.5,1.5,0,1,1-.727-1.991,1.5,1.5,0,0,1,.727,1.991" transform="translate(-162.395 -260.274)" fill="#161615"/>
    <path id="Tracé_573" data-name="Tracé 573" d="M200.772,316.455a.514.514,0,1,1-.249-.683.514.514,0,0,1,.249.683" transform="translate(-166.2 -262.639)" fill="#fff"/>
    <path id="Tracé_574" data-name="Tracé 574" d="M177.511,286.331a1.845,1.845,0,1,1-.9-2.45,1.845,1.845,0,0,1,.9,2.45" transform="translate(-144.739 -236.006)" fill="#161615"/>
    <path id="Tracé_575" data-name="Tracé 575" d="M180.831,288.107a.633.633,0,1,1-.307-.84.633.633,0,0,1,.307.84" transform="translate(-149.423 -238.917)" fill="#fff"/>
    <rect id="Rectangle_53" data-name="Rectangle 53" width="2.809" height="0.558" transform="translate(31.48 48.018) rotate(-65.071)" fill="#161615"/>
    <rect id="Rectangle_54" data-name="Rectangle 54" width="2.809" height="0.558" transform="translate(26.7 49.674) rotate(-5.062)" fill="#161615"/>
    <rect id="Rectangle_55" data-name="Rectangle 55" width="0.558" height="2.809" transform="matrix(0.818, -0.575, 0.575, 0.818, 31.754, 51.008)" fill="#161615"/>
    <path id="Tracé_576" data-name="Tracé 576" d="M248.72,69.844a1,1,0,1,1-1.357-.385,1,1,0,0,1,1.357.385" transform="translate(-205.347 -57.675)" fill="#161615"/>
    <path id="Tracé_577" data-name="Tracé 577" d="M250.452,71.723a.342.342,0,1,1-.465-.132.342.342,0,0,1,.465.132" transform="translate(-207.808 -59.518)" fill="#fff"/>
    <path id="Tracé_578" data-name="Tracé 578" d="M248.158,108.342a1,1,0,1,1-1.357-.385,1,1,0,0,1,1.357.385" transform="translate(-204.88 -89.7)" fill="#161615"/>
    <path id="Tracé_579" data-name="Tracé 579" d="M248.7,111.418a.342.342,0,1,1-.465-.132.342.342,0,0,1,.465.132" transform="translate(-206.353 -92.539)" fill="#fff"/>
    <path id="Tracé_580" data-name="Tracé 580" d="M281.778,89.582a1,1,0,1,1-1.357-.385,1,1,0,0,1,1.357.385" transform="translate(-232.847 -74.094)" fill="#161615"/>
    <path id="Tracé_581" data-name="Tracé 581" d="M282.323,92.659a.342.342,0,1,1-.465-.132.342.342,0,0,1,.465.132" transform="translate(-234.321 -76.934)" fill="#fff"/>
    <path id="Tracé_582" data-name="Tracé 582" d="M258.749,88.08a1.227,1.227,0,1,1-1.67-.474,1.227,1.227,0,0,1,1.67.474" transform="translate(-213.33 -72.747)" fill="#161615"/>
    <path id="Tracé_583" data-name="Tracé 583" d="M259.419,91.867a.421.421,0,1,1-.573-.162.421.421,0,0,1,.573.162" transform="translate(-215.145 -76.241)" fill="#fff"/>
    <rect id="Rectangle_56" data-name="Rectangle 56" width="0.372" height="1.869" transform="translate(42.76 13.498) rotate(-29.163)" fill="#161615"/>
    <rect id="Rectangle_57" data-name="Rectangle 57" width="1.869" height="0.372" transform="translate(42.698 18.352) rotate(-59.152)" fill="#161615"/>
    <rect id="Rectangle_58" data-name="Rectangle 58" width="0.372" height="1.869" transform="translate(45.389 16.149) rotate(-89.171)" fill="#161615"/>
    <path id="Tracé_584" data-name="Tracé 584" d="M14.074,93.5a.082.082,0,0,1,.1.061l.113.545a.09.09,0,0,1-.07.114,1.246,1.246,0,0,0-.981.729,1.123,1.123,0,0,0,.566,1.565,1.14,1.14,0,0,0,1.593-.529,1.231,1.231,0,0,0-.055-1.249c-.02-.041-.011-.075.048-.1l.508-.247a.085.085,0,0,1,.107.036,1.9,1.9,0,0,1,.088,1.9,1.944,1.944,0,0,1-2.642.929,1.922,1.922,0,0,1-.911-2.633,1.949,1.949,0,0,1,1.54-1.116" transform="translate(-10.251 -77.782)" fill="#161615"/>
    <path id="Tracé_585" data-name="Tracé 585" d="M16.587,72.79a.092.092,0,0,1,.137-.026l1.115.758a1.448,1.448,0,0,1,.257-1.065,1.589,1.589,0,0,1,2.4-.433l1.691,1.148a.089.089,0,0,1,.026.137l-.347.511a.092.092,0,0,1-.137.026l-1.667-1.132a.851.851,0,0,0-1.326.178,1.307,1.307,0,0,0-.21,1.1l2.126,1.444a.089.089,0,0,1,.026.137l-.347.511a.092.092,0,0,1-.137.026l-3.927-2.667a.1.1,0,0,1-.026-.137Z" transform="translate(-13.495 -59.609)" fill="#161615"/>
    <path id="Tracé_586" data-name="Tracé 586" d="M45.848,52.08a.079.079,0,0,1,.078.082,2.524,2.524,0,0,1-.705,1.619,1.971,1.971,0,1,1-2.9-2.663,1.887,1.887,0,0,1,2.766-.07l.2.192c.046.043.058.083.014.129l-2.052,2.2a1.159,1.159,0,0,0,1.411-.307,1.784,1.784,0,0,0,.541-1.166.079.079,0,0,1,.082-.078Zm-3.157.973L44.24,51.4a1.056,1.056,0,0,0-1.363.245,1.147,1.147,0,0,0-.185,1.412" transform="translate(-34.732 -41.992)" fill="#161615"/>
    <path id="Tracé_587" data-name="Tracé 587" d="M68.822,53.255a.548.548,0,1,1-.053.773.536.536,0,0,1,.053-.773" transform="translate(-57.09 -44.185)" fill="#161615"/>
    <path id="Tracé_588" data-name="Tracé 588" d="M66.607,28a.1.1,0,0,1,.129.012l.224.194.029-.02a1.426,1.426,0,0,1,.589-.942,1.458,1.458,0,0,1,1.908.129.1.1,0,0,1,.026.145L69.167,28a.093.093,0,0,1-.136.027.831.831,0,0,0-1.075-.108,1.145,1.145,0,0,0-.485.955l1.457,2.057a.086.086,0,0,1-.024.137l-.5.357a.1.1,0,0,1-.137-.024l-2.1-2.963a.092.092,0,0,1,.023-.137Z" transform="translate(-55.023 -22.419)" fill="#161615"/>
    <path id="Tracé_589" data-name="Tracé 589" d="M82.222,12.511a.583.583,0,1,1,.8.214.6.6,0,0,1-.8-.214m1.276.436a.1.1,0,0,1,.134.036l1.8,3.153a.089.089,0,0,1-.037.134l-.537.306a.1.1,0,0,1-.134-.037l-1.8-3.153a.1.1,0,0,1,.037-.134Z" transform="translate(-68.336 -9.681)" fill="#161615"/>
    <path id="Tracé_590" data-name="Tracé 590" d="M104.174,29.706a.548.548,0,1,1-.249.734.535.535,0,0,1,.249-.734" transform="translate(-86.401 -24.661)" fill="#161615"/>
    <path id="Tracé_591" data-name="Tracé 591" d="M112.06,9.007a.079.079,0,0,1,.032.108,2.522,2.522,0,0,1-1.355,1.132,1.971,1.971,0,1,1-1.4-3.682,1.887,1.887,0,0,1,2.5,1.176l.1.263c.022.059.014.1-.045.122l-2.818,1.046a1.159,1.159,0,0,0,1.4.357,1.782,1.782,0,0,0,1.006-.8.079.079,0,0,1,.108-.032ZM108.8,8.464l2.127-.789a1.056,1.056,0,0,0-1.329-.391,1.147,1.147,0,0,0-.8,1.18" transform="translate(-89.85 -5.35)" fill="#161615"/>
    <path id="Tracé_592" data-name="Tracé 592" d="M30.384,0a30.362,30.362,0,0,0-6.908.793l.648,1.578A28.7,28.7,0,1,1,3.213,21.127l-1.554-.648A30.384,30.384,0,1,0,30.384,0" fill="#161615"/>
  </g>
</svg>
