<svg xmlns="http://www.w3.org/2000/svg" xmlns:xlink="http://www.w3.org/1999/xlink" width="338.629" height="32.432" viewBox="0 0 338.629 32.432">
  <defs>
    <clipPath id="clip-path">
      <rect id="Rectangle_25" data-name="Rectangle 25" width="135.742" height="29.337" fill="none"/>
    </clipPath>
    <clipPath id="clip-path-2">
      <rect id="Rectangle_26" data-name="Rectangle 26" width="179.022" height="32.432" transform="translate(0 0)" fill="#fff"/>
    </clipPath>
  </defs>
  <g id="logo-loreal-HS" transform="translate(-522.475 -11)">
    <g id="Groupe_44" data-name="Groupe 44" transform="translate(725.362 11.817)">
      <g id="Groupe_43" data-name="Groupe 43" clip-path="url(#clip-path)">
        <path id="Tracé_467" data-name="Tracé 467" d="M147.962,9.554a2.575,2.575,0,0,0,2.564,2.582,2.511,2.511,0,0,0,2.564-2.443c0-1.8-1.542-2.2-3.032-2.685-1.039-.312-3.275-.97-3.275-3.4A3.549,3.549,0,0,1,150.6.077a3.451,3.451,0,0,1,3.638,3.309h-1.421a2.311,2.311,0,0,0-4.609.1c-.017,1.559,1.247,1.94,3.188,2.6,1.213.468,3.119,1.143,3.119,3.5a3.736,3.736,0,0,1-3.968,3.76,3.788,3.788,0,0,1-4.02-3.794Z" transform="translate(-113.96 -0.06)" fill="#fff"/>
        <path id="Tracé_468" data-name="Tracé 468" d="M187.515,13.912h-1.542l5.354-12.821h1.386l5.3,12.821h-1.559l-1.49-3.6h-5.977ZM191.968,2.7,189.421,9.13h5.111Z" transform="translate(-144.641 -0.849)" fill="#fff"/>
        <path id="Tracé_469" data-name="Tracé 469" d="M246.546,1.091h6.515V2.356h-5.094v4.5h5.059V8.143h-5.059v5.769h-1.421Z" transform="translate(-191.752 -0.848)" fill="#fff"/>
        <path id="Tracé_470" data-name="Tracé 470" d="M284.512,1.091h7.1V2.356h-5.683V6.808h5.648V8.073h-5.648v4.574h5.683v1.265h-7.1Z" transform="translate(-221.28 -0.848)" fill="#fff"/>
        <path id="Tracé_471" data-name="Tracé 471" d="M334.745,10.778a6.6,6.6,0,0,1-11.8-4.037,6.662,6.662,0,0,1,6.7-6.74c3.084,0,6.012,2.079,6.012,5.492,0,3.119-2.426,4.8-3.846,4.8a1.385,1.385,0,0,1-1.49-1.282,2.5,2.5,0,0,1-2.166,1.23,2.262,2.262,0,0,1-2.148-2.53c0-2.2,1.629-4.539,3.587-4.539a1.766,1.766,0,0,1,1.819,1.3l.312-1.039h.936l-1.334,4.4a6.911,6.911,0,0,0-.191.866c-.017.659.485.745.8.745,1.04,0,2.859-1.421,2.859-3.933,0-3.049-2.581-4.678-5.094-4.678a5.8,5.8,0,0,0-5.839,5.926,5.61,5.61,0,0,0,5.717,5.717,5.907,5.907,0,0,0,4.747-2.218Zm-7.779-3.067c0,1.334.8,1.681,1.369,1.681a2.431,2.431,0,0,0,2.183-1.923,7.372,7.372,0,0,0,.572-1.958,1.426,1.426,0,0,0-1.4-1.49c-1.282,0-2.72,1.68-2.72,3.673Z" transform="translate(-251.172 -0.001)" fill="#fff"/>
        <path id="Tracé_472" data-name="Tracé 472" d="M382.741,1.091h1.473l2.911,10.863,2.807-10.863h1.074l2.859,10.863L396.74,1.091h1.455l-3.586,12.821h-1.4L390.468,3.5,387.73,13.912h-1.438Z" transform="translate(-297.678 -0.848)" fill="#fff"/>
        <path id="Tracé_473" data-name="Tracé 473" d="M455.4,6.748a6.688,6.688,0,0,1,13.376-.034,6.688,6.688,0,0,1-13.376.052Zm1.438-.034a5.259,5.259,0,1,0,10.516,0A5.259,5.259,0,1,0,456.836,6.7Z" transform="translate(-354.187 -0.061)" fill="#fff"/>
        <path id="Tracé_474" data-name="Tracé 474" d="M523.925,1.091h3.344c2.01,0,2.945.243,3.6.659a4.059,4.059,0,0,1,1.75,3.448,4.133,4.133,0,0,1-.762,2.512A3.545,3.545,0,0,1,529,9.113l3.188,4.8h-1.56l-3.621-5.6h.416a4.348,4.348,0,0,0,2.841-.659,3.127,3.127,0,0,0,.97-2.356,3.014,3.014,0,0,0-1.265-2.477,4.662,4.662,0,0,0-2.6-.468h-2.01V13.912h-1.438Z" transform="translate(-407.484 -0.849)" fill="#fff"/>
        <path id="Tracé_475" data-name="Tracé 475" d="M571.481,1.091H572.9v6.2l5.215-6.2h1.559L574.3,7.484l5.908,6.428h-1.784L572.9,7.831v6.081h-1.421Z" transform="translate(-444.471 -0.848)" fill="#fff"/>
        <path id="Tracé_476" data-name="Tracé 476" d="M147.962,81.686a2.575,2.575,0,0,0,2.564,2.582,2.511,2.511,0,0,0,2.564-2.443c0-1.8-1.542-2.2-3.032-2.685-1.039-.312-3.275-.97-3.275-3.4a3.549,3.549,0,0,1,3.812-3.535,3.451,3.451,0,0,1,3.638,3.309h-1.421a2.311,2.311,0,0,0-4.609.1c-.017,1.559,1.247,1.94,3.188,2.6,1.213.468,3.119,1.143,3.119,3.5a3.736,3.736,0,0,1-3.968,3.76,3.788,3.788,0,0,1-4.02-3.794Z" transform="translate(-113.96 -56.161)" fill="#fff"/>
        <path id="Tracé_477" data-name="Tracé 477" d="M187.515,86.044h-1.542l5.354-12.821h1.386l5.3,12.821h-1.559l-1.49-3.6h-5.977Zm4.453-11.21-2.547,6.428h5.111Z" transform="translate(-144.641 -56.949)" fill="#fff"/>
        <path id="Tracé_478" data-name="Tracé 478" d="M246.546,73.223h6.515v1.265h-5.094v4.5h5.059v1.282h-5.059v5.769h-1.421Z" transform="translate(-191.752 -56.949)" fill="#fff"/>
        <path id="Tracé_479" data-name="Tracé 479" d="M284.512,73.223h7.1v1.265h-5.683V78.94h5.648v1.265h-5.648v4.574h5.683v1.265h-7.1Z" transform="translate(-221.28 -56.949)" fill="#fff"/>
        <path id="Tracé_480" data-name="Tracé 480" d="M334.745,82.909a6.6,6.6,0,0,1-11.8-4.037,6.662,6.662,0,0,1,6.7-6.74c3.084,0,6.012,2.079,6.012,5.492,0,3.119-2.426,4.8-3.846,4.8a1.385,1.385,0,0,1-1.49-1.282,2.5,2.5,0,0,1-2.166,1.23,2.262,2.262,0,0,1-2.148-2.53c0-2.2,1.629-4.539,3.587-4.539a1.766,1.766,0,0,1,1.819,1.3l.312-1.039h.936l-1.334,4.4a6.911,6.911,0,0,0-.191.866c-.017.659.485.745.8.745,1.04,0,2.859-1.421,2.859-3.933,0-3.049-2.581-4.678-5.094-4.678a5.8,5.8,0,0,0-5.839,5.926,5.61,5.61,0,0,0,5.717,5.717,5.907,5.907,0,0,0,4.747-2.218Zm-7.779-3.067c0,1.334.8,1.681,1.369,1.681a2.431,2.431,0,0,0,2.183-1.923,7.372,7.372,0,0,0,.572-1.958,1.426,1.426,0,0,0-1.4-1.49c-1.282,0-2.72,1.68-2.72,3.673Z" transform="translate(-251.172 -56.101)" fill="#fff"/>
        <path id="Tracé_481" data-name="Tracé 481" d="M387.5,86.044V73.223h1.421v5.7H395.1v-5.7h1.438V86.044H395.1V80.188h-6.185v5.856Z" transform="translate(-301.376 -56.95)" fill="#fff"/>
        <path id="Tracé_482" data-name="Tracé 482" d="M437,78.88a6.593,6.593,0,1,1,0,.017Zm1.438-.034a5.364,5.364,0,1,0,0-.017Z" transform="translate(-339.877 -56.162)" fill="#fff"/>
        <path id="Tracé_483" data-name="Tracé 483" d="M506.072,86.044V73.223h2.01l4.747,10.759,4.73-10.759h2.01V86.044h-1.351l.035-11.4-4.972,11.4h-.918l-4.99-11.4.035,11.4Z" transform="translate(-393.599 -56.95)" fill="#fff"/>
        <path id="Tracé_484" data-name="Tracé 484" d="M578.339,73.223h7.1v1.265H579.76V78.94h5.648v1.265H579.76v4.574h5.683v1.265h-7.1Z" transform="translate(-449.805 -56.949)" fill="#fff"/>
        <path id="Tracé_485" data-name="Tracé 485" d="M61.606,42.921c.131.461.287,1.047.411,1.526V43.079l-.316-.136c-.03-.008-.062-.015-.095-.022" transform="translate(-47.914 -33.382)" fill="#fff"/>
        <path id="Tracé_486" data-name="Tracé 486" d="M68.978,5.763a2.89,2.89,0,1,0-2.159-3.47,2.89,2.89,0,0,0,2.159,3.47" transform="translate(-51.909 -0.045)" fill="#fff"/>
        <path id="Tracé_487" data-name="Tracé 487" d="M103.109,69.812a3.819,3.819,0,0,1,.753-.146,2.219,2.219,0,0,1-.842-.521q.047.323.089.666" transform="translate(-80.124 -53.779)" fill="#fff"/>
        <path id="Tracé_488" data-name="Tracé 488" d="M31.757,84.867v2.778c.123.035.262.067.408.1v-1.06a9.279,9.279,0,0,0-.408-1.814" transform="translate(-24.699 -66.006)" fill="#fff"/>
        <path id="Tracé_489" data-name="Tracé 489" d="M18.969,68.49a2.372,2.372,0,0,1-1.817.043q-.033.11-.064.222h1.8c.028-.089.055-.178.084-.264" transform="translate(-13.29 -53.268)" fill="#fff"/>
        <path id="Tracé_490" data-name="Tracé 490" d="M23.561,37.364c.057-.154.12-.3.181-.45l.044-.106c.041-.1.092-.221.1-.257.081-.228.141-.466.2-.718.03-.119.06-.237.092-.354.038-.138.073-.287.111-.444a7.442,7.442,0,0,1,.361-1.2,6.58,6.58,0,0,0-2.472,2.692,2.889,2.889,0,0,0-.22.507,2.336,2.336,0,0,1,.582.118l.1.035a2.314,2.314,0,0,1,.246.111,2.288,2.288,0,0,1,.525.384c.028-.071.06-.141.091-.2.021-.042.044-.089.054-.114" transform="translate(-17.085 -26.314)" fill="#fff"/>
        <path id="Tracé_491" data-name="Tracé 491" d="M68.694,45.106a1.075,1.075,0,0,1-.779-1.151,9.34,9.34,0,0,1,1.394-4.263V32.11c.071.11.144.227.218.358a11.483,11.483,0,0,1,1.034,2.689,2.267,2.267,0,0,1,1.722-1.3,11.5,11.5,0,0,0-1.27-2.8A4.7,4.7,0,0,0,68.837,29.1a1.04,1.04,0,0,0-.547-.155H63.335c-.131-.029-.347-.074-.628-.119-.235-.038-.519-.076-.837-.108a4.276,4.276,0,0,1,.382.246l.15.108v3.039l-.179-.077V33.4c.088.34.16.627.195.778.092.391.175.81.247,1.245a35.18,35.18,0,0,1,.311,7.857.816.816,0,0,1-.488.681,2.182,2.182,0,0,1-.244.117v5.591a1.631,1.631,0,0,0,3.261.065v-10.1h.544V49.667a1.631,1.631,0,0,0,3.261.065V44.95a.9.9,0,0,1-.515.161c-.033,0-.066,0-.1-.005" transform="translate(-48.12 -22.333)" fill="#fff"/>
        <path id="Tracé_492" data-name="Tracé 492" d="M30.537,49.5a1.183,1.183,0,0,0,1.04,1.25h.029a1.137,1.137,0,0,0,1.069-1.195V43.424c.177,0,.356.007.534.007s.357,0,.535-.007V49.5a1.183,1.183,0,0,0,1.04,1.25h.029a1.137,1.137,0,0,0,1.069-1.195V43.214s.557-.132.773-.217a1.856,1.856,0,0,0,.242-.114c.195-.111.306-.24.306-.385a34.437,34.437,0,0,0-.306-7.779c-.069-.417-.149-.826-.242-1.221-.123-.523-.63-2.471-.8-2.932.024.066.29.106.348.125.13.044.261.057.395.094a.222.222,0,0,1,.032.011v-2.3a4.893,4.893,0,0,0-1.717-.756h-.1a7.63,7.63,0,0,0-3.933,1.027,6.338,6.338,0,0,0-.718,2.07c-.1.364-.178.742-.3,1.1-.016.044-.059.148-.112.275-.075.18-.153.36-.22.542-.037.1-.128.249-.166.371a2.445,2.445,0,0,1-.092,3.111c-.025.255-.05.51-.069.763h.024a.839.839,0,0,1,.136.011,2.684,2.684,0,0,1,1.65,1.316A9.212,9.212,0,0,1,32.4,43.4a1.145,1.145,0,0,1-.448.984.889.889,0,0,1-.5.172h-.027a.979.979,0,0,1-.885-.628Z" transform="translate(-22.709 -21.572)" fill="#fff"/>
        <path id="Tracé_493" data-name="Tracé 493" d="M62.633,41.5v.038c.039-.012.027-.027,0-.038" transform="translate(-48.713 -32.279)" fill="#fff"/>
        <path id="Tracé_494" data-name="Tracé 494" d="M35.639,4.906a2.753,2.753,0,1,0-.894-2.717,2.739,2.739,0,0,0,.894,2.717" transform="translate(-26.967 -0.045)" fill="#fff"/>
        <path id="Tracé_495" data-name="Tracé 495" d="M15.511,52.307a2.139,2.139,0,0,0,.011-2.267,2.1,2.1,0,0,0-.157-.224v0c-.039-.049-.082-.095-.125-.14a2.091,2.091,0,0,0-.773-.516l-.089-.033a2.152,2.152,0,0,0-1.7,3.94,2.184,2.184,0,0,0,.226.1,2.137,2.137,0,0,0,1.859-.14,2.17,2.17,0,0,0,.359-.26l.049-.045c.015-.014.03-.027.045-.041a2.171,2.171,0,0,0,.3-.375" transform="translate(-8.971 -38.118)" fill="#fff"/>
        <path id="Tracé_496" data-name="Tracé 496" d="M7.913,76.754c.006.094,0-.032.008.123a.891.891,0,0,0,.014.1.743.743,0,0,0,.723.663l.027,0a.763.763,0,0,0,.734-.683v-.022c0-.016,0-.03,0-.046v0s0-.007,0-.011c-.132-2.8-.724-4.367-1.381-5.271a2.468,2.468,0,0,0-1.511-1.089.712.712,0,0,0-.147,0l-.041,0a.6.6,0,0,0-.08-.008h-3.1a.606.606,0,0,0-.081.008.759.759,0,0,0-.188,0,2.466,2.466,0,0,0-1.511,1.089A9.438,9.438,0,0,0,0,76.669a.744.744,0,0,0,.705.783H.748a.745.745,0,0,0,.746-.7,8.4,8.4,0,0,1,1.035-4.208V82.965a1.012,1.012,0,0,0,.782,1A1,1,0,0,0,4.522,83V77.923h.362v5.4a.383.383,0,0,0,.121.276A1.045,1.045,0,0,0,6.877,83V72.546c.033.048.066.1.1.154a8.529,8.529,0,0,1,.912,3.7c.008.114.016.23.023.35v0" transform="translate(-0.001 -54.828)" fill="#fff"/>
        <path id="Tracé_497" data-name="Tracé 497" d="M101.208,54.754a1.962,1.962,0,0,0,2.4,2.328,1.968,1.968,0,0,0-.475-3.877l-.035,0a1.976,1.976,0,0,0-1.887,1.547" transform="translate(-78.679 -41.38)" fill="#fff"/>
        <path id="Tracé_498" data-name="Tracé 498" d="M99.34,77.969a8.648,8.648,0,0,0-1.609-4.61,2.884,2.884,0,0,0-1.371-1,3.42,3.42,0,0,0-.662-.138c-.079-.01-.163-.018-.254-.025-.159-.012-.335-.019-.532-.019a4.647,4.647,0,0,0-1.445.181l-.012,0a1.716,1.716,0,0,0-.241.091,3.205,3.205,0,0,0-1.121.906c-.076.093-.153.195-.229.3s-.168.252-.25.394a10.1,10.1,0,0,0-1.129,3.912.624.624,0,0,0,.549.69.649.649,0,0,0,.072,0,.63.63,0,0,0,.619-.553c.04-.34.087-.653.14-.944a8.081,8.081,0,0,1,.753-2.344,35.793,35.793,0,0,0-.6,5.308c0,.242.435.456,1,.615v3.764a.815.815,0,1,0,1.63.014V80.952c.1.006.187.008.272.008s.176,0,.272-.008v3.557a.815.815,0,1,0,1.631.014V80.745c.563-.158,1-.372,1-.615a35.8,35.8,0,0,0-.6-5.309A9.243,9.243,0,0,1,98.1,78.11a.624.624,0,0,0,.619.553.591.591,0,0,0,.071,0,.624.624,0,0,0,.549-.69" transform="translate(-70.372 -56.136)" fill="#fff"/>
      </g>
    </g>
    <g id="Groupe_45" data-name="Groupe 45" transform="translate(522.475 11)" clip-path="url(#clip-path-2)">
      <path id="Tracé_499" data-name="Tracé 499" d="M262.859.481q3.349,0,6.694,0Q264.637,2.231,259.726,4c1.043-1.176,2.083-2.35,3.133-3.516" transform="translate(-153.454 -0.284)" fill="#fff"/>
      <path id="Tracé_500" data-name="Tracé 500" d="M80.649,0h1.169A18.559,18.559,0,0,1,92.213,3.335a15.952,15.952,0,0,1,5.463,6.792A16.147,16.147,0,0,1,97.8,22.276a15.481,15.481,0,0,1-5.94,7.14A19.307,19.307,0,0,1,81.047,32.43a18.929,18.929,0,0,1-11-3.536,15.549,15.549,0,0,1-5.072-6.286,16,16,0,0,1-.956-9.536,15.787,15.787,0,0,1,4.51-8.211A17.019,17.019,0,0,1,75.715.768,20.69,20.69,0,0,1,80.649,0M80.8,3.248a13.493,13.493,0,0,0-8.629,3.542,13.1,13.1,0,0,0-4.1,7.888,12.48,12.48,0,0,0,.885,6.538A13.187,13.187,0,0,0,73.822,27,13.433,13.433,0,0,0,79.97,29.17a13.789,13.789,0,0,0,10.056-3.193,12.7,12.7,0,0,0,4.631-8.8,13.139,13.139,0,0,0-7.4-12.656A13.478,13.478,0,0,0,80.8,3.248" transform="translate(-37.632 0)" fill="#fff"/>
      <path id="Tracé_501" data-name="Tracé 501" d="M0,10.708H3.614q0,11.524,0,23.049,9.872,0,19.74,0c0,.939,0,1.882,0,2.823H0Z" transform="translate(0 -6.326)" fill="#fff"/>
      <path id="Tracé_502" data-name="Tracé 502" d="M44.465,10.707h3.912q-2.429,4.574-4.861,9.146c-.894,0-1.788,0-2.679,0q1.815-4.571,3.629-9.146" transform="translate(-24.127 -6.326)" fill="#fff"/>
      <path id="Tracé_503" data-name="Tracé 503" d="M238.032,10.708h23.1v2.816H241.992q0,4.166,0,8.328h14.375c0,.954,0,1.907,0,2.861H241.992q0,4.518,0,9.043,9.572,0,19.141,0V36.58h-23.1q0-12.935,0-25.872" transform="translate(-140.636 -6.326)" fill="#fff"/>
      <path id="Tracé_504" data-name="Tracé 504" d="M380.446,10.708h3.613q0,11.524,0,23.047,9.869,0,19.74,0V36.58H380.446q0-12.937,0-25.872" transform="translate(-224.778 -6.326)" fill="#fff"/>
      <path id="Tracé_505" data-name="Tracé 505" d="M161.276,10.7q7.332,0,14.666,0a17.267,17.267,0,0,1,5.087.446,7.483,7.483,0,0,1,4.021,2.623,8.188,8.188,0,0,1,1.559,4.457,7.3,7.3,0,0,1-1.6,4.6,9.2,9.2,0,0,1-4.864,2.928c2.5,3.7,5.217,7.255,7.915,10.814q-2.337,0-4.677,0-3.9-5.423-7.8-10.848h-10.6q0,5.422,0,10.847-1.854,0-3.711,0Zm3.711,3.061v8.9h10.77c.775-.006,1.553.021,2.326-.033a5.783,5.783,0,0,0,2.98-.975,4.261,4.261,0,0,0,1.58-2.705,4.089,4.089,0,0,0-.4-2.818,4.511,4.511,0,0,0-2.987-2.162,12,12,0,0,0-2.96-.2Z" transform="translate(-95.287 -6.318)" fill="#fff"/>
      <path id="Tracé_506" data-name="Tracé 506" d="M312.1,10.707h5.059Q323.74,23.64,330.31,36.574c-1.464,0-2.93,0-4.4,0q-1.687-3.353-3.389-6.695H306.773q-1.684,3.345-3.361,6.7c-1.481,0-2.959,0-4.441,0q6.562-12.936,13.134-25.867m-3.668,15.931q6.225,0,12.45,0-3.127-6.182-6.261-12.358-3.1,6.181-6.189,12.358" transform="translate(-176.641 -6.325)" fill="#fff"/>
    </g>
  </g>
</svg>
