<svg xmlns="http://www.w3.org/2000/svg" xmlns:xlink="http://www.w3.org/1999/xlink" width="63.481" height="66.545" viewBox="0 0 63.481 66.545">
  <defs>
    <clipPath id="clip-path">
      <rect id="Rectangle_20" data-name="Rectangle 20" width="63.481" height="66.545" fill="#ee7203"/>
    </clipPath>
  </defs>
  <g id="logo-ergooffice" transform="translate(-5.153 3)">
    <g id="Groupe_35" data-name="Groupe 35" transform="translate(5.153 -3)">
      <g id="Groupe_34" data-name="Groupe 34" clip-path="url(#clip-path)">
        <path id="Tracé_402" data-name="Tracé 402" d="M30.115,25.9c.253-.129.381-.4.588-.61a10.044,10.044,0,0,1,1.081-.993,6.163,6.163,0,0,1,1.654-.951c.192-.1.43-.184.5-.119.082.105-.042.336-.08.417-.126.1-.229.161-.323.235-.149.133-.343.318-.542.473-.233.2-.373.409-.593.581a2.011,2.011,0,0,0-.357.429c-.122.146-.3.351-.416.527-.017.064-.07.1-.108.185-.186.28-.278.639-.511.989-.153.237-.234.284-.108.489a.846.846,0,0,0,.222.35c.006.029.037,0,.081.039.016.021.015.106.023.117.024.032.044-.051.061-.03a5.851,5.851,0,0,1,.3.606,4.959,4.959,0,0,0,.683.833,14.17,14.17,0,0,1,2.7-2.811,3.081,3.081,0,0,1,1.945-.706c.012.058.017.088-.072.124.055.092.108-.034.179.079-.069.02-.047.07,0,.037-.124.079-.189.147-.187.28a1.926,1.926,0,0,0-.447.314c-.052.041-.109.034-.15.067s-.1.111-.173.168a.619.619,0,0,0-.206.211c-.042.033-.038.081-.035.129a.82.82,0,0,0-.143.228,10.947,10.947,0,0,1-1.052,1.528,8.9,8.9,0,0,1-.837.938c-.126.1-.227.228-.335.328-.126.1-.239.17-.386.284a1.518,1.518,0,0,1-.2.155c-.031.025-.065.068-.076.076-.042.032-.162.008-.241.036-.04.014-.086.084-.126.1s-.142-.075-.2-.063a1.244,1.244,0,0,1-.4.007c-.118-.043-.227-.076-.337-.108a5.679,5.679,0,0,1-.435-.537c.125-.013.08-.113.121-.213a.5.5,0,0,0,.3-.162c-.243-.334-.609-.739-.877-1.1-.145-.207-.292-.4-.412-.572-.017-.021.015-.045-.007-.1h-.067c-.071-.113-.033-.193-.2-.13-.039.014-.063.049-.123.079-.225.058-.483-.079-.745-.026.038-.081-.057-.074-.029-.146-.22.086-.364-.121-.521-.235a1.062,1.062,0,0,0,.55-.226,1.677,1.677,0,0,0,.424-.516,27.963,27.963,0,0,1-1.133-2.624c-.137.04-.161.227-.295.314a.415.415,0,0,1-.22.086,1.7,1.7,0,0,0-.247.159,3.931,3.931,0,0,0-.42.024c-.206-.026-.356.041-.426-.006-.045-.015-.011-.143-.08-.039-.007-.1.078-.094.141-.143a2.639,2.639,0,0,0,.328-.812,5.923,5.923,0,0,1,.555-.955c-.082-.1-.014-.191-.147-.189.081-.113.311-.141.4-.244.076-.076.071-.19.116-.241a1.6,1.6,0,0,1,.2-.155,3.744,3.744,0,0,1,.406-.519c.339-.365.616-.682,1-1.05a2.584,2.584,0,0,0,.426-.383,1.009,1.009,0,0,0,.047-.221.814.814,0,0,0,.173-.1,3.259,3.259,0,0,1,.4-.329c.337-.2.729-.449,1.093-.632a5.642,5.642,0,0,1,.6-.163,1.5,1.5,0,0,1,.288-.106l.054.026a1.661,1.661,0,0,1,.236-.066c.077-.009.106-.015.164-.027.082.105.054.178.077.294a5.908,5.908,0,0,1-.661.515c-.053.041-.138.04-.158.123a1.141,1.141,0,0,1-.3.266c-.128.117-.26.186-.428.316-.252.2-.444.447-.688.654-.065.068-.19.081-.183.176-.042.033-.1-.041-.074-.095-.137.04-.113.223-.153.322a.945.945,0,0,1-.158.123c-.075.076-.116.175-.171.234a2.722,2.722,0,0,0-.334.48c-.125.165-.226.294-.34.451-.026.054-.043-.034-.043-.034a.136.136,0,0,0-.036.213c-.1-.144-.135.021-.193.185-.088.169-.112.289-.193.488-.047.07-.173.168-.153.237a1.122,1.122,0,0,0,.157.266c.214.491.576,1.237.721,1.6.033.042.062.036.083.02,0,.189.159.4.2.584.109-.034-.028-.079.008-.141.05-.023.008.01.014.039m-.874-2.876c-.036-.09.027-.139.069-.172.1-.082.015.106-.069.172m.19-2.289.016.021c-.069.02-.134.088-.12.127-.143.011.062-.116.021-.168.011-.008.033.042.083.02m.173-.168c-.106.015-.028-.08.038-.081.049.063-.077.009-.038.081m1.039-.809c-.053-.111-.175.035-.179.072.05-.022.146-.03.179-.072m.179-.224a.483.483,0,0,0-.165.178c.063-.049.227-.076.165-.178" transform="translate(-20.212 -14.107)" fill="#ee7203"/>
        <path id="Tracé_403" data-name="Tracé 403" d="M67.883,24.671a1.355,1.355,0,0,1,.273.044A.171.171,0,0,1,68.3,24.7c.024-.011.059.031.059.031.119,0,.142.049.266.122a.8.8,0,0,0,.16.026c.046.185.171.168.266.181a2.4,2.4,0,0,1-.059.427,5.763,5.763,0,0,1,.105.7.468.468,0,0,1-.037.107,3.086,3.086,0,0,0,.142.567,3.443,3.443,0,0,0,.421,1.2,1.2,1.2,0,0,0,.335.354l.029.03c.083.019.149-.028.2-.021.089.031.017.066.112.109a3.593,3.593,0,0,0,.461-.3.9.9,0,0,1-.308.431,1.208,1.208,0,0,1-1.251.135c-.071-.024-.224-.217-.288-.259a1.745,1.745,0,0,1-.177-.18,2.618,2.618,0,0,1-.4-.635,6.406,6.406,0,0,1-.6-2.369c-.1-.114-.231-.05-.362-.076-.114.07-.2-.08-.256.021-.063.327-.027.22-.1.522-.013.066-.164.3-.164.331.027.209-.08.261-.142.439a2.515,2.515,0,0,1-.274.533c-.293.157-.5.2-.536.113a5.093,5.093,0,0,0,.293-.675c.081-.291.081-.291.142-.5a3.042,3.042,0,0,0,.136-.45,2.75,2.75,0,0,0,.04-.4,1,1,0,0,0-.225-.068c-.142-.079-.006.018-.159-.145-.006-.012-.112-.049-.118-.061a2.318,2.318,0,0,1-.258-.866,1.919,1.919,0,0,1-.031-.4c.006-.017.066-.047.06-.059,0-.03-.029-.06-.035-.072,0-.03.072-.035.072-.035-.006-.041-.041-.054-.029-.06s.042-.065.036-.077a.971.971,0,0,1,.088-.4,3.956,3.956,0,0,1,.227-.628c.024-.041.09-.059.109-.142.012-.006.024-.041.071-.005.213.074.44.053.629.138.018.036.047.066.059.06a3.167,3.167,0,0,1,.4,1.4,5.708,5.708,0,0,1-.022.9c.159.115.339-.032.5-.036M66.749,24.5c-.026-.357.025-.678.005-.963a.25.25,0,0,0-.045-.215c.011.054-.055.071-.067.106.1.352-.169.718.107,1.072" transform="translate(-49.864 -16.839)" fill="#ee7203"/>
        <path id="Tracé_404" data-name="Tracé 404" d="M86.314,23.614a1.817,1.817,0,0,1,.048.4c.034.183-.021.184.042.374.072.174.036.513.154.7.074.022-.011.223.027.158.074-.033.663-.625.739-.7a3.972,3.972,0,0,1,.429-.359c.108-.22.336-.293.522-.479.208-.205.2-.189.358-.367a4.569,4.569,0,0,1,.577-.424c.254.236-.042.423-.118.553-.093.12-.153.2-.259.328-.153.15-.16.124-.236.254-.121.169-.278.306-.374.468a2.717,2.717,0,0,0-.307.354c-.128.143-.179.212-.284.335-.028.049-.175.279-.2.341,0,0-.127.2-.229.334a.524.524,0,0,0-.076.239c-.26.906-.091.285-.17.566-.069.265.015,1.384-.006,1.623a5.644,5.644,0,0,1-.022.762c-.05.178.025.364-.031.571-.009.126-.011.278-.029.42a7.741,7.741,0,0,0-.13,1.037c-.03.255-.09.5-.145.766a.539.539,0,0,1-.012.113c-.019.033-.051.068-.041.107a.688.688,0,0,0-.044.149c0,.013-.029.049-.022.074-.012.113,0,.194-.062.236a.743.743,0,0,1-.079.227.688.688,0,0,1-.047.246,1.2,1.2,0,0,1-.233.266c-.009.016-.045-.015-.077.02a1.856,1.856,0,0,1-.242.283c-.045.039-.165,0-.2.037-.074.033.02.132-.105.124a2.361,2.361,0,0,0-.936-.005,1.036,1.036,0,0,0-.1-.538c-.03-.061-.055-.054-.075-.131a4.2,4.2,0,0,1,0-.494c-.022-.351-.051-.674-.053-1,.028-.474.1-.933.131-1.353a.674.674,0,0,1,.033-.242c.006-.029.061-.084.041-.107a1.965,1.965,0,0,1,.052-.33c.022-.074.015-.155.031-.2.044-.149.107-.33.163-.537a6.242,6.242,0,0,1,.807-2.669c-.052-.783-.04-.951-.091-1.625-.117-.135-.359-.113-.492-.2-.394.336-.9.837-1.37,1.289-.227.237-.487.456-.691.674-.052.013-.086.091-.118.126s-.071-.009-.068,0c-.074.033-.112.152-.131.185-.045.039-.087.036-.128.089a.2.2,0,0,0-.128.143c-.071.046-.074.033-.1.053s-.276.209-.308.244a.753.753,0,0,1-.739.013c-.035-.032-.094-.1-.15-.154-.1-.07-.179-.16-.3-.265a1.3,1.3,0,0,1-.165-.424A2.527,2.527,0,0,1,81.274,25a1.091,1.091,0,0,0,.1-.149,2.8,2.8,0,0,1,.165-.318.151.151,0,0,1,.068,0c0-.013-.039-.045-.007-.026.016-.046.074-.088.083-.1.077-.075.182-.253.255-.341.105-.124.23-.279.371-.426a4.542,4.542,0,0,1,.448-.446c.035-.023.1-.04.135-.062.1-.107.085-.2.178-.266.029-.049.109-.056.122-.059s.022-.074.1-.107a4.736,4.736,0,0,1,1.145.02c.1.057.153.112.243.088a1.263,1.263,0,0,1,.581.44,3.1,3.1,0,0,1,.973.2c-.009.071.072.119.085.17M83.3,23.446a.515.515,0,0,1-.1.082c-.028.048-.07.046-.122.114-.006.029-.041.052-.057.1a.584.584,0,0,0-.2.2c-.087.036-.144.134-.2.163a.84.84,0,0,1-.025.117.565.565,0,0,1-.16.124.443.443,0,0,1-.14.2c-.112.152-.158.343-.267.509a2.388,2.388,0,0,0-.273.538,1.872,1.872,0,0,0-.189.6c.322-.083.513-.353.76-.513.731-.519,1.414-1.067,2.158-1.589a.5.5,0,0,0-.138-.267c-.007-.026.038-.065-.014-.106-.058-.067-.14-.115-.179-.16-.033-.019-.043-.058-.062-.08-.091-.086-.23-.092-.221-.218a.5.5,0,0,1-.332.045,1.081,1.081,0,0,0-.238.144m2.219,7.189c-.048.081-.121.169-.14.2q-.011.353-.043.629a1.194,1.194,0,0,0,.014.532c.17-.085.168-.3.183-.46a2.992,2.992,0,0,0,.124-1.695,3.14,3.14,0,0,1-.165.634.644.644,0,0,0,.027.158" transform="translate(-61.118 -17.201)" fill="#ee7203"/>
        <path id="Tracé_405" data-name="Tracé 405" d="M120.011,18.624c-.116.111-.025.054-.142.125-.092.043-.155.126-.272.184a4.09,4.09,0,0,0-.6.237c-.158.059-.357.054-.541.127a1.2,1.2,0,0,1-.652.026c-.013,0-.114.138-.166.18a.748.748,0,0,0-.1.164c-.063.082-.065.042-.077.083-.049.122-.231.209-.348.307-.025.028-.037.068-.076.083-.012.027-.065.043-.09.07a.624.624,0,0,1-.285.2,2,2,0,0,1-.952.17,1.453,1.453,0,0,1-.354-.186,1.683,1.683,0,0,1-.785-1.354c.021-.134.015-.294.025-.387a.408.408,0,0,0,.1-.137c.012-.027.01-.094.021-.134s.063-.082.075-.136.009-.107.021-.147a1.27,1.27,0,0,1,.139-.192c.037-.081.034-.161.058-.215a.652.652,0,0,1,.2-.341c.09-.083.1-.137.236-.1.093.009.117-.071.114-.138a.348.348,0,0,1,.112-.2c-.07-.1-.2-.046-.283-.1a.65.65,0,0,1-.024-.278,9.175,9.175,0,0,1,1.356-.053,2.673,2.673,0,0,1,.591.123,1.042,1.042,0,0,1,.6.456c.084.1.217.1.251.283a1.716,1.716,0,0,1,.067.676,4.194,4.194,0,0,1-.273.849,2.171,2.171,0,0,0,1.02-.133,2.133,2.133,0,0,0,.875-.434c.181-.127.1-.19.267-.316a1.253,1.253,0,0,1-.108.643m-3.253.554a2.262,2.262,0,0,1-.981-.92c-.013.014-.026.014-.039.028a1.913,1.913,0,0,0-.383,1.44c.061.2.315.227.434.209a1.675,1.675,0,0,0,.521-.287,1.113,1.113,0,0,0,.447-.47m.094-2.027c-.057-.091-.286-.162-.408-.237a2.226,2.226,0,0,0-.4-.024c.151.127.081.37.129.568.186.006.271.136.279.322-.011.067-.159.02-.21.075a3.732,3.732,0,0,0,.055.384c.014.026.081.037.1.1s.07.09.085.13a.959.959,0,0,0,.5.42,1.193,1.193,0,0,0,.227-.994c.117-.084-.026-.318-.071-.45a.92.92,0,0,0-.278-.3" transform="translate(-86.932 -12.488)" fill="#ee7203"/>
        <path id="Tracé_406" data-name="Tracé 406" d="M147.556,3.225c-.032.156-.072.284-.123.464a10.554,10.554,0,0,1-.514,1.17l.031-.021-.031.021c-.055.07-.082.132-.116.166a1.251,1.251,0,0,1-.31.384,3.357,3.357,0,0,0,.235-.345c-.151.009-.6.841-.6.651A7.21,7.21,0,0,1,145.064,6.8a4.691,4.691,0,0,0-1.012.755c.049.024.078.016.115-.031,0,.245-.227.306-.4.378-.125.014-.315.206-.3.115-.539.174-.917.625-1.466.783a3.6,3.6,0,0,1-1.846.188,3.178,3.178,0,0,1-2.5-2.433,1.292,1.292,0,0,1,.142.234,7.41,7.41,0,0,1-.044-1.558.539.539,0,0,0-.131.435c-.093-.073-.1-.238-.054-.46a5.726,5.726,0,0,1,1.008-2.047.213.213,0,0,0-.142.161c-.015-.057.084-.4.094-.32.193-.014.282-.444.374-.561a1.761,1.761,0,0,1,.5-.44,9,9,0,0,0,.874-.81,4.479,4.479,0,0,1,1.172-.8c.152-.077.949-.184.978-.328a1.163,1.163,0,0,1-.214-.017,1.732,1.732,0,0,1,.668-.011,1,1,0,0,1,.5.267c.241.281.387.3.732.138.18-.085,1.9-.19,1.82.133.335-.175.763.647,1.049.706a.438.438,0,0,0-.086.023c.182.037.227.346.363.347-.038-.076-.077-.152-.105-.212a2.047,2.047,0,0,1,.4,1.8m-8.85,4.946c-.067-.068-.143-.1-.22-.181.026.073.124.189.22.181m7.311-6.433c-.167.02-.171-.226-.233-.32-1.374-.122-2.724.821-3.771,1.61a9.229,9.229,0,0,0-1.623,1.539,8.106,8.106,0,0,0-.693.984c-.106.182-.16.442-.333.556-.081-.329.361-.564.3-.835-.236.155-.248.478-.316.736a1.622,1.622,0,0,0-.119.968c-.228-.278-.017-.968.058-1.265a3.234,3.234,0,0,1,.4-.827,4.561,4.561,0,0,0-.337.772,1.922,1.922,0,0,0,.29-.483c.137-.2.264-.421.388-.626.172-.3.693-.658.735-.989a.267.267,0,0,1,.024-.05,2.812,2.812,0,0,0-.312.262c-.219.267-.375.561-.616.81.1-.224.323-.381.424-.6a3.926,3.926,0,0,0-.828.915c.02-.227.245-.33.278-.554a3.918,3.918,0,0,0-.719,1.373c.034-.034.079-.051.1-.1-.067.258-.335.569-.1.821a.181.181,0,0,1,.041-.2c-.017.146-.033.292-.066.448.033.1.054.2.087.3a.1.1,0,0,1,.035-.1.99.99,0,0,0,.831.974,4.944,4.944,0,0,0,2.592-.577A6.188,6.188,0,0,0,145,5.264a4.165,4.165,0,0,0,.481-.811,3.344,3.344,0,0,1,.249-.546,3.267,3.267,0,0,0,.385-.939,2.065,2.065,0,0,0,.04-.521,4.158,4.158,0,0,0-.138-.708M139.6,3.982c.33-.217.668-1.193,1.114-1.182-.168.224-.433.386-.568.643.087-.091.808-.688.668-.8a.193.193,0,0,1-.1.156c-.02-.167.225-.5.41-.4a1.365,1.365,0,0,1-.187.246c.211.03.385-.287.457-.5.016-.01.019-.023.037-.046a.026.026,0,0,1,.021.031,8.718,8.718,0,0,0,.978-.721c.2-.121.488-.32.53-.461-.44.221-.021-.032.016-.078-.1.046-.128.027-.073-.042-.221-.046-.878.239-.929.487-.026-.006-.079.052-.251.1.169.035-.225.1-.309.18a4.083,4.083,0,0,0-.469.365c-.11.14-.213.241-.337.378a2.318,2.318,0,0,0-.421.524,3.814,3.814,0,0,0-.587,1.129m2.79-1.99a2.48,2.48,0,0,0-.636.384c-.1.075-.174.181-.268.243a10.012,10.012,0,0,0-1.4,1.2c.016-.01.005-.026-.007-.029-.045.086-.048.1,0,.041a3.134,3.134,0,0,1-.215.254.675.675,0,0,1,.137-.2.658.658,0,0,0-.321.368.27.27,0,0,0,.1-.075c-.011.052.01.083,0,.136.055-.07.4-.543.449-.464a.17.17,0,0,1,.029-.076.18.18,0,0,0-.05.044.284.284,0,0,1,.052-.057c.156-.294.748-.592.908-.844.306-.426.969-.479,1.225-.928m-2.367,2.05c-.016.011-.018.023-.013.065.018-.023.066-.054.013-.065m.176-.194c-.044.018-.092.117-.113.153a.2.2,0,0,0,.113-.153m.091-.375c-.05.044-.079.051-.1.1.039.008.126-.082.1-.1m.389-.368c-.081.064-.223.157-.242.249.073-.093.22-.145.242-.249m.11.389.013,0c.005.042.055,0,.1-.075l-.11.073m.444-.9c.014-.065.061-.1.1-.156a2.3,2.3,0,0,0-.376.371,1.031,1.031,0,0,0,.239-.168c-.144.106.024-.049.036-.047m.249.31a.443.443,0,0,0-.121.124.129.129,0,0,0,.121-.124m1.193-1.3a2.921,2.921,0,0,0-.836.493c-.1-.048-.152.077-.214.119l.026.005a.2.2,0,0,0,.089-.036c-.005-.042.034-.034.047-.031l-.015.01c.1-.033.2-.1.3-.142a2.012,2.012,0,0,0,.28-.172,1.455,1.455,0,0,0,.323-.246m.079-.051c.039.008.128-.028.084-.078-.042.073-.155.09-.174.182.029-.007.131-.041.089-.1m1.46,5.8c0,.013-.084.01-.019.023,0,0,.042-.005.019-.023m2.65-2.956a1.046,1.046,0,0,0-.159.307c.011-.052.1-.237.012-.256a17.309,17.309,0,0,0-1.246,1.684,3.215,3.215,0,0,0,1.228-1.4c-.006.026-.008.039-.011.052a2.314,2.314,0,0,0,.175-.385m-.626,1.188a.09.09,0,0,0,.071-.08c0,.013-.095.062-.071.081Zm.084-.145c-.005.026-.011.052-.011.052.026.006.035-.034.011-.052m.86-1.724c-.016.078-.124.137-.049.234a.718.718,0,0,0,.049-.234m.179-.6c-.081.064-.09.239-.109.33a.291.291,0,0,0-.03.211,1.577,1.577,0,0,0,.139-.542m-.041-.131a.586.586,0,0,0-.012-.532c-.032.088-.126.476.012.532m.039.008c.018.045-.024.049.01.084.005-.026.042-.073-.01-.084" transform="translate(-104.362 0)" fill="#ee7203"/>
        <path id="Tracé_407" data-name="Tracé 407" d="M174.494,17.4a.6.6,0,0,1-.2.234c-.046.05-.142.054-.22.131l-.529.332-.245.07a.421.421,0,0,1-.071.065c-.007.012.061.053.007.066-.026.016-.11.027-.142.054-.156.076-.358.281-.518.339-.032.028-.082-.019-.089-.007-.083.059-.183.122-.284.186a.234.234,0,0,1-.071-.012.15.15,0,0,1-.041.068c-.007.012-.084.011-.084.011s0,.048-.041.068l-.206.03c-.08.029-.155.077-.231.047-.1.159-.036.009-.057-.034a3.825,3.825,0,0,1-.437.154.7.7,0,0,1-.356.048,1.59,1.59,0,0,1-.346.132c-.025.016-.059-.005-.107,0-.1.015-.258.092-.386.045.276-.1.508-.22.8-.321-.1-.073-.155,0-.246.021-.032.027-.073.018-.119-.01-.007.012-.066.007-.066.007a.275.275,0,0,0-.019.082,3.839,3.839,0,0,1-.509.1,3.135,3.135,0,0,1-.3.237c-.149.065-.3.005-.459.063a6.619,6.619,0,0,0-.791.25l-.131.061c-.087.041-.135.12-.243.117l-.446.118-.318.087a.9.9,0,0,0-.371.226,1.876,1.876,0,0,0,.692.3,4.938,4.938,0,0,0,1.053.392,4.57,4.57,0,0,0,.829.224c.223.042.984.148,1.238.193.034.021.591,0,.9,0,.226-.065.487-.109.528-.177a.134.134,0,0,0,.194-.037c.056-.091.158-.029.158-.029l.069-.113a6.825,6.825,0,0,0,.942-.626l.063-.1.189-.056.056-.091a.516.516,0,0,1,.394-.212,20.26,20.26,0,0,1,1.977-.868,4.979,4.979,0,0,1,.931-.352.1.1,0,0,1,.142-.054c.114.069.062-.1.062-.1.216.132.216.132.394.069l.154.156a.2.2,0,0,0,.1.151.253.253,0,0,0,.128.327,2.215,2.215,0,0,1-.594.541.714.714,0,0,0-.22.208c-.146.036-1.73,1.127-1.974,1.274-.16.058-.4.205-.554.27-.25-.152-.4.331-.574.227a.69.69,0,0,0-.427.036c-.183.045-.245.147-.358.078-.063-.178-.188.026-.25.128a5.476,5.476,0,0,0-.546.462c-.062.1-.176.033-.34.074l.1.062c-.07.191-.5.46-.7.335l-.132.216c-.16.058-.215.149-.124.2-.058.12,0,0,.07.167l.2.124c.188.177.286.144.9.392.168.056.724.192.822.236.39.05.788.137,1.151.156a3.2,3.2,0,0,0,.849-.013,1.118,1.118,0,0,1,.509-.018c.054.22-.23.327-.285.418a1.384,1.384,0,0,1-.535.11,2.441,2.441,0,0,1-.552.037c-.113-.069-.292-.006-.524-.085a6.994,6.994,0,0,1-1.658-.371,4.227,4.227,0,0,1-1-.513l-.193.957-.125.2-.044.1a4.031,4.031,0,0,1-.577.973l-.19.336c-.069.114-.226.143-.3.268-.062.1-.226.142-.289.244-.284.263-.34.354-.576.537-.113-.069-.113-.069-.169.022l-.189-.022-.161.136-.069.114-.091-.055-.057.121c-.056.091-.181.015-.25.129-.262-.284-.734-.431-.855-.77-.1-.062-.1-.372-.2-.435-.047-.153.029-.278.044-.533l.065-.132.055-.091c.069-.114-.073-.34.08-.388.08.049.063.1.038.195.041-.068.092-.1.13.017l.168-.3c.069-.114.034-.26.06-.353l-.042.068c-.076.125-.24.165-.292.274-.051-.171.087-.4.212-.6l.1.062.113-.211c.09.055.1.062.072.138l.1-.189.076-.125c.245-.147.244-.427.441-.495-.065-.149.187-.307.328-.361l.125-.2a.117.117,0,0,0,.164-.04l.069-.113a.474.474,0,0,1,.227-.142c.31-.279.548-.414.846-.7-.292-.006-.454.285-.5.412-.1-.062.013-.226.013-.226l.038-.164c.055-.091.1.062.158-.029-.1-.062.069-.114.131-.216-.143-.071-.32.4-.6.38l.729-.584c-.392-.1-1.043-.308-1.425-.447a14.677,14.677,0,0,1-2.073-.841l-.15-.061-.023-.014a.922.922,0,0,0-.166-.085,2.4,2.4,0,0,0-.2.706c0,.019-.041.068-.03.075-.007.012.064.023.057.035.02.043-.042.068-.037.086s.036.069.029.08c0,.077-.037.164-.036.212a.648.648,0,0,1-.049.235c.034.1-.015.178-.022.267l0,.173a1.322,1.322,0,0,0-.117.193c-.014.022.009.036,0,.077a.064.064,0,0,0,0,.059,7.053,7.053,0,0,1-.3.691,3.252,3.252,0,0,1-1.444,1.426c-.032.027-.028.046-.076.048,0,0-.032.027-.043.02a5.318,5.318,0,0,1-.633.222,1.672,1.672,0,0,1-.47.056.591.591,0,0,1-.626-.225.786.786,0,0,0,.706-.162,1.174,1.174,0,0,1-.335-.422c-.071-.215-.073-.341-.126-.56-.01-.162-.069-.322-.074-.466a1.859,1.859,0,0,0,.085-.883c.028-.045.089.008.167.008-.043-.057.055-.091.083-.136.1-.159.082-.339.179-.5a4.678,4.678,0,0,1,.577-.77,7.091,7.091,0,0,1,.563-.669c0-.2-.292-.364-.275-.572a.242.242,0,0,1,.165-.117l.08.048c.048,0,.016-.052.1-.045.08-.029.228.061.326.1a9.258,9.258,0,0,0,1.209-1.039c-.2-.01.011.085-.349.037-.223-.042-.078,0-.216-.054a.506.506,0,0,1-.356-.31,1.589,1.589,0,0,1,.473-.086c.188-.1.208-.06.45-.1a6.015,6.015,0,0,0,.951-.386c.185-.074.141.024.374-.053.062-.1.251,0,.32-.117.235-.028.159.019.343-.1.218-.179.2-.145.4-.164.007-.089.055-.091.134-.246.089.007.163-.088.3-.064.388-.433.845-.467,1.292-.817a.39.39,0,0,0,.256-.14c.32-.194.691-.42,1.028-.588a.378.378,0,0,1,.11-.1c.019,0,.063.023.063.023.065-.054.092-.1.184-.122a.91.91,0,0,0,.366-.166,1.221,1.221,0,0,0,.348-.162c.048,0,.082.019.089.007a4.427,4.427,0,0,1,.692-.217c.19-.055.418-.072.6-.117a1.568,1.568,0,0,0,.517.1,2.107,2.107,0,0,1,.864.884.976.976,0,0,1,.08.765.866.866,0,0,0-.078.155c-.049.157-.1.159-.219.334m-9.313,4.811c.041-.068.082-.059.115-.164a.813.813,0,0,0,.056-.527c.014-.023.02-.034.009-.041-.037.087-.138.072-.158.106a.191.191,0,0,0-.051.109,5.7,5.7,0,0,0-1.306,1.557c-.237.416-.338.837-.553,1.189a4.533,4.533,0,0,1-.076.483c.143.072.2-.1.318-.165a7.945,7.945,0,0,0,1.129-1.446c.1-.171.21-.371.309-.559a5.228,5.228,0,0,1,.207-.543m1.906,4.773c-.063-.178-.038-.474-.085-.628-.018.285-.04.552.085.628m2.64-1.958a4.164,4.164,0,0,0,.317-.648,1.5,1.5,0,0,0-.581.519c-.183.044-.314.26-.423.49,0,0-.183.045-.238.136l-.138.227-.051.109c-.091-.055-.153.047-.222.16.091.056.069-.113.16-.058-.2.33-.587.53-.57.961a2.2,2.2,0,0,0,.716-.716,4.8,4.8,0,0,0,1.029-1.18m3.832-9s.007-.011-.012-.007a1.176,1.176,0,0,0-.522-.038l-.436.077-.126.079c-.043.021-.118-.01-.18.015a5.7,5.7,0,0,0-.682.3.341.341,0,0,1-.119.068c-.094.052-.22.053-.313.105l-.1.081-.414.246a9.869,9.869,0,0,0-1.014.769,1.423,1.423,0,0,0-.279.126,5.845,5.845,0,0,0-.8.679,2.563,2.563,0,0,0,.753-.087,14.092,14.092,0,0,0,1.732-.44c.148-.065.322-.069.427-.114a.624.624,0,0,1,.2-.126.3.3,0,0,0,.121-.02c.059.005.057-.043.094-.052a.81.81,0,0,1,.208-.06c.05-.031.067-.084.124-.127.03,0,.053.016.091-.022a2.36,2.36,0,0,0,.451-.254c.146-.113,1.265-.85.793-1.2" transform="translate(-122.955 -11.511)" fill="#ee7203"/>
        <path id="Tracé_408" data-name="Tracé 408" d="M212.046,53.142a6.751,6.751,0,0,1-.6.356.449.449,0,0,0-.152.073.247.247,0,0,1-.142.063.994.994,0,0,1-.321.089c-.057.056-.105.1-.143.1-.2.119-.6.15-.759.382a2.323,2.323,0,0,0,.886.476c.3.062.8.24,1.151.349a1.015,1.015,0,0,0,.393.1c.075.02.168.059.262.08a3.816,3.816,0,0,0,.4.129c.018.019.057-.037.076-.036a.66.66,0,0,0,.309.109c.065.029.262.08.43.139.112.04.225.042.271.109-.049.14-.258.249-.42.35a1.8,1.8,0,0,1-.386.041c-.3-.024-.694-.088-1.06-.141a5.011,5.011,0,0,1-.562-.123,2.639,2.639,0,0,1-.572-.132c-.037-.02-.084-.03-.149-.059-.066.008-.17.016-.188.015a1.971,1.971,0,0,0-.242-.155c-.028-.028-.047-.01-.187-.06a2.1,2.1,0,0,1-.474-.338,1.445,1.445,0,0,1-.32-.542,1.773,1.773,0,0,1-.186-.652,1.072,1.072,0,0,1,.389-.708,3.589,3.589,0,0,1,.571-.385,2.206,2.206,0,0,1,.513-.274c.019-.037.094-.017.161-.063a2.712,2.712,0,0,1,.936-.294.954.954,0,0,1,.5.883c-.1.111-.237.1-.388.116m1.339-.7c-.075-.057-.055-.095-.1-.143-.111-.134-.081-.218-.067-.453-.026-.142-.034-.245,0-.273.344-.333.541.273.732.643a1.1,1.1,0,0,1-.559.226" transform="translate(-158.859 -39.059)" fill="#ee7203"/>
        <path id="Tracé_409" data-name="Tracé 409" d="M224.652,69.354a.891.891,0,0,1,.015-.627c.123-.1.3-.225.337-.4a.6.6,0,0,0-.521-.187c-.071-.031-.127-.041-.253-.083a.8.8,0,0,0-.3-.052c-.229,0-.373,0-.575.013a1.662,1.662,0,0,0-.811.211.645.645,0,0,0-.275.372,1.216,1.216,0,0,0,.23.537,3.3,3.3,0,0,0,.639.656c0,.048.265.286.3.262-.006.085.079.09.1.142.124.108.145.044.3.148.033.14.154.1.229.165.089.034.095.112.252.2a.364.364,0,0,0,.214.143c-.011.007.269.152.284.174.176.088.185.032.3.148a1.939,1.939,0,0,1,.3.2,3.469,3.469,0,0,0,.484.181c.142.063.234.079.285.174-.071.131-.177.189-.491.181-.181,0-.159-.018-.274-.019-.1-.046-.145-.044-.234-.079-.056-.01-.2-.1-.284-.126-.011.007-.125-.156-.2-.151a.339.339,0,0,1-.3-.177c-.075.1-.262-.142-.354-.158-.051.02-.116-.049-.116-.049-.215-.028-.349-.243-.513-.291a.23.23,0,0,0-.056-.058.712.712,0,0,1-.28-.145,2.77,2.77,0,0,1-.292-.185,3.2,3.2,0,0,1-.878-.928A2.267,2.267,0,0,1,221.528,68c.121-.2.177-.465.288-.608a2.192,2.192,0,0,0,.4-.168,2.016,2.016,0,0,1,.384-.171c.055-.038.166-.018.257-.05.056.01.172-.056.239-.054a1.4,1.4,0,0,1,.309-.022c.122.012.176-.026.28-.018a.228.228,0,0,0,.1.046.834.834,0,0,1,.359.025c.091-.032.124-.055.161-.048.082.024.135.1.22.106a.388.388,0,0,1,.139-.033c.118.03.172.106.265.123.071.032.181,0,.226.02.048,0,.068.1.14.016a3.827,3.827,0,0,1,.321.782c.043.084.043.246.1.37a1.607,1.607,0,0,1,.088.264.177.177,0,0,1-.045.145c-.01.056.017.07.021.1,0,0-.055.038-.042.078-.041.126.06.2.055.286a1.552,1.552,0,0,1-1.136.163" transform="translate(-168.077 -50.769)" fill="#ee7203"/>
        <path id="Tracé_410" data-name="Tracé 410" d="M236.963,89.565a1.512,1.512,0,0,1-.362-.046c-.035-.013-.171-.109-.207-.092-.035-.042-.237-.093-.26-.11s-.225-.128-.284-.159c-.153-.133-.219-.086-.4-.19a1.368,1.368,0,0,0-.342-.278c-.124-.073-.14-.2-.295-.212-.034-.1-.158-.175-.264-.3a.849.849,0,0,1-.187-.264,1.475,1.475,0,0,1-.386-.493,1.069,1.069,0,0,1-.18-.371.556.556,0,0,0-.04-.143c-.01-.173-.1-.322-.112-.477-.006-.042-.024-.476-.029-.518-.021-.2.279-.431.293-.615-.005-.042-.041-.084-.04-.114,0-.06.085-.13.1-.153.127-.105.3-.044.365-.132.029.03.046.066.106.067.063-.267.7-.223.872-.245.1-.035.161-.063.215-.075.065.013.136.067.184.074a.45.45,0,0,1,.22,0,2.791,2.791,0,0,1,.724.182,2.177,2.177,0,0,1,.4.148,1.227,1.227,0,0,0,.324.213.948.948,0,0,1,.449.714c.023.078-.067.136-.056.19-.024.041.035.042.058.09a1.3,1.3,0,0,1-.123.784c-.03.029-.043.095-.061.118-.2.17-.328.085-.448.113-.2-.05-.314-.129-.462-.161-.036.017-.172-.08-.225-.069-.166-.068-.342-.218-.531-.3a3.386,3.386,0,0,1-.372-.219,1.778,1.778,0,0,0-.141-.109,1.451,1.451,0,0,1-.313-.159c-.053-.018-.046-.1-.088-.09-.076-.066-.219-.086-.259-.2-.149,0-.668.146-.519.577a1.286,1.286,0,0,1,.05.286,4.813,4.813,0,0,0,.525.81,6.019,6.019,0,0,0,1.524,1.286.407.407,0,0,1,.153.1c.141.109.638.371.835.29.04.143-.177.337-.408.256m-.429-3.147a.824.824,0,0,0,.385.124.355.355,0,0,0,.155-.076c0-.089-.041-.084-.041-.084a3.864,3.864,0,0,0-1.45-.524c-.048.023,0,.071,0,.071.271.193.639.311.946.488" transform="translate(-177.259 -64.226)" fill="#ee7203"/>
        <path id="Tracé_411" data-name="Tracé 411" d="M59.545,74.328A8.367,8.367,0,0,0,64.177,70.1a4.512,4.512,0,0,0-.34-4.977c-1.056-1.211-2.632-.786-3.738-.2a5.617,5.617,0,0,0-2.507,2.4,7.022,7.022,0,0,1,1.633-.674,1.566,1.566,0,0,1,2.121,1.621,6.281,6.281,0,0,1-1.547,3.7,2.291,2.291,0,0,1-2.766.629,9.409,9.409,0,0,1-1.069-.779,4.064,4.064,0,0,0,.488,1.321,2.454,2.454,0,0,0,3.092,1.182" transform="translate(-42.464 -48.826)" fill="#ee7203"/>
        <path id="Tracé_412" data-name="Tracé 412" d="M66.475,111.232c-.324-.354-.48-.3-.258.061a16.726,16.726,0,0,1,1.673,3.588c.856.848,1.853,1.76,2.828,2.652.3.273.595.543.885.811a12.854,12.854,0,0,0,2.881,2.115,38.806,38.806,0,0,0,10.067,1.485c1.063-.255.038-1.2.038-1.2a33.015,33.015,0,0,1-6.667-1.394C74.8,118.3,73.556,117.9,71.165,115.7c-1.623-1.494-3.448-3.115-4.69-4.47" transform="translate(-50.165 -84.218)" fill="#ee7203"/>
        <path id="Tracé_413" data-name="Tracé 413" d="M101.924,124.9H78.283a.358.358,0,0,0,.137-.31h5.847a.17.17,0,0,0,.17-.17v-.161a.17.17,0,0,0-.17-.17H78.191a2.148,2.148,0,0,0-.212-.237,33.01,33.01,0,0,1-6.667-1.394c-3.123-1.041-4.365-1.442-6.756-3.644-1.13-1.04-2.354-2.14-3.414-3.17a37.407,37.407,0,0,0-2.213-4.656L57.8,112.8s1.168,6.793.395,11.8c-.911,5.894-.79,7.3-.79,7.3s4.348.766,5.237-3.188a17.862,17.862,0,0,0,.07-7.72c-.016-.1-.036-.219-.058-.339a28.011,28.011,0,0,0,3.987,2.462,30,30,0,0,0,8.381,1.8H73.039a.339.339,0,0,0-.339.339v.666a.339.339,0,0,0,.339.339H88.2v23.17H84.045a.339.339,0,0,0-.339.339v.666a.339.339,0,0,0,.339.339h9.673a.339.339,0,0,0,.339-.339v-.666a.339.339,0,0,0-.339-.339H89.544v-23.17h12.38a.339.339,0,0,0,.339-.339v-.666a.339.339,0,0,0-.339-.339" transform="translate(-43.556 -84.219)" fill="#ee7203"/>
        <path id="Tracé_414" data-name="Tracé 414" d="M172.205,102.5l1.062.343a.253.253,0,0,0,.317-.163l2.359-7.311,1.384,9.076h-3.86a.17.17,0,0,0-.17.17v.161a.17.17,0,0,0,.17.17h7.225a.17.17,0,0,0,.17-.17v-.161a.17.17,0,0,0-.17-.17h-2.736l-1.587-10.4,2.67-8.273a.253.253,0,0,0-.163-.318l-1.062-.343a.253.253,0,0,0-.317.163l-5.457,16.909a.253.253,0,0,0,.163.318" transform="translate(-130.532 -64.571)" fill="#ee7203"/>
        <path id="Tracé_415" data-name="Tracé 415" d="M77.022,212.17c.394-.71,1.755-10.641,1.7-12.681-.1-4.035-11.235-5.05-16.686-5.012a7.764,7.764,0,0,1-2.182,1.191,9.287,9.287,0,0,1-2.261.363,7.639,7.639,0,0,0-.016,1.664c.167,1.148,1.6,1.486,3.7,1.338a62.9,62.9,0,0,1,6.876-.228c4.309.14,8.816.1,8.815,1.193a32.784,32.784,0,0,1-.554,4.666c-.341,1.852-1.379,6.985-1.687,7.96a9.053,9.053,0,0,0-.316,1.423l6.618.061c.162-.441-1.707-2.305-4.013-1.938" transform="translate(-43.658 -147.563)" fill="#ee7203"/>
        <path id="Tracé_416" data-name="Tracé 416" d="M30.556,263.559a1.48,1.48,0,1,0,1.48,1.48,1.48,1.48,0,0,0-1.48-1.48" transform="translate(-22.062 -199.982)" fill="#ee7203"/>
        <path id="Tracé_417" data-name="Tracé 417" d="M68.582,263.473a1.48,1.48,0,1,0,1.48,1.48,1.48,1.48,0,0,0-1.48-1.48" transform="translate(-50.915 -199.916)" fill="#ee7203"/>
        <path id="Tracé_418" data-name="Tracé 418" d="M106.553,263.559a1.48,1.48,0,1,0,1.48,1.48,1.48,1.48,0,0,0-1.48-1.48" transform="translate(-79.727 -199.982)" fill="#ee7203"/>
        <path id="Tracé_419" data-name="Tracé 419" d="M34.69,147.458c.042,0,.083-.006.126-.006a1.814,1.814,0,0,1,.591.1c1.151-1.564,4.443-2.737,8.248-2.8v2.713a1.755,1.755,0,0,1,.668,0v-2.713c3.8.067,7.085,1.24,8.234,2.8a1.813,1.813,0,0,1,.591-.1c.042,0,.083,0,.125.006-1.051-1.841-4.287-3.193-8.324-3.381V139.4h7.373a1.094,1.094,0,0,0,1.091-1.091v-1.033a1.094,1.094,0,0,0-1.091-1.091H39.56V112.525a1.537,1.537,0,0,0-1.532-1.532H36.576a1.537,1.537,0,0,0-1.532,1.532v25.339a1.537,1.537,0,0,0,1.532,1.533h6.452v4.68c-4.044.185-7.286,1.538-8.338,3.382" transform="translate(-26.322 -84.219)" fill="#ee7203"/>
        <path id="Tracé_420" data-name="Tracé 420" d="M210.419,106.034c-.192-.591-.406-1.172-.632-1.748a1.392,1.392,0,0,1-.287.815,1.533,1.533,0,0,1-1.081.593,30.507,30.507,0,0,1,1.04,4.443,29.091,29.091,0,0,1,.35,4.567,30.872,30.872,0,0,1-1.469,9.407,30.545,30.545,0,0,1-10.286,14.606c-.775.6-1.58,1.154-2.408,1.676v2.6c.059-.032.119-.061.178-.094a31.418,31.418,0,0,0,7.46-5.728,30.81,30.81,0,0,0,5.362-7.576,30.908,30.908,0,0,0,3.286-13.879,31.5,31.5,0,0,0-1.512-9.679" transform="translate(-148.45 -79.13)" fill="#ee7203"/>
        <path id="Tracé_421" data-name="Tracé 421" d="M10.729,106.122c.153.137.311.267.467.4a14.12,14.12,0,0,1,1.436-.467c-.243-.2-.485-.411-.722-.622-.552-.493-1.108-1-1.609-1.546l-.059-.063-.192-.206q-.205-.221-.406-.446l-.061-.071a2.74,2.74,0,0,1-2.065-2.6l0-.006c-.086-.121-.171-.244-.255-.366l-.1-.146q-.09-.134-.178-.27-.32-.49-.621-.993a30.611,30.611,0,0,1-2.051-4.092l-.055-.137q-.045-.114-.089-.228-.111-.287-.216-.575-.2-.541-.373-1.088-.361-1.122-.634-2.269T2.481,88c-.117-.747-.215-1.564-.267-2.246a30.915,30.915,0,0,1,.764-9.582,29.882,29.882,0,0,1,3.47-8.425,31.109,31.109,0,0,1,3.237-4.423,1.2,1.2,0,0,1,.029-.671c-.1-.124-.2-.25-.292-.377l-.016-.022c-.047-.068-.095-.133-.141-.2-.089-.009-.167-.021-.232-.032l-.05-.008a1.177,1.177,0,0,1-.145.009,1.206,1.206,0,0,1-.749-.261,1.591,1.591,0,0,1-.148-.078q-.406.451-.794.916a30.719,30.719,0,0,0-4.8,7.975,31.144,31.144,0,0,0-2.25,9.4A31.315,31.315,0,0,0,4.528,98.662a32.735,32.735,0,0,0,6.2,7.46m-6.422-11.5c-.03-.073-.012-.029,0,0v0" transform="translate(0 -46.805)" fill="#ee7203"/>
      </g>
    </g>
  </g>
</svg>
