<svg xmlns="http://www.w3.org/2000/svg" xmlns:xlink="http://www.w3.org/1999/xlink" width="57.376" height="57.375" viewBox="0 0 57.376 57.375">
  <defs>
    <clipPath id="clip-path">
      <rect id="Rectangle_71" data-name="Rectangle 71" width="57.376" height="57.375" fill="none"/>
    </clipPath>
  </defs>
  <g id="logo-safety" clip-path="url(#clip-path)">
    <path id="Tracé_630" data-name="Tracé 630" d="M28.688,57.375A28.688,28.688,0,1,1,57.376,28.688,28.72,28.72,0,0,1,28.688,57.375m0-55.737A27.049,27.049,0,1,0,55.737,28.688,27.08,27.08,0,0,0,28.688,1.639" fill="#161615"/>
    <path id="Tracé_631" data-name="Tracé 631" d="M165.188,84.851a.984.984,0,0,1-.845-.478,32.542,32.542,0,0,1-1.9-3.627c-.538-1.421-1.36-6.2,1.807-9.407a8.3,8.3,0,0,1,9.561-1.624,9.072,9.072,0,0,1,4.655,9,.985.985,0,0,1-1.956-.231,7.1,7.1,0,0,0-3.522-6.981,6.359,6.359,0,0,0-7.337,1.218c-2.484,2.515-1.71,6.418-1.366,7.326a30.067,30.067,0,0,0,1.751,3.311.985.985,0,0,1-.843,1.491" transform="translate(-135.394 -57.594)" fill="#161615"/>
    <path id="Tracé_632" data-name="Tracé 632" d="M203.3,128.132a.983.983,0,0,0-1.332-.288v0A6.483,6.483,0,0,0,200.513,129c-.92.92-.94,2.717-.066,5.826a1.673,1.673,0,0,1-1.126,2.278.894.894,0,0,1-.853-.131,1.74,1.74,0,0,1-.738-.972c-.088-1.139-1.452-2.646-2.919-3.225-1.044-.413-1.038-.674-1.017-1.541,0-.144.007-.289.005-.434-.008-.7.947-1.61,2-1.905a3.985,3.985,0,0,0,2.722-2.346c.149-.27.3-.549.5-.857,1.09-1.708.756-4.594.714-4.918a.985.985,0,1,0-1.953.252,6.911,6.911,0,0,1-.421,3.606c-.23.361-.408.682-.564.965-.475.861-.635,1.15-1.529,1.4a5.475,5.475,0,0,0-2.294,1.336,3.5,3.5,0,0,0-1.147,2.488c0,.122,0,.244,0,.364a3.07,3.07,0,0,0,2.262,3.42,3.289,3.289,0,0,1,1.68,1.557,3.576,3.576,0,0,0,1.636,2.465,3,3,0,0,0,1.625.5,2.806,2.806,0,0,0,.971-.175,3.65,3.65,0,0,0,2.343-4.66c-.925-3.287-.441-3.9-.437-3.9a5.2,5.2,0,0,1,.978-.813l-.013.007,0-.005a.982.982,0,0,0,.429-1.452" transform="translate(-160.389 -100.269)" fill="#161615"/>
    <path id="Tracé_633" data-name="Tracé 633" d="M15.387,151.807a.326.326,0,0,0,.327-.315l.389-10.261.164,0,.278,2.811a.321.321,0,0,0,.337.3.328.328,0,0,0,.317-.318l.129-4.721.164,0,.517,8.925a.328.328,0,0,0,.655-.008l.245-7.519.164,0,.4,5.1a.332.332,0,0,0,.333.3.328.328,0,0,0,.321-.313l.271-6.052.163-.006.513,4.436a.333.333,0,0,0,.329.29.327.327,0,0,0,.322-.3l.392-4.312h.163l.309,3.015a.324.324,0,0,0,.335.294.329.329,0,0,0,.318-.313l.285-6.511h.164l.753,13.239a.328.328,0,0,0,.655-.005l.4-9.786.164,0,.3,4.816a.328.328,0,0,0,.652.023l.661-4.979.321,2.64a.328.328,0,0,0,.651-.006l.3-2.967h.163l.506,5.265a.328.328,0,0,0,.652,0L30.2,140.8h.163l.233,2.211a.328.328,0,0,0,.652,0l.24-2.6h.163l.442,4.4a.318.318,0,0,0,.334.295.329.329,0,0,0,.319-.313l.366-8.42.163-.006.83,7.008a.328.328,0,0,0,.652-.018l.336-5.338.619,3.64a.328.328,0,0,0,.647,0l.435-2.79.138.668a.328.328,0,0,0,.642-.133l-.505-2.436a.321.321,0,0,0-.327-.261.328.328,0,0,0-.318.277l-.4,2.586-.754-4.438a.323.323,0,0,0-.339-.273.328.328,0,0,0-.311.307l-.23,3.643-.163,0-.894-7.552a.324.324,0,0,0-.338-.289.329.329,0,0,0-.315.313l-.339,7.793-.163,0-.3-2.952a.328.328,0,0,0-.652,0l-.25,2.7h-.163l-.242-2.3a.328.328,0,0,0-.652.005l-.312,3.531H29.44l-.476-4.962a.328.328,0,0,0-.652,0l-.425,4.17-.279-2.289a.328.328,0,0,0-.65,0l-.446,3.36-.163-.006-.533-8.571a.328.328,0,0,0-.654.007l-.38,9.358h-.164l-.738-12.976a.328.328,0,0,0-.655,0l-.4,9.042-.163,0-.169-1.653a.328.328,0,0,0-.652,0l-.488,5.369-.736-6.363a.328.328,0,0,0-.653.023l-.2,4.465-.164,0-.453-5.84a.328.328,0,0,0-.654.015L18.3,139.14l-.164,0-.549-9.473a.327.327,0,0,0-.333-.309h0a.327.327,0,0,0-.321.319l-.214,7.831-.164.006-.229-2.314a.327.327,0,0,0-.326-.3.331.331,0,0,0-.328.315l-.188,4.949h-.164l-.4-11.648a.328.328,0,0,0-.655,0l-.484,10.111-.163.008-.274-1.937a.328.328,0,0,0-.652.03l-.134,2.715-.163.007-.117-.836a.328.328,0,0,0-.652.027l-.067,1.183H11.4l-.3-5.692a.328.328,0,0,0-.653-.019l-.761,6.936H8.328a.328.328,0,1,0,0,.655H9.975a.328.328,0,0,0,.326-.292l.243-2.215.163,0,.456,6.87a.328.328,0,0,0,.654,0l.282-4,.248,1.776a.328.328,0,0,0,.652-.029l.136-2.757.163-.008.279,1.97a.32.32,0,0,0,.338.282.327.327,0,0,0,.314-.312l.216-4.518h.164l.45,13.016a.326.326,0,0,0,.327.317v0Z" transform="translate(-6.689 -106.893)" fill="#161615"/>
    <path id="Tracé_634" data-name="Tracé 634" d="M192.806,210.7a.985.985,0,0,0-.85,1.1,12.106,12.106,0,0,1-.162,3.784c-.579,2.335-3.232,3.1-4.031,3.274a6.551,6.551,0,0,1-4.532-.482c-1.569-.9-2.372-2.9-3.389-5.439-.307-.767-.625-1.56-.993-2.4-.175-.4-.363-.8-.557-1.21l-.088.564a1.066,1.066,0,0,1-1.43.832c.093.2.184.4.271.6.356.812.668,1.591.969,2.344,1.113,2.779,2.075,5.18,4.24,6.417a7.6,7.6,0,0,0,3.374.914,59.9,59.9,0,0,0,2.215,5.722A8.073,8.073,0,0,0,189.755,229l1.418-1.8a5.946,5.946,0,0,1-1.32-1.579c-.37-.672-1.222-2.978-1.858-4.8.066-.013.131-.024.2-.038,1.079-.24,4.664-1.289,5.515-4.723a13.962,13.962,0,0,0,.2-4.512.983.983,0,0,0-1.1-.848" transform="translate(-147.808 -175.028)" fill="#161615"/>
    <path id="Tracé_635" data-name="Tracé 635" d="M158.958,22.495c-1.076-4.928-3.737-8.13-8.133-9.787a12.078,12.078,0,0,0-5.378-.714,31.972,31.972,0,0,1-.268-5.917l-2.292-.094a33.744,33.744,0,0,0,.3,6.419,12.176,12.176,0,0,0-3.022,1.271,12.4,12.4,0,0,0-5.951,7.614,13.021,13.021,0,0,0,.872,8.575c.523,1.029,1.145,2.152,1.81,3.336a1.092,1.092,0,0,1,.117.017l.157-3.613c-.113-.215-.224-.427-.329-.633a11.173,11.173,0,0,1-.694-7.309c.495-2.563,2.883-5.01,5.031-6.3a10.562,10.562,0,0,1,8.95-.812c3.775,1.423,5.968,4.081,6.9,8.365a17.949,17.949,0,0,1-.226,6.078.985.985,0,0,0,1.926.412,19.63,19.63,0,0,0,.224-6.91" transform="translate(-111.933 -5.003)" fill="#161615"/>
  </g>
</svg>
