<svg xmlns="http://www.w3.org/2000/svg" xmlns:xlink="http://www.w3.org/1999/xlink" width="70.832" height="62.858" viewBox="0 0 70.832 62.858">
  <defs>
    <clipPath id="clip-path">
      <rect id="Rectangle_49" data-name="Rectangle 49" width="70.832" height="62.858" fill="none"/>
    </clipPath>
  </defs>
  <g id="logo-ergoattitude" transform="translate(4.797 4.257)">
    <g id="Groupe_169" data-name="Groupe 169" transform="translate(-4.797 -4.257)" clip-path="url(#clip-path)">
      <path id="Tracé_535" data-name="Tracé 535" d="M59.309,183.983,68.78,180.9a7.006,7.006,0,0,0-1.361-.2c-.9-.065-8.235-.451-8.6-.464s-.34-.111-.314-.183.242-.418,1.295-1.092a31.275,31.275,0,0,1,5.272-2.747c2.78-1.232,3.172-1.374,3.709-1.589s1.2-.392,1.387-.942a.856.856,0,0,0-.837-1.243,10.892,10.892,0,0,0-2.989.87,49.777,49.777,0,0,0-7.26,3.539,8.878,8.878,0,0,0-2.584,2.172,4.379,4.379,0,0,0-.791,1.334,1.4,1.4,0,0,0,.046,1.112c.261,0,5.279.111,6.443.144a3.673,3.673,0,0,0-2.047.811,2.612,2.612,0,0,0-.837,1.57" transform="translate(-42.397 -131.451)" fill="#ee7203"/>
      <path id="Tracé_536" data-name="Tracé 536" d="M25.588,109.065a35.2,35.2,0,0,0-5.864-2.59,42.144,42.144,0,0,0-5.36-1.491,24.99,24.99,0,0,0-8.036-.461,14.161,14.161,0,0,0-4.111,1.168c-.775-.226-2.218-.667-2.218-.667a8.559,8.559,0,0,1,3.934-1.845,23.8,23.8,0,0,1,9.507.2,38.991,38.991,0,0,1,7.133,2.041,21.046,21.046,0,0,1,5.014,2.6Z" transform="translate(0 -78.353)" fill="#ee7203"/>
      <path id="Tracé_537" data-name="Tracé 537" d="M89.9,73.008a4.374,4.374,0,0,0-.569,1.4,2.638,2.638,0,0,0,1.6,3.179,8.995,8.995,0,0,0,6.74,0A4.85,4.85,0,0,0,101,73.39c.039-1.727-1.521-2.531-2.825-2.865a6.039,6.039,0,0,0-3.729.088,7.552,7.552,0,0,1,1.786.647,1.684,1.684,0,0,1,.51,2.824,6.754,6.754,0,0,1-3.911,1.821,2.463,2.463,0,0,1-2.653-1.5,10.1,10.1,0,0,1-.284-1.393" transform="translate(-68.039 -53.579)" fill="#ee7203"/>
      <path id="Tracé_538" data-name="Tracé 538" d="M129.863,102.32a5.375,5.375,0,0,0-.177-1.011,2.287,2.287,0,0,0-.265-.579c-.029-.049.363-.834,2.119-2.345a31.68,31.68,0,0,1,10.037-5.534,46.454,46.454,0,0,1,12.166-2.473v.549a52.332,52.332,0,0,0-8.055,1.727,40.76,40.76,0,0,0-9.615,4.3,23.733,23.733,0,0,0-6.211,5.367" transform="translate(-98.663 -68.901)" fill="#ee7203"/>
      <path id="Tracé_539" data-name="Tracé 539" d="M129.016,109.913a34.049,34.049,0,0,1,3.041-2.433,48.45,48.45,0,0,1,18.7-8.575,35.794,35.794,0,0,1,6.3-.885,47.406,47.406,0,0,1,4.878.071,2.035,2.035,0,0,0,1.03-.039,2.726,2.726,0,0,0,.726-.578,18.675,18.675,0,0,1,2.64-2.179,6.335,6.335,0,0,1,1.717-.942c.54-.186.508.086.4.332a9.937,9.937,0,0,1-.645,1.1c-.245.373-.324.432-.245.422a2.957,2.957,0,0,0,.461-.187,1.963,1.963,0,0,0,.334-.2s-1.1,1.285-2.355,2.737-3.562,4.14-3.562,4.14a12.875,12.875,0,0,0-6.073-1.413,26.9,26.9,0,0,0-9.272,1.648,53.443,53.443,0,0,0-5.634,2.26c-1.414.666-3.013,1.5-4.864,2.567a79.587,79.587,0,0,0-6.878,4.425c-.343.255-.481.334-.765.265a1.152,1.152,0,0,1-.7-.679,1.007,1.007,0,0,1-.029-.9,2.815,2.815,0,0,1,.795-.962m37.538-13.53c.422-.432.353-.442.324-.481s-.118-.019-.314.1-.441.343-1.393,1.109-2.276,1.854-2.276,1.854-1.185-.113-2.882-.162a29.07,29.07,0,0,0-6.831.447,58.964,58.964,0,0,0-10.066,2.845c-1.314.5-2.431,1.04-3.395,1.508a43.919,43.919,0,0,0-5.053,2.907c-1.282.83-5.58,4.065-5.733,4.2-.294.265-.1.4.1.35a8.8,8.8,0,0,0,1.374-.922,90.3,90.3,0,0,1,9.474-5.969,49.643,49.643,0,0,1,12.454-3.931,32.788,32.788,0,0,1,6.181-.393c2.5.07,4.413.294,4.413.294s3.2-3.325,3.623-3.757" transform="translate(-97.678 -71.882)" fill="#ee7203"/>
      <path id="Tracé_540" data-name="Tracé 540" d="M112.095,108.119l.739,1.184-.445,14.632a7.931,7.931,0,0,1-2.734-4.186,11.731,11.731,0,0,1-.046-5.069,21.807,21.807,0,0,1,2.486-6.56m-1.609,7.758c.079-.309.146-.543.242-.883.132-.466.257-.929.294-1.067a2.177,2.177,0,0,0-.026-.705c-.013-.111-.1.015-.17.15a5.361,5.361,0,0,0-.569,1.531,16.371,16.371,0,0,0-.059,2.113s.112-.452.288-1.138" transform="translate(-83.364 -82.424)" fill="#ee7203"/>
      <path id="Tracé_541" data-name="Tracé 541" d="M129.04,241.676c.018-.085.18-.272.1-.377-.032.1-.154.25-.1.377" transform="translate(-98.363 -183.953)" fill="#ee7203"/>
      <path id="Tracé_542" data-name="Tracé 542" d="M141.912,264.152h0c-.038.01.019.088.024.014,0,0,0-.012-.024-.014" transform="translate(-108.176 -201.375)" fill="#ee7203"/>
      <path id="Tracé_543" data-name="Tracé 543" d="M180.382,226.953c0,.039-.1.007-.09.056.056.027.121-.024.09-.056" transform="translate(-137.445 -173.017)" fill="#ee7203"/>
      <path id="Tracé_544" data-name="Tracé 544" d="M167.823,224.544c.046-.022.179.015.174-.073-.109.022-.25.012-.308.1.044.029.085-.017.133-.027" transform="translate(-127.838 -171.125)" fill="#ee7203"/>
      <path id="Tracé_545" data-name="Tracé 545" d="M180.479,232.23c.2.093.261.147.414.1.057-.023.083.006.158-.038a1.031,1.031,0,0,0,0-.56c-.385.038-.975,0-.807.41.014.034.106.064.237.09" transform="translate(-137.385 -176.658)" fill="#ee7203"/>
      <path id="Tracé_546" data-name="Tracé 546" d="M136.718,219.66c-.041.079.006.138-.014.178a.35.35,0,0,1-.225.282c-.15.112-.265.006-.406-.042-.03-.054.028,0-.013-.049a1.848,1.848,0,0,1-.737-.862.716.716,0,0,1-.13-.182l.009-.034a3.028,3.028,0,0,1-.128-.381c-.012-.022.034.01.022-.012s-.065-.091-.048-.086c-.006-.011.02-.04.02-.04-.007-.038-.035-.037-.035-.037a.67.67,0,0,1,0-.1c-.012-.149-.106-.266-.116-.36a2.727,2.727,0,0,0-.1-.255c.035-.09-.058-.18-.075-.312a2.36,2.36,0,0,0-.121-.343c-.018-.032,0-.155-.026-.2-.056-.252-.118-.515-.161-.745a.7.7,0,0,1-.054-.324c-.029-.026-.092-.09-.071-.1-.035-.037-.01-.094-.037-.192-.024-.17-.079-.267-.1-.4-.021-.088-.017-.132-.032-.209a2.287,2.287,0,0,1-.009-.448c.019-.067.056-.1.187-.147.059-.047.163-.19.278-.212a.724.724,0,0,0,.159-.145c.011-.006.009-.034.02-.04.033-.018.077-.015.1-.054a.208.208,0,0,0,.108-.06c.215-.148.412-.3.648-.461a3.312,3.312,0,0,0,.529-.3,1.673,1.673,0,0,1,.307-.186c.2-.142.442-.247.652-.378-.013-.049-.026.029-.046-.031.034.01.059-.047.074-.07-.041-.048-.068-.047-.022-.115a8.341,8.341,0,0,0-1.952.736,4.985,4.985,0,0,1-.574.264,3.193,3.193,0,0,1-.524.279c-.037.035-.085.076-.154.029a6.513,6.513,0,0,1-.145-.867,3.969,3.969,0,0,0-.049-.822c-.068-.047-.1-.029-.162-.037l-.012-.022-.022.012a.864.864,0,0,1-.19-.036.487.487,0,0,1-.126.028c-.054.03-.053.058-.106.088-.029-.027-.016.023-.037.035-.083,0-.114.049-.1.082a.156.156,0,0,1,0,.1c.013.049,0,.072-.015.15-.036.062-.014.178-.026.283-.021.267-.031.527-.027.737a.337.337,0,0,1-.034.217l-.014.05a.214.214,0,0,0,.052.042c0,.028-.035.09-.029.1,0,.028.025.071.027.1a.207.207,0,0,0-.031.173c0,.072.039.12,0,.155-.011.025,0,.023.006.021a.729.729,0,0,0-.08.049c-.26.139-.488.274-.7.411a1.7,1.7,0,0,0-.316-.017c-.061.012-.109-.041-.162-.056-.017-.022-.085.017-.14-.01a.523.523,0,0,1-.218-.019,18.229,18.229,0,0,0-2.15.091.589.589,0,0,1,.036-.2,4.163,4.163,0,0,1,.271-.911,1.244,1.244,0,0,0,.089-.308.456.456,0,0,0-.179-.267l-.184-.038c-.1.007-.17.034-.209-.034-.017.041-.126.063-.126.063-.024.005-.046-.041-.07-.036a.57.57,0,0,0-.116.174c-.014-.009-.017-.022-.041-.017.068.025.095.095.034.233,0,0-.046.022-.044.034a.212.212,0,0,0-.058.087c-.046.022,0,.075,0,.126-.014.116-.131.354-.177.565a6.118,6.118,0,0,0-.22.6c-.012,0,0,.039,0,.051a1.6,1.6,0,0,1-.16-.043.838.838,0,0,1-.066.114c-.051.061-.218-.019-.228.058.077.01.179-.049.235-.022-.012,0,.017.085.005.15-.034.019-.3.022-.446.039l0,.012a.233.233,0,0,0-.131.039c.313-.012-.075,0-.177.061.019-.029.024-.068-.036-.056s0,.039-.053.049c-.02.029-.01-.049-.032-.031-.041.046-.007.027.012.061-.153.056-.182-.09-.284.031l-.073.015c.012,0,.012,0,.022-.017-.051,0-.07.027-.046.022a5.686,5.686,0,0,0-.816.151c.008,0,.012-.011.009-.027-.121.024-.274.08-.407.107a.514.514,0,0,0,.039-.121l-.012,0c-.063-.063,0-.138,0-.15-.019-.1.024-.194-.005-.276l-.129-.075c-.017-.022,0-.039,0-.051-.041-.08-.281-.019-.3.085a.324.324,0,0,0-.131-.087c-.114.061-.077.179-.109.337-.022.08-.077.179-.111.325a.4.4,0,0,1-.1.272.291.291,0,0,1,0,.1.091.091,0,0,1-.046.022c-.068.039-.3.073-.453.129a.107.107,0,0,1-.065.051.42.42,0,0,0-.131.039c-.252.063-.628.265-.882.316-.019.029-.046.022-.082.029s-.056.1-.1.07c0-.051.032-.031.066-.051a1.139,1.139,0,0,0-.356.109c-.046.022-.053.048-.087.068a3.017,3.017,0,0,1-.306.193.144.144,0,0,1-.012-.068,3.243,3.243,0,0,1,.008-.483.731.731,0,0,0-.031-.089.33.33,0,0,0,.044-.1.66.66,0,0,0-.027-.151,1.859,1.859,0,0,1,.055-.442c-.023-.026-.02-.063-.066-.116.015-.036.067-.07.022-.135a1.431,1.431,0,0,0-.177-.855,1.055,1.055,0,0,0-.789-.414c-.146-.047-.365.086-.47.166-.109.141-.227.244-.323.374a.964.964,0,0,0-.177.05c0,.049-.006.086-.032.1-.094.105-.187.2-.282.315-.067.07-.142.089-.172.161a.063.063,0,0,0-.054.071c-.08.081-.147.151-.226.22a4.576,4.576,0,0,1-.326.423c-.028.048-.081.094-.1.117a.265.265,0,0,0-.034.134,2.194,2.194,0,0,1-.22.319,2.292,2.292,0,0,1-.312.4c-.187.371-.384.717-.607,1.086-.152.225-.233.5-.371.705a4.853,4.853,0,0,0-.257.49c-.06.145-.193.284-.24.429-.077.218-.143.461-.3.562-.014.024-.113.017-.225.022a12.573,12.573,0,0,1-1.234.287c-.085-.018-.175.025-.249.02-.1.005-.22-.04-.261.019a1.06,1.06,0,0,0,.341.259c.02.063.016.125.04.139.069.079.154.1.224.164a3.2,3.2,0,0,0,.793.364c-.061.169-.167.261-.189.408a2.09,2.09,0,0,1-.216.431c0,.049-.016.048-.042.072-.1.067-.054.244-.009.309a.967.967,0,0,0,.52.184c.211,0,.242-.281.355-.484.026-.023.051-.021.08-.081a2.617,2.617,0,0,1,.338-.6c.115-.054.358.012.508,0a5.3,5.3,0,0,0,.842-.165,2.95,2.95,0,0,0,.633-.192,1.7,1.7,0,0,1,.308-.152c.012,0,0,0,.015-.036.089-.031.253-.069.342-.1a4.982,4.982,0,0,1,.882-.212,6.381,6.381,0,0,1-.023.692q-.022.314-.043.629a4.469,4.469,0,0,0-.011.705,2.38,2.38,0,0,1-.008.3,1.66,1.66,0,0,0,.105.453.812.812,0,0,0,.1.478.847.847,0,0,0,.322.369c.1-.018.1-.03.131-.1a.147.147,0,0,0,.092-.08c.062,0,.007.075.083.055-.02-.076.1-.042.1-.067.03-.072.028-.221.1-.3.033.052-.006.086.017.113.062-.182.05-.368.112-.55a.878.878,0,0,0,.1-.13.748.748,0,0,1,.029-.233.444.444,0,0,1,.109-.141,5.394,5.394,0,0,0,.1-.8,3.361,3.361,0,0,0,.075-.366c0-.037-.078-.129-.074-.179a2.178,2.178,0,0,0,.071-.491,1.513,1.513,0,0,1,.016-.234,1.244,1.244,0,0,1,.046-.307,2.954,2.954,0,0,1,.007-.458,1.817,1.817,0,0,1,.067-.429.815.815,0,0,1-.025-.361c.021-.308.043-.629.066-.95,0-.014,0-.027,0-.04.037.022.071.043.1.038a4.236,4.236,0,0,0,.71-.042.786.786,0,0,1,.279-.119,2.925,2.925,0,0,0,.317-.177,2.042,2.042,0,0,0,.342-.119c.01-.015.032-.032.051-.061,0-.012,0-.012.007-.027a.528.528,0,0,0,.082-.092c.009-.015.043-.034.051-.061l.024,0c0,.051,0,.1-.01.14a.553.553,0,0,1,.058-.024c-.082.218-.092.422-.164.625.036.056-.019.092-.032.158-.01-.048-.007.594-.07.468.019.034.041.206-.058.15.041.08,0,.126,0,.228-.024.194.029.524-.058.592a.348.348,0,0,0,.02.286c.051.38-.024.761,0,1.059.009.048.077.073.082.1a.672.672,0,0,0,.019.223c.063.189.056.342.09.448.092.145.073.237.163.371a1.427,1.427,0,0,1,.131.213,1,1,0,0,0,.412.3l.16.043c.007.036.024,0,.073-.014a.158.158,0,0,0,.082.034,1.165,1.165,0,0,0,.4-.056c.07-.027.114-.124.2-.153.065-.051.061-.075.092-.106.015-.053.066-.051.09-.056a1.018,1.018,0,0,0,.213-.257c.022-.017,0-.075.017-.1s.061-.012.082-.029a3.814,3.814,0,0,1,.131-.417,2.866,2.866,0,0,1,.164-.373c.032-.095.1-.208.145-.344.017-.168.095-.347.126-.5,0-.051,0-.075.017-.1.024-.131.058-.276.089-.434,0-.039.056-.1.058-.15.022-.08-.015-.136.027-.182,0-.051.034-.082.048-.136.039-.058,0-.138.022-.206.019-.029.066-.051.058-.087.008-.027,0-.087.007-.153-.007-.036.029-.044.044-.1.1-.335.162-.7.256-.984a.6.6,0,0,1,.031-.158.525.525,0,0,1,.041-.138,2.956,2.956,0,0,0-.017.322,9.521,9.521,0,0,0-.084,2.411c-.007.09.034-.019.007.1-.046-.041.019.034-.017.041a3.038,3.038,0,0,0,.083.664,3.623,3.623,0,0,0,.214.877,2.223,2.223,0,0,0,.791,1.3c.058.039.206.085.208.1a.91.91,0,0,0,.419-.046c0-.024.119-.1.15-.131,0-.012.041-.046.039-.058s.014-.053.048-.073a.255.255,0,0,1,.048-.135.943.943,0,0,0,.014-.306c-.1.133-.157.346-.329.369-.012,0-.061-.051-.061-.051,0-.024-.046-.041-.046-.041-.039-.068-.136-.174-.121-.165-.1-.119-.058-.165-.121-.354-.085.017.046.1,0,.138-.036-.056-.145-.286-.053-.2a3.474,3.474,0,0,1-.18-.707,1.158,1.158,0,0,1-.034-.422c-.024-.058.039-.121.032-.158,0,0-.041-.017-.02-.034-.037-.056,0-.138-.007-.225a.443.443,0,0,1-.032-.221c.007-.216-.029-.145.031-.346a.971.971,0,0,1,.034-.334c.007-.09.066-.114-.007-.1.029-.3.22-.473.276-.761-.068.039-.085.206-.184.15a1.677,1.677,0,0,1,.13-.417c.01-.077-.072.015-.063-.063-.015-.073.036-.134.046-.211.034.044.106-.412.148-.521-.072-.048,0-.24.022-.269s0-.012-.014-.073a.72.72,0,0,0,.021-.269c-.058.024-.029.107-.106.1.08-.293.213-.7.288-1.078l-.029-.335a1.8,1.8,0,0,1,.126-.378c0-.075,0-.15-.007-.226l.036-.007a3.323,3.323,0,0,1,.587-.029c.046-.022.1-.019.155-.044s.119-.1.223-.082c-.007.027-.073.015-.077.053a.154.154,0,0,0,.133-.09.061.061,0,0,0,.1.017.012.012,0,0,1,.01-.015.609.609,0,0,1,.327-.065c0,.012-.061.012-.056.036a7.93,7.93,0,0,1,.8-.178,5.484,5.484,0,0,0-.7.662.884.884,0,0,1-.385.3c.018.032.048.086.093.09a.77.77,0,0,0,.329.057.975.975,0,0,0,.455.029,1.047,1.047,0,0,0,.218-.065,3.248,3.248,0,0,0,.807-.38,4.727,4.727,0,0,1,.617-.416c.186-.174.111-.1.122-.111.031.082,0,.155.04.275a.053.053,0,0,0,.025.071.146.146,0,0,0-.024.084c.018.033.064.063.056.125.006.011-.016.023-.02.04.007.039.047.059.042.076.007.038-.047.068-.038.134,0,.083.038.092.063.163a.21.21,0,0,1,0,.144c-.014.05.059.08.057.152a.315.315,0,0,1,.011.121.34.34,0,0,1,.054.1c.018.032,0,.072,0,.1a.132.132,0,0,1,.021.087c.024.043,0,.083.027.1a1.361,1.361,0,0,1,.045.131c.035.037,0,.055-.007.089,0,.017.046.031.03.054.012.022-.037.035-.019.067,0,.028.036.065.033.109.029.027.009.066,0,.111a.708.708,0,0,0,.039.12.639.639,0,0,0,.051.269,2.662,2.662,0,0,1,.006-.471.134.134,0,0,0-.041-.048l.065-.036a3.186,3.186,0,0,0,.022-.366,3.556,3.556,0,0,0,.1.482,1.728,1.728,0,0,1,.037.192c-.006.072.1.235.149.353a1.641,1.641,0,0,1-.126.115c-.007.016.028.069.005.078a3.514,3.514,0,0,1-.251.3c-.05.074-.116.141-.159.2a.94.94,0,0,1-.223.3c-.214.261-.542.635-.7.873a2.155,2.155,0,0,1-.716.6c-.144-.222-.034-.573-.068-.787.014-.032-.01-.089-.038-.158a.922.922,0,0,0,.035-.308.231.231,0,0,0-.006-.145.415.415,0,0,1-.01-.156,6.2,6.2,0,0,0-.1-.64c.038-.136.1-.253.034-.374a.887.887,0,0,0-.935.129,2.525,2.525,0,0,0-.069.909c.017.073-.027.131,0,.161a2.048,2.048,0,0,0,.059.537,3.4,3.4,0,0,0,.135.626,1,1,0,0,0,.477.579,1.649,1.649,0,0,0,.627.064,1.352,1.352,0,0,0,.578-.089,1.957,1.957,0,0,0,.455-.293c.091-.1.082-.127.116-.141a1.859,1.859,0,0,1,.217-.155c.007-.016.036-.108.051-.168.048-.046.073-.083.1-.109a2.441,2.441,0,0,0,.311-.448,4.537,4.537,0,0,0,.3-.443l.176-.3a.187.187,0,0,1,.029.132c.023.015.013.049.031.081s.058.053.076.085a4.17,4.17,0,0,0,.293.473c.1.156.258.309.33.439.074.057.14.149.214.206.019.06.094.117.135.165a.377.377,0,0,1,.25.144c.125.072.126.1.2.129a1.156,1.156,0,0,0,1.011-.14.508.508,0,0,0,.166-.234.834.834,0,0,0,.09-.32.355.355,0,0,0,.06-.146c.011-.006-.013-.049.007-.089-.024-.043.026-.156-.07-.2m-16.21.383a6.523,6.523,0,0,0-1.385-.219,10.585,10.585,0,0,0-1.287-.014.506.506,0,0,1,.073-.342c.039-.022,0-.049.053-.046.017-.061.077-.218.032-.283a1.637,1.637,0,0,1,.322-.709c-.055-.1.1-.191.019-.271.064-.033.009.05.058.053.091-.056.045-.294.131-.288,0-.049-.019-.088-.014-.15.073.017.029-.06.068-.095.032-.109.084-.143.13-.263.09-.229.251-.4.353-.632a3.944,3.944,0,0,0,.322-.535,1.627,1.627,0,0,1,.168-.286c.091-.068.174-.187.279-.278a.435.435,0,0,1,.176-.211.3.3,0,0,1,.046-.133c.04-.034.057-.107.082-.118a.786.786,0,0,0,.209-.159c.107-.116.217-.27.349-.4a.974.974,0,0,1,.469-.327c0-.025.037,0,.037,0a1.948,1.948,0,0,1,.018.645c-.084.914-.256,1.856-.413,2.8-.038,0-.082,0-.088.047.03.046.057,0,.079.009l0,.022c-.031.021-.027.037-.009.053-.118.715-.225,1.428-.273,2.128m6.336-4.891h0c-.024,0-.053-.015-.066-.013.036-.007.068-.039.066.012m.246,2.3-.128.429-.445,1.362-.266.809a5.362,5.362,0,0,1-.838,1.92c-.128.114-.172.274-.312.264a.512.512,0,0,1-.262-.237.6.6,0,0,1-.041-.206,1.615,1.615,0,0,1-.088-.688c0-.126-.046-.293-.063-.441.012-.128.065-.24.07-.342a5.159,5.159,0,0,0,.031-.536,17.651,17.651,0,0,1,.253-2.067c0-.114.09-.245.068-.354a2.483,2.483,0,0,0,.051-.313l.012,0c0-.012,0-.012.019-.029l.048-.01a.594.594,0,0,1,.085-.143l.223-.082a2.45,2.45,0,0,1,.428-.187c.078-.053.165-.121.233-.16.073-.015.129.012.172-.022.131-.039.191-.177.417-.184.066.012-.022.017.01.048a.74.74,0,0,1,.354-.121c0,.012-.022.017-.07.027.068.024.157-.031.065-.051.092-.044.153-.056.257-.1l.024,0c-.009.014-.007.027-.017.041a.3.3,0,0,1,.1-.046.585.585,0,0,0,.1-.058c-.179.553-.3.916-.5,1.486m1.365,4.919c-.036.007-.034-.044-.078-.073.032-.031.061.051.078.073" transform="translate(-87.452 -161.425)" fill="#ee7203"/>
      <path id="Tracé_547" data-name="Tracé 547" d="M232.43,191.964c.009,0-.015-.06,0,0" transform="translate(-177.188 -146.323)" fill="#ee7203"/>
      <path id="Tracé_548" data-name="Tracé 548" d="M216.959,172.587a1.263,1.263,0,0,1,0-.409c-.034-.193-.106-.212-.1-.4-.013-.06-.052-.269-.053-.3a1.408,1.408,0,0,1-.074-.252c-.034-.016-.044-.17-.056-.2a1.4,1.4,0,0,0-.18-.288c-.078-.213-.345-.255-.424-.142.174.094.278.606.283.771a.382.382,0,0,0,.016.171,5.593,5.593,0,0,1-.027,1.853,4.5,4.5,0,0,1-.273.854,1.19,1.19,0,0,0-.176.2c-.221.361-.634.075-.72-.034.058-.1-.012-.21-.009-.3-.029-.027.031-.067.013-.116a1.37,1.37,0,0,0-.07-.318,1.654,1.654,0,0,1-.005-.166,3.156,3.156,0,0,0-.062-.4c-.05-.186-.046-.4-.095-.561-.04-.032-.05-.186-.083-.2-.065-.125-.074-.252-.157-.427-.091-.069-.106-.212-.345-.255-.028,0-.082.03-.121.026-.139-.023-.5.22-.635.373-.021.045.014.088-.03.095-.032.04-.127.009-.169.072a.882.882,0,0,0-.249.743,1.128,1.128,0,0,1,.039.358,2.078,2.078,0,0,0,.127.372,2.591,2.591,0,0,0,.3.627.423.423,0,0,0,.132.156c.023.038.026.121.055.175.04.032.1.058.18.111a2.253,2.253,0,0,0,.508.472,4.259,4.259,0,0,0-.014.489c.007.114.019.324.023.42.019.262.013.6.015.615a7.45,7.45,0,0,1-.077,2.11c-.056.423-.163.667-.366.792a1.991,1.991,0,0,1-.923-.357c-.16-.136-.387-.308-.584-.457a2.877,2.877,0,0,1-.588-.8c-.015-.042-.1-.092-.153-.146a.206.206,0,0,0,.015-.082c-.022-.032-.089-.067-.1-.092-.113-.179-.186-.389-.27-.545-.042-.047-.1-.109-.145-.156-.061-.124-.127-.406-.166-.5a.468.468,0,0,0-.061-.186c.01-.116-.051-.178-.175-.24l-.034-.242c0-.079-.012-.087-.042-.109-.019-.062-.029-.1-.035-.12a.313.313,0,0,1-.046-.08,3.018,3.018,0,0,0-.231-.391c-.174-.3-.073-.211-.262-.555-.219-.181-.081-.077-.241-.4-.012-.025-.079-.06-.086-.111-.171-.409-.412-.807-.576-1.226-.137-.351-.355-.9-.534-1.24a.2.2,0,0,1-.1-.119c-.037-.074-.022-.156-.058-.23a.442.442,0,0,0-.7-.114c-.126.106-.255.071-.394.275-.03.225.142.324.2.492.079.121.117.337.188.468.105.374.205.712.32,1.032a11.134,11.134,0,0,0,1.487,3.4,1.265,1.265,0,0,1,.11.223,1.831,1.831,0,0,1,.251.221c.074.149.157.3.26.476.108.144.352.189.27.421a3.792,3.792,0,0,1-.717.17c-.054-.01-.1.077-.173.086-.107.059-.161.049-.213.118-.042.014-.062.123-.146.152.012.148,0,.354.015.492,0,.062.029.084.044.126a.689.689,0,0,0-.07.257c.034.057.111.1.133.193.024.05-.033.084-.018.126-.008.133.086.235-.053.378.133.07.061.247.063.327a1.651,1.651,0,0,1,.029.208c.019.055.038.109.054.162a2.63,2.63,0,0,0-.06.26c-.076.44-.229,1.179-.332,1.625-.085.369-.27,1.148-.6,1.252a1.086,1.086,0,0,1-.474-.792.871.871,0,0,1-.1-.266c-.008-.01-.008-.089-.017-.16a.988.988,0,0,0-.191-.417c-.183-.091-.779-.264-1.027-.1-.1.112.013.274-.018.315-.058.363-.022.9-.063,1.189a1.736,1.736,0,0,1-.056.424,1.884,1.884,0,0,1,0,.361c0,.035-.044.083-.046.1,0,.062.009.072,0,.079a.484.484,0,0,0-.056.108c-.021.033.038.048.046.058-.021.033-.056.029-.048.039-.017,0,.038.048.046.058s-.056.029-.048.038a1.446,1.446,0,0,1-.366,1.067c-.148-.087-.177-.222-.26-.346a1.45,1.45,0,0,1-.217-.491,3.63,3.63,0,0,0-.133-.384c-.015-.019-.008-.089-.036-.145a.95.95,0,0,1-.083-.2.149.149,0,0,1,.014-.121c-.029-.056-.06-.095-.081-.141-.025-.17-.021-.284-.029-.373-.021-.046-.075-.114-.054-.147a1.474,1.474,0,0,0-.189-.514.928.928,0,0,0-.343-.39,1.319,1.319,0,0,0-.714.175,1.8,1.8,0,0,0,.009.23c-.021.033,0,.114-.027.164,0,.017.092.037.017.081.031.039.058.112.089.072a1.491,1.491,0,0,0,.073.29,5.306,5.306,0,0,0,.82,1.86,2.246,2.246,0,0,0,.424.61c.066.043.3.2.328.213a.36.36,0,0,0,.23-.009s0,.062.031.039c.023.029.179-.033.236-.062.073.052.131.006.185-.006.38-.019.686-.706.779-.906a.268.268,0,0,1,.035-.154.932.932,0,0,0,.112-.3,6.946,6.946,0,0,0,.136-.82c-.038-.127-.065-.2.024-.288a5.168,5.168,0,0,0,.552.414.619.619,0,0,0,.317.08.8.8,0,0,0,.556-.175,1.831,1.831,0,0,0,.421-.542c.128-.276.048-.118.118-.268a2.026,2.026,0,0,0,.118-.505,1.022,1.022,0,0,0,.041-.286c.108-.181.047-.259.083-.43.02-.015.054-.328.08-.4a1.7,1.7,0,0,0,.033-.368l.021.029c.116-.051.019.077.153.085a1.952,1.952,0,0,0,.859.851c.25-.043.66-.074.8-.261a2.042,2.042,0,0,0,.147-.4c.078-.267.041-.4.106-.571,0-.292.039-.482.055-.749a.919.919,0,0,1,.023-.215c-.02-.015-.074-.025-.079-.06-.01-.008.045-.059.042-.077,0-.034-.027-.067-.034-.119a.626.626,0,0,1,.016-.452c.387.308.932.673,1.318.593-.005.089.39.2.318.071-.018.064-.1.049-.18-.028.148-.012.327-.125.529,0,.206-.17.451-.186.622-.351.245-.2.3-.624.384-.856a.749.749,0,0,1,.095-.269c.018-.064-.046-.143-.061-.247.048-.1.061-.326.088-.383a3.51,3.51,0,0,0-.021-.4,1.776,1.776,0,0,0-.008-.44,2.2,2.2,0,0,1-.048-.408.454.454,0,0,1,.024-.277.749.749,0,0,1-.037-.586,3.615,3.615,0,0,1-.025-.561.19.19,0,0,1-.006-.042c.036,0,.12.015.159-.017.022-.017.031-.067.058-.1.141-.1.486-.02.615-.151.027-.029.328-.3.355-.326.1-.1.158-.254.276-.362a.53.53,0,0,1,.08-.113,1,1,0,0,0,.161-.348,1.374,1.374,0,0,0,.126-.568.786.786,0,0,0,.08-.29,1.325,1.325,0,0,1,.061-.367c-.081-.119,0-.2-.021-.337m-5.649,9.432a1.851,1.851,0,0,1-.3-.347.2.2,0,0,1-.088-.191,2.487,2.487,0,0,0-.221-.508,4.315,4.315,0,0,1-.116-.769c.008-.133-.058-.23-.053-.381-.01-.069.02-.109.018-.188a.928.928,0,0,1-.014-.351c.023-.153.063-.432.387-.451.148.112.1.26.125.389a6.461,6.461,0,0,0,.219.878,4.88,4.88,0,0,1,.093.922,1.88,1.88,0,0,1-.056,1m2.855-9.458s-.029-.027.036-.079a.339.339,0,0,1,.146.068.764.764,0,0,1,.138.35c.054.325.186.658.206.967,0,0,0,.067-.048.046a3.6,3.6,0,0,1-.478-1.351" transform="translate(-155.571 -130.007)" fill="#ee7203"/>
      <path id="Tracé_549" data-name="Tracé 549" d="M38.974,23.927c.217-.15.3-.413.468-.632a9.271,9.271,0,0,1,.876-1.045,5.73,5.73,0,0,1,1.409-1.074c.165-.115.374-.221.445-.169.088.087,0,.314-.024.393-.1.106-.191.176-.269.255-.121.14-.278.334-.443.5-.191.211-.295.421-.477.606a1.863,1.863,0,0,0-.277.439,6.2,6.2,0,0,0-.32.535,1.44,1.44,0,0,1-.077.184c-.138.281-.18.621-.352.972-.112.237-.182.29-.041.463a.785.785,0,0,0,.246.3c.009.026.035,0,.079.026.018.017.027.1.035.1.027.026.035-.053.052-.035a5.5,5.5,0,0,1,.353.522,4.6,4.6,0,0,0,.729.686,13.18,13.18,0,0,1,2.15-2.914,2.861,2.861,0,0,1,1.707-.884c.018.052.027.078-.052.122.062.078.1-.044.175.052-.061.026-.035.07,0,.035-.1.088-.156.158-.138.281a1.792,1.792,0,0,0-.374.343c-.044.044-.1.044-.131.079s-.078.114-.139.176a.573.573,0,0,0-.165.22.122.122,0,0,0-.017.122.762.762,0,0,0-.1.228,10.174,10.174,0,0,1-.786,1.534,8.19,8.19,0,0,1-.658.965c-.1.106-.182.237-.269.342-.1.106-.2.185-.322.308a1.415,1.415,0,0,1-.165.167.986.986,0,0,0-.061.079c-.035.035-.149.027-.218.063-.035.018-.069.088-.1.105s-.14-.052-.193-.034a1.158,1.158,0,0,1-.367.055c-.114-.026-.219-.042-.324-.059a5.284,5.284,0,0,1-.466-.443c.114-.027.061-.114.086-.21.148-.045.165-.1.252-.185-.264-.278-.65-.608-.94-.912-.158-.174-.317-.33-.448-.478-.018-.017.008-.044-.018-.087l-.061.009c-.079-.1-.053-.174-.2-.1-.035.018-.052.053-.1.088-.2.08-.455-.015-.69.065.026-.079-.062-.061-.044-.131-.192.106-.35-.068-.508-.154a.984.984,0,0,0,.479-.274A1.555,1.555,0,0,0,38.5,25a26.013,26.013,0,0,1-1.359-2.281c-.122.053-.121.228-.234.325a.384.384,0,0,1-.192.106,1.586,1.586,0,0,0-.209.176,3.675,3.675,0,0,0-.384.072c-.192,0-.323.081-.393.046-.044-.009-.027-.131-.079-.026-.018-.087.061-.1.113-.149a2.456,2.456,0,0,0,.2-.788,5.479,5.479,0,0,1,.4-.946c-.088-.087-.036-.175-.158-.156.061-.114.27-.168.339-.273.061-.079.043-.184.077-.236a1.488,1.488,0,0,1,.165-.167,3.467,3.467,0,0,1,.312-.526c.269-.377.485-.7.8-1.088a2.4,2.4,0,0,0,.347-.4.927.927,0,0,0,.016-.21.75.75,0,0,0,.148-.115,2.976,2.976,0,0,1,.33-.351c.287-.22.617-.5.931-.713a5.275,5.275,0,0,1,.532-.221,1.4,1.4,0,0,1,.253-.133l.053.017a1.506,1.506,0,0,1,.209-.089c.07-.018.1-.027.148-.045.088.087.071.157.106.262a5.469,5.469,0,0,1-.547.554c-.043.044-.122.053-.13.132a1.047,1.047,0,0,1-.243.281c-.1.123-.217.2-.356.343-.208.211-.355.465-.555.685-.052.07-.165.1-.147.184-.035.035-.1-.026-.079-.078-.122.053-.077.219-.1.315a.9.9,0,0,1-.13.132c-.061.079-.086.175-.13.237a2.519,2.519,0,0,0-.251.482c-.1.167-.173.3-.259.456-.017.053-.044-.026-.044-.026a.127.127,0,0,0-.007.2c-.106-.122-.122.036-.156.193-.06.166-.068.28-.12.472-.034.07-.139.176-.112.237,0,.035.1.13.176.226.256.427.679,1.071.856,1.384.035.035.061.026.079.008.019.175.194.348.256.514.1-.044-.035-.07-.01-.131.043-.027.009.009.018.035m-1.251-4.676.018.017c-.061.027-.113.1-.1.132-.131.027.043-.114,0-.157.009-.009.035.035.079.008m.1,2.132a.128.128,0,0,1,.043-.166c.087-.088.027.1-.043.166m.038-2.307c-.1.027-.035-.07.026-.079.053.052-.07.018-.026.079m.86-.87c-.062-.1-.157.053-.157.088.043-.026.131-.044.157-.088m.139-.228a.444.444,0,0,0-.13.184c.052-.053.2-.1.13-.184" transform="translate(-27.176 -12.83)" fill="#ee7203"/>
      <path id="Tracé_550" data-name="Tracé 550" d="M76.295,20.649a1.679,1.679,0,0,1,.141.347c.075.156.026.17.129.325.107.138.158.451.309.592.072,0,.044.2.063.135.058-.048.442-.722.492-.808a3.677,3.677,0,0,1,.3-.426c.043-.224.23-.345.351-.556.136-.234.132-.217.232-.417a4.318,4.318,0,0,1,.414-.521c.285.15.066.39.029.524-.054.13-.087.221-.152.357-.1.172-.113.15-.15.285-.068.181-.175.342-.221.51a2.523,2.523,0,0,0-.189.392c-.08.159-.109.233-.173.369-.014.051-.089.293-.1.354,0,0-.066.208-.124.356a.486.486,0,0,0-.01.233c-.013.875-.012.278-.014.549,0,.254.35,1.237.39,1.456a5.23,5.23,0,0,1,.165.688c0,.172.112.321.111.52.023.115.058.251.077.383a7.16,7.16,0,0,0,.136.961c.035.236.043.474.056.722a.512.512,0,0,1,.017.1c-.009.034-.029.074-.011.106a.659.659,0,0,0,0,.144c.006.011-.014.05,0,.072.017.1.043.175,0,.227a.685.685,0,0,1-.015.222.636.636,0,0,1,.018.232,1.127,1.127,0,0,1-.144.3c0,.017-.044,0-.064.037a1.729,1.729,0,0,1-.149.313c-.031.046-.147.041-.167.081-.058.047.051.113-.064.136a2.184,2.184,0,0,0-.84.223.958.958,0,0,0-.219-.458c-.042-.048-.063-.035-.1-.1a3.917,3.917,0,0,1-.124-.442c-.106-.31-.21-.592-.292-.886-.09-.432-.136-.861-.212-1.245a.631.631,0,0,1-.029-.226c0-.028.034-.09.011-.106a1.792,1.792,0,0,1-.034-.308c0-.072-.024-.143-.021-.187,0-.144.015-.322.016-.521a5.792,5.792,0,0,1,.074-2.589c-.237-.69-.268-.843-.477-1.435-.138-.092-.349-.014-.491-.062-.272.4-.6.968-.914,1.489-.146.268-.325.527-.456.772-.043.024-.055.1-.075.142s-.066.009-.06.02c-.058.048-.063.164-.072.2-.031.046-.069.054-.094.11a.183.183,0,0,0-.08.159c-.052.058-.058.047-.073.07s-.2.254-.216.294a.7.7,0,0,1-.659.191c-.04-.02-.109-.066-.172-.1-.107-.038-.2-.1-.336-.164a1.2,1.2,0,0,1-.251-.34,2.354,2.354,0,0,1,.337-1.33,1.015,1.015,0,0,0,.052-.158,2.549,2.549,0,0,1,.071-.325.134.134,0,0,1,.06-.02c-.006-.011-.046-.031-.012-.021a.4.4,0,0,1,.049-.114c.051-.086.1-.271.146-.368.064-.136.138-.307.229-.472A4.127,4.127,0,0,1,73,21.134c.026-.029.08-.06.106-.089.06-.12.028-.2.1-.282.014-.051.084-.077.1-.083s0-.072.06-.12a4.409,4.409,0,0,1,1.032-.262c.1.028.164.063.239.02a1.172,1.172,0,0,1,.628.253,2.869,2.869,0,0,1,.921-.056c.009.066.093.089.118.132m-2.741.582a.479.479,0,0,1-.072.1c-.014.051-.052.058-.081.132,0,.028-.024.057-.028.1a.543.543,0,0,0-.126.228c-.069.054-.1.155-.144.2a.707.707,0,0,1,.006.11.524.524,0,0,1-.114.15.411.411,0,0,1-.077.215c-.063.164-.058.346-.115.521a2.208,2.208,0,0,0-.114.549,1.738,1.738,0,0,0-.023.582c.268-.153.374-.441.557-.645.529-.644,1.008-1.3,1.548-1.95-.046-.13-.153-.169-.188-.205-.012-.022.019-.067-.038-.092-.069-.046-.153-.069-.2-.1-.034-.009-.052-.041-.075-.057-.1-.055-.228-.026-.251-.141a.464.464,0,0,1-.287.121,1,1,0,0,0-.178.187m3.739,5.905c-.023.084-.067.181-.077.215q.076.319.115.575a1.111,1.111,0,0,0,.142.474c.132-.118.077-.314.053-.457a2.78,2.78,0,0,0-.3-1.55A2.917,2.917,0,0,1,77.23,27a.6.6,0,0,0,.063.135" transform="translate(-54.704 -14.729)" fill="#ee7203"/>
      <path id="Tracé_551" data-name="Tracé 551" d="M107.078,8.073a.212.212,0,0,1-.06.178c.018-.03.058-.077-.131.093-.009.015-.21.023-.22.037a1.713,1.713,0,0,1-.612-.126.5.5,0,0,1-.206-.181,2.092,2.092,0,0,1-.687-1.009,4.709,4.709,0,0,1-.153-.561c-.1-.434-.154-.839-.3-.756-.052.05-.086.121-.153.162-.044.086-.1.1-.184.194-.1.073-.086.121-.175.179-.081.031-.243.322-.292.384-.111.178-.14.387-.32.542-.088.172-.346.814-.484.77-.155-.015-.567.015-.619-.048a.766.766,0,0,1-.238-.377,3.217,3.217,0,0,1-.03-.576c.029-.1-.009-.15-.031-.246.04-.047.026-.107.057-.14.037-.059,0-.063-.018-.135a.514.514,0,0,0,.047-.239c.026-.107-.017-.186.017-.257-.007-.087.06-.179.047-.239a.357.357,0,0,1,.009-.294,2.55,2.55,0,0,0-.1-1.144,7.252,7.252,0,0,0-.722.114,1.5,1.5,0,0,0-.3.144,1.534,1.534,0,0,1-.333.152,2.262,2.262,0,0,0-.591.351c-.212.125-.445.216-.534.439.221.025.456,0,.689.02a.708.708,0,0,1,.329.052c.071.034.115.113.189.16a.572.572,0,0,1,.265.548,1.88,1.88,0,0,1-.093.592s-.024.005-.016.042c-.025.057.019.084-.048.125-.046.074-.076.22-.12.306l-.109.354c-.022.069-.121.079-.15.174.011.162-.2.275-.221.418-.01.066-.125.117-.144.147a1,1,0,0,1-.2.236c-.058.077-.148.072-.212.124-.06.014-.086.121-.155.1a.316.316,0,0,0-.248.082.356.356,0,0,1-.266,0,1.176,1.176,0,0,1-.8-.819A.809.809,0,0,1,98.4,7.6a1.8,1.8,0,0,1,.048-.29.177.177,0,0,0,.03-.146A.419.419,0,0,1,98.518,7c.037-.173.147-.3.181-.485l-.022-.1.061-.179a2.559,2.559,0,0,1,.181-.206c-.128-.173-.512-.187-.264-.434-.005-.024-.066-.01-.038-.055.162-.012.3-.234.432-.327.178-.167.354-.284.567-.459.185-.131.4-.256.607-.392a2.406,2.406,0,0,0,.643-.35,1.15,1.15,0,0,1,.515-.244c.193-.044.394-.052.565-.078a1.387,1.387,0,0,1,.608,0l.212.04.014.06a1.605,1.605,0,0,1,.186.148,2.848,2.848,0,0,1,.322.687,9.142,9.142,0,0,0-.081,1.033,1.243,1.243,0,0,0-.076.5c.01.1-.053.265-.024.284.019.084-.085.184-.091.325a1,1,0,0,0,.227-.394l.227-.394a4.208,4.208,0,0,1,.745-.956l.268-.213a.389.389,0,0,1,.226-.229.3.3,0,0,0,.3-.093c.133-.03.117.125.153.168a.149.149,0,0,0,.091-.046c.045-.023.035.043.1.065.111-.013.2-.083.3-.03a.167.167,0,0,0,.041.181c.023.046.141.006.115.113.024-.005.05-.113.049-.062s-.019.081-.05.113c-.037.059.034.094.013.111.169.075.167.177.119.353-.009.129.064.226.041.346a2.617,2.617,0,0,0-.009.408l.048-.011c.024.159.017.351.028.513a2.6,2.6,0,0,0,.108.749.659.659,0,0,0,.226.379.012.012,0,0,1,.015.009.665.665,0,0,0,.685.224m-7.325-1.99c.067.073.134.033.169.075.068.187-.215.278-.3.36a2.722,2.722,0,0,0-.314.566c-.1.187-.441,1.343.012,1.328.189-.005.4-.244.5-.356a2.554,2.554,0,0,0,.567-.738,1.372,1.372,0,0,0,.205-.655c0-.228-.205-.232-.231-.454a.15.15,0,0,1-.149-.042c-.006-.024.055-.038-.011-.048-.136-.1-.35-.2-.452-.036m-.16-.09a.511.511,0,0,1,.385-.037c-.028-.12-.428-.042-.385.037m7.425,2.258a.012.012,0,0,0-.009.015Z" transform="translate(-74.994 -2.791)" fill="#ee7203"/>
      <path id="Tracé_552" data-name="Tracé 552" d="M144.1,3.47a3.009,3.009,0,0,1-.378.908c-.082.138-.141.292-.221.418a2.825,2.825,0,0,0-.24.378.821.821,0,0,0-.037.17,1.057,1.057,0,0,0-.135.43.306.306,0,0,0,.322.283c-.026.1-.133.056-.127.194-.107-.04-.135.068-.2.072s-.238-.083-.3-.1a.861.861,0,0,1-.261-.361,1.677,1.677,0,0,1-.074-.9,3.319,3.319,0,0,1,.337-1.063c-.1,0-.162.089-.271.149l-.595.415a.4.4,0,0,0-.175.175c-.028.021-.068.04-.07.053s-.012.086-.04.107a.708.708,0,0,1-.441.3c-.075,0-.2.034-.229.03-.058-.033-.063-.084-.109-.115a.531.531,0,0,0-.081-.136.648.648,0,0,1-.164-.61,2.536,2.536,0,0,1,.119-.67c.109-.421.334-.777.419-1.114a2.111,2.111,0,0,0-.675.454.5.5,0,0,0-.171.151c-.075.089-.248.165-.335.252s-.107.135-.2.147c-.291.209-.579.393-.881.587a1.2,1.2,0,0,1-.338.189c-.048-.019-.079-.061-.14-.07a.347.347,0,0,0-.108-.028.186.186,0,0,0-.081-.049.116.116,0,0,0-.081-.049c-.045-.031-.072-.11-.114-.166s-.1-.113-.091-.15c-.042-.056-.007-.126-.051-.169.152-.016.157-.053.2-.235a7.978,7.978,0,0,1,.648-1.856,3.465,3.465,0,0,0,.285-.784,1.518,1.518,0,0,0-.613.1.4.4,0,0,1-.116.021,3.535,3.535,0,0,0-.61.164c-.241.116-1.162.361-1.291.48.107.127.243.134.357.3.042.056.083.124.1.152a.863.863,0,0,1,.032.3c-.047.068-.083.238-.149.353a2.588,2.588,0,0,1-.9,1c-.124.082-.278.2-.428.289a2.753,2.753,0,0,1-.534.25l-.1-.014a1.3,1.3,0,0,1-.243.041,1.8,1.8,0,0,1-.623-.188.823.823,0,0,1-.485-.543.8.8,0,0,1-.055-.407c.1-.86.712-1.248,1.1-1.729a.507.507,0,0,1,.542-.123.79.79,0,0,0,.065.246c.051.082.044.131-.031.22-.019.047-.082.051-.114.1l-.167.213-.385.52a1.708,1.708,0,0,0-.26.425c-.13.306-.133.593.262.624a1.233,1.233,0,0,0,.742-.308,2.689,2.689,0,0,0,.3-.207,1.028,1.028,0,0,0,.4-.618.985.985,0,0,0-.035-.28c-.037-.092-.134-.206-.12-.3,0-.024.03-.033.023-.072-.051-.169-.25-.26-.553-.327a.542.542,0,0,1,.18-.212l.14-.192c.086-.075.206-.046.316-.118A11.666,11.666,0,0,1,137.04.393a4.052,4.052,0,0,0,.506-.141A4.456,4.456,0,0,1,138,.141l0-.012A.307.307,0,0,0,138.092.1.044.044,0,0,0,138.13.1a1.177,1.177,0,0,1,.255-.039,1.826,1.826,0,0,1,.68-.042,1.05,1.05,0,0,1,.45.176.8.8,0,0,1,.312.356.781.781,0,0,1,.048.281,1.155,1.155,0,0,1,.011.451,1.327,1.327,0,0,1-.153.465l-.115.284a1.285,1.285,0,0,0-.207.408,3.368,3.368,0,0,0,.452-.286l.475-.27a2.733,2.733,0,0,1,.76-.342,1.693,1.693,0,0,1,.4-.081.774.774,0,0,1,.117-.034c.094.038.21.1.3.143.119.042.145.033.222.106a.559.559,0,0,1,.208.291,1.5,1.5,0,0,1,.1.451.824.824,0,0,1-.054.292c-.019.047-.075.089-.094.137l-.053.2c-.091.2-.263.362-.343.576a.543.543,0,0,0,.27-.149,1.9,1.9,0,0,0,.251-.189c.18-.124.37-.235.525-.363.077-.1.115-.2.2-.247a.83.83,0,0,1,.65-.008.583.583,0,0,1,.212.179c.086.1.065.159.085.374,0,.1.035.192,0,.25" transform="translate(-101.665 -0.001)" fill="#ee7203"/>
      <path id="Tracé_553" data-name="Tracé 553" d="M181.715,12.893a6.318,6.318,0,0,1-.392.515.414.414,0,0,0-.106.115.231.231,0,0,1-.1.1.924.924,0,0,1-.246.188c-.03.068-.055.124-.088.137-.131.172-.461.336-.521.593a2.154,2.154,0,0,0,.928.1c.28-.051.777-.073,1.113-.1a.944.944,0,0,0,.374-.05c.072-.009.165-.007.253-.022a3.5,3.5,0,0,0,.392-.028c.022.01.036-.051.052-.058a.612.612,0,0,0,.3-.013c.066,0,.253-.022.419-.029.111,0,.208-.043.271,0,.006.138-.136.3-.241.448-.074.075-.173.085-.319.169-.267.084-.629.166-.963.247a4.62,4.62,0,0,1-.527.089,2.424,2.424,0,0,1-.539.085c-.039,0-.083,0-.149,0-.054.03-.14.072-.157.079a1.85,1.85,0,0,0-.262-.049c-.034-.015-.044.008-.182.014a1.962,1.962,0,0,1-.525-.126,1.349,1.349,0,0,1-.464-.356,1.651,1.651,0,0,1-.387-.5,1,1,0,0,1,.089-.745,3.4,3.4,0,0,1,.358-.53,2.056,2.056,0,0,1,.347-.414c0-.039.075-.048.117-.11a2.522,2.522,0,0,1,.7-.579c.348-.021.634.337.739.587-.044.129-.17.168-.294.234m.91-1.069c-.084-.024-.08-.063-.137-.088-.142-.077-.145-.159-.215-.367-.072-.113-.114-.2-.1-.233.181-.406.561.047.854.3a1.031,1.031,0,0,1-.4.388" transform="translate(-136.928 -8.366)" fill="#ee7203"/>
      <path id="Tracé_554" data-name="Tracé 554" d="M197.146,23.681a.827.827,0,0,1-.2-.547.794.794,0,0,0,.154-.461.555.555,0,0,0-.514.018c-.072,0-.124.008-.247.016a.747.747,0,0,0-.274.057c-.2.077-.321.13-.492.21a1.539,1.539,0,0,0-.627.461.6.6,0,0,0-.11.416,1.127,1.127,0,0,0,.384.384,3.066,3.066,0,0,0,.777.346.672.672,0,0,0,.347.124c.025.075.1.05.135.088.144.05.14-.012.308.025.076.109.168.036.254.063.089,0,.12.064.285.083a.339.339,0,0,0,.233.049c-.007.01.285.039.306.052.182.016.171-.036.308.025a1.751,1.751,0,0,1,.326.066,3.228,3.228,0,0,0,.48-.011c.144.006.229-.012.305.052-.016.137-.087.224-.361.325-.157.06-.144.039-.243.078a2.3,2.3,0,0,0-.23.012c-.051.011-.209-.019-.288-.011-.007.01-.162-.091-.227-.06a.315.315,0,0,1-.322-.049c-.03.113-.274-.032-.36-.014-.037.034-.116,0-.116,0-.195.049-.385-.089-.542-.074a.219.219,0,0,0-.069-.03.655.655,0,0,1-.292-.028,2.621,2.621,0,0,1-.316-.059,2.975,2.975,0,0,1-1.077-.5,2.1,2.1,0,0,1-.857-1.2c.036-.213-.007-.462.039-.624.119-.069.183-.19.289-.284.044-.089.17-.169.272-.28.034-.052.136-.073.2-.132.051-.011.129-.107.188-.128a1.3,1.3,0,0,1,.259-.125c.11-.032.143-.084.236-.112a.215.215,0,0,0,.1.006.777.777,0,0,1,.318-.1c.068-.059.088-.09.123-.1.079-.008.151.04.226.015a.375.375,0,0,1,.109-.077c.113-.014.185.033.271.015.072,0,.157-.06.2-.06.041-.017.093.061.126-.035a3.58,3.58,0,0,1,.546.564c.066.058.122.2.212.286a1.413,1.413,0,0,1,.166.2.164.164,0,0,1,.012.14c.011.051.038.054.052.078,0,0-.034.052-.009.082.008.123.121.153.146.229a1.442,1.442,0,0,1-.924.532" transform="translate(-147.884 -16.445)" fill="#ee7203"/>
      <path id="Tracé_555" data-name="Tracé 555" d="M162.161,6.443l-.029,0c0,.007,0,.016-.005.023l.034-.018" transform="translate(-123.597 -4.908)" fill="#ee7203"/>
      <path id="Tracé_556" data-name="Tracé 556" d="M24.024,56.466q-.5.676-.953,1.381a29.257,29.257,0,0,0-2.69,5.272,29.854,29.854,0,0,0-1.091,3.434c-.07.276,1.157.147,1.22-.1a29.19,29.19,0,0,1,3.4-8.076q.471-.773.992-1.516c.1-.15-.748-.564-.875-.391" transform="translate(-14.703 -43.016)" fill="#ee7203"/>
      <path id="Tracé_557" data-name="Tracé 557" d="M212.667,25.956a29.731,29.731,0,0,1,7.517,7.276,29.335,29.335,0,0,1,4.749,10.477q.166.711.294,1.43c.017.1.492.109.473.008q-.147-.776-.336-1.543a29.578,29.578,0,0,0-4.979-10.52,30.075,30.075,0,0,0-7.777-7.318c-.106-.069-.034.127.058.189" transform="translate(-162.041 -19.632)" fill="#ee7203"/>
      <path id="Tracé_558" data-name="Tracé 558" d="M261.476,136.223a29.041,29.041,0,0,1-1.415,5.28c-.076.2.138,1.414.241,1.156a29.041,29.041,0,0,0,2.111-10.3s0-.153-.244-.246-.291,0-.291,0a29.042,29.042,0,0,1-.4,4.109" transform="translate(-198.245 -100.685)" fill="#ee7203"/>
      <path id="Tracé_559" data-name="Tracé 559" d="M37.578,146.6a29.324,29.324,0,0,1-15.266-10.885,29.061,29.061,0,0,1-5.383-20.058c.03-.277-1.2.028-1.226.3A29.511,29.511,0,0,0,21.362,136.4a30.41,30.41,0,0,0,16.759,11.369c.623.164-.155-1.059-.544-1.177" transform="translate(-11.867 -88.084)" fill="#ee7203"/>
    </g>
  </g>
</svg>
