<svg id="logo-health-safety" xmlns="http://www.w3.org/2000/svg" xmlns:xlink="http://www.w3.org/1999/xlink" width="338.448" height="57.998" viewBox="0 0 338.448 57.998">
  <defs>
    <clipPath id="clip-path">
      <rect id="Rectangle_127" data-name="Rectangle 127" width="338.448" height="57.998" fill="none"/>
    </clipPath>
  </defs>
  <g id="Groupe_406" data-name="Groupe 406" clip-path="url(#clip-path)">
    <path id="Tracé_764" data-name="Tracé 764" d="M11.887,10.453C15.991,7.976,23.656,1.936,25.515.7a3.015,3.015,0,0,1,.464-.155c.077,0,.232.077.31.077a2.455,2.455,0,0,1,.852.775,8.944,8.944,0,0,1,.929,2.633,10.369,10.369,0,0,1,.077,1.548,2.447,2.447,0,0,1-.465,1.317c-.077.232-.232.31-.31.542-.155.155-.232.31-.31.387A128.253,128.253,0,0,0,14.984,26.25h1.7c2.71,0,5.343,0,8.053.077h1.936a12.613,12.613,0,0,1,1.7.155c3.252-5.5,5.033-9.292,8.6-14.48,2.4-3.562,5.266-8.053,8.131-10.918V1.006l.155-.077a4.994,4.994,0,0,1,.7-.62A1.487,1.487,0,0,1,46.887,0a1.407,1.407,0,0,1,1.161.774c.31.542.31.929.542,1.316l-.155-.077.232.31V2.246A4.743,4.743,0,0,0,48.9,3.252c.078.619.232,1.316.232,1.7,0,1.084-.929,1.858-1.161,2.323-7.2,8.13-24.314,38.949-28.108,49.558-.232.542-.62,1.161-1.239,1.161-1.317,0-2.71-2.4-2.71-3.562,0-1.7,1.781-5.11,2.787-7.588.929-1.858,6.272-13.938,6.969-15.332-4.723.387-9.447.387-14.171.465A136.431,136.431,0,0,0,3.524,48.164c-.232.542-.465,1.007-1.161,1.007C.891,49.17.581,46.228.581,45.144c0-3.252,3.872-10.453,5.343-13.4a3.96,3.96,0,0,1-2.013-3.175,1.455,1.455,0,0,1,.775-1.161,5.4,5.4,0,0,1,1.471-.465,18.581,18.581,0,0,1,2.4-.31c1.161-2.091,3.1-6.5,6.892-12.622-1.471.7-3.717,1.858-7.046,3.407a14.9,14.9,0,0,1-5.73,1.7c-1.781,0-2.323-.851-2.555-1.7a3.177,3.177,0,0,1,0-1.7c2.788,0,7.124-2.555,11.77-5.265" transform="translate(0 0)" fill="#161615"/>
    <path id="Tracé_765" data-name="Tracé 765" d="M229.714,57.8l-4.8-.133a.592.592,0,0,0-.391.144c-2.509,3.881-5.035,5.593-6.351,5.556-.619-.017-.918-.413-.9-1.109.058-2.09,1.07-5.083,5.777-9.988a2.44,2.44,0,0,0,.821-1.681c.028-1.006-.42-3.54-2.221-3.7-1.774-.16-4.213.154-8.035,3.921a92.927,92.927,0,0,0-8.926,9.94C206.679,56,211.753,49.018,215.2,44.93l6.949-7.554a3.694,3.694,0,0,0,.9-1.912c.036-1.316-.942-5.138-2.413-5.179-3.174-.088-15.1,19.335-16.8,22.154-.377.59-.709,1.116-1.007,1.6-6.988,8.322-9.8,9.207-11.243,9.418-2.08.3-2.431-1.126-2.406-2.055.075-2.709,3.938-7.947,9.158-14.619a36.454,36.454,0,0,0,6.124-.14c.389-.067.634-.525.658-1.376.043-1.548.292-2.161-.7-2.73-.071-.235-.922-.258-1.458-.505l7.452-8.934a2.9,2.9,0,0,0,.9-1.834c.039-1.393-.787-5.135-2.413-5.18q-.929-.026-2.845,2.013c-2.556,2.795-8.589,10.839-10.511,13.109l-.7-.019a17.619,17.619,0,0,0-4.193.349c-1.634.264-2.5.705-2.591,1.245a2.3,2.3,0,0,0,.114,1.475,3.644,3.644,0,0,0,2.965,2.019l.232.006c-1.845,2.925-3.484,5.554-4.712,7.82-6.044,6.671-9.423,8.3-10.847,8.558-1.873.346-2.225-.759-2.2-1.688.128-4.644,10.083-17.227,12.725-20.33l6.269-8.192a3.7,3.7,0,0,0,.905-1.912c.039-1.393-.787-5.134-2.413-5.179-.619-.017-1.567.654-2.924,2.088-3.883,4.393-13.687,17.3-17.639,26.334-2.539,4.9-5.177,10.569-8.17,8.314a15.566,15.566,0,0,0,3.756-5.786c.76-2.249.253-5.243-2.251-6.008-1.778-.544-4.38.458-6.152,2.9a.233.233,0,0,0,.33.321c1.81-1.282,3.4.6,2.826,2.966-1.144,4.7-5.89,6.476-7.9,7.245a.448.448,0,0,1-.576-.247c-1.1-2.68-1.48-7.98.4-11.063,1.249-2.046,2.865-2.2,3.891-1.568a2.665,2.665,0,0,1,.99,2.4.237.237,0,0,0,.346.279,8.3,8.3,0,0,0,2.444-5c.064-2-1.536-3.575-3.936-3.642a7.31,7.31,0,0,0-2.65.4c-5.481,2.094-7.66,9.44-6.74,15.732-2.331,3.034-6.887,4.161-10.757,4.054-2.09-.058-4.938-2.184-4.875-4.429.011-.387.1-.772.11-1.159a4.523,4.523,0,0,0,2,.52c4.644.128,11.509-4.406,11.647-9.36.079-2.864-2.5-4.717-4.634-6.093a5.682,5.682,0,0,0-2.754-1.238c-2.941-.082-5.6,3.718-6.9,5.619-2.021,3.042-3.743,6.481-3.848,10.273-.152,5.5,3.37,9.777,9.253,9.94,4.146.115,8.771-1.561,11.288-4.853.126.475.624,3.052,1.88,4.321a1.17,1.17,0,0,0,.89.337c2.764-.137,7.457-2.656,9.826-4.532,1.2,1.746,1.711,2.318,3.182,2.359a1.95,1.95,0,0,0,.776-.056c1.192-.2,2.885-1.69,4.57-3.531a6.525,6.525,0,0,0,.536,1.9c1.015,2.507,3.222,2.976,5,3.025,2.24.062,5.881-1.428,9.8-4.521a5.443,5.443,0,0,0,.475,1.918c1.015,2.507,3.5,2.984,5.283,3.033,2.33.065,5.809-1.245,9.622-4.358a12.544,12.544,0,0,0,.117,1.777c.287,1.969.858,3.654,2.512,3.7a5.238,5.238,0,0,0,3.976-1.959c5.19-6.952,6.366-9.452,8.677-11.789a11.856,11.856,0,0,0-1.753,6.969c.226,3.027,1.645,4.839,4.055,5.024,3.86.3,7.063-2.028,10.167-6.3,0,0,2.176-3.038,2.5-3.571.159-.151.161-.228-.071-.235M139.673,48.94a.829.829,0,0,1,.755.718c-.09,3.251-3.554,5.247-6.9,5.774.98-1.832,3.745-6.558,6.145-6.492" transform="translate(-92.833 -18.513)" fill="#161615"/>
    <path id="Tracé_766" data-name="Tracé 766" d="M628.207,92.179a24.879,24.879,0,0,1-9.349-1.8.879.879,0,0,1-.514-1.034l1.123-4.243a.869.869,0,0,1,1.245-.551,19.208,19.208,0,0,0,8.334,2.188c3.378,0,6.169-1.214,6.741-3.905,1.425-6.7-15.83-2.745-13.216-15.041,1.3-6.122,6.64-10.133,14.82-10.133a26.883,26.883,0,0,1,7.393,1.16.876.876,0,0,1,.6,1.057l-1,3.851a.869.869,0,0,1-1.142.6,19.034,19.034,0,0,0-6.515-1.283c-3.958,0-6.383,1.478-6.888,3.853-1.368,6.438,15.894,2.692,13.269,15.041-1.515,7.125-7.77,10.239-14.9,10.239" transform="translate(-451.454 -42.103)" fill="#161615"/>
    <path id="Tracé_767" data-name="Tracé 767" d="M737.159,93.222h-5.816a.873.873,0,0,1-.867-.766l-.644-5.222a.873.873,0,0,0-.866-.766H718.237a.874.874,0,0,0-.776.472l-3.006,5.811a.873.873,0,0,1-.776.472h-5.235a.873.873,0,0,1-.769-1.288l13.847-25.659a.873.873,0,0,0-.768-1.288h-.572a.873.873,0,0,1-.854-1.055l.728-3.425a.873.873,0,0,1,.854-.692h11.575a.873.873,0,0,1,.864.746l4.674,31.66a.873.873,0,0,1-.864,1m-9.042-11.716a.873.873,0,0,0,.867-.979l-1.211-9.892a17.83,17.83,0,0,1-.128-4.116h-.053a23.868,23.868,0,0,1-1.708,4.064l-4.988,9.65a.873.873,0,0,0,.776,1.274Z" transform="translate(-516.622 -43.673)" fill="#161615"/>
    <path id="Tracé_768" data-name="Tracé 768" d="M856.589,64.987h-12.36a.874.874,0,0,0-.854.692l-1.48,6.962a.873.873,0,0,0,.854,1.055h9.084a.873.873,0,0,1,.854,1.055l-.717,3.372a.873.873,0,0,1-.854.692H841.29a.874.874,0,0,0-.854.692L837.667,92.53a.873.873,0,0,1-.854.692h-5.55a.873.873,0,0,1-.854-1.055l6.73-31.66a.873.873,0,0,1,.854-.692h19.324a.873.873,0,0,1,.854,1.055l-.728,3.425a.873.873,0,0,1-.854.692" transform="translate(-606.297 -43.673)" fill="#161615"/>
    <path id="Tracé_769" data-name="Tracé 769" d="M944,89.124,942.94,92.6a.873.873,0,0,1-.836.62H921.982a.873.873,0,0,1-.854-1.055l6.73-31.66a.873.873,0,0,1,.854-.692h19.324a.874.874,0,0,1,.854,1.055l-.728,3.425a.874.874,0,0,1-.854.692h-12.36a.874.874,0,0,0-.854.692l-1.48,6.962a.873.873,0,0,0,.854,1.055H942.5a.873.873,0,0,1,.854,1.055l-.717,3.372a.873.873,0,0,1-.854.692h-9.774a.873.873,0,0,0-.854.692l-1.581,7.436A.873.873,0,0,0,930.428,88H943.16A.873.873,0,0,1,944,89.124" transform="translate(-672.534 -43.673)" fill="#161615"/>
    <path id="Tracé_770" data-name="Tracé 770" d="M1059.741,64.987H1051.6a.873.873,0,0,0-.854.692l-5.708,26.851a.873.873,0,0,1-.854.692h-5.55a.874.874,0,0,1-.854-1.055l5.553-26.125a.873.873,0,0,0-.854-1.055h-7.4a.874.874,0,0,1-.854-1.055l.728-3.425a.874.874,0,0,1,.854-.692h24.655a.873.873,0,0,1,.854,1.055l-.728,3.425a.873.873,0,0,1-.854.692" transform="translate(-755.116 -43.673)" fill="#161615"/>
    <path id="Tracé_771" data-name="Tracé 771" d="M1174.634,61.209l-15.117,20.355a.876.876,0,0,0-.153.339L1157.1,92.53a.874.874,0,0,1-.854.692h-5.55a.873.873,0,0,1-.854-1.055l2.2-10.33a.874.874,0,0,0-.022-.446l-6.493-20.439a.873.873,0,0,1,.832-1.137h6.335a.873.873,0,0,1,.837.624l3.541,11.884a10.022,10.022,0,0,1,.534,3.694h.053a12.96,12.96,0,0,1,1.977-3.589l8.595-12.242a.873.873,0,0,1,.715-.371h4.987a.873.873,0,0,1,.7,1.394" transform="translate(-836.36 -43.673)" fill="#161615"/>
    <path id="Tracé_772" data-name="Tracé 772" d="M557.8,122.111a2.554,2.554,0,0,0-.81,1.988,2.455,2.455,0,0,0,2.627,2.553,2.887,2.887,0,0,0,2.455-1.08,3.629,3.629,0,0,0,.589-2.16v-1.988h-2.5a3.551,3.551,0,0,0-2.357.687" transform="translate(-406.679 -88.656)" fill="#100e0c"/>
    <path id="Tracé_773" data-name="Tracé 773" d="M538.545,76.526a11.908,11.908,0,1,0,11.909,11.909,11.908,11.908,0,0,0-11.909-11.909m7.7,18.99a4.9,4.9,0,0,1-2.627.786,2.644,2.644,0,0,1-2.725-1.768,5.424,5.424,0,0,1-4.3,1.768c-3.093,0-5.18-1.866-5.18-4.738a4.18,4.18,0,0,1,2.995-4.2,3.294,3.294,0,0,1-1.866-3.117c0-2.651,2.283-4,5.057-4a10.046,10.046,0,0,1,3.683.687l-.123,2.283a6.993,6.993,0,0,0-2.946-.687c-1.571,0-2.43.712-2.43,1.939,0,1.448,1.178,2.037,2.921,2.037h7v2.136h-2.16v3.977c0,.957.294,1.375,1.1,1.375a4.135,4.135,0,0,0,1.792-.565Z" transform="translate(-384.517 -55.874)" fill="#100e0c"/>
  </g>
</svg>
