<svg id="logo-ergofast" xmlns="http://www.w3.org/2000/svg" xmlns:xlink="http://www.w3.org/1999/xlink" width="192.915" height="194.75" viewBox="0 0 192.915 194.75">
  <defs>
    <clipPath id="clip-path">
      <rect id="Rectangle_23" data-name="Rectangle 23" width="192.915" height="194.75" fill="none"/>
    </clipPath>
  </defs>
  <g id="Groupe_41" data-name="Groupe 41" clip-path="url(#clip-path)">
    <path id="Tracé_440" data-name="Tracé 440" d="M16.817,81.295a7.356,7.356,0,0,0,.836-2.175,27.56,27.56,0,0,1,1.676-3.677A16.961,16.961,0,0,1,22.5,71.261c.381-.457.894-.926,1.136-.833.32.178.254.9.243,1.142-.214.384-.406.654-.568.941-.236.5-.529,1.173-.869,1.779-.378.754-.507,1.436-.883,2.107a5.566,5.566,0,0,0-.443,1.47,17.9,17.9,0,0,0-.491,1.781,4.431,4.431,0,0,1-.076.587c-.173.91-.023,1.917-.238,3.054-.134.764-.29.969.248,1.355a2.328,2.328,0,0,0,.938.649c.046.068.1-.028.246.011.064.036.152.253.184.271.1.054.057-.178.121-.143a16.423,16.423,0,0,1,1.42,1.213A13.582,13.582,0,0,0,26.1,88.028c.942-3.037,1.732-6.705,3.834-10.019,1.128-1.717,2.671-3.581,4.176-3.873.093.135.138.2-.05.391.238.175.238-.2.539.008-.152.125-.042.229.029.1a.837.837,0,0,0-.173.909,5.408,5.408,0,0,0-.8,1.276c-.088.159-.238.2-.309.329-.089.161-.132.387-.258.612a1.677,1.677,0,0,0-.3.756c-.072.128-.012.245.048.363a2.253,2.253,0,0,0-.115.732,30.34,30.34,0,0,1-1.031,5,24.654,24.654,0,0,1-1.117,3.276c-.214.384-.333.82-.5,1.19-.214.384-.425.686-.675,1.132a4.093,4.093,0,0,1-.339.608c-.053.1-.093.241-.11.273-.071.128-.4.195-.574.351-.085.078-.128.3-.214.384-.067.045-.44-.038-.576.055a3.4,3.4,0,0,1-1,.446c-.344.017-.658.052-.971.087a15.693,15.693,0,0,1-1.68-.9c.3-.166.083-.373.079-.669.388-.245.4-.408.575-.727-.974-.586-2.338-1.221-3.407-1.86-.589-.372-1.164-.693-1.658-1.01-.064-.036-.01-.132-.12-.235l-.168.074c-.3-.21-.291-.455-.651-.111-.086.078-.107.192-.228.334-.51.386-1.309.317-1.918.732.011-.246-.224-.125-.231-.339-.463.455-1.052.084-1.572-.037a2.92,2.92,0,0,0,1.152-1.161,4.609,4.609,0,0,0,.522-1.763,77.207,77.207,0,0,1-5.684-5.439c-.306.248-.165.747-.412,1.112a1.12,1.12,0,0,1-.463.454,4.85,4.85,0,0,0-.457.668,10.722,10.722,0,0,0-1.039.51c-.548.154-.858.485-1.086.442-.13.011-.18-.352-.245-.011-.12-.236.1-.324.2-.516a7.268,7.268,0,0,0-.037-2.41,16.094,16.094,0,0,1,.384-3.015c-.32-.179-.241-.47-.575-.321.082-.373.638-.693.753-1.047.11-.274-.024-.558.033-.736a4.334,4.334,0,0,1,.339-.608A10.348,10.348,0,0,1,8.5,72.08c.468-1.289.83-2.388,1.417-3.737a7.154,7.154,0,0,0,.672-1.427,2.829,2.829,0,0,0-.12-.613,2.219,2.219,0,0,0,.33-.444,8.862,8.862,0,0,1,.665-1.265c.645-.856,1.366-1.92,2.093-2.772A15.776,15.776,0,0,1,14.9,60.769a4.236,4.236,0,0,1,.616-.579l.163.008a4.413,4.413,0,0,1,.527-.417c.186-.107.253-.153.388-.245.32.178.327.392.511.662a16.119,16.119,0,0,1-1.124,2.014c-.089.161-.306.248-.267.48a3.132,3.132,0,0,1-.472.995c-.2.433-.46.749-.746,1.26-.428.768-.647,1.61-1.044,2.4-.093.241-.395.408-.275.643-.071.129-.3,0-.288-.161-.306.248-.048.686-.045.981a2.66,2.66,0,0,1-.267.48c-.11.273-.108.568-.183.778a7.381,7.381,0,0,0-.334,1.574c-.141.552-.259.989-.38,1.507-.008.164-.146-.039-.146-.039a.376.376,0,0,0,.137.58c-.4-.264-.321.2-.292.675-.041.523.026.853.032,1.444-.043.227-.258.611-.133.764.028.1.379.3.681.507,1.069,1.015,2.786,2.521,3.538,3.276.128.071.2.025.231-.039.192.484.831.841,1.14,1.265.238-.2-.156-.171-.132-.367.1-.11.032.018.079.086M9.547,68.933l.064.035c-.154.125-.247.367-.168.451-.353.18.033-.359-.127-.448.018-.032.128.07.231-.039m.257-.611c-.252.152-.156-.171.012-.246.191.108-.185.107-.012.246m1.768-3.165c-.253-.224-.406.277-.378.376.1-.109.339-.23.378-.376m-.054,9.782a.379.379,0,0,1-.01-.508c.178-.32.153.253.01.508M11.786,64.4a1.32,1.32,0,0,0-.224.63c.106-.193.5-.437.224-.63" transform="translate(-2.015 -17.407)" fill="#ee7203"/>
    <path id="Tracé_441" data-name="Tracé 441" d="M41.077,61.824a3.81,3.81,0,0,1,.74-.179.469.469,0,0,1,.35-.18c.049-.055.183.013.183.013.3-.124.413-.028.806.023a2.156,2.156,0,0,0,.433-.107c.314.42.614.244.868.175a6.579,6.579,0,0,1,.311,1.146,15.627,15.627,0,0,1,1.021,1.67,1.237,1.237,0,0,1,.021.309,8.5,8.5,0,0,0,.969,1.284,9.472,9.472,0,0,0,2.355,2.591,3.282,3.282,0,0,0,1.23.539l.107.046c.231-.042.348-.231.475-.267.259-.018.115.149.4.156a9.924,9.924,0,0,0,.848-1.252,2.468,2.468,0,0,1-.318,1.422A3.33,3.33,0,0,1,48.852,70.9a8.027,8.027,0,0,1-1.008-.347,4.646,4.646,0,0,1-.642-.267A7.22,7.22,0,0,1,45.513,69.1a17.645,17.645,0,0,1-4.073-5.355c-.375-.183-.64.121-1,.2-.213.3-.6.014-.626.328.191.9.169.585.3,1.432.037.179-.092.941-.061,1.016.293.5.076.747.111,1.264a6.888,6.888,0,0,1-.122,1.643c-.574.714-1.046,1.031-1.238.863a13.9,13.9,0,0,0,.018-2.026c-.108-.823-.108-.823-.174-1.415a8.323,8.323,0,0,0-.139-1.288,7.5,7.5,0,0,0-.332-1.068,2.848,2.848,0,0,0-.643.07c-.444-.047,0,.052-.558-.2-.028-.025-.337,0-.366-.028a6.388,6.388,0,0,1-1.582-1.917,5.276,5.276,0,0,1-.507-.977c0-.052.117-.189.089-.213-.031-.076-.138-.12-.165-.144-.032-.076.144-.166.144-.166-.058-.1-.161-.093-.137-.12,0-.052.037-.211.009-.235a2.691,2.691,0,0,1-.2-1.1,11.048,11.048,0,0,1-.1-1.836c.017-.131.165-.245.123-.476.025-.027.018-.131.176-.089.619-.042,1.17-.339,1.741-.326.083.073.19.117.214.089a8.707,8.707,0,0,1,2.521,3.125,15.686,15.686,0,0,1,.907,2.3c.528.12.827-.445,1.23-.628m-3.061.779c-.449-.878-.663-1.746-1.022-2.448a.689.689,0,0,0-.345-.5c.086.124-.062.238-.055.34.624.788.343,2,1.422,2.6" transform="translate(-9.984 -16.648)" fill="#ee7203"/>
    <path id="Tracé_442" data-name="Tracé 442" d="M62.634,45.82a4.992,4.992,0,0,1,.551.961c.283.429.144.488.507.9.37.363.642,1.261,1.143,1.615.212-.025.211.577.238.371.152-.163,1.01-2.3,1.125-2.567a10.884,10.884,0,0,1,.7-1.37c.037-.674.538-1.1.81-1.772.307-.743.3-.692.514-1.316a12.632,12.632,0,0,1,1.009-1.695c.9.328.347,1.117.293,1.528-.106.4-.169.683-.3,1.109-.23.544-.274.486-.328.9-.127.557-.379,1.072-.446,1.586a7.386,7.386,0,0,0-.4,1.226c-.171.5-.227.728-.362,1.154-.021.154-.146.9-.144,1.078,0,0-.11.638-.224,1.094a1.437,1.437,0,0,0,.065.687c.311,2.575.074.82.178,1.618.109.746,1.521,3.493,1.724,4.12A15.392,15.392,0,0,1,70.051,59c.063.505.455.9.534,1.482.114.329.272.715.378,1.095a21.376,21.376,0,0,0,.781,2.768c.2.679.313,1.374.453,2.1a1.536,1.536,0,0,1,.091.3c-.014.1-.057.226.01.314a1.905,1.905,0,0,0,.049.425c.022.029-.021.154.023.212.091.3.2.5.094.665a2,2,0,0,1,.043.66,1.872,1.872,0,0,1,.146.672,3.316,3.316,0,0,1-.3.926c-.007.052-.132.008-.175.134a5.106,5.106,0,0,1-.313.977c-.071.148-.416.18-.459.3-.151.163.193.313-.135.426a6.472,6.472,0,0,0-2.377.99,2.852,2.852,0,0,0-.826-1.259c-.141-.123-.2-.079-.333-.253a11.454,11.454,0,0,1-.539-1.247c-.434-.867-.851-1.654-1.211-2.486-.438-1.233-.742-2.475-1.119-3.57a1.887,1.887,0,0,1-.175-.65c-.015-.081.064-.279-.01-.316a5.3,5.3,0,0,1-.221-.891c-.024-.212-.129-.409-.137-.54-.048-.425-.083-.952-.163-1.537a17.179,17.179,0,0,1-.814-7.63c-.971-1.932-1.122-2.369-1.973-4.024-.442-.216-1.032.1-1.465.015-.64,1.272-1.376,3.082-2.092,4.737-.322.845-.746,1.677-1.031,2.448-.117.09-.121.324-.164.449s-.189.053-.167.082c-.153.162-.12.507-.133.609-.072.146-.182.185-.231.362a.545.545,0,0,0-.171.5c-.13.192-.152.163-.188.236-.013.1-.476.826-.518.95a2.076,2.076,0,0,1-1.86.824c-.125-.044-.345-.151-.545-.23-.33-.07-.623-.213-1.049-.348a3.578,3.578,0,0,1-.873-.9c-.381-.86.013-3.054.458-4.04a3.089,3.089,0,0,0,.091-.485,7.714,7.714,0,0,1,.078-.981.393.393,0,0,1,.168-.083c-.023-.029-.147-.072-.045-.059a1.2,1.2,0,0,1,.1-.352c.115-.272.19-.836.282-1.138.134-.427.284-.956.483-1.477a12.251,12.251,0,0,1,.659-1.61c.064-.1.209-.207.275-.3.128-.374,0-.6.168-.865.021-.154.217-.258.246-.28.058-.045-.024-.212.129-.375A13.034,13.034,0,0,1,56.9,45.553c.308.041.507.12.71-.036a3.474,3.474,0,0,1,1.946.493,8.518,8.518,0,0,1,2.682-.531c.053.19.31.224.4.341m-7.816,2.8a1.457,1.457,0,0,1-.173.316c-.02.155-.13.192-.186.42.016.08-.05.176-.041.308a1.6,1.6,0,0,0-.278.72c-.181.185-.222.493-.345.633a2.226,2.226,0,0,1,.062.321,1.523,1.523,0,0,1-.274.486,1.227,1.227,0,0,1-.139.66c-.12.507-.034,1.041-.132,1.576a6.53,6.53,0,0,0-.115,1.657,5.154,5.154,0,0,0,.163,1.72c.727-.557.923-1.445,1.378-2.116,1.3-2.1,2.44-4.221,3.767-6.342a1.367,1.367,0,0,0-.635-.529c-.045-.059.027-.205-.149-.255-.221-.107-.478-.142-.624-.213-.1-.014-.17-.1-.243-.137-.323-.121-.681.014-.794-.314a1.368,1.368,0,0,1-.794.469,2.942,2.942,0,0,0-.448.62M68.149,64.47c-.035.256-.127.558-.141.66.234.606.421,1.153.566,1.642a3.3,3.3,0,0,0,.606,1.335c.34-.4.1-.953-.028-1.362a8.229,8.229,0,0,0-1.5-4.431,8.6,8.6,0,0,1,.26,1.785,1.754,1.754,0,0,0,.238.371" transform="translate(-14.832 -11.973)" fill="#ee7203"/>
    <path id="Tracé_443" data-name="Tracé 443" d="M89.58,33.97c-.174.4,0,.163-.224.469-.185.209-.257.485-.493.758a11.469,11.469,0,0,0-1.276,1.246c-.335.319-.847.519-1.234.9a3.3,3.3,0,0,1-1.623.763c-.033.017-.142.472-.228.633a2.131,2.131,0,0,0-.079.523c-.072.277-.12.177-.105.292.008.361-.362.778-.552,1.149-.035.1-.023.213-.105.292,0,.083-.119.177-.154.275a1.705,1.705,0,0,1-.511.807,5.512,5.512,0,0,1-2.23,1.452,4.062,4.062,0,0,1-1.1-.092,4.634,4.634,0,0,1-3.442-2.59c-.089-.363-.275-.761-.352-1.008a1.113,1.113,0,0,0,.11-.456c0-.081-.076-.247-.089-.363-.03-.148.072-.276.042-.424,0-.164-.091-.281-.1-.4a3.521,3.521,0,0,1,.146-.635c.006-.246-.088-.444-.084-.609a1.792,1.792,0,0,1,.141-1.077c.138-.309.11-.456.487-.513.248-.075.221-.3.144-.471a.975.975,0,0,1,.064-.637c-.29-.188-.559.1-.821.062a1.814,1.814,0,0,1-.36-.68,25.52,25.52,0,0,1,3.381-1.588,7.346,7.346,0,0,1,1.628-.321,2.874,2.874,0,0,1,2.02.507c.323.172.655.016.938.449a4.732,4.732,0,0,1,.894,1.643,11.518,11.518,0,0,1,.219,2.446,5.957,5.957,0,0,0,2.442-1.431,5.854,5.854,0,0,0,1.753-2.037c.324-.516.047-.589.338-1.089a3.452,3.452,0,0,1,.415,1.746m-9.588-.349c-.242-.17-.9-.1-1.291-.163a6.173,6.173,0,0,0-1.04.368c.52.159.6.85.934,1.3a.787.787,0,0,1,1.052.517c.045.181-.382.22-.452.415a10.414,10.414,0,0,0,.551.914c.064.05.246.006.356.156.129.1.275.154.355.238a2.649,2.649,0,0,0,1.707.534,3.287,3.287,0,0,0-.49-2.765c.205-.338-.407-.779-.662-1.065a2.538,2.538,0,0,0-1.02-.449m1.935,5.239a6.217,6.217,0,0,1-3.474-1.281c-.017.05-.05.064-.069.114a5.267,5.267,0,0,0,.573,4.059c.366.434,1.042.238,1.325.065A4.578,4.578,0,0,0,81.3,40.531a3.054,3.054,0,0,0,.631-1.671" transform="translate(-22.09 -9.27)" fill="#ee7203"/>
    <path id="Tracé_444" data-name="Tracé 444" d="M109.217,3.229c-.187-.334-2.157-.085-2.859.3-.143.032-.283.25-.425.281-.155.147-.473.068-.635.179-.378.158-.689.451-1.038.567a1.106,1.106,0,0,1-.548.234,30.675,30.675,0,0,0-3.68,2.353,5.216,5.216,0,0,1-1.049.682,3.729,3.729,0,0,1-.524.342c-.207.083-.39.273-.532.3-.179.04-.231-.024-.425-.056-.235.128-.81.405-.855.715-.119.139,0,.338.032.481.106,2-.693,3.641-.9,5.261.266.017.195-.306.263-.509a15.44,15.44,0,0,0,.03,2.17,36.1,36.1,0,0,1,8.7-2.9,13.159,13.159,0,0,1,2.724-.228,11.667,11.667,0,0,1,2.161.272c.519.147,1.7.375,1.786.617.139.119-.011.115-.04.159a3.814,3.814,0,0,1,.032.48,2.06,2.06,0,0,1-.783.361c-.877.27-2.137.511-2.987.737a11.238,11.238,0,0,0-1.477.44c-.41.016-.78.21-1.18.261a2.556,2.556,0,0,0-.811.4,1.074,1.074,0,0,0-.505-.076c-.079-.02-.226.163-.476.219a2.585,2.585,0,0,1-.453-.013c-.17.076-.2.27-.373.345-.362.231-.742.2-.989.444-.075-.171.17-.076.1-.246a3.047,3.047,0,0,0-1.1.619,2.306,2.306,0,0,1-.8.289c-.134.069-.175.226-.309.294a4.182,4.182,0,0,1-1.161.519,9.6,9.6,0,0,1-2.085.912c-.143.369.13.759.13,1.1.032.144-.033.195-.035.346a6.468,6.468,0,0,0,.082.882,7.777,7.777,0,0,0-.132.928,21.075,21.075,0,0,0,.234,2.237c.111.163.224-.35.306-.144.179.3.044.7.044,1.042,0,.186.15.341.19.52-.008.3-.08.655-.08.992.127.572.439,1.141.507,1.613a.979.979,0,0,0-.091.433c-.017.266.325.453.34.863a.963.963,0,0,1-.684-.037c-.143.031-.1.21-.175.226-.957-.425-1.483-1.621-1.9-2.841a4.082,4.082,0,0,1-.415-1.707c-.013-.223-.183.19-.175-.112.04-.159-.132-.083-.135-.27-.016-.071.127-.1.159-.3a1.843,1.843,0,0,1-.139-.458,3.136,3.136,0,0,1-.17-1.276c-.277-1.25-.478-2.668-.7-3.669.008-.3.1-.584-.052-.739-.074-.171-.3-.159-.551-.29a3.562,3.562,0,0,1-1.4-1.228,2.493,2.493,0,0,0,1.756-.2c-.256-3.017-.294-5.56-.309-8.332a34.849,34.849,0,0,1-4.115.724,3.663,3.663,0,0,1-1.255-.584,4.206,4.206,0,0,0-.651-.568c-.226-.175-.445-.314-.671-.489.075-.167.473-.068.758-.131a4.841,4.841,0,0,0,1.383-.869c.921-.578,1.606-1.218,2.547-1.876.19-.155.468-.255.695-.417.19-.155.43-.433.572-.465.056-.087.143-.031.214-.047.191-.154.266-.322.365-.381.12-.139.151,0,.224-.012a3.2,3.2,0,0,0,.834-.634c.255-.207.589-.393.878-.607a18.089,18.089,0,0,1,1.848-.972,14.428,14.428,0,0,1,4.1-1.808A32.236,32.236,0,0,1,105.99,0,15.458,15.458,0,0,1,108.9.262a2.847,2.847,0,0,1,1.326.568,1.317,1.317,0,0,1,.449.839c0,.151-.151.334-.1.548,0,.151.187.334.219.476a1.815,1.815,0,0,1-.422.806,1.814,1.814,0,0,1-.735.575,1.039,1.039,0,0,1-.7.381c.159-.3.557-.873.291-1.226M95.8,14.975a.4.4,0,0,1-.032.194c.123.048.174-.226.032-.194m.2-1.132c-.032-.142.111-.174.059-.238.071-.016.151.342-.059.238" transform="translate(-25.13 0)" fill="#ee7203"/>
    <path id="Tracé_445" data-name="Tracé 445" d="M141.832,24.445c.03.44-.68,1.344-.9,1.67a7.781,7.781,0,0,1-1.863,1.984c-.149.144-.3.434-.447.505-.221.107-.408.323-.594.43a3.848,3.848,0,0,0-.445.359c-.073.035-.255,0-.367.067-.038.073-.04.183-.076.218A6.548,6.548,0,0,1,133.38,30.9c-3.477-.056-4.891-.957-4.984-4.291-.253-.26-.4.14-.59.283-.374.543-1.46,1.955-2.341,2.087a5.488,5.488,0,0,1-2.189-.548c-.653-.34-.829-.783-1.185-1.448.187-.216.015-.877.345-.91.078-.291-.142-.294-.1-.587a16.261,16.261,0,0,1,2.25-3.332s1.894-1.581,2.185-1.466c.439-.029.7-.428,1.108-.641a8.145,8.145,0,0,0,1.144-.531c.732.048,1.053.566,1.709.76.372-.287.418-.945.826-1.268A2.794,2.794,0,0,1,134.5,20.19c.159,1.467-.85,2.806-1.5,4.26-.114.255-.23.619-.344.911a8.332,8.332,0,0,0-.554,2.555,2.829,2.829,0,0,0,.414,1.581c1.274.534,1.979-.078,3.049-.61a8.977,8.977,0,0,0,1.444-1.039c.111-.071.151-.253.226-.363.11-.035.185-.106.3-.142.779-.646,2.672-2.264,3.452-2.947.334-.288.665-.392.844-.133Zm-12.409-2.579a13.049,13.049,0,0,0-3.653,4.079,6.981,6.981,0,0,0,2.6-2.192,4.792,4.792,0,0,0,1.2-1.738c.074,0,.076-.146-.145-.149" transform="translate(-35.697 -5.543)" fill="#ee7203"/>
    <path id="Tracé_446" data-name="Tracé 446" d="M162.323,28.44c-.273.244-.638.769-.962.892-.581.294-.437.137-1.054.425-.33.159-.151.008-.826.209a6.159,6.159,0,0,1-2.3.326,12.383,12.383,0,0,0-1.693.447c0,.56-.108.538-.357,1.049a1.3,1.3,0,0,1-.33.531.808.808,0,0,1-.223.18l-.818.546c-.359.3-.839.468-1.112.713-.653.093-1.27.382-2.125.548a5.779,5.779,0,0,1-2.132-.163,9.936,9.936,0,0,1-.848-.616c-.331-.4-.927-.781-1.014-1.283a.9.9,0,0,1,.229-.4c.136-.122.315-.459.552-.525.05-.064-.008.037.036.008a1.122,1.122,0,0,0,.2-.072c.323-.5.875-.647,1.356-1a20.877,20.877,0,0,1,3.745-1.57c-.324-.811-.712-.925-.864-1.664-.036-.006-.447-.947-.482-.955a2.067,2.067,0,0,1-.26-1.134c-.394.3-.495.238-1.27.756a5.649,5.649,0,0,1-.955.482,6.371,6.371,0,0,1-1.17.439,1.121,1.121,0,0,1-1.178-.831c.782-.367.911-.454,1.485-.713.947-.447,1.507-1.008,2.21-1.353l.674-.388.409-.367a1.05,1.05,0,0,0,.381-.409c.186,0,.006.15.208.078a1.955,1.955,0,0,1,.437-.509l.187.186a2.074,2.074,0,0,1,.379-.6c.1-.316.589-.331.775-.517.323-.31.682-.238.9-.569.079-.022.006-.222.042-.215a4.925,4.925,0,0,1,.739.221l.008.151a.343.343,0,0,1,.438.05,16.682,16.682,0,0,0,1.7,1.57c-.057.287-.294.352-.143.531-.028.33-.265.209-.51.309-.594.553-1.994.836-2.977,1.275-.374.188-.624.323-.753.6-.581.856.389,1.607.943,2.39l.036.007a7.946,7.946,0,0,1,.719,1.263,10.7,10.7,0,0,0,1.839-.046,6.732,6.732,0,0,0,1.9-.146h.933c.638-.209,1.643-.383,1.572-.4.042-.029,1.1-.267,1.1-.267.833-.059.231.531.231.531M152.555,31.2a4.594,4.594,0,0,0-1.766.62c-.473.129-.854.166-1.112.526,1.177-.1,2.282-.218,2.877-1.146" transform="translate(-42.824 -5.965)" fill="#ee7203"/>
    <path id="Tracé_447" data-name="Tracé 447" d="M178.963,15.284a19.273,19.273,0,0,0-1.652,2.016c.03.243.215.27.365.285a9.553,9.553,0,0,0,1.643.626,14.89,14.89,0,0,0,1.709.765,24.716,24.716,0,0,1,5.451,2.918c-.243.029-.187.088-.214.273-.081.01-.255.064-.3-.029-.1.159.1.036.02.162-.7-.212-1.4-.539-2.116-.717a5.12,5.12,0,0,0-1.013-.322,9.893,9.893,0,0,1-1.69-.6c-.817-.214-1.543-.357-2.293-.547a.6.6,0,0,1-.344-.123c-.129.033-.208-.074-.311-.11-.035-.012-.093.045-.127.033a2.2,2.2,0,0,1-.636-.071c-.273-.214-.8-.168-1.015-.206-.355-.205-.5-.22-.693-.132a6.828,6.828,0,0,0-.979.9c-.143.182-.248.261-.4.477-.26.3-.371.606-.7.994-.168.25-.343.3-.357.456-.069-.025-.086.241-.088.357a2.082,2.082,0,0,0-.618.752c-.428.546-.894,1.2-1.347,1.812-.049.139-.354.341-.391.444a7.025,7.025,0,0,1-.529.938c-.261.3-.281.677-.55.776a8.067,8.067,0,0,1-.373.722c-.19.2-.269.643-.577.96a2.457,2.457,0,0,0-.224.191s.057.059-.014.151c0,0-.115,0-.128.032-.022-.046-.074.207-.1.277s-.045-.094-.069-.025a8.944,8.944,0,0,0-.6,1.03l-.094.044a2.119,2.119,0,0,0-.152.645,5.469,5.469,0,0,0-.487,3.325c-.028.185-.022-.047-.084.125.165.409.156.872.7.988a1.04,1.04,0,0,0,1.067-.047c.127-.033.167-.252.424-.316.086.3-.263.411-.313.55-.128.03-.178.169-.212.156a1.048,1.048,0,0,1-.443.154,2.492,2.492,0,0,1-.889.422,1.506,1.506,0,0,1-.848.086,3.428,3.428,0,0,1-2.286-1.983c-.076-.221-.018-.279-.1-.7a1.116,1.116,0,0,0-.167-.838,1.873,1.873,0,0,1,.105-.624c-.017-.278.059-.6.042-.879.148-.413.185-1.062.335-1.591a12.676,12.676,0,0,1,.484-1.577c.038-.1-.03-.243.042-.334.038-.1.13-.149.121-.229.153-.1.26-.3.238-.343a5.206,5.206,0,0,1,.712-1.34c.073-.207.272-.33.312-.55.236-.227.416-1.057.628-1.214a4.852,4.852,0,0,0,.357-.456,10.375,10.375,0,0,1,.882-1.163,9.573,9.573,0,0,1-.86.666L167,23.65a.408.408,0,0,1-.028.185,8.025,8.025,0,0,0-1.061.9,1.892,1.892,0,0,1,.5-.638,2.041,2.041,0,0,1,.192-.32c.106-.079.234-.111.236-.226.105-.08.12-.229.18-.287.037-.1.163-.019.187-.088.081-.009.014-.15.062-.172.093-.044.2-.008.212-.159.059-.056.12-.229.2-.355-.01-.081.118-.113.166-.251a.393.393,0,0,0,.156-.217c.059-.057.187-.088.224-.192a1,1,0,0,0,.11-.311c.013-.035.141-.067.249-.261.165-.135.088-.357.229-.423.094-.045.281-.134.33-.272.108-.2.064-.288.241-.459.13-.147.3-.086.374-.177.047-.022.015-.151.086-.241.047-.023.116,0,.129-.032.153-.1.132-.264.169-.368a.43.43,0,0,1,.234-.11c-.044-.093.074-.207.108-.195.192-.321.413-.4.534-.626-.035-.013.265.017-.486-.057a13.932,13.932,0,0,0-2.13-.565,9.624,9.624,0,0,1-2.421-1.059,3.153,3.153,0,0,1-.572-.359,2.9,2.9,0,0,1-.823-1.071,2.287,2.287,0,0,1-.514-.845c-.079-.106-.018-.278.019-.381a2.635,2.635,0,0,0,1.419.273,18.027,18.027,0,0,1,3,.294,31.016,31.016,0,0,1,5.193,1.464c.495.137.126.083.3.03.151.014.178-.171.342-.306.109-.195.271-.214.446-.268.06-.057.108-.194.168-.251.013-.035.222-.076.282-.133a.59.59,0,0,1-.008-.2c.046-.022.093-.043.14-.067a1,1,0,0,0,.552-.347c.46-.419,1.061-.9,1.7-1.377.259-.18.473-.453.683-.495.2-.124.281-.134.364-.26.081-.009.212-.157.224-.192.037-.1.2-.123.37.054.069.025.152-.1.15.016.173.061.231,0,.4.066.035.012.17.177.308.227a2.57,2.57,0,0,0,.291.492l.069.025c-.012.035-.025.069-.025.069.1.153.205.19.235.434a11.874,11.874,0,0,1-1.739,1.712" transform="translate(-47.894 -3.541)" fill="#ee7203"/>
    <path id="Tracé_448" data-name="Tracé 448" d="M108.943,111.457a130.3,130.3,0,0,0-21.911,9.135,156.174,156.174,0,0,0-17.676,10.587c-12.532,8.758-19.027,16.754-21.735,20.4s-6.688,10.837-7.351,14.015c-2.583,1.505-7.447,4.251-7.447,4.251s-.117-6.576,5.084-15.268C44.042,144.316,54,135.65,62.683,129.55a144.376,144.376,0,0,1,23.673-13.944c7.089-3.188,15.229-6.48,19.769-6.827l2.818,2.678" transform="translate(-9.596 -31.805)" fill="#ee7203"/>
    <path id="Tracé_449" data-name="Tracé 449" d="M146.088,60.77a17.242,17.242,0,0,0-2.245,5.534c-.619,3.1-1.083,9.055,6.308,12.538s18.342,3.405,26.585,0,13-9.752,13.157-16.562-6-9.984-11.145-11.3-11.725-1.354-14.7.348a29.755,29.755,0,0,1,7.043,2.554c3.134,1.78,6.717,5.923,2.012,11.136-5.108,5.658-13.872,7.042-15.426,7.182-2.295.206-8.228.02-10.462-5.935a39.89,39.89,0,0,1-1.122-5.495" transform="translate(-41.964 -14.625)" fill="#ee7203"/>
    <path id="Tracé_450" data-name="Tracé 450" d="M239.682,113.717s.332,3.615-.136,5a9.7,9.7,0,0,0-.536,2.2c-.029.2-2.543,4.261-9.762,6.231a87.31,87.31,0,0,1-35.006,1.643,105.279,105.279,0,0,1-33.9-11.134,8.991,8.991,0,0,0,1.107-3.94,118.712,118.712,0,0,0,22.626,7.093c11.117,2.036,21.751,2.75,31.512,1.536,9.889-1.228,17.959-5.265,24.094-8.631" transform="translate(-46.881 -33.248)" fill="#ee7203"/>
    <path id="Tracé_451" data-name="Tracé 451" d="M140.66,148.757c-1.207,6.766-2.231,16.8-11.26,30.725-9.479,14.623-27.166,20.027-27.166,20.027l28.678-89.83,7.457-5.732c4.35,19.866,3.626,37.33,2.291,44.809m-8.948,13.028s3.385-8.577,4.176-12.96-.325-9.618-.463-10.432c-.163-.961-.475-1.9-.8-1.252s-1.62,2.8-1.7,4.237c-.05.913-.221,3.975-.356,7.071-.1,2.257-.163,3.811-.305,5.848-.315,4.519-.553,7.489-.553,7.489" transform="translate(-29.891 -30.392)" fill="#ee7203"/>
    <path id="Tracé_452" data-name="Tracé 452" d="M17.145,120.967s33.119,1.306,43.3.34a.114.114,0,0,1,.045.222c-12.1,3.444-53.953,4.342-53.953,4.342Z" transform="translate(-1.911 -35.368)" fill="#ee7203"/>
    <path id="Tracé_453" data-name="Tracé 453" d="M6.842,153.855s1.526-.826,11.692-1.93c.135-.015,11.575.255,11.445.294C17.924,155.827,0,157.13,0,157.13Z" transform="translate(0 -44.419)" fill="#ee7203"/>
    <path id="Tracé_454" data-name="Tracé 454" d="M200.618,37.439l-.256-.147c.092.054.207.121.256.147" transform="translate(-58.582 -10.903)" fill="#ee7203"/>
    <path id="Tracé_455" data-name="Tracé 455" d="M200.3,37.258l.023.013-.084-.049.061.035" transform="translate(-58.547 -10.883)" fill="#ee7203"/>
    <path id="Tracé_456" data-name="Tracé 456" d="M200.229,37.214h0" transform="translate(-58.532 -10.875)" fill="#ee7203"/>
    <path id="Tracé_457" data-name="Tracé 457" d="M141.542,254.444c.176-.018.076.3-.065.229.035-.093.074-.141.065-.229" transform="translate(-41.365 -74.394)" fill="#ee7203"/>
    <path id="Tracé_458" data-name="Tracé 458" d="M142.23,252.173c.053.083-.122.1-.1.278.238.152.192-.287.1-.278" transform="translate(-41.554 -73.73)" fill="#ee7203"/>
    <path id="Tracé_459" data-name="Tracé 459" d="M14.9,111.7q.9-3.65,2.123-7.2c-.129.011-.258.023-.386.023a4.235,4.235,0,0,1-1.022-.125,6.366,6.366,0,0,1-1.759-.36l-.07-.023a4.241,4.241,0,0,1-2.936-2.68,91.636,91.636,0,0,0-3.509,13.854Z" transform="translate(-2.146 -29.629)" fill="#ee7203"/>
    <path id="Tracé_460" data-name="Tracé 460" d="M6.329,133.827H6.237a4.315,4.315,0,0,1-.517-.044,92.786,92.786,0,0,0-.058,11.362l.96-.46h0a22.873,22.873,0,0,1,5.122-1.27,91.068,91.068,0,0,1,.465-9.754c-3.322.107-5.507.156-5.88.163" transform="translate(-1.613 -39.081)" fill="#ee7203"/>
    <path id="Tracé_461" data-name="Tracé 461" d="M198.6,36.176h0" transform="translate(-58.055 -10.571)" fill="#ee7203"/>
    <path id="Tracé_462" data-name="Tracé 462" d="M198.671,36.22l.018.011-.079-.046.061.035" transform="translate(-58.069 -10.58)" fill="#ee7203"/>
    <path id="Tracé_463" data-name="Tracé 463" d="M198.983,36.4l-.261-.15c.093.054.212.123.261.15" transform="translate(-58.102 -10.599)" fill="#ee7203"/>
    <path id="Tracé_464" data-name="Tracé 464" d="M185.878,134.169c.093,1.658.154,3.33.157,5.067a90.569,90.569,0,0,1-4.311,27.6,89.588,89.588,0,0,1-30.174,42.847,90,90,0,0,1-23.384,13.031,83.96,83.96,0,0,1-12.837,3.683,90.217,90.217,0,0,1-14.022,1.746q-.818.037-1.639.06-.443.013-.886.02l-.253,0-.347,0q-1.775.007-3.549-.054-3.566-.123-7.116-.526-3.434-.391-6.831-1.044l-.546-.107-.616-.13q-.9-.193-1.787-.4-1.656-.393-3.3-.848-3.316-.92-6.555-2.095c-.473-.171-.943-.35-1.415-.526l-.248-.1q-.446-.176-.889-.358-1.551-.634-3.076-1.325-3.093-1.4-6.073-3.034l-.727-.4-.054-.03-.055-.032q-.719-.416-1.432-.842-1.472-.885-2.911-1.825c-1.848-1.209-3.643-2.491-5.4-3.823l-.025-.018-.07-.055c-.217-.171-.433-.341-.648-.512q-.692-.552-1.373-1.118-1.271-1.055-2.5-2.155c-1.618-1.446-3.251-2.932-4.72-4.534-.047-.052-.106-.116-.172-.185q-.283-.3-.564-.6-.6-.649-1.19-1.309-1.1-1.232-2.153-2.505-2.146-2.592-4.1-5.34c-.253-.356-.5-.715-.749-1.074-.065-.1-.239-.352-.291-.43q-.263-.394-.522-.791-.938-1.438-1.821-2.913a89.814,89.814,0,0,1-6.018-12.006q-.081-.2-.16-.4-.133-.334-.263-.67-.326-.841-.633-1.687-.577-1.586-1.094-3.191-1.059-3.29-1.861-6.657-.81-3.4-1.353-6.853c-.074-.466-.142-.945-.209-1.424-2.146.278-4.1.5-5.73.668.352,2.061.76,4.111,1.252,6.141A92,92,0,0,0,19.328,187a96.321,96.321,0,0,0,42.183,37.59,94.937,94.937,0,0,0,27.977,7.931,93.123,93.123,0,0,0,29.168-1.034,90.92,90.92,0,0,0,48.237-26.353,90.38,90.38,0,0,0,15.73-22.224,90.638,90.638,0,0,0,9.64-40.714,95.394,95.394,0,0,0-.611-10.655,23.23,23.23,0,0,1-5.773,2.63m-167.2,40.983c-.088-.213-.035-.085,0,0l0,0" transform="translate(-2.159 -38.459)" fill="#ee7203"/>
    <path id="Tracé_465" data-name="Tracé 465" d="M238.9,83.528a94.407,94.407,0,0,0-12.782-25.353,96.2,96.2,0,0,0-19.9-20.546,93.166,93.166,0,0,0-12.414-8.05,4.2,4.2,0,0,1-3.506.752c-.371-.112-.742-.247-1.114-.386-.318-.119-.619-.231-.833-.284a3.384,3.384,0,0,1-.335-.1c-.115-.04-.228-.084-.34-.127l-.121-.047a3.276,3.276,0,0,1-.33-.076,14.346,14.346,0,0,1-1.913-.658c-.3-.075-.6-.142-.884-.207s-.572-.13-.858-.2a4.029,4.029,0,0,1-.674-.169,5.389,5.389,0,0,1-.612-.076c-.063.1-.143.217-.233.342l.349.129.523.2.461.182q.445.177.888.36,1.549.638,3.072,1.333,3.089,1.41,6.064,3.051c.131.072.677.284.727.4l-.024-.012.029.017q.771.445,1.532.905,1.419.858,2.807,1.768,1.434.94,2.833,1.935.625.446,1.244.9a9.652,9.652,0,0,1,1.415,1.066c0,.006-.592-.463-.279-.215.123.1.248.194.372.291q.325.256.647.514.644.516,1.279,1.045,1.314,1.094,2.587,2.238,1.228,1.1,2.415,2.252.551.533,1.093,1.074.292.292.581.587c.11.112.219.225.33.338.056.057.341.359.2.213l.255.271q.283.3.563.6.6.651,1.187,1.312,1.1,1.237,2.146,2.511,2.1,2.553,4.014,5.255.239.338.475.678c.084.12.248.364.29.425.287.43.576.86.857,1.294q.9,1.392,1.753,2.817,1.737,2.907,3.25,5.942,1.478,2.959,2.732,6.025c.05.125.153.384.178.449q.155.391.3.783.323.841.629,1.689.573,1.587,1.086,3.195a89.24,89.24,0,0,1,2.42,9.341c1.782-.729,3.5-1.521,5.164-2.348-.478-1.891-1-3.772-1.606-5.629" transform="translate(-53.228 -8.186)" fill="#ee7203"/>
    <path id="Tracé_466" data-name="Tracé 466" d="M239.682,113.717s.332,3.615-.136,5a9.7,9.7,0,0,0-.536,2.2c-.029.2-2.543,4.261-9.762,6.231a87.31,87.31,0,0,1-35.006,1.643,105.279,105.279,0,0,1-33.9-11.134,8.991,8.991,0,0,0,1.107-3.94,118.712,118.712,0,0,0,22.626,7.093c11.117,2.036,21.751,2.75,31.512,1.536,9.889-1.228,17.959-5.265,24.094-8.631" transform="translate(-46.881 -33.248)" fill="#ee7203"/>
  </g>
</svg>
