<svg xmlns="http://www.w3.org/2000/svg" width="48.000000pt" height="48.000000pt" viewBox="0 0 48.000000 48.000000" preserveAspectRatio="xMidYMid meet"><g transform="translate(0.000000,48.000000) scale(0.100000,-0.100000)" fill="#000000" stroke="none"><path d="M172 429 c-68 -20 -132 -111 -132 -189 0 -34 19 -98 30 -105 21 -13 28 7 14 40 -20 49 -17 95 9 145 40 76 132 109 212 76 21 -9 37 -11 40 -5 23 36 -93 61 -173 38z"></path><path d="M370 362 c0 -4 9 -25 20 -47 26 -52 25 -102 -3 -155 -40 -77 -132 -109 -213 -75 -39 16 -62 11 -44 -10 17 -21 96 -38 142 -31 98 16 163 92 163 191 0 65 -27 135 -51 135 -8 0 -14 -4 -14 -8z"></path><path d="M200 317 c0 -7 16 -28 35 -47 l35 -34 -35 -36 c-32 -33 -45 -60 -28 -60 11 0 93 83 93 94 0 12 -81 96 -92 96 -4 0 -8 -6 -8 -13z"></path></g></svg>