<svg xmlns="http://www.w3.org/2000/svg" width="96.000000pt" height="96.000000pt" viewBox="0 0 96.000000 96.000000" preserveAspectRatio="xMidYMid meet"><g transform="translate(0.000000,96.000000) scale(0.100000,-0.100000)" fill="#000000" stroke="none"><path d="M386 870 c-63 -16 -153 -70 -197 -117 -22 -24 -55 -74 -72 -111 -29 -61 -32 -76 -32 -162 1 -77 5 -105 24 -147 30 -67 46 -82 68 -60 15 14 14 20 -8 69 -35 78 -34 202 2 278 74 158 258 237 414 180 81 -30 109 -31 113 -4 7 51 -203 101 -312 74z"></path><path d="M743 724 c-3 -9 -1 -24 6 -33 6 -9 24 -41 39 -71 23 -47 27 -68 27 -140 0 -71 -4 -94 -26 -140 -53 -113 -163 -189 -288 -198 -65 -4 -100 4 -209 49 -28 12 -34 12 -42 -1 -15 -24 6 -45 72 -76 55 -25 75 -29 158 -29 86 0 101 3 162 32 93 44 151 100 196 191 35 72 37 81 37 173 0 93 -2 99 -40 175 -30 59 -46 80 -63 82 -14 2 -25 -3 -29 -14z"></path><path d="M397 653 c-17 -17 -2 -43 65 -110 l72 -73 -73 -74 c-75 -75 -88 -108 -46 -114 28 -4 185 156 185 188 0 15 -29 52 -82 106 -75 77 -103 95 -121 77z"></path></g></svg>