<svg xmlns="http://www.w3.org/2000/svg" width="96.000000pt" height="96.000000pt" viewBox="0 0 96.000000 96.000000" preserveAspectRatio="xMidYMid meet"><g transform="translate(0.000000,96.000000) scale(0.100000,-0.100000)" fill="#000000" stroke="none"><path d="M386 870 c-63 -16 -153 -70 -197 -117 -22 -24 -55 -74 -72 -111 -29 -61 -32 -76 -32 -163 0 -93 2 -100 40 -175 34 -67 44 -79 65 -79 34 0 36 25 5 71 -142 209 7 503 264 522 65 4 100 -4 209 -49 28 -12 34 -12 42 1 15 24 -6 45 -71 74 -68 31 -184 43 -253 26z"></path><path d="M780 685 c-10 -12 -8 -24 11 -68 35 -77 34 -201 -2 -277 -74 -158 -258 -237 -414 -180 -81 30 -109 31 -113 4 -2 -17 9 -26 60 -50 55 -25 75 -29 159 -29 90 0 99 2 171 37 91 45 147 103 191 196 29 61 32 76 32 162 0 86 -3 101 -30 155 -32 64 -45 74 -65 50z"></path><path d="M442 597 c-53 -55 -82 -92 -82 -107 0 -32 157 -192 185 -188 42 6 29 39 -46 114 l-73 74 73 74 c75 75 88 108 46 114 -15 2 -45 -22 -103 -81z"></path></g></svg>