<svg xmlns="http://www.w3.org/2000/svg" width="48.000000pt" height="48.000000pt" viewBox="0 0 48.000000 48.000000" preserveAspectRatio="xMidYMid meet"><g transform="translate(0.000000,48.000000) scale(0.100000,-0.100000)" fill="#000000" stroke="none"><path d="M172 429 c-77 -23 -140 -126 -129 -210 6 -48 36 -109 53 -109 19 0 18 9 -6 55 -41 81 -10 180 70 222 50 27 96 29 147 8 37 -16 65 -7 41 12 -39 30 -114 40 -176 22z"></path><path d="M388 344 c-4 -3 0 -21 8 -39 33 -80 0 -172 -76 -212 -50 -26 -96 -29 -145 -9 -34 14 -53 7 -40 -14 11 -17 89 -32 135 -26 89 12 156 82 166 173 8 69 -23 152 -48 127z"></path><path d="M222 297 c-23 -23 -42 -47 -42 -52 0 -11 81 -95 92 -95 18 0 6 28 -27 60 l-35 34 35 36 c33 34 45 60 27 60 -4 0 -27 -19 -50 -43z"></path></g></svg>