<svg xmlns="http://www.w3.org/2000/svg" xmlns:xlink="http://www.w3.org/1999/xlink" width="165.101" height="164.914" viewBox="0 0 165.101 164.914">
  <defs>
    <clipPath id="clip-path">
      <path id="Tracé_401" data-name="Tracé 401" d="M16.52-537.633A16.521,16.521,0,0,0,0-521.112H0v131.873a16.52,16.52,0,0,0,16.52,16.52H148.393a16.521,16.521,0,0,0,16.521-16.52h0V-521.112a16.521,16.521,0,0,0-16.521-16.521H16.52Z" transform="translate(0 537.633)" fill="#3d3d3d"/>
    </clipPath>
  </defs>
  <g id="QR-code" transform="translate(-245.209 -671.784)">
    <g id="Groupe_105" data-name="Groupe 105" transform="translate(-881.791 314.885)">
      <g id="Rectangle_16" data-name="Rectangle 16" transform="translate(1127 356.97)" fill="#fff" stroke="#3d3d3d" stroke-width="2">
        <rect width="164.843" height="164.843" rx="10" stroke="none"/>
        <rect x="1" y="1" width="162.843" height="162.843" rx="9" fill="none"/>
      </g>
      <g id="Groupe_13" data-name="Groupe 13" transform="translate(1127.187 356.899)">
        <g id="Groupe_10" data-name="Groupe 10" transform="translate(0)" clip-path="url(#clip-path)">
          <path id="Tracé_80" data-name="Tracé 80" d="M53.076-484.556h4.07v12.21h-4.07Z" transform="translate(-36.795 500.837)" fill="#3d3d3d"/>
          <path id="Tracé_81" data-name="Tracé 81" d="M53.076-444.749h4.07v16.281h-4.07Z" transform="translate(-36.795 473.24)" fill="#3d3d3d"/>
          <path id="Tracé_82" data-name="Tracé 82" d="M53.076-378.4h4.07v4.07h-4.07Z" transform="translate(-36.795 427.245)" fill="#3d3d3d"/>
          <path id="Tracé_83" data-name="Tracé 83" d="M53.076-285.52h4.07v4.07h-4.07Z" transform="translate(-36.795 362.853)" fill="#3d3d3d"/>
          <path id="Tracé_84" data-name="Tracé 84" d="M53.076-245.713h4.07v8.14h-4.07Z" transform="translate(-36.795 335.257)" fill="#3d3d3d"/>
          <path id="Tracé_85" data-name="Tracé 85" d="M53.076-192.636h4.07v4.07h-4.07Z" transform="translate(-36.795 298.461)" fill="#3d3d3d"/>
          <path id="Tracé_86" data-name="Tracé 86" d="M53.076-166.1h4.07v4.07h-4.07Z" transform="translate(-36.795 280.063)" fill="#3d3d3d"/>
          <path id="Tracé_87" data-name="Tracé 87" d="M53.076-139.56h4.07v20.351h-4.07Z" transform="translate(-36.795 261.665)" fill="#3d3d3d"/>
          <path id="Tracé_88" data-name="Tracé 88" d="M53.076-73.214h4.07v8.14h-4.07Z" transform="translate(-36.795 215.67)" fill="#3d3d3d"/>
          <path id="Tracé_89" data-name="Tracé 89" d="M66.345-484.556h4.07v4.07h-4.07Z" transform="translate(-45.994 500.837)" fill="#3d3d3d"/>
          <path id="Tracé_90" data-name="Tracé 90" d="M66.345-404.942h4.07v4.07h-4.07Z" transform="translate(-45.994 445.644)" fill="#3d3d3d"/>
          <path id="Tracé_91" data-name="Tracé 91" d="M66.345-365.135h4.07v12.21h-4.07Z" transform="translate(-45.994 418.047)" fill="#3d3d3d"/>
          <path id="Tracé_92" data-name="Tracé 92" d="M66.345-298.789h4.07v8.14h-4.07Z" transform="translate(-45.994 372.052)" fill="#3d3d3d"/>
          <path id="Tracé_93" data-name="Tracé 93" d="M66.345-258.982h4.07V-242.7h-4.07Z" transform="translate(-45.994 344.456)" fill="#3d3d3d"/>
          <path id="Tracé_94" data-name="Tracé 94" d="M66.345-192.636h4.07v8.14h-4.07Z" transform="translate(-45.994 298.461)" fill="#3d3d3d"/>
          <path id="Tracé_95" data-name="Tracé 95" d="M66.345-139.56h4.07v4.07h-4.07Z" transform="translate(-45.994 261.665)" fill="#3d3d3d"/>
          <path id="Tracé_96" data-name="Tracé 96" d="M66.345-59.945h4.07v4.07h-4.07Z" transform="translate(-45.994 206.471)" fill="#3d3d3d"/>
          <path id="Tracé_97" data-name="Tracé 97" d="M79.614-484.556h4.07v4.07h-4.07Z" transform="translate(-55.193 500.837)" fill="#3d3d3d"/>
          <path id="Tracé_98" data-name="Tracé 98" d="M79.614-458.018h4.07v4.07h-4.07Z" transform="translate(-55.193 482.439)" fill="#3d3d3d"/>
          <path id="Tracé_99" data-name="Tracé 99" d="M79.614-444.749h4.07v8.14h-4.07Z" transform="translate(-55.193 473.24)" fill="#3d3d3d"/>
          <path id="Tracé_100" data-name="Tracé 100" d="M79.614-404.942h4.07v4.07h-4.07Z" transform="translate(-55.193 445.644)" fill="#3d3d3d"/>
          <path id="Tracé_101" data-name="Tracé 101" d="M79.614-338.6h4.07v16.281h-4.07Z" transform="translate(-55.193 399.649)" fill="#3d3d3d"/>
          <path id="Tracé_102" data-name="Tracé 102" d="M79.614-258.982h4.07v12.21h-4.07Z" transform="translate(-55.193 344.456)" fill="#3d3d3d"/>
          <path id="Tracé_103" data-name="Tracé 103" d="M79.614-205.9h4.07v4.07h-4.07Z" transform="translate(-55.193 307.66)" fill="#3d3d3d"/>
          <path id="Tracé_104" data-name="Tracé 104" d="M79.614-179.367h4.07v4.07h-4.07Z" transform="translate(-55.193 289.262)" fill="#3d3d3d"/>
          <path id="Tracé_105" data-name="Tracé 105" d="M79.614-139.56h4.07v4.07h-4.07Z" transform="translate(-55.193 261.665)" fill="#3d3d3d"/>
          <path id="Tracé_106" data-name="Tracé 106" d="M79.614-113.022h4.07v12.21h-4.07Z" transform="translate(-55.193 243.268)" fill="#3d3d3d"/>
          <path id="Tracé_107" data-name="Tracé 107" d="M79.614-59.945h4.07v4.07h-4.07Z" transform="translate(-55.193 206.471)" fill="#3d3d3d"/>
          <path id="Tracé_108" data-name="Tracé 108" d="M92.884-484.556h4.07v4.07h-4.07Z" transform="translate(-64.393 500.837)" fill="#3d3d3d"/>
          <path id="Tracé_109" data-name="Tracé 109" d="M92.884-458.018h4.07v4.07h-4.07Z" transform="translate(-64.393 482.439)" fill="#3d3d3d"/>
          <path id="Tracé_110" data-name="Tracé 110" d="M92.884-444.749h4.07v8.14h-4.07Z" transform="translate(-64.393 473.24)" fill="#3d3d3d"/>
          <path id="Tracé_111" data-name="Tracé 111" d="M92.884-404.942h4.07v4.07h-4.07Z" transform="translate(-64.393 445.644)" fill="#3d3d3d"/>
          <path id="Tracé_112" data-name="Tracé 112" d="M92.884-378.4h4.07v8.14h-4.07Z" transform="translate(-64.393 427.245)" fill="#3d3d3d"/>
          <path id="Tracé_113" data-name="Tracé 113" d="M92.884-298.789h4.07v4.07h-4.07Z" transform="translate(-64.393 372.052)" fill="#3d3d3d"/>
          <path id="Tracé_114" data-name="Tracé 114" d="M92.884-258.982h4.07v4.07h-4.07Z" transform="translate(-64.393 344.456)" fill="#3d3d3d"/>
          <path id="Tracé_115" data-name="Tracé 115" d="M92.884-219.174h4.07v8.14h-4.07Z" transform="translate(-64.393 316.858)" fill="#3d3d3d"/>
          <path id="Tracé_116" data-name="Tracé 116" d="M92.884-192.636h4.07v12.21h-4.07Z" transform="translate(-64.393 298.461)" fill="#3d3d3d"/>
          <path id="Tracé_117" data-name="Tracé 117" d="M92.884-139.56h4.07v4.07h-4.07Z" transform="translate(-64.393 261.665)" fill="#3d3d3d"/>
          <path id="Tracé_118" data-name="Tracé 118" d="M92.884-113.022h4.07v12.21h-4.07Z" transform="translate(-64.393 243.268)" fill="#3d3d3d"/>
          <path id="Tracé_119" data-name="Tracé 119" d="M92.884-59.945h4.07v4.07h-4.07Z" transform="translate(-64.393 206.471)" fill="#3d3d3d"/>
          <path id="Tracé_120" data-name="Tracé 120" d="M106.153-484.556h4.07v4.07h-4.07Z" transform="translate(-73.592 500.837)" fill="#3d3d3d"/>
          <path id="Tracé_121" data-name="Tracé 121" d="M106.153-458.018h4.07v4.07h-4.07Z" transform="translate(-73.592 482.439)" fill="#3d3d3d"/>
          <path id="Tracé_122" data-name="Tracé 122" d="M106.153-444.749h4.07v8.14h-4.07Z" transform="translate(-73.592 473.24)" fill="#3d3d3d"/>
          <path id="Tracé_123" data-name="Tracé 123" d="M106.153-404.942h4.07v4.07h-4.07Z" transform="translate(-73.592 445.644)" fill="#3d3d3d"/>
          <path id="Tracé_124" data-name="Tracé 124" d="M106.153-365.135h4.07v4.07h-4.07Z" transform="translate(-73.592 418.047)" fill="#3d3d3d"/>
          <path id="Tracé_125" data-name="Tracé 125" d="M106.153-325.327h4.07v8.14h-4.07Z" transform="translate(-73.592 390.45)" fill="#3d3d3d"/>
          <path id="Tracé_126" data-name="Tracé 126" d="M106.153-285.52h4.07v4.07h-4.07Z" transform="translate(-73.592 362.853)" fill="#3d3d3d"/>
          <path id="Tracé_127" data-name="Tracé 127" d="M106.153-245.713h4.07v4.07h-4.07Z" transform="translate(-73.592 335.257)" fill="#3d3d3d"/>
          <path id="Tracé_128" data-name="Tracé 128" d="M106.153-205.9h4.07v4.07h-4.07Z" transform="translate(-73.592 307.66)" fill="#3d3d3d"/>
          <path id="Tracé_129" data-name="Tracé 129" d="M106.153-192.636h4.07v4.07h-4.07Z" transform="translate(-73.592 298.461)" fill="#3d3d3d"/>
          <path id="Tracé_130" data-name="Tracé 130" d="M106.153-166.1h4.07v4.07h-4.07Z" transform="translate(-73.592 280.063)" fill="#3d3d3d"/>
          <path id="Tracé_131" data-name="Tracé 131" d="M106.153-139.56h4.07v4.07h-4.07Z" transform="translate(-73.592 261.665)" fill="#3d3d3d"/>
          <path id="Tracé_132" data-name="Tracé 132" d="M106.153-113.022h4.07v12.21h-4.07Z" transform="translate(-73.592 243.268)" fill="#3d3d3d"/>
          <path id="Tracé_133" data-name="Tracé 133" d="M106.153-59.945h4.07v4.07h-4.07Z" transform="translate(-73.592 206.471)" fill="#3d3d3d"/>
          <path id="Tracé_134" data-name="Tracé 134" d="M119.422-484.556h4.07v4.07h-4.07Z" transform="translate(-82.79 500.837)" fill="#3d3d3d"/>
          <path id="Tracé_135" data-name="Tracé 135" d="M119.422-404.942h4.07v4.07h-4.07Z" transform="translate(-82.79 445.644)" fill="#3d3d3d"/>
          <path id="Tracé_136" data-name="Tracé 136" d="M119.422-378.4h4.07v4.07h-4.07Z" transform="translate(-82.79 427.245)" fill="#3d3d3d"/>
          <path id="Tracé_137" data-name="Tracé 137" d="M119.422-351.865h4.07v4.07h-4.07Z" transform="translate(-82.79 408.848)" fill="#3d3d3d"/>
          <path id="Tracé_138" data-name="Tracé 138" d="M119.422-325.327h4.07v4.07h-4.07Z" transform="translate(-82.79 390.45)" fill="#3d3d3d"/>
          <path id="Tracé_139" data-name="Tracé 139" d="M119.422-272.251h4.07v4.07h-4.07Z" transform="translate(-82.79 353.655)" fill="#3d3d3d"/>
          <path id="Tracé_140" data-name="Tracé 140" d="M119.422-245.713h4.07v16.281h-4.07Z" transform="translate(-82.79 335.257)" fill="#3d3d3d"/>
          <path id="Tracé_141" data-name="Tracé 141" d="M119.422-192.636h4.07v4.07h-4.07Z" transform="translate(-82.79 298.461)" fill="#3d3d3d"/>
          <path id="Tracé_142" data-name="Tracé 142" d="M119.422-139.56h4.07v4.07h-4.07Z" transform="translate(-82.79 261.665)" fill="#3d3d3d"/>
          <path id="Tracé_143" data-name="Tracé 143" d="M119.422-59.945h4.07v4.07h-4.07Z" transform="translate(-82.79 206.471)" fill="#3d3d3d"/>
          <path id="Tracé_144" data-name="Tracé 144" d="M132.691-484.556h4.07v12.21h-4.07Z" transform="translate(-91.989 500.837)" fill="#3d3d3d"/>
          <path id="Tracé_145" data-name="Tracé 145" d="M132.691-444.749h4.07v16.281h-4.07Z" transform="translate(-91.989 473.24)" fill="#3d3d3d"/>
          <path id="Tracé_146" data-name="Tracé 146" d="M132.691-378.4h4.07v4.07h-4.07Z" transform="translate(-91.989 427.245)" fill="#3d3d3d"/>
          <path id="Tracé_147" data-name="Tracé 147" d="M132.691-351.865h4.07v4.07h-4.07Z" transform="translate(-91.989 408.848)" fill="#3d3d3d"/>
          <path id="Tracé_148" data-name="Tracé 148" d="M132.691-325.327h4.07v4.07h-4.07Z" transform="translate(-91.989 390.45)" fill="#3d3d3d"/>
          <path id="Tracé_149" data-name="Tracé 149" d="M132.691-298.789h4.07v4.07h-4.07Z" transform="translate(-91.989 372.052)" fill="#3d3d3d"/>
          <path id="Tracé_150" data-name="Tracé 150" d="M132.691-272.251h4.07v4.07h-4.07Z" transform="translate(-91.989 353.655)" fill="#3d3d3d"/>
          <path id="Tracé_151" data-name="Tracé 151" d="M132.691-245.713h4.07v4.07h-4.07Z" transform="translate(-91.989 335.257)" fill="#3d3d3d"/>
          <path id="Tracé_152" data-name="Tracé 152" d="M132.691-219.174h4.07v4.07h-4.07Z" transform="translate(-91.989 316.858)" fill="#3d3d3d"/>
          <path id="Tracé_153" data-name="Tracé 153" d="M132.691-192.636h4.07v4.07h-4.07Z" transform="translate(-91.989 298.461)" fill="#3d3d3d"/>
          <path id="Tracé_154" data-name="Tracé 154" d="M132.691-166.1h4.07v4.07h-4.07Z" transform="translate(-91.989 280.063)" fill="#3d3d3d"/>
          <path id="Tracé_155" data-name="Tracé 155" d="M132.691-139.56h4.07v20.351h-4.07Z" transform="translate(-91.989 261.665)" fill="#3d3d3d"/>
          <path id="Tracé_156" data-name="Tracé 156" d="M132.691-73.214h4.07v8.14h-4.07Z" transform="translate(-91.989 215.67)" fill="#3d3d3d"/>
          <path id="Tracé_157" data-name="Tracé 157" d="M145.96-312.058h4.07v8.14h-4.07Z" transform="translate(-101.188 381.251)" fill="#3d3d3d"/>
          <path id="Tracé_158" data-name="Tracé 158" d="M145.96-245.713h4.07v4.07h-4.07Z" transform="translate(-101.188 335.257)" fill="#3d3d3d"/>
          <path id="Tracé_159" data-name="Tracé 159" d="M145.96-219.174h4.07v8.14h-4.07Z" transform="translate(-101.188 316.858)" fill="#3d3d3d"/>
          <path id="Tracé_160" data-name="Tracé 160" d="M145.96-192.636h4.07v8.14h-4.07Z" transform="translate(-101.188 298.461)" fill="#3d3d3d"/>
          <path id="Tracé_161" data-name="Tracé 161" d="M159.229-418.211h4.07v8.14h-4.07Z" transform="translate(-110.387 454.843)" fill="#3d3d3d"/>
          <path id="Tracé_162" data-name="Tracé 162" d="M159.229-378.4h4.07v8.14h-4.07Z" transform="translate(-110.387 427.245)" fill="#3d3d3d"/>
          <path id="Tracé_163" data-name="Tracé 163" d="M159.229-325.327h4.07v4.07h-4.07Z" transform="translate(-110.387 390.45)" fill="#3d3d3d"/>
          <path id="Tracé_164" data-name="Tracé 164" d="M159.229-219.174h4.07v4.07h-4.07Z" transform="translate(-110.387 316.858)" fill="#3d3d3d"/>
          <path id="Tracé_165" data-name="Tracé 165" d="M159.229-179.367h4.07v4.07h-4.07Z" transform="translate(-110.387 289.262)" fill="#3d3d3d"/>
          <path id="Tracé_166" data-name="Tracé 166" d="M159.229-152.829h4.07v4.07h-4.07Z" transform="translate(-110.387 270.864)" fill="#3d3d3d"/>
          <path id="Tracé_167" data-name="Tracé 167" d="M159.229-126.291h4.07v4.07h-4.07Z" transform="translate(-110.387 252.466)" fill="#3d3d3d"/>
          <path id="Tracé_168" data-name="Tracé 168" d="M159.229-99.753h4.07v4.07h-4.07Z" transform="translate(-110.387 234.069)" fill="#3d3d3d"/>
          <path id="Tracé_169" data-name="Tracé 169" d="M159.229-59.945h4.07v4.07h-4.07Z" transform="translate(-110.387 206.471)" fill="#3d3d3d"/>
          <path id="Tracé_170" data-name="Tracé 170" d="M172.5-484.556h4.07v4.07H172.5Z" transform="translate(-119.586 500.837)" fill="#3d3d3d"/>
          <path id="Tracé_171" data-name="Tracé 171" d="M172.5-444.749h4.07v4.07H172.5Z" transform="translate(-119.586 473.24)" fill="#3d3d3d"/>
          <path id="Tracé_172" data-name="Tracé 172" d="M172.5-418.211h4.07v4.07H172.5Z" transform="translate(-119.586 454.843)" fill="#3d3d3d"/>
          <path id="Tracé_173" data-name="Tracé 173" d="M172.5-391.673h4.07v8.14H172.5Z" transform="translate(-119.586 436.445)" fill="#3d3d3d"/>
          <path id="Tracé_174" data-name="Tracé 174" d="M172.5-338.6h4.07v12.21H172.5Z" transform="translate(-119.586 399.649)" fill="#3d3d3d"/>
          <path id="Tracé_175" data-name="Tracé 175" d="M172.5-285.52h4.07v4.07H172.5Z" transform="translate(-119.586 362.853)" fill="#3d3d3d"/>
          <path id="Tracé_176" data-name="Tracé 176" d="M172.5-258.982h4.07v12.21H172.5Z" transform="translate(-119.586 344.456)" fill="#3d3d3d"/>
          <path id="Tracé_177" data-name="Tracé 177" d="M172.5-205.9h4.07v4.07H172.5Z" transform="translate(-119.586 307.66)" fill="#3d3d3d"/>
          <path id="Tracé_178" data-name="Tracé 178" d="M172.5-179.367h4.07v4.07H172.5Z" transform="translate(-119.586 289.262)" fill="#3d3d3d"/>
          <path id="Tracé_179" data-name="Tracé 179" d="M172.5-139.56h4.07v20.351H172.5Z" transform="translate(-119.586 261.665)" fill="#3d3d3d"/>
          <path id="Tracé_180" data-name="Tracé 180" d="M172.5-73.214h4.07v8.14H172.5Z" transform="translate(-119.586 215.67)" fill="#3d3d3d"/>
          <path id="Tracé_181" data-name="Tracé 181" d="M185.767-458.018h4.07v4.07h-4.07Z" transform="translate(-128.785 482.439)" fill="#3d3d3d"/>
          <path id="Tracé_182" data-name="Tracé 182" d="M185.767-418.211h4.07v8.14h-4.07Z" transform="translate(-128.785 454.843)" fill="#3d3d3d"/>
          <path id="Tracé_183" data-name="Tracé 183" d="M185.767-378.4h4.07v4.07h-4.07Z" transform="translate(-128.785 427.245)" fill="#3d3d3d"/>
          <path id="Tracé_184" data-name="Tracé 184" d="M185.767-351.865h4.07v4.07h-4.07Z" transform="translate(-128.785 408.848)" fill="#3d3d3d"/>
          <path id="Tracé_185" data-name="Tracé 185" d="M185.767-312.058h4.07v20.351h-4.07Z" transform="translate(-128.785 381.251)" fill="#3d3d3d"/>
          <path id="Tracé_186" data-name="Tracé 186" d="M185.767-232.444h4.07v4.07h-4.07Z" transform="translate(-128.785 326.058)" fill="#3d3d3d"/>
          <path id="Tracé_187" data-name="Tracé 187" d="M185.767-205.9h4.07v4.07h-4.07Z" transform="translate(-128.785 307.66)" fill="#3d3d3d"/>
          <path id="Tracé_188" data-name="Tracé 188" d="M185.767-192.636h4.07v4.07h-4.07Z" transform="translate(-128.785 298.461)" fill="#3d3d3d"/>
          <path id="Tracé_189" data-name="Tracé 189" d="M185.767-152.829h4.07v4.07h-4.07Z" transform="translate(-128.785 270.864)" fill="#3d3d3d"/>
          <path id="Tracé_190" data-name="Tracé 190" d="M185.767-139.56h4.07v20.351h-4.07Z" transform="translate(-128.785 261.665)" fill="#3d3d3d"/>
          <path id="Tracé_191" data-name="Tracé 191" d="M185.767-73.214h4.07v8.14h-4.07Z" transform="translate(-128.785 215.67)" fill="#3d3d3d"/>
          <path id="Tracé_192" data-name="Tracé 192" d="M199.036-378.4h4.07v4.07h-4.07Z" transform="translate(-137.983 427.245)" fill="#3d3d3d"/>
          <path id="Tracé_193" data-name="Tracé 193" d="M199.036-325.327h4.07v8.14h-4.07Z" transform="translate(-137.983 390.45)" fill="#3d3d3d"/>
          <path id="Tracé_194" data-name="Tracé 194" d="M199.036-272.251h4.07v4.07h-4.07Z" transform="translate(-137.983 353.655)" fill="#3d3d3d"/>
          <path id="Tracé_195" data-name="Tracé 195" d="M199.036-245.713h4.07v12.21h-4.07Z" transform="translate(-137.983 335.257)" fill="#3d3d3d"/>
          <path id="Tracé_196" data-name="Tracé 196" d="M199.036-179.367h4.07v8.14h-4.07Z" transform="translate(-137.983 289.262)" fill="#3d3d3d"/>
          <path id="Tracé_197" data-name="Tracé 197" d="M199.036-126.291h4.07v4.07h-4.07Z" transform="translate(-137.983 252.466)" fill="#3d3d3d"/>
          <path id="Tracé_198" data-name="Tracé 198" d="M199.036-59.945h4.07v4.07h-4.07Z" transform="translate(-137.983 206.471)" fill="#3d3d3d"/>
          <path id="Tracé_199" data-name="Tracé 199" d="M212.306-404.942h4.07v4.07h-4.07Z" transform="translate(-147.183 445.644)" fill="#3d3d3d"/>
          <path id="Tracé_200" data-name="Tracé 200" d="M212.306-378.4h4.07v8.14h-4.07Z" transform="translate(-147.183 427.245)" fill="#3d3d3d"/>
          <path id="Tracé_201" data-name="Tracé 201" d="M212.306-338.6h4.07v4.07h-4.07Z" transform="translate(-147.183 399.649)" fill="#3d3d3d"/>
          <path id="Tracé_202" data-name="Tracé 202" d="M212.306-298.789h4.07v4.07h-4.07Z" transform="translate(-147.183 372.052)" fill="#3d3d3d"/>
          <path id="Tracé_203" data-name="Tracé 203" d="M212.306-139.56h4.07v8.14h-4.07Z" transform="translate(-147.183 261.665)" fill="#3d3d3d"/>
          <path id="Tracé_204" data-name="Tracé 204" d="M212.306-73.214h4.07v8.14h-4.07Z" transform="translate(-147.183 215.67)" fill="#3d3d3d"/>
          <path id="Tracé_205" data-name="Tracé 205" d="M225.575-484.556h4.07v12.21h-4.07Z" transform="translate(-156.382 500.837)" fill="#3d3d3d"/>
          <path id="Tracé_206" data-name="Tracé 206" d="M225.575-444.749h4.07v12.21h-4.07Z" transform="translate(-156.382 473.24)" fill="#3d3d3d"/>
          <path id="Tracé_207" data-name="Tracé 207" d="M225.575-378.4h4.07v16.281h-4.07Z" transform="translate(-156.382 427.245)" fill="#3d3d3d"/>
          <path id="Tracé_208" data-name="Tracé 208" d="M225.575-312.058h4.07v8.14h-4.07Z" transform="translate(-156.382 381.251)" fill="#3d3d3d"/>
          <path id="Tracé_209" data-name="Tracé 209" d="M225.575-272.251h4.07v8.14h-4.07Z" transform="translate(-156.382 353.655)" fill="#3d3d3d"/>
          <path id="Tracé_210" data-name="Tracé 210" d="M225.575-219.174h4.07v4.07h-4.07Z" transform="translate(-156.382 316.858)" fill="#3d3d3d"/>
          <path id="Tracé_211" data-name="Tracé 211" d="M225.575-192.636h4.07v8.14h-4.07Z" transform="translate(-156.382 298.461)" fill="#3d3d3d"/>
          <path id="Tracé_212" data-name="Tracé 212" d="M225.575-152.829h4.07v4.07h-4.07Z" transform="translate(-156.382 270.864)" fill="#3d3d3d"/>
          <path id="Tracé_213" data-name="Tracé 213" d="M225.575-139.56h4.07v4.07h-4.07Z" transform="translate(-156.382 261.665)" fill="#3d3d3d"/>
          <path id="Tracé_214" data-name="Tracé 214" d="M225.575-113.022h4.07v4.07h-4.07Z" transform="translate(-156.382 243.268)" fill="#3d3d3d"/>
          <path id="Tracé_215" data-name="Tracé 215" d="M225.575-86.483h4.07v4.07h-4.07Z" transform="translate(-156.382 224.869)" fill="#3d3d3d"/>
          <path id="Tracé_216" data-name="Tracé 216" d="M225.575-73.214h4.07v8.14h-4.07Z" transform="translate(-156.382 215.67)" fill="#3d3d3d"/>
          <path id="Tracé_217" data-name="Tracé 217" d="M238.844-484.556h4.07v8.14h-4.07Z" transform="translate(-165.581 500.837)" fill="#3d3d3d"/>
          <path id="Tracé_218" data-name="Tracé 218" d="M238.844-444.749h4.07v8.14h-4.07Z" transform="translate(-165.581 473.24)" fill="#3d3d3d"/>
          <path id="Tracé_219" data-name="Tracé 219" d="M238.844-404.942h4.07v12.211h-4.07Z" transform="translate(-165.581 445.644)" fill="#3d3d3d"/>
          <path id="Tracé_220" data-name="Tracé 220" d="M238.844-351.865h4.07v4.07h-4.07Z" transform="translate(-165.581 408.848)" fill="#3d3d3d"/>
          <path id="Tracé_221" data-name="Tracé 221" d="M238.844-325.327h4.07v8.14h-4.07Z" transform="translate(-165.581 390.45)" fill="#3d3d3d"/>
          <path id="Tracé_222" data-name="Tracé 222" d="M238.844-272.251h4.07v4.07h-4.07Z" transform="translate(-165.581 353.655)" fill="#3d3d3d"/>
          <path id="Tracé_223" data-name="Tracé 223" d="M238.844-245.713h4.07v8.14h-4.07Z" transform="translate(-165.581 335.257)" fill="#3d3d3d"/>
          <path id="Tracé_224" data-name="Tracé 224" d="M238.844-205.9h4.07v4.07h-4.07Z" transform="translate(-165.581 307.66)" fill="#3d3d3d"/>
          <path id="Tracé_225" data-name="Tracé 225" d="M238.844-192.636h4.07v4.07h-4.07Z" transform="translate(-165.581 298.461)" fill="#3d3d3d"/>
          <path id="Tracé_226" data-name="Tracé 226" d="M238.844-166.1h4.07v4.07h-4.07Z" transform="translate(-165.581 280.063)" fill="#3d3d3d"/>
          <path id="Tracé_227" data-name="Tracé 227" d="M238.844-139.56h4.07v8.14h-4.07Z" transform="translate(-165.581 261.665)" fill="#3d3d3d"/>
          <path id="Tracé_228" data-name="Tracé 228" d="M238.844-86.483h4.07v4.07h-4.07Z" transform="translate(-165.581 224.869)" fill="#3d3d3d"/>
          <path id="Tracé_229" data-name="Tracé 229" d="M238.844-59.945h4.07v4.07h-4.07Z" transform="translate(-165.581 206.471)" fill="#3d3d3d"/>
          <path id="Tracé_230" data-name="Tracé 230" d="M252.113-484.556h4.07v12.21h-4.07Z" transform="translate(-174.78 500.837)" fill="#3d3d3d"/>
          <path id="Tracé_231" data-name="Tracé 231" d="M252.113-418.211h4.07v4.07h-4.07Z" transform="translate(-174.78 454.843)" fill="#3d3d3d"/>
          <path id="Tracé_232" data-name="Tracé 232" d="M252.113-391.673h4.07v4.07h-4.07Z" transform="translate(-174.78 436.445)" fill="#3d3d3d"/>
          <path id="Tracé_233" data-name="Tracé 233" d="M252.113-325.327h4.07v12.21h-4.07Z" transform="translate(-174.78 390.45)" fill="#3d3d3d"/>
          <path id="Tracé_234" data-name="Tracé 234" d="M252.113-272.251h4.07v4.07h-4.07Z" transform="translate(-174.78 353.655)" fill="#3d3d3d"/>
          <path id="Tracé_235" data-name="Tracé 235" d="M252.113-232.444h4.07v4.07h-4.07Z" transform="translate(-174.78 326.058)" fill="#3d3d3d"/>
          <path id="Tracé_236" data-name="Tracé 236" d="M252.113-205.9h4.07v4.07h-4.07Z" transform="translate(-174.78 307.66)" fill="#3d3d3d"/>
          <path id="Tracé_237" data-name="Tracé 237" d="M252.113-179.367h4.07v4.07h-4.07Z" transform="translate(-174.78 289.262)" fill="#3d3d3d"/>
          <path id="Tracé_238" data-name="Tracé 238" d="M252.113-126.291h4.07v16.281h-4.07Z" transform="translate(-174.78 252.466)" fill="#3d3d3d"/>
          <path id="Tracé_239" data-name="Tracé 239" d="M252.113-59.945h4.07v4.07h-4.07Z" transform="translate(-174.78 206.471)" fill="#3d3d3d"/>
          <path id="Tracé_240" data-name="Tracé 240" d="M265.382-471.287h4.07v4.07h-4.07Z" transform="translate(-183.979 491.638)" fill="#3d3d3d"/>
          <path id="Tracé_241" data-name="Tracé 241" d="M265.382-444.749h4.07v4.07h-4.07Z" transform="translate(-183.979 473.24)" fill="#3d3d3d"/>
          <path id="Tracé_242" data-name="Tracé 242" d="M265.382-418.211h4.07v20.351h-4.07Z" transform="translate(-183.979 454.843)" fill="#3d3d3d"/>
          <path id="Tracé_243" data-name="Tracé 243" d="M265.382-338.6h4.07v8.14h-4.07Z" transform="translate(-183.979 399.649)" fill="#3d3d3d"/>
          <path id="Tracé_244" data-name="Tracé 244" d="M265.382-298.789h4.07v8.14h-4.07Z" transform="translate(-183.979 372.052)" fill="#3d3d3d"/>
          <path id="Tracé_245" data-name="Tracé 245" d="M265.382-258.982h4.07v4.07h-4.07Z" transform="translate(-183.979 344.456)" fill="#3d3d3d"/>
          <path id="Tracé_246" data-name="Tracé 246" d="M265.382-232.444h4.07v4.07h-4.07Z" transform="translate(-183.979 326.058)" fill="#3d3d3d"/>
          <path id="Tracé_247" data-name="Tracé 247" d="M265.382-192.636h4.07v4.07h-4.07Z" transform="translate(-183.979 298.461)" fill="#3d3d3d"/>
          <path id="Tracé_248" data-name="Tracé 248" d="M265.382-166.1h4.07v4.07h-4.07Z" transform="translate(-183.979 280.063)" fill="#3d3d3d"/>
          <path id="Tracé_249" data-name="Tracé 249" d="M265.382-139.56h4.07v4.07h-4.07Z" transform="translate(-183.979 261.665)" fill="#3d3d3d"/>
          <path id="Tracé_250" data-name="Tracé 250" d="M265.382-99.753h4.07v8.14h-4.07Z" transform="translate(-183.979 234.069)" fill="#3d3d3d"/>
          <path id="Tracé_251" data-name="Tracé 251" d="M265.382-59.945h4.07v4.07h-4.07Z" transform="translate(-183.979 206.471)" fill="#3d3d3d"/>
          <path id="Tracé_252" data-name="Tracé 252" d="M278.651-471.287h4.07v8.14h-4.07Z" transform="translate(-193.177 491.638)" fill="#3d3d3d"/>
          <path id="Tracé_253" data-name="Tracé 253" d="M278.651-431.48h4.07v8.14h-4.07Z" transform="translate(-193.177 464.041)" fill="#3d3d3d"/>
          <path id="Tracé_254" data-name="Tracé 254" d="M278.651-391.673h4.07v4.07h-4.07Z" transform="translate(-193.177 436.445)" fill="#3d3d3d"/>
          <path id="Tracé_255" data-name="Tracé 255" d="M278.651-351.865h4.07v4.07h-4.07Z" transform="translate(-193.177 408.848)" fill="#3d3d3d"/>
          <path id="Tracé_256" data-name="Tracé 256" d="M278.651-298.789h4.07v12.21h-4.07Z" transform="translate(-193.177 372.052)" fill="#3d3d3d"/>
          <path id="Tracé_257" data-name="Tracé 257" d="M278.651-245.713h4.07v12.21h-4.07Z" transform="translate(-193.177 335.257)" fill="#3d3d3d"/>
          <path id="Tracé_258" data-name="Tracé 258" d="M278.651-192.636h4.07v4.07h-4.07Z" transform="translate(-193.177 298.461)" fill="#3d3d3d"/>
          <path id="Tracé_259" data-name="Tracé 259" d="M278.651-166.1h4.07v8.14h-4.07Z" transform="translate(-193.177 280.063)" fill="#3d3d3d"/>
          <path id="Tracé_260" data-name="Tracé 260" d="M278.651-139.56h4.07v8.14h-4.07Z" transform="translate(-193.177 261.665)" fill="#3d3d3d"/>
          <path id="Tracé_261" data-name="Tracé 261" d="M278.651-86.483h4.07v4.07h-4.07Z" transform="translate(-193.177 224.869)" fill="#3d3d3d"/>
          <path id="Tracé_262" data-name="Tracé 262" d="M278.651-73.214h4.07v4.07h-4.07Z" transform="translate(-193.177 215.67)" fill="#3d3d3d"/>
          <path id="Tracé_263" data-name="Tracé 263" d="M291.92-484.556h4.07v4.07h-4.07Z" transform="translate(-202.376 500.837)" fill="#3d3d3d"/>
          <path id="Tracé_264" data-name="Tracé 264" d="M291.92-458.018h4.07v4.07h-4.07Z" transform="translate(-202.376 482.439)" fill="#3d3d3d"/>
          <path id="Tracé_265" data-name="Tracé 265" d="M291.92-444.749h4.07V-424.4h-4.07Z" transform="translate(-202.376 473.24)" fill="#3d3d3d"/>
          <path id="Tracé_266" data-name="Tracé 266" d="M291.92-285.52h4.07v8.14h-4.07Z" transform="translate(-202.376 362.853)" fill="#3d3d3d"/>
          <path id="Tracé_267" data-name="Tracé 267" d="M291.92-245.713h4.07v8.14h-4.07Z" transform="translate(-202.376 335.257)" fill="#3d3d3d"/>
          <path id="Tracé_268" data-name="Tracé 268" d="M291.92-205.9h4.07v4.07h-4.07Z" transform="translate(-202.376 307.66)" fill="#3d3d3d"/>
          <path id="Tracé_269" data-name="Tracé 269" d="M291.92-179.367h4.07v4.07h-4.07Z" transform="translate(-202.376 289.262)" fill="#3d3d3d"/>
          <path id="Tracé_270" data-name="Tracé 270" d="M291.92-139.56h4.07v12.21h-4.07Z" transform="translate(-202.376 261.665)" fill="#3d3d3d"/>
          <path id="Tracé_271" data-name="Tracé 271" d="M291.92-86.483h4.07v4.07h-4.07Z" transform="translate(-202.376 224.869)" fill="#3d3d3d"/>
          <path id="Tracé_272" data-name="Tracé 272" d="M291.92-73.214h4.07v4.07h-4.07Z" transform="translate(-202.376 215.67)" fill="#3d3d3d"/>
          <path id="Tracé_273" data-name="Tracé 273" d="M305.189-484.556h4.07v4.07h-4.07Z" transform="translate(-211.575 500.837)" fill="#3d3d3d"/>
          <path id="Tracé_274" data-name="Tracé 274" d="M305.189-458.018h4.07v4.07h-4.07Z" transform="translate(-211.575 482.439)" fill="#3d3d3d"/>
          <path id="Tracé_275" data-name="Tracé 275" d="M305.189-444.749h4.07v4.07h-4.07Z" transform="translate(-211.575 473.24)" fill="#3d3d3d"/>
          <path id="Tracé_276" data-name="Tracé 276" d="M305.189-418.211h4.07v4.07h-4.07Z" transform="translate(-211.575 454.843)" fill="#3d3d3d"/>
          <path id="Tracé_277" data-name="Tracé 277" d="M305.189-351.865h4.07v4.07h-4.07Z" transform="translate(-211.575 408.848)" fill="#3d3d3d"/>
          <path id="Tracé_278" data-name="Tracé 278" d="M305.189-325.327h4.07v8.14h-4.07Z" transform="translate(-211.575 390.45)" fill="#3d3d3d"/>
          <path id="Tracé_279" data-name="Tracé 279" d="M305.189-285.52h4.07v8.14h-4.07Z" transform="translate(-211.575 362.853)" fill="#3d3d3d"/>
          <path id="Tracé_280" data-name="Tracé 280" d="M305.189-192.636h4.07v4.07h-4.07Z" transform="translate(-211.575 298.461)" fill="#3d3d3d"/>
          <path id="Tracé_281" data-name="Tracé 281" d="M305.189-152.829h4.07v4.07h-4.07Z" transform="translate(-211.575 270.864)" fill="#3d3d3d"/>
          <path id="Tracé_282" data-name="Tracé 282" d="M305.189-113.022h4.07v8.14h-4.07Z" transform="translate(-211.575 243.268)" fill="#3d3d3d"/>
          <path id="Tracé_283" data-name="Tracé 283" d="M305.189-73.214h4.07v4.07h-4.07Z" transform="translate(-211.575 215.67)" fill="#3d3d3d"/>
          <path id="Tracé_284" data-name="Tracé 284" d="M318.458-471.287h4.07v4.07h-4.07Z" transform="translate(-220.774 491.638)" fill="#3d3d3d"/>
          <path id="Tracé_285" data-name="Tracé 285" d="M318.458-444.749h4.07v4.07h-4.07Z" transform="translate(-220.774 473.24)" fill="#3d3d3d"/>
          <path id="Tracé_286" data-name="Tracé 286" d="M318.458-404.942h4.07v4.07h-4.07Z" transform="translate(-220.774 445.644)" fill="#3d3d3d"/>
          <path id="Tracé_287" data-name="Tracé 287" d="M318.458-365.135h4.07v8.14h-4.07Z" transform="translate(-220.774 418.047)" fill="#3d3d3d"/>
          <path id="Tracé_288" data-name="Tracé 288" d="M318.458-298.789h4.07v16.281h-4.07Z" transform="translate(-220.774 372.052)" fill="#3d3d3d"/>
          <path id="Tracé_289" data-name="Tracé 289" d="M318.458-232.444h4.07v8.14h-4.07Z" transform="translate(-220.774 326.058)" fill="#3d3d3d"/>
          <path id="Tracé_290" data-name="Tracé 290" d="M318.458-166.1h4.07v8.14h-4.07Z" transform="translate(-220.774 280.063)" fill="#3d3d3d"/>
          <path id="Tracé_291" data-name="Tracé 291" d="M331.727-484.556h4.07v8.14h-4.07Z" transform="translate(-229.973 500.837)" fill="#3d3d3d"/>
          <path id="Tracé_292" data-name="Tracé 292" d="M331.727-431.48h4.07v4.07h-4.07Z" transform="translate(-229.973 464.041)" fill="#3d3d3d"/>
          <path id="Tracé_293" data-name="Tracé 293" d="M331.727-391.673h4.07v8.14h-4.07Z" transform="translate(-229.973 436.445)" fill="#3d3d3d"/>
          <path id="Tracé_294" data-name="Tracé 294" d="M331.727-351.865h4.07v8.14h-4.07Z" transform="translate(-229.973 408.848)" fill="#3d3d3d"/>
          <path id="Tracé_295" data-name="Tracé 295" d="M331.727-312.058h4.07v4.07h-4.07Z" transform="translate(-229.973 381.251)" fill="#3d3d3d"/>
          <path id="Tracé_296" data-name="Tracé 296" d="M331.727-285.52h4.07v20.351h-4.07Z" transform="translate(-229.973 362.853)" fill="#3d3d3d"/>
          <path id="Tracé_297" data-name="Tracé 297" d="M331.727-205.9h4.07v4.07h-4.07Z" transform="translate(-229.973 307.66)" fill="#3d3d3d"/>
          <path id="Tracé_298" data-name="Tracé 298" d="M331.727-179.367h4.07v12.21h-4.07Z" transform="translate(-229.973 289.262)" fill="#3d3d3d"/>
          <path id="Tracé_299" data-name="Tracé 299" d="M331.727-139.56h4.07v8.14h-4.07Z" transform="translate(-229.973 261.665)" fill="#3d3d3d"/>
          <path id="Tracé_300" data-name="Tracé 300" d="M331.727-99.753h4.07v4.07h-4.07Z" transform="translate(-229.973 234.069)" fill="#3d3d3d"/>
          <path id="Tracé_301" data-name="Tracé 301" d="M331.727-73.214h4.07v8.14h-4.07Z" transform="translate(-229.973 215.67)" fill="#3d3d3d"/>
          <path id="Tracé_302" data-name="Tracé 302" d="M345-484.556h4.07v12.21H345Z" transform="translate(-239.172 500.837)" fill="#3d3d3d"/>
          <path id="Tracé_303" data-name="Tracé 303" d="M345-444.749h4.07v4.07H345Z" transform="translate(-239.172 473.24)" fill="#3d3d3d"/>
          <path id="Tracé_304" data-name="Tracé 304" d="M345-418.211h4.07v8.14H345Z" transform="translate(-239.172 454.843)" fill="#3d3d3d"/>
          <path id="Tracé_305" data-name="Tracé 305" d="M345-365.135h4.07v4.07H345Z" transform="translate(-239.172 418.047)" fill="#3d3d3d"/>
          <path id="Tracé_306" data-name="Tracé 306" d="M345-312.058h4.07v4.07H345Z" transform="translate(-239.172 381.251)" fill="#3d3d3d"/>
          <path id="Tracé_307" data-name="Tracé 307" d="M345-285.52h4.07v12.21H345Z" transform="translate(-239.172 362.853)" fill="#3d3d3d"/>
          <path id="Tracé_308" data-name="Tracé 308" d="M345-205.9h4.07v4.07H345Z" transform="translate(-239.172 307.66)" fill="#3d3d3d"/>
          <path id="Tracé_309" data-name="Tracé 309" d="M345-192.636h4.07v4.07H345Z" transform="translate(-239.172 298.461)" fill="#3d3d3d"/>
          <path id="Tracé_310" data-name="Tracé 310" d="M345-139.56h4.07v16.281H345Z" transform="translate(-239.172 261.665)" fill="#3d3d3d"/>
          <path id="Tracé_311" data-name="Tracé 311" d="M358.266-484.556h4.07v12.21h-4.07Z" transform="translate(-248.371 500.837)" fill="#3d3d3d"/>
          <path id="Tracé_312" data-name="Tracé 312" d="M358.266-431.48h4.07v4.07h-4.07Z" transform="translate(-248.371 464.041)" fill="#3d3d3d"/>
          <path id="Tracé_313" data-name="Tracé 313" d="M358.266-391.673h4.07v4.07h-4.07Z" transform="translate(-248.371 436.445)" fill="#3d3d3d"/>
          <path id="Tracé_314" data-name="Tracé 314" d="M358.266-338.6h4.07v20.351h-4.07Z" transform="translate(-248.371 399.649)" fill="#3d3d3d"/>
          <path id="Tracé_315" data-name="Tracé 315" d="M358.266-258.982h4.07v4.07h-4.07Z" transform="translate(-248.371 344.456)" fill="#3d3d3d"/>
          <path id="Tracé_316" data-name="Tracé 316" d="M358.266-219.174h4.07v4.07h-4.07Z" transform="translate(-248.371 316.858)" fill="#3d3d3d"/>
          <path id="Tracé_317" data-name="Tracé 317" d="M358.266-166.1h4.07v4.07h-4.07Z" transform="translate(-248.371 280.063)" fill="#3d3d3d"/>
          <path id="Tracé_318" data-name="Tracé 318" d="M358.266-99.753h4.07v8.14h-4.07Z" transform="translate(-248.371 234.069)" fill="#3d3d3d"/>
          <path id="Tracé_319" data-name="Tracé 319" d="M358.266-59.945h4.07v4.07h-4.07Z" transform="translate(-248.371 206.471)" fill="#3d3d3d"/>
          <path id="Tracé_320" data-name="Tracé 320" d="M371.535-471.287h4.07v8.14h-4.07Z" transform="translate(-257.57 491.638)" fill="#3d3d3d"/>
          <path id="Tracé_321" data-name="Tracé 321" d="M371.535-444.749h4.07v8.14h-4.07Z" transform="translate(-257.57 473.24)" fill="#3d3d3d"/>
          <path id="Tracé_322" data-name="Tracé 322" d="M371.535-404.942h4.07v8.14h-4.07Z" transform="translate(-257.57 445.644)" fill="#3d3d3d"/>
          <path id="Tracé_323" data-name="Tracé 323" d="M371.535-365.135h4.07v20.351h-4.07Z" transform="translate(-257.57 418.047)" fill="#3d3d3d"/>
          <path id="Tracé_324" data-name="Tracé 324" d="M371.535-272.251h4.07v4.07h-4.07Z" transform="translate(-257.57 353.655)" fill="#3d3d3d"/>
          <path id="Tracé_325" data-name="Tracé 325" d="M371.535-232.444h4.07v4.07h-4.07Z" transform="translate(-257.57 326.058)" fill="#3d3d3d"/>
          <path id="Tracé_326" data-name="Tracé 326" d="M371.535-205.9h4.07v4.07h-4.07Z" transform="translate(-257.57 307.66)" fill="#3d3d3d"/>
          <path id="Tracé_327" data-name="Tracé 327" d="M371.535-166.1h4.07v8.14h-4.07Z" transform="translate(-257.57 280.063)" fill="#3d3d3d"/>
          <path id="Tracé_328" data-name="Tracé 328" d="M371.535-139.56h4.07v20.351h-4.07Z" transform="translate(-257.57 261.665)" fill="#3d3d3d"/>
          <path id="Tracé_329" data-name="Tracé 329" d="M371.535-73.214h4.07v8.14h-4.07Z" transform="translate(-257.57 215.67)" fill="#3d3d3d"/>
          <path id="Tracé_330" data-name="Tracé 330" d="M384.8-378.4h4.07v8.14H384.8Z" transform="translate(-266.769 427.245)" fill="#3d3d3d"/>
          <path id="Tracé_331" data-name="Tracé 331" d="M384.8-338.6h4.07v16.281H384.8Z" transform="translate(-266.769 399.649)" fill="#3d3d3d"/>
          <path id="Tracé_332" data-name="Tracé 332" d="M384.8-245.713h4.07v4.07H384.8Z" transform="translate(-266.769 335.257)" fill="#3d3d3d"/>
          <path id="Tracé_333" data-name="Tracé 333" d="M384.8-219.174h4.07v8.14H384.8Z" transform="translate(-266.769 316.858)" fill="#3d3d3d"/>
          <path id="Tracé_334" data-name="Tracé 334" d="M384.8-166.1h4.07v4.07H384.8Z" transform="translate(-266.769 280.063)" fill="#3d3d3d"/>
          <path id="Tracé_335" data-name="Tracé 335" d="M384.8-113.022h4.07v4.07H384.8Z" transform="translate(-266.769 243.268)" fill="#3d3d3d"/>
          <path id="Tracé_336" data-name="Tracé 336" d="M384.8-86.483h4.07v4.07H384.8Z" transform="translate(-266.769 224.869)" fill="#3d3d3d"/>
          <path id="Tracé_337" data-name="Tracé 337" d="M384.8-73.214h4.07v4.07H384.8Z" transform="translate(-266.769 215.67)" fill="#3d3d3d"/>
          <path id="Tracé_338" data-name="Tracé 338" d="M398.073-484.556h4.07v12.21h-4.07Z" transform="translate(-275.968 500.837)" fill="#3d3d3d"/>
          <path id="Tracé_339" data-name="Tracé 339" d="M398.073-444.749h4.07v16.281h-4.07Z" transform="translate(-275.968 473.24)" fill="#3d3d3d"/>
          <path id="Tracé_340" data-name="Tracé 340" d="M398.073-365.135h4.07v32.561h-4.07Z" transform="translate(-275.968 418.047)" fill="#3d3d3d"/>
          <path id="Tracé_341" data-name="Tracé 341" d="M398.073-245.713h4.07v8.14h-4.07Z" transform="translate(-275.968 335.257)" fill="#3d3d3d"/>
          <path id="Tracé_342" data-name="Tracé 342" d="M398.073-205.9h4.07v4.07h-4.07Z" transform="translate(-275.968 307.66)" fill="#3d3d3d"/>
          <path id="Tracé_343" data-name="Tracé 343" d="M398.073-192.636h4.07v4.07h-4.07Z" transform="translate(-275.968 298.461)" fill="#3d3d3d"/>
          <path id="Tracé_344" data-name="Tracé 344" d="M398.073-166.1h4.07v4.07h-4.07Z" transform="translate(-275.968 280.063)" fill="#3d3d3d"/>
          <path id="Tracé_345" data-name="Tracé 345" d="M398.073-139.56h4.07v4.07h-4.07Z" transform="translate(-275.968 261.665)" fill="#3d3d3d"/>
          <path id="Tracé_346" data-name="Tracé 346" d="M398.073-113.022h4.07v8.14h-4.07Z" transform="translate(-275.968 243.268)" fill="#3d3d3d"/>
          <path id="Tracé_347" data-name="Tracé 347" d="M411.342-484.556h4.07v4.07h-4.07Z" transform="translate(-285.167 500.837)" fill="#3d3d3d"/>
          <path id="Tracé_348" data-name="Tracé 348" d="M411.342-404.942h4.07v4.07h-4.07Z" transform="translate(-285.167 445.644)" fill="#3d3d3d"/>
          <path id="Tracé_349" data-name="Tracé 349" d="M411.342-378.4h4.07v12.21h-4.07Z" transform="translate(-285.167 427.245)" fill="#3d3d3d"/>
          <path id="Tracé_350" data-name="Tracé 350" d="M411.342-258.982h4.07v4.07h-4.07Z" transform="translate(-285.167 344.456)" fill="#3d3d3d"/>
          <path id="Tracé_351" data-name="Tracé 351" d="M411.342-232.444h4.07v12.21h-4.07Z" transform="translate(-285.167 326.058)" fill="#3d3d3d"/>
          <path id="Tracé_352" data-name="Tracé 352" d="M411.342-192.636h4.07v12.21h-4.07Z" transform="translate(-285.167 298.461)" fill="#3d3d3d"/>
          <path id="Tracé_353" data-name="Tracé 353" d="M411.342-113.022h4.07v4.07h-4.07Z" transform="translate(-285.167 243.268)" fill="#3d3d3d"/>
          <path id="Tracé_354" data-name="Tracé 354" d="M424.611-484.556h4.07v4.07h-4.07Z" transform="translate(-294.365 500.837)" fill="#3d3d3d"/>
          <path id="Tracé_355" data-name="Tracé 355" d="M424.611-458.018h4.07v4.07h-4.07Z" transform="translate(-294.365 482.439)" fill="#3d3d3d"/>
          <path id="Tracé_356" data-name="Tracé 356" d="M424.611-444.749h4.07v8.14h-4.07Z" transform="translate(-294.365 473.24)" fill="#3d3d3d"/>
          <path id="Tracé_357" data-name="Tracé 357" d="M424.611-404.942h4.07v4.07h-4.07Z" transform="translate(-294.365 445.644)" fill="#3d3d3d"/>
          <path id="Tracé_358" data-name="Tracé 358" d="M424.611-351.865h4.07v20.351h-4.07Z" transform="translate(-294.365 408.848)" fill="#3d3d3d"/>
          <path id="Tracé_359" data-name="Tracé 359" d="M424.611-272.251h4.07v4.07h-4.07Z" transform="translate(-294.365 353.655)" fill="#3d3d3d"/>
          <path id="Tracé_360" data-name="Tracé 360" d="M424.611-166.1h4.07v8.14h-4.07Z" transform="translate(-294.365 280.063)" fill="#3d3d3d"/>
          <path id="Tracé_361" data-name="Tracé 361" d="M424.611-139.56h4.07v20.351h-4.07Z" transform="translate(-294.365 261.665)" fill="#3d3d3d"/>
          <path id="Tracé_362" data-name="Tracé 362" d="M424.611-59.945h4.07v4.07h-4.07Z" transform="translate(-294.365 206.471)" fill="#3d3d3d"/>
          <path id="Tracé_363" data-name="Tracé 363" d="M437.88-484.556h4.07v4.07h-4.07Z" transform="translate(-303.564 500.837)" fill="#3d3d3d"/>
          <path id="Tracé_364" data-name="Tracé 364" d="M437.88-458.018h4.07v4.07h-4.07Z" transform="translate(-303.564 482.439)" fill="#3d3d3d"/>
          <path id="Tracé_365" data-name="Tracé 365" d="M437.88-444.749h4.07v8.14h-4.07Z" transform="translate(-303.564 473.24)" fill="#3d3d3d"/>
          <path id="Tracé_366" data-name="Tracé 366" d="M437.88-404.942h4.07v4.07h-4.07Z" transform="translate(-303.564 445.644)" fill="#3d3d3d"/>
          <path id="Tracé_367" data-name="Tracé 367" d="M437.88-338.6h4.07v12.21h-4.07Z" transform="translate(-303.564 399.649)" fill="#3d3d3d"/>
          <path id="Tracé_368" data-name="Tracé 368" d="M437.88-272.251h4.07v8.14h-4.07Z" transform="translate(-303.564 353.655)" fill="#3d3d3d"/>
          <path id="Tracé_369" data-name="Tracé 369" d="M437.88-205.9h4.07v4.07h-4.07Z" transform="translate(-303.564 307.66)" fill="#3d3d3d"/>
          <path id="Tracé_370" data-name="Tracé 370" d="M437.88-179.367h4.07v4.07h-4.07Z" transform="translate(-303.564 289.262)" fill="#3d3d3d"/>
          <path id="Tracé_371" data-name="Tracé 371" d="M437.88-152.829h4.07v4.07h-4.07Z" transform="translate(-303.564 270.864)" fill="#3d3d3d"/>
          <path id="Tracé_372" data-name="Tracé 372" d="M437.88-139.56h4.07v4.07h-4.07Z" transform="translate(-303.564 261.665)" fill="#3d3d3d"/>
          <path id="Tracé_373" data-name="Tracé 373" d="M437.88-113.022h4.07v4.07h-4.07Z" transform="translate(-303.564 243.268)" fill="#3d3d3d"/>
          <path id="Tracé_374" data-name="Tracé 374" d="M437.88-59.945h4.07v4.07h-4.07Z" transform="translate(-303.564 206.471)" fill="#3d3d3d"/>
          <path id="Tracé_375" data-name="Tracé 375" d="M451.149-484.556h4.07v4.07h-4.07Z" transform="translate(-312.763 500.837)" fill="#3d3d3d"/>
          <path id="Tracé_376" data-name="Tracé 376" d="M451.149-458.018h4.07v4.07h-4.07Z" transform="translate(-312.763 482.439)" fill="#3d3d3d"/>
          <path id="Tracé_377" data-name="Tracé 377" d="M451.149-444.749h4.07v8.14h-4.07Z" transform="translate(-312.763 473.24)" fill="#3d3d3d"/>
          <path id="Tracé_378" data-name="Tracé 378" d="M451.149-404.942h4.07v4.07h-4.07Z" transform="translate(-312.763 445.644)" fill="#3d3d3d"/>
          <path id="Tracé_379" data-name="Tracé 379" d="M451.149-351.865h4.07v4.07h-4.07Z" transform="translate(-312.763 408.848)" fill="#3d3d3d"/>
          <path id="Tracé_380" data-name="Tracé 380" d="M451.149-272.251h4.07v4.07h-4.07Z" transform="translate(-312.763 353.655)" fill="#3d3d3d"/>
          <path id="Tracé_381" data-name="Tracé 381" d="M451.149-245.713h4.07v4.07h-4.07Z" transform="translate(-312.763 335.257)" fill="#3d3d3d"/>
          <path id="Tracé_382" data-name="Tracé 382" d="M451.149-192.636h4.07v4.07h-4.07Z" transform="translate(-312.763 298.461)" fill="#3d3d3d"/>
          <path id="Tracé_383" data-name="Tracé 383" d="M451.149-166.1h4.07v4.07h-4.07Z" transform="translate(-312.763 280.063)" fill="#3d3d3d"/>
          <path id="Tracé_384" data-name="Tracé 384" d="M451.149-139.56h4.07v4.07h-4.07Z" transform="translate(-312.763 261.665)" fill="#3d3d3d"/>
          <path id="Tracé_385" data-name="Tracé 385" d="M451.149-59.945h4.07v4.07h-4.07Z" transform="translate(-312.763 206.471)" fill="#3d3d3d"/>
          <path id="Tracé_386" data-name="Tracé 386" d="M464.418-484.556h4.07v4.07h-4.07Z" transform="translate(-321.962 500.837)" fill="#3d3d3d"/>
          <path id="Tracé_387" data-name="Tracé 387" d="M464.418-404.942h4.07v4.07h-4.07Z" transform="translate(-321.962 445.644)" fill="#3d3d3d"/>
          <path id="Tracé_388" data-name="Tracé 388" d="M464.418-365.135h4.07v4.07h-4.07Z" transform="translate(-321.962 418.047)" fill="#3d3d3d"/>
          <path id="Tracé_389" data-name="Tracé 389" d="M464.418-325.327h4.07v20.351h-4.07Z" transform="translate(-321.962 390.45)" fill="#3d3d3d"/>
          <path id="Tracé_390" data-name="Tracé 390" d="M464.418-245.713h4.07v16.281h-4.07Z" transform="translate(-321.962 335.257)" fill="#3d3d3d"/>
          <path id="Tracé_391" data-name="Tracé 391" d="M464.418-179.367h4.07v4.07h-4.07Z" transform="translate(-321.962 289.262)" fill="#3d3d3d"/>
          <path id="Tracé_392" data-name="Tracé 392" d="M464.418-126.291h4.07v4.07h-4.07Z" transform="translate(-321.962 252.466)" fill="#3d3d3d"/>
          <path id="Tracé_393" data-name="Tracé 393" d="M464.418-59.945h4.07v4.07h-4.07Z" transform="translate(-321.962 206.471)" fill="#3d3d3d"/>
          <path id="Tracé_394" data-name="Tracé 394" d="M477.687-484.556h4.07v12.21h-4.07Z" transform="translate(-331.161 500.837)" fill="#3d3d3d"/>
          <path id="Tracé_395" data-name="Tracé 395" d="M477.687-444.749h4.07v16.281h-4.07Z" transform="translate(-331.161 473.24)" fill="#3d3d3d"/>
          <path id="Tracé_396" data-name="Tracé 396" d="M477.687-351.865h4.07v16.281h-4.07Z" transform="translate(-331.161 408.848)" fill="#3d3d3d"/>
          <path id="Tracé_397" data-name="Tracé 397" d="M477.687-258.982h4.07v20.351h-4.07Z" transform="translate(-331.161 344.456)" fill="#3d3d3d"/>
          <path id="Tracé_398" data-name="Tracé 398" d="M477.687-192.636h4.07v8.14h-4.07Z" transform="translate(-331.161 298.461)" fill="#3d3d3d"/>
          <path id="Tracé_399" data-name="Tracé 399" d="M477.687-152.829h4.07v4.07h-4.07Z" transform="translate(-331.161 270.864)" fill="#3d3d3d"/>
          <path id="Tracé_400" data-name="Tracé 400" d="M477.687-86.483h4.07v4.07h-4.07Z" transform="translate(-331.161 224.869)" fill="#3d3d3d"/>
        </g>
      </g>
    </g>
  </g>
</svg>
